G04 MADE WITH FRITZING*
G04 WWW.FRITZING.ORG*
G04 DOUBLE SIDED*
G04 HOLES PLATED*
G04 CONTOUR ON CENTER OF CONTOUR VECTOR*
%FSLAX26Y26*%
%MOIN*%
%ADD10C,0.005000*%
%ADD10C,0.008*%
G04 CONTOUR*
%FSLAX26Y26*%
%MOIN*%
D10*
D10*
X450000Y5078740D02*
X451000Y5078740D01*
X452000Y5078740D01*
X453000Y5078740D01*
X454000Y5078740D01*
X455000Y5078740D01*
X456000Y5078740D01*
X457000Y5078740D01*
X458000Y5078740D01*
X459000Y5078740D01*
X460000Y5078740D01*
X461000Y5078740D01*
X462000Y5078740D01*
X463000Y5078740D01*
X464000Y5078740D01*
X465000Y5078740D01*
X466000Y5078740D01*
X467000Y5078740D01*
X468000Y5078740D01*
X469000Y5078740D01*
X470000Y5078740D01*
X471000Y5078740D01*
X472000Y5078740D01*
X473000Y5078740D01*
X474000Y5078740D01*
X475000Y5078740D01*
X476000Y5078740D01*
X477000Y5078740D01*
X478000Y5078740D01*
X479000Y5078740D01*
X480000Y5078740D01*
X481000Y5078740D01*
X482000Y5078740D01*
X483000Y5078740D01*
X484000Y5078740D01*
X485000Y5078740D01*
X486000Y5078740D01*
X487000Y5078740D01*
X488000Y5078740D01*
X489000Y5078740D01*
X490000Y5078740D01*
X491000Y5078740D01*
X492000Y5078740D01*
X493000Y5078740D01*
X494000Y5078740D01*
X495000Y5078740D01*
X496000Y5078740D01*
X497000Y5078740D01*
X498000Y5078740D01*
X499000Y5078740D01*
X500000Y5078740D01*
X501000Y5078740D01*
X502000Y5078740D01*
X503000Y5078740D01*
X504000Y5078740D01*
X505000Y5078740D01*
X506000Y5078740D01*
X507000Y5078740D01*
X508000Y5078740D01*
X509000Y5078740D01*
X510000Y5078740D01*
X511000Y5078740D01*
X512000Y5078740D01*
X513000Y5078740D01*
X514000Y5078740D01*
X515000Y5078740D01*
X516000Y5078740D01*
X517000Y5078740D01*
X518000Y5078740D01*
X519000Y5078740D01*
X520000Y5078740D01*
X521000Y5078740D01*
X522000Y5078740D01*
X523000Y5078740D01*
X524000Y5078740D01*
X525000Y5078740D01*
X526000Y5078740D01*
X527000Y5078740D01*
X528000Y5078740D01*
X529000Y5078740D01*
X530000Y5078740D01*
X531000Y5078740D01*
X532000Y5078740D01*
X533000Y5078740D01*
X534000Y5078740D01*
X535000Y5078740D01*
X536000Y5078740D01*
X537000Y5078740D01*
X538000Y5078740D01*
X539000Y5078740D01*
X540000Y5078740D01*
X541000Y5078740D01*
X542000Y5078740D01*
X543000Y5078740D01*
X544000Y5078740D01*
X545000Y5078740D01*
X546000Y5078740D01*
X547000Y5078740D01*
X548000Y5078740D01*
X549000Y5078740D01*
X550000Y5078740D01*
X551000Y5078740D01*
X552000Y5078740D01*
X553000Y5078740D01*
X554000Y5078740D01*
X555000Y5078740D01*
X556000Y5078740D01*
X557000Y5078740D01*
X558000Y5078740D01*
X559000Y5078740D01*
X560000Y5078740D01*
X561000Y5078740D01*
X562000Y5078740D01*
X563000Y5078740D01*
X564000Y5078740D01*
X565000Y5078740D01*
X566000Y5078740D01*
X567000Y5078740D01*
X568000Y5078740D01*
X569000Y5078740D01*
X570000Y5078740D01*
X571000Y5078740D01*
X572000Y5078740D01*
X573000Y5078740D01*
X574000Y5078740D01*
X575000Y5078740D01*
X576000Y5078740D01*
X577000Y5078740D01*
X578000Y5078740D01*
X579000Y5078740D01*
X580000Y5078740D01*
X581000Y5078740D01*
X582000Y5078740D01*
X583000Y5078740D01*
X584000Y5078740D01*
X585000Y5078740D01*
X586000Y5078740D01*
X587000Y5078740D01*
X588000Y5078740D01*
X589000Y5078740D01*
X590000Y5078740D01*
X591000Y5078740D01*
X592000Y5078740D01*
X593000Y5078740D01*
X594000Y5078740D01*
X595000Y5078740D01*
X596000Y5078740D01*
X597000Y5078740D01*
X598000Y5078740D01*
X599000Y5078740D01*
X600000Y5078740D01*
X601000Y5078740D01*
X602000Y5078740D01*
X603000Y5078740D01*
X604000Y5078740D01*
X605000Y5078740D01*
X606000Y5078740D01*
X607000Y5078740D01*
X608000Y5078740D01*
X609000Y5078740D01*
X610000Y5078740D01*
X611000Y5078740D01*
X612000Y5078740D01*
X613000Y5078740D01*
X614000Y5078740D01*
X615000Y5078740D01*
X616000Y5078740D01*
X617000Y5078740D01*
X618000Y5078740D01*
X619000Y5078740D01*
X620000Y5078740D01*
X621000Y5078740D01*
X622000Y5078740D01*
X623000Y5078740D01*
X624000Y5078740D01*
X625000Y5078740D01*
X626000Y5078740D01*
X627000Y5078740D01*
X628000Y5078740D01*
X629000Y5078740D01*
X630000Y5078740D01*
X631000Y5078740D01*
X632000Y5078740D01*
X633000Y5078740D01*
X634000Y5078740D01*
X635000Y5078740D01*
X636000Y5078740D01*
X637000Y5078740D01*
X638000Y5078740D01*
X639000Y5078740D01*
X640000Y5078740D01*
X641000Y5078740D01*
X642000Y5078740D01*
X643000Y5078740D01*
X644000Y5078740D01*
X645000Y5078740D01*
X646000Y5078740D01*
X647000Y5078740D01*
X648000Y5078740D01*
X649000Y5078740D01*
X650000Y5078740D01*
X651000Y5078740D01*
X652000Y5078740D01*
X653000Y5078740D01*
X654000Y5078740D01*
X655000Y5078740D01*
X656000Y5078740D01*
X657000Y5078740D01*
X658000Y5078740D01*
X659000Y5078740D01*
X660000Y5078740D01*
X661000Y5078740D01*
X662000Y5078740D01*
X663000Y5078740D01*
X664000Y5078740D01*
X665000Y5078740D01*
X666000Y5078740D01*
X667000Y5078740D01*
X668000Y5078740D01*
X669000Y5078740D01*
X670000Y5078740D01*
X671000Y5078740D01*
X672000Y5078740D01*
X673000Y5078740D01*
X674000Y5078740D01*
X675000Y5078740D01*
X676000Y5078740D01*
X677000Y5078740D01*
X678000Y5078740D01*
X679000Y5078740D01*
X680000Y5078740D01*
X681000Y5078740D01*
X682000Y5078740D01*
X683000Y5078740D01*
X684000Y5078740D01*
X685000Y5078740D01*
X686000Y5078740D01*
X687000Y5078740D01*
X688000Y5078740D01*
X689000Y5078740D01*
X690000Y5078740D01*
X691000Y5078740D01*
X692000Y5078740D01*
X693000Y5078740D01*
X694000Y5078740D01*
X695000Y5078740D01*
X696000Y5078740D01*
X697000Y5078740D01*
X698000Y5078740D01*
X699000Y5078740D01*
X700000Y5078740D01*
X701000Y5078740D01*
X702000Y5078740D01*
X703000Y5078740D01*
X704000Y5078740D01*
X705000Y5078740D01*
X706000Y5078740D01*
X707000Y5078740D01*
X708000Y5078740D01*
X709000Y5078740D01*
X710000Y5078740D01*
X711000Y5078740D01*
X712000Y5078740D01*
X713000Y5078740D01*
X714000Y5078740D01*
X715000Y5078740D01*
X716000Y5078740D01*
X717000Y5078740D01*
X718000Y5078740D01*
X719000Y5078740D01*
X720000Y5078740D01*
X721000Y5078740D01*
X722000Y5078740D01*
X723000Y5078740D01*
X724000Y5078740D01*
X725000Y5078740D01*
X726000Y5078740D01*
X727000Y5078740D01*
X728000Y5078740D01*
X729000Y5078740D01*
X730000Y5078740D01*
X731000Y5078740D01*
X732000Y5078740D01*
X733000Y5078740D01*
X734000Y5078740D01*
X735000Y5078740D01*
X736000Y5078740D01*
X737000Y5078740D01*
X738000Y5078740D01*
X739000Y5078740D01*
X740000Y5078740D01*
X741000Y5078740D01*
X742000Y5078740D01*
X743000Y5078740D01*
X744000Y5078740D01*
X745000Y5078740D01*
X746000Y5078740D01*
X747000Y5078740D01*
X748000Y5078740D01*
X749000Y5078740D01*
X750000Y5078740D01*
X751000Y5078740D01*
X752000Y5078740D01*
X753000Y5078740D01*
X754000Y5078740D01*
X755000Y5078740D01*
X756000Y5078740D01*
X757000Y5078740D01*
X758000Y5078740D01*
X759000Y5078740D01*
X760000Y5078740D01*
X761000Y5078740D01*
X762000Y5078740D01*
X763000Y5078740D01*
X764000Y5078740D01*
X765000Y5078740D01*
X766000Y5078740D01*
X767000Y5078740D01*
X768000Y5078740D01*
X769000Y5078740D01*
X770000Y5078740D01*
X771000Y5078740D01*
X772000Y5078740D01*
X773000Y5078740D01*
X774000Y5078740D01*
X775000Y5078740D01*
X776000Y5078740D01*
X777000Y5078740D01*
X778000Y5078740D01*
X779000Y5078740D01*
X780000Y5078740D01*
X781000Y5078740D01*
X782000Y5078740D01*
X783000Y5078740D01*
X784000Y5078740D01*
X785000Y5078740D01*
X786000Y5078740D01*
X787000Y5078740D01*
X788000Y5078740D01*
X789000Y5078740D01*
X790000Y5078740D01*
X791000Y5078740D01*
X792000Y5078740D01*
X793000Y5078740D01*
X794000Y5078740D01*
X795000Y5078740D01*
X796000Y5078740D01*
X797000Y5078740D01*
X798000Y5078740D01*
X799000Y5078740D01*
X800000Y5078740D01*
X801000Y5078740D01*
X802000Y5078740D01*
X803000Y5078740D01*
X804000Y5078740D01*
X805000Y5078740D01*
X806000Y5078740D01*
X807000Y5078740D01*
X808000Y5078740D01*
X809000Y5078740D01*
X810000Y5078740D01*
X811000Y5078740D01*
X812000Y5078740D01*
X813000Y5078740D01*
X814000Y5078740D01*
X815000Y5078740D01*
X816000Y5078740D01*
X817000Y5078740D01*
X818000Y5078740D01*
X819000Y5078740D01*
X820000Y5078740D01*
X821000Y5078740D01*
X822000Y5078740D01*
X823000Y5078740D01*
X824000Y5078740D01*
X825000Y5078740D01*
X826000Y5078740D01*
X827000Y5078740D01*
X828000Y5078740D01*
X829000Y5078740D01*
X830000Y5078740D01*
X831000Y5078740D01*
X832000Y5078740D01*
X833000Y5078740D01*
X834000Y5078740D01*
X835000Y5078740D01*
X836000Y5078740D01*
X837000Y5078740D01*
X838000Y5078740D01*
X839000Y5078740D01*
X840000Y5078740D01*
X841000Y5078740D01*
X842000Y5078740D01*
X843000Y5078740D01*
X844000Y5078740D01*
X845000Y5078740D01*
X846000Y5078740D01*
X847000Y5078740D01*
X848000Y5078740D01*
X849000Y5078740D01*
X850000Y5078740D01*
X851000Y5078740D01*
X852000Y5078740D01*
X853000Y5078740D01*
X854000Y5078740D01*
X855000Y5078740D01*
X856000Y5078740D01*
X857000Y5078740D01*
X858000Y5078740D01*
X859000Y5078740D01*
X860000Y5078740D01*
X861000Y5078740D01*
X862000Y5078740D01*
X863000Y5078740D01*
X864000Y5078740D01*
X865000Y5078740D01*
X866000Y5078740D01*
X867000Y5078740D01*
X868000Y5078740D01*
X869000Y5078740D01*
X870000Y5078740D01*
X871000Y5078740D01*
X872000Y5078740D01*
X873000Y5078740D01*
X874000Y5078740D01*
X875000Y5078740D01*
X876000Y5078740D01*
X877000Y5078740D01*
X878000Y5078740D01*
X879000Y5078740D01*
X880000Y5078740D01*
X881000Y5078740D01*
X882000Y5078740D01*
X883000Y5078740D01*
X884000Y5078740D01*
X885000Y5078740D01*
X886000Y5078740D01*
X887000Y5078740D01*
X888000Y5078740D01*
X889000Y5078740D01*
X890000Y5078740D01*
X891000Y5078740D01*
X892000Y5078740D01*
X893000Y5078740D01*
X894000Y5078740D01*
X895000Y5078740D01*
X896000Y5078740D01*
X897000Y5078740D01*
X898000Y5078740D01*
X899000Y5078740D01*
X900000Y5078740D01*
X901000Y5078740D01*
X902000Y5078740D01*
X903000Y5078740D01*
X904000Y5078740D01*
X905000Y5078740D01*
X906000Y5078740D01*
X907000Y5078740D01*
X908000Y5078740D01*
X909000Y5078740D01*
X910000Y5078740D01*
X911000Y5078740D01*
X912000Y5078740D01*
X913000Y5078740D01*
X914000Y5078740D01*
X915000Y5078740D01*
X916000Y5078740D01*
X917000Y5078740D01*
X918000Y5078740D01*
X919000Y5078740D01*
X920000Y5078740D01*
X921000Y5078740D01*
X922000Y5078740D01*
X923000Y5078740D01*
X924000Y5078740D01*
X925000Y5078740D01*
X926000Y5078740D01*
X927000Y5078740D01*
X928000Y5078740D01*
X929000Y5078740D01*
X930000Y5078740D01*
X931000Y5078740D01*
X932000Y5078740D01*
X933000Y5078740D01*
X934000Y5078740D01*
X935000Y5078740D01*
X936000Y5078740D01*
X937000Y5078740D01*
X938000Y5078740D01*
X939000Y5078740D01*
X940000Y5078740D01*
X941000Y5078740D01*
X942000Y5078740D01*
X943000Y5078740D01*
X944000Y5078740D01*
X945000Y5078740D01*
X946000Y5078740D01*
X947000Y5078740D01*
X948000Y5078740D01*
X949000Y5078740D01*
X950000Y5078740D01*
X951000Y5078740D01*
X952000Y5078740D01*
X953000Y5078740D01*
X954000Y5078740D01*
X955000Y5078740D01*
X956000Y5078740D01*
X957000Y5078740D01*
X958000Y5078740D01*
X959000Y5078740D01*
X960000Y5078740D01*
X961000Y5078740D01*
X962000Y5078740D01*
X963000Y5078740D01*
X964000Y5078740D01*
X965000Y5078740D01*
X966000Y5078740D01*
X967000Y5078740D01*
X968000Y5078740D01*
X969000Y5078740D01*
X970000Y5078740D01*
X971000Y5078740D01*
X972000Y5078740D01*
X973000Y5078740D01*
X974000Y5078740D01*
X975000Y5078740D01*
X976000Y5078740D01*
X977000Y5078740D01*
X978000Y5078740D01*
X979000Y5078740D01*
X980000Y5078740D01*
X981000Y5078740D01*
X982000Y5078740D01*
X983000Y5078740D01*
X984000Y5078740D01*
X985000Y5078740D01*
X986000Y5078740D01*
X987000Y5078740D01*
X988000Y5078740D01*
X989000Y5078740D01*
X990000Y5078740D01*
X991000Y5078740D01*
X992000Y5078740D01*
X993000Y5078740D01*
X994000Y5078740D01*
X995000Y5078740D01*
X996000Y5078740D01*
X997000Y5078740D01*
X998000Y5078740D01*
X999000Y5078740D01*
X1000000Y5078740D01*
X1001000Y5078740D01*
X1002000Y5078740D01*
X1003000Y5078740D01*
X1004000Y5078740D01*
X1005000Y5078740D01*
X1006000Y5078740D01*
X1007000Y5078740D01*
X1008000Y5078740D01*
X1009000Y5078740D01*
X1010000Y5078740D01*
X1011000Y5078740D01*
X1012000Y5078740D01*
X1013000Y5078740D01*
X1014000Y5078740D01*
X1015000Y5078740D01*
X1016000Y5078740D01*
X1017000Y5078740D01*
X1018000Y5078740D01*
X1019000Y5078740D01*
X1020000Y5078740D01*
X1021000Y5078740D01*
X1022000Y5078740D01*
X1023000Y5078740D01*
X1024000Y5078740D01*
X1025000Y5078740D01*
X1026000Y5078740D01*
X1027000Y5078740D01*
X1028000Y5078740D01*
X1029000Y5078740D01*
X1030000Y5078740D01*
X1031000Y5078740D01*
X1032000Y5078740D01*
X1033000Y5078740D01*
X1034000Y5078740D01*
X1035000Y5078740D01*
X1036000Y5078740D01*
X1037000Y5078740D01*
X1038000Y5078740D01*
X1039000Y5078740D01*
X1040000Y5078740D01*
X1041000Y5078740D01*
X1042000Y5078740D01*
X1043000Y5078740D01*
X1044000Y5078740D01*
X1045000Y5078740D01*
X1046000Y5078740D01*
X1047000Y5078740D01*
X1048000Y5078740D01*
X1049000Y5078740D01*
X1050000Y5078740D01*
X1051000Y5078740D01*
X1052000Y5078740D01*
X1053000Y5078740D01*
X1054000Y5078740D01*
X1055000Y5078740D01*
X1056000Y5078740D01*
X1057000Y5078740D01*
X1058000Y5078740D01*
X1059000Y5078740D01*
X1060000Y5078740D01*
X1061000Y5078740D01*
X1062000Y5078740D01*
X1063000Y5078740D01*
X1064000Y5078740D01*
X1065000Y5078740D01*
X1066000Y5078740D01*
X1067000Y5078740D01*
X1068000Y5078740D01*
X1069000Y5078740D01*
X1070000Y5078740D01*
X1071000Y5078740D01*
X1072000Y5078740D01*
X1073000Y5078740D01*
X1074000Y5078740D01*
X1075000Y5078740D01*
X1076000Y5078740D01*
X1077000Y5078740D01*
X1078000Y5078740D01*
X1079000Y5078740D01*
X1080000Y5078740D01*
X1081000Y5078740D01*
X1082000Y5078740D01*
X1083000Y5078740D01*
X1084000Y5078740D01*
X1085000Y5078740D01*
X1086000Y5078740D01*
X1087000Y5078740D01*
X1088000Y5078740D01*
X1089000Y5078740D01*
X1090000Y5078740D01*
X1091000Y5078740D01*
X1092000Y5078740D01*
X1093000Y5078740D01*
X1094000Y5078740D01*
X1095000Y5078740D01*
X1096000Y5078740D01*
X1097000Y5078740D01*
X1098000Y5078740D01*
X1099000Y5078740D01*
X1100000Y5078740D01*
X1101000Y5078740D01*
X1102000Y5078740D01*
X1103000Y5078740D01*
X1104000Y5078740D01*
X1105000Y5078740D01*
X1106000Y5078740D01*
X1107000Y5078740D01*
X1108000Y5078740D01*
X1109000Y5078740D01*
X1110000Y5078740D01*
X1111000Y5078740D01*
X1112000Y5078740D01*
X1113000Y5078740D01*
X1114000Y5078740D01*
X1115000Y5078740D01*
X1116000Y5078740D01*
X1117000Y5078740D01*
X1118000Y5078740D01*
X1119000Y5078740D01*
X1120000Y5078740D01*
X1121000Y5078740D01*
X1122000Y5078740D01*
X1123000Y5078740D01*
X1124000Y5078740D01*
X1125000Y5078740D01*
X1126000Y5078740D01*
X1127000Y5078740D01*
X1128000Y5078740D01*
X1129000Y5078740D01*
X1130000Y5078740D01*
X1131000Y5078740D01*
X1132000Y5078740D01*
X1133000Y5078740D01*
X1134000Y5078740D01*
X1135000Y5078740D01*
X1136000Y5078740D01*
X1137000Y5078740D01*
X1138000Y5078740D01*
X1139000Y5078740D01*
X1140000Y5078740D01*
X1141000Y5078740D01*
X1142000Y5078740D01*
X1143000Y5078740D01*
X1144000Y5078740D01*
X1145000Y5078740D01*
X1146000Y5078740D01*
X1147000Y5078740D01*
X1148000Y5078740D01*
X1149000Y5078740D01*
X1150000Y5078740D01*
X1151000Y5078740D01*
X1152000Y5078740D01*
X1153000Y5078740D01*
X1154000Y5078740D01*
X1155000Y5078740D01*
X1156000Y5078740D01*
X1157000Y5078740D01*
X1158000Y5078740D01*
X1159000Y5078740D01*
X1160000Y5078740D01*
X1161000Y5078740D01*
X1162000Y5078740D01*
X1163000Y5078740D01*
X1164000Y5078740D01*
X1165000Y5078740D01*
X1166000Y5078740D01*
X1167000Y5078740D01*
X1168000Y5078740D01*
X1169000Y5078740D01*
X1170000Y5078740D01*
X1171000Y5078740D01*
X1172000Y5078740D01*
X1173000Y5078740D01*
X1174000Y5078740D01*
X1175000Y5078740D01*
X1176000Y5078740D01*
X1177000Y5078740D01*
X1178000Y5078740D01*
X1179000Y5078740D01*
X1180000Y5078740D01*
X1181000Y5078740D01*
X1182000Y5078740D01*
X1183000Y5078740D01*
X1184000Y5078740D01*
X1185000Y5078740D01*
X1186000Y5078740D01*
X1187000Y5078740D01*
X1188000Y5078740D01*
X1189000Y5078740D01*
X1190000Y5078740D01*
X1191000Y5078740D01*
X1192000Y5078740D01*
X1193000Y5078740D01*
X1194000Y5078740D01*
X1195000Y5078740D01*
X1196000Y5078740D01*
X1197000Y5078740D01*
X1198000Y5078740D01*
X1199000Y5078740D01*
X1200000Y5078740D01*
X1201000Y5078740D01*
X1202000Y5078740D01*
X1203000Y5078740D01*
X1204000Y5078740D01*
X1205000Y5078740D01*
X1206000Y5078740D01*
X1207000Y5078740D01*
X1208000Y5078740D01*
X1209000Y5078740D01*
X1210000Y5078740D01*
X1211000Y5078740D01*
X1212000Y5078740D01*
X1213000Y5078740D01*
X1214000Y5078740D01*
X1215000Y5078740D01*
X1216000Y5078740D01*
X1217000Y5078740D01*
X1218000Y5078740D01*
X1219000Y5078740D01*
X1220000Y5078740D01*
X1221000Y5078740D01*
X1222000Y5078740D01*
X1223000Y5078740D01*
X1224000Y5078740D01*
X1225000Y5078740D01*
X1226000Y5078740D01*
X1227000Y5078740D01*
X1228000Y5078740D01*
X1229000Y5078740D01*
X1230000Y5078740D01*
X1231000Y5078740D01*
X1232000Y5078740D01*
X1233000Y5078740D01*
X1234000Y5078740D01*
X1235000Y5078740D01*
X1236000Y5078740D01*
X1237000Y5078740D01*
X1238000Y5078740D01*
X1239000Y5078740D01*
X1240000Y5078740D01*
X1241000Y5078740D01*
X1242000Y5078740D01*
X1243000Y5078740D01*
X1244000Y5078740D01*
X1245000Y5078740D01*
X1246000Y5078740D01*
X1247000Y5078740D01*
X1248000Y5078740D01*
X1249000Y5078740D01*
X1250000Y5078740D01*
X1251000Y5078740D01*
X1252000Y5078740D01*
X1253000Y5078740D01*
X1254000Y5078740D01*
X1255000Y5078740D01*
X1256000Y5078740D01*
X1257000Y5078740D01*
X1258000Y5078740D01*
X1259000Y5078740D01*
X1260000Y5078740D01*
X1261000Y5078740D01*
X1262000Y5078740D01*
X1263000Y5078740D01*
X1264000Y5078740D01*
X1265000Y5078740D01*
X1266000Y5078740D01*
X1267000Y5078740D01*
X1268000Y5078740D01*
X1269000Y5078740D01*
X1270000Y5078740D01*
X1271000Y5078740D01*
X1272000Y5078740D01*
X1273000Y5078740D01*
X1274000Y5078740D01*
X1275000Y5078740D01*
X1276000Y5078740D01*
X1277000Y5078740D01*
X1278000Y5078740D01*
X1279000Y5078740D01*
X1280000Y5078740D01*
X1281000Y5078740D01*
X1282000Y5078740D01*
X1283000Y5078740D01*
X1284000Y5078740D01*
X1285000Y5078740D01*
X1286000Y5078740D01*
X1287000Y5078740D01*
X1288000Y5078740D01*
X1289000Y5078740D01*
X1290000Y5078740D01*
X1291000Y5078740D01*
X1292000Y5078740D01*
X1293000Y5078740D01*
X1294000Y5078740D01*
X1295000Y5078740D01*
X1296000Y5078740D01*
X1297000Y5078740D01*
X1298000Y5078740D01*
X1299000Y5078740D01*
X1300000Y5078740D01*
X1301000Y5078740D01*
X1302000Y5078740D01*
X1303000Y5078740D01*
X1304000Y5078740D01*
X1305000Y5078740D01*
X1306000Y5078740D01*
X1307000Y5078740D01*
X1308000Y5078740D01*
X1309000Y5078740D01*
X1310000Y5078740D01*
X1311000Y5078740D01*
X1312000Y5078740D01*
X1313000Y5078740D01*
X1314000Y5078740D01*
X1315000Y5078740D01*
X1316000Y5078740D01*
X1317000Y5078740D01*
X1318000Y5078740D01*
X1319000Y5078740D01*
X1320000Y5078740D01*
X1321000Y5078740D01*
X1322000Y5078740D01*
X1323000Y5078740D01*
X1324000Y5078740D01*
X1325000Y5078740D01*
X1326000Y5078740D01*
X1327000Y5078740D01*
X1328000Y5078740D01*
X1329000Y5078740D01*
X1330000Y5078740D01*
X1331000Y5078740D01*
X1332000Y5078740D01*
X1333000Y5078740D01*
X1334000Y5078740D01*
X1335000Y5078740D01*
X1336000Y5078740D01*
X1337000Y5078740D01*
X1338000Y5078740D01*
X1339000Y5078740D01*
X1340000Y5078740D01*
X1341000Y5078740D01*
X1342000Y5078740D01*
X1343000Y5078740D01*
X1344000Y5078740D01*
X1345000Y5078740D01*
X1346000Y5078740D01*
X1347000Y5078740D01*
X1348000Y5078740D01*
X1349000Y5078740D01*
X1350000Y5078740D01*
X1351000Y5078740D01*
X1352000Y5078740D01*
X1353000Y5078740D01*
X1354000Y5078740D01*
X1355000Y5078740D01*
X1356000Y5078740D01*
X1357000Y5078740D01*
X1358000Y5078740D01*
X1359000Y5078740D01*
X1360000Y5078740D01*
X1361000Y5078740D01*
X1362000Y5078740D01*
X1363000Y5078740D01*
X1364000Y5078740D01*
X1365000Y5078740D01*
X1366000Y5078740D01*
X1367000Y5078740D01*
X1368000Y5078740D01*
X1369000Y5078740D01*
X1370000Y5078740D01*
X1371000Y5078740D01*
X1372000Y5078740D01*
X1373000Y5078740D01*
X1374000Y5078740D01*
X1375000Y5078740D01*
X1376000Y5078740D01*
X1377000Y5078740D01*
X1378000Y5078740D01*
X1379000Y5078740D01*
X1380000Y5078740D01*
X1381000Y5078740D01*
X1382000Y5078740D01*
X1383000Y5078740D01*
X1384000Y5078740D01*
X1385000Y5078740D01*
X1386000Y5078740D01*
X1387000Y5078740D01*
X1388000Y5078740D01*
X1389000Y5078740D01*
X1390000Y5078740D01*
X1391000Y5078740D01*
X1392000Y5078740D01*
X1393000Y5078740D01*
X1394000Y5078740D01*
X1395000Y5078740D01*
X1396000Y5078740D01*
X1397000Y5078740D01*
X1398000Y5078740D01*
X1399000Y5078740D01*
X1400000Y5078740D01*
X1401000Y5078740D01*
X1402000Y5078740D01*
X1403000Y5078740D01*
X1404000Y5078740D01*
X1405000Y5078740D01*
X1406000Y5078740D01*
X1407000Y5078740D01*
X1408000Y5078740D01*
X1409000Y5078740D01*
X1410000Y5078740D01*
X1411000Y5078740D01*
X1412000Y5078740D01*
X1413000Y5078740D01*
X1414000Y5078740D01*
X1415000Y5078740D01*
X1416000Y5078740D01*
X1417000Y5078740D01*
X1418000Y5078740D01*
X1419000Y5078740D01*
X1420000Y5078740D01*
X1421000Y5078740D01*
X1422000Y5078740D01*
X1423000Y5078740D01*
X1424000Y5078740D01*
X1425000Y5078740D01*
X1426000Y5078740D01*
X1427000Y5078740D01*
X1428000Y5078740D01*
X1429000Y5078740D01*
X1430000Y5078740D01*
X1431000Y5078740D01*
X1432000Y5078740D01*
X1433000Y5078740D01*
X1434000Y5078740D01*
X1435000Y5078740D01*
X1436000Y5078740D01*
X1437000Y5078740D01*
X1438000Y5078740D01*
X1439000Y5078740D01*
X1440000Y5078740D01*
X1441000Y5078740D01*
X1442000Y5078740D01*
X1443000Y5078740D01*
X1444000Y5078740D01*
X1445000Y5078740D01*
X1446000Y5078740D01*
X1447000Y5078740D01*
X1448000Y5078740D01*
X1449000Y5078740D01*
X1450000Y5078740D01*
X1451000Y5078740D01*
X1452000Y5078740D01*
X1453000Y5078740D01*
X1454000Y5078740D01*
X1455000Y5078740D01*
X1456000Y5078740D01*
X1457000Y5078740D01*
X1458000Y5078740D01*
X1459000Y5078740D01*
X1460000Y5078740D01*
X1461000Y5078740D01*
X1462000Y5078740D01*
X1463000Y5078740D01*
X1464000Y5078740D01*
X1465000Y5078740D01*
X1466000Y5078740D01*
X1467000Y5078740D01*
X1468000Y5078740D01*
X1469000Y5078740D01*
X1470000Y5078740D01*
X1471000Y5078740D01*
X1472000Y5078740D01*
X1473000Y5078740D01*
X1474000Y5078740D01*
X1475000Y5078740D01*
X1476000Y5078740D01*
X1477000Y5078740D01*
X1478000Y5078740D01*
X1479000Y5078740D01*
X1480000Y5078740D01*
X1481000Y5078740D01*
X1482000Y5078740D01*
X1483000Y5078740D01*
X1484000Y5078740D01*
X1485000Y5078740D01*
X1486000Y5078740D01*
X1487000Y5078740D01*
X1488000Y5078740D01*
X1489000Y5078740D01*
X1490000Y5078740D01*
X1491000Y5078740D01*
X1492000Y5078740D01*
X1493000Y5078740D01*
X1494000Y5078740D01*
X1495000Y5078740D01*
X1496000Y5078740D01*
X1497000Y5078740D01*
X1498000Y5078740D01*
X1499000Y5078740D01*
X1500000Y5078740D01*
X1501000Y5078740D01*
X1502000Y5078740D01*
X1503000Y5078740D01*
X1504000Y5078740D01*
X1505000Y5078740D01*
X1506000Y5078740D01*
X1507000Y5078740D01*
X1508000Y5078740D01*
X1509000Y5078740D01*
X1510000Y5078740D01*
X1511000Y5078740D01*
X1512000Y5078740D01*
X1513000Y5078740D01*
X1514000Y5078740D01*
X1515000Y5078740D01*
X1516000Y5078740D01*
X1517000Y5078740D01*
X1518000Y5078740D01*
X1519000Y5078740D01*
X1520000Y5078740D01*
X1521000Y5078740D01*
X1522000Y5078740D01*
X1523000Y5078740D01*
X1524000Y5078740D01*
X1525000Y5078740D01*
X1526000Y5078740D01*
X1527000Y5078740D01*
X1528000Y5078740D01*
X1529000Y5078740D01*
X1530000Y5078740D01*
X1531000Y5078740D01*
X1532000Y5078740D01*
X1533000Y5078740D01*
X1534000Y5078740D01*
X1535000Y5078740D01*
X1536000Y5078740D01*
X1537000Y5078740D01*
X1538000Y5078740D01*
X1539000Y5078740D01*
X1540000Y5078740D01*
X1541000Y5078740D01*
X1542000Y5078740D01*
X1543000Y5078740D01*
X1544000Y5078740D01*
X1545000Y5078740D01*
X1546000Y5078740D01*
X1547000Y5078740D01*
X1548000Y5078740D01*
X1549000Y5078740D01*
X1550000Y5078740D01*
X1551000Y5078740D01*
X1552000Y5078740D01*
X1553000Y5078740D01*
X1554000Y5078740D01*
X1555000Y5077740D01*
X1556000Y5077740D01*
X1557000Y5077740D01*
X1558000Y5077740D01*
X1559000Y5077740D01*
X1560000Y5076740D01*
X1561000Y5076740D01*
X1562000Y5075740D01*
X1563000Y5075740D01*
X1564000Y5074740D01*
X1565000Y5074740D01*
X1566000Y5073740D01*
X1566000Y5072740D01*
X1567000Y5071740D01*
X1568000Y5070740D01*
X1568000Y5069740D01*
X1569000Y5068740D01*
X1569000Y5067740D01*
X1570000Y5066740D01*
X1570000Y5064740D01*
X1571000Y5063740D01*
X1571000Y5058740D01*
X1572000Y5057740D01*
X1572000Y5047740D01*
X1573000Y5046740D01*
X1573000Y24740D01*
X1572000Y23740D01*
X1572000Y17740D01*
X1571000Y16740D01*
X1571000Y14740D01*
X1570000Y13740D01*
X1570000Y12740D01*
X1569000Y11740D01*
X1569000Y10740D01*
X1568000Y9740D01*
X1567000Y8740D01*
X1566000Y7740D01*
X1565000Y7740D01*
X1564000Y6740D01*
X1563000Y6740D01*
X1562000Y5740D01*
X1561000Y5740D01*
X1560000Y4740D01*
X1559000Y4740D01*
X1558000Y4740D01*
X1557000Y4740D01*
X1556000Y3740D01*
X1555000Y3740D01*
X1554000Y3740D01*
X1553000Y3740D01*
X1552000Y3740D01*
X1551000Y3740D01*
X1550000Y3740D01*
X1549000Y3740D01*
X1548000Y2740D01*
X1547000Y2740D01*
X1546000Y2740D01*
X1545000Y2740D01*
X1544000Y2740D01*
X1543000Y2740D01*
X1542000Y2740D01*
X1541000Y2740D01*
X1540000Y2740D01*
X1539000Y2740D01*
X1538000Y2740D01*
X1537000Y2740D01*
X1536000Y2740D01*
X1535000Y2740D01*
X1534000Y2740D01*
X1533000Y2740D01*
X1532000Y2740D01*
X1531000Y2740D01*
X1530000Y2740D01*
X1529000Y2740D01*
X1528000Y2740D01*
X1527000Y2740D01*
X1526000Y2740D01*
X1525000Y2740D01*
X1524000Y2740D01*
X1523000Y2740D01*
X1522000Y2740D01*
X1521000Y2740D01*
X1520000Y2740D01*
X1519000Y2740D01*
X1518000Y2740D01*
X1517000Y2740D01*
X1516000Y2740D01*
X1515000Y2740D01*
X1514000Y2740D01*
X1513000Y2740D01*
X1512000Y2740D01*
X1511000Y2740D01*
X1510000Y2740D01*
X1509000Y2740D01*
X1508000Y2740D01*
X1507000Y2740D01*
X1506000Y2740D01*
X1505000Y2740D01*
X1504000Y2740D01*
X1503000Y2740D01*
X1502000Y2740D01*
X1501000Y2740D01*
X1500000Y2740D01*
X1499000Y2740D01*
X1498000Y2740D01*
X1497000Y2740D01*
X1496000Y2740D01*
X1495000Y2740D01*
X1494000Y2740D01*
X1493000Y2740D01*
X1492000Y2740D01*
X1491000Y2740D01*
X1490000Y2740D01*
X1489000Y2740D01*
X1488000Y2740D01*
X1487000Y2740D01*
X1486000Y2740D01*
X1485000Y2740D01*
X1484000Y2740D01*
X1483000Y2740D01*
X1482000Y2740D01*
X1481000Y2740D01*
X1480000Y2740D01*
X1479000Y2740D01*
X1478000Y2740D01*
X1477000Y2740D01*
X1476000Y2740D01*
X1475000Y2740D01*
X1474000Y2740D01*
X1473000Y2740D01*
X1472000Y2740D01*
X1471000Y2740D01*
X1470000Y2740D01*
X1469000Y2740D01*
X1468000Y2740D01*
X1467000Y2740D01*
X1466000Y2740D01*
X1465000Y2740D01*
X1464000Y2740D01*
X1463000Y2740D01*
X1462000Y2740D01*
X1461000Y2740D01*
X1460000Y2740D01*
X1459000Y2740D01*
X1458000Y2740D01*
X1457000Y2740D01*
X1456000Y2740D01*
X1455000Y2740D01*
X1454000Y2740D01*
X1453000Y2740D01*
X1452000Y2740D01*
X1451000Y2740D01*
X1450000Y2740D01*
X1449000Y2740D01*
X1448000Y2740D01*
X1447000Y2740D01*
X1446000Y2740D01*
X1445000Y2740D01*
X1444000Y2740D01*
X1443000Y2740D01*
X1442000Y2740D01*
X1441000Y2740D01*
X1440000Y2740D01*
X1439000Y2740D01*
X1438000Y2740D01*
X1437000Y2740D01*
X1436000Y2740D01*
X1435000Y2740D01*
X1434000Y2740D01*
X1433000Y2740D01*
X1432000Y2740D01*
X1431000Y2740D01*
X1430000Y2740D01*
X1429000Y2740D01*
X1428000Y2740D01*
X1427000Y2740D01*
X1426000Y2740D01*
X1425000Y2740D01*
X1424000Y2740D01*
X1423000Y2740D01*
X1422000Y2740D01*
X1421000Y2740D01*
X1420000Y2740D01*
X1419000Y2740D01*
X1418000Y2740D01*
X1417000Y2740D01*
X1416000Y2740D01*
X1415000Y2740D01*
X1414000Y2740D01*
X1413000Y2740D01*
X1412000Y2740D01*
X1411000Y2740D01*
X1410000Y2740D01*
X1409000Y2740D01*
X1408000Y2740D01*
X1407000Y2740D01*
X1406000Y2740D01*
X1405000Y2740D01*
X1404000Y2740D01*
X1403000Y2740D01*
X1402000Y2740D01*
X1401000Y2740D01*
X1400000Y2740D01*
X1399000Y2740D01*
X1398000Y2740D01*
X1397000Y2740D01*
X1396000Y2740D01*
X1395000Y2740D01*
X1394000Y2740D01*
X1393000Y2740D01*
X1392000Y2740D01*
X1391000Y2740D01*
X1390000Y2740D01*
X1389000Y2740D01*
X1388000Y2740D01*
X1387000Y2740D01*
X1386000Y2740D01*
X1385000Y2740D01*
X1384000Y2740D01*
X1383000Y2740D01*
X1382000Y2740D01*
X1381000Y2740D01*
X1380000Y2740D01*
X1379000Y2740D01*
X1378000Y2740D01*
X1377000Y2740D01*
X1376000Y2740D01*
X1375000Y2740D01*
X1374000Y2740D01*
X1373000Y2740D01*
X1372000Y2740D01*
X1371000Y2740D01*
X1370000Y2740D01*
X1369000Y2740D01*
X1368000Y2740D01*
X1367000Y2740D01*
X1366000Y2740D01*
X1365000Y2740D01*
X1364000Y2740D01*
X1363000Y2740D01*
X1362000Y2740D01*
X1361000Y2740D01*
X1360000Y2740D01*
X1359000Y2740D01*
X1358000Y2740D01*
X1357000Y2740D01*
X1356000Y2740D01*
X1355000Y2740D01*
X1354000Y2740D01*
X1353000Y2740D01*
X1352000Y2740D01*
X1351000Y2740D01*
X1350000Y2740D01*
X1349000Y2740D01*
X1348000Y2740D01*
X1347000Y2740D01*
X1346000Y2740D01*
X1345000Y2740D01*
X1344000Y2740D01*
X1343000Y2740D01*
X1342000Y2740D01*
X1341000Y2740D01*
X1340000Y2740D01*
X1339000Y2740D01*
X1338000Y2740D01*
X1337000Y2740D01*
X1336000Y2740D01*
X1335000Y2740D01*
X1334000Y2740D01*
X1333000Y2740D01*
X1332000Y2740D01*
X1331000Y2740D01*
X1330000Y2740D01*
X1329000Y2740D01*
X1328000Y2740D01*
X1327000Y2740D01*
X1326000Y2740D01*
X1325000Y2740D01*
X1324000Y2740D01*
X1323000Y2740D01*
X1322000Y2740D01*
X1321000Y2740D01*
X1320000Y2740D01*
X1319000Y2740D01*
X1318000Y2740D01*
X1317000Y2740D01*
X1316000Y2740D01*
X1315000Y2740D01*
X1314000Y2740D01*
X1313000Y2740D01*
X1312000Y2740D01*
X1311000Y2740D01*
X1310000Y2740D01*
X1309000Y2740D01*
X1308000Y2740D01*
X1307000Y2740D01*
X1306000Y2740D01*
X1305000Y2740D01*
X1304000Y2740D01*
X1303000Y2740D01*
X1302000Y2740D01*
X1301000Y2740D01*
X1300000Y2740D01*
X1299000Y2740D01*
X1298000Y2740D01*
X1297000Y2740D01*
X1296000Y2740D01*
X1295000Y2740D01*
X1294000Y2740D01*
X1293000Y2740D01*
X1292000Y2740D01*
X1291000Y2740D01*
X1290000Y2740D01*
X1289000Y2740D01*
X1288000Y2740D01*
X1287000Y2740D01*
X1286000Y2740D01*
X1285000Y2740D01*
X1284000Y2740D01*
X1283000Y2740D01*
X1282000Y2740D01*
X1281000Y2740D01*
X1280000Y2740D01*
X1279000Y2740D01*
X1278000Y2740D01*
X1277000Y2740D01*
X1276000Y2740D01*
X1275000Y2740D01*
X1274000Y2740D01*
X1273000Y2740D01*
X1272000Y2740D01*
X1271000Y2740D01*
X1270000Y2740D01*
X1269000Y2740D01*
X1268000Y2740D01*
X1267000Y2740D01*
X1266000Y2740D01*
X1265000Y2740D01*
X1264000Y2740D01*
X1263000Y2740D01*
X1262000Y2740D01*
X1261000Y2740D01*
X1260000Y2740D01*
X1259000Y2740D01*
X1258000Y2740D01*
X1257000Y2740D01*
X1256000Y2740D01*
X1255000Y2740D01*
X1254000Y2740D01*
X1253000Y2740D01*
X1252000Y2740D01*
X1251000Y2740D01*
X1250000Y2740D01*
X1249000Y2740D01*
X1248000Y2740D01*
X1247000Y2740D01*
X1246000Y2740D01*
X1245000Y2740D01*
X1244000Y2740D01*
X1243000Y2740D01*
X1242000Y2740D01*
X1241000Y2740D01*
X1240000Y2740D01*
X1239000Y2740D01*
X1238000Y2740D01*
X1237000Y2740D01*
X1236000Y2740D01*
X1235000Y2740D01*
X1234000Y2740D01*
X1233000Y2740D01*
X1232000Y2740D01*
X1231000Y2740D01*
X1230000Y2740D01*
X1229000Y2740D01*
X1228000Y2740D01*
X1227000Y2740D01*
X1226000Y2740D01*
X1225000Y2740D01*
X1224000Y2740D01*
X1223000Y2740D01*
X1222000Y2740D01*
X1221000Y2740D01*
X1220000Y2740D01*
X1219000Y2740D01*
X1218000Y2740D01*
X1217000Y2740D01*
X1216000Y2740D01*
X1215000Y2740D01*
X1214000Y2740D01*
X1213000Y2740D01*
X1212000Y2740D01*
X1211000Y2740D01*
X1210000Y2740D01*
X1209000Y2740D01*
X1208000Y2740D01*
X1207000Y2740D01*
X1206000Y2740D01*
X1205000Y2740D01*
X1204000Y2740D01*
X1203000Y2740D01*
X1202000Y2740D01*
X1201000Y2740D01*
X1200000Y2740D01*
X1199000Y2740D01*
X1198000Y2740D01*
X1197000Y2740D01*
X1196000Y2740D01*
X1195000Y2740D01*
X1194000Y2740D01*
X1193000Y2740D01*
X1192000Y2740D01*
X1191000Y2740D01*
X1190000Y2740D01*
X1189000Y2740D01*
X1188000Y2740D01*
X1187000Y2740D01*
X1186000Y2740D01*
X1185000Y2740D01*
X1184000Y2740D01*
X1183000Y2740D01*
X1182000Y2740D01*
X1181000Y2740D01*
X1180000Y2740D01*
X1179000Y2740D01*
X1178000Y2740D01*
X1177000Y2740D01*
X1176000Y2740D01*
X1175000Y2740D01*
X1174000Y2740D01*
X1173000Y2740D01*
X1172000Y2740D01*
X1171000Y2740D01*
X1170000Y2740D01*
X1169000Y2740D01*
X1168000Y2740D01*
X1167000Y2740D01*
X1166000Y2740D01*
X1165000Y2740D01*
X1164000Y2740D01*
X1163000Y2740D01*
X1162000Y2740D01*
X1161000Y2740D01*
X1160000Y2740D01*
X1159000Y2740D01*
X1158000Y2740D01*
X1157000Y2740D01*
X1156000Y2740D01*
X1155000Y2740D01*
X1154000Y2740D01*
X1153000Y2740D01*
X1152000Y2740D01*
X1151000Y2740D01*
X1150000Y2740D01*
X1149000Y2740D01*
X1148000Y2740D01*
X1147000Y2740D01*
X1146000Y2740D01*
X1145000Y2740D01*
X1144000Y2740D01*
X1143000Y2740D01*
X1142000Y2740D01*
X1141000Y2740D01*
X1140000Y2740D01*
X1139000Y2740D01*
X1138000Y2740D01*
X1137000Y2740D01*
X1136000Y2740D01*
X1135000Y2740D01*
X1134000Y2740D01*
X1133000Y2740D01*
X1132000Y2740D01*
X1131000Y2740D01*
X1130000Y2740D01*
X1129000Y2740D01*
X1128000Y2740D01*
X1127000Y2740D01*
X1126000Y2740D01*
X1125000Y2740D01*
X1124000Y2740D01*
X1123000Y2740D01*
X1122000Y2740D01*
X1121000Y2740D01*
X1120000Y2740D01*
X1119000Y2740D01*
X1118000Y2740D01*
X1117000Y2740D01*
X1116000Y2740D01*
X1115000Y2740D01*
X1114000Y2740D01*
X1113000Y2740D01*
X1112000Y2740D01*
X1111000Y2740D01*
X1110000Y2740D01*
X1109000Y2740D01*
X1108000Y2740D01*
X1107000Y2740D01*
X1106000Y2740D01*
X1105000Y2740D01*
X1104000Y2740D01*
X1103000Y2740D01*
X1102000Y2740D01*
X1101000Y2740D01*
X1100000Y2740D01*
X1099000Y2740D01*
X1098000Y2740D01*
X1097000Y2740D01*
X1096000Y2740D01*
X1095000Y2740D01*
X1094000Y2740D01*
X1093000Y2740D01*
X1092000Y2740D01*
X1091000Y2740D01*
X1090000Y2740D01*
X1089000Y2740D01*
X1088000Y2740D01*
X1087000Y2740D01*
X1086000Y2740D01*
X1085000Y2740D01*
X1084000Y2740D01*
X1083000Y2740D01*
X1082000Y2740D01*
X1081000Y2740D01*
X1080000Y2740D01*
X1079000Y2740D01*
X1078000Y2740D01*
X1077000Y2740D01*
X1076000Y2740D01*
X1075000Y2740D01*
X1074000Y2740D01*
X1073000Y2740D01*
X1072000Y2740D01*
X1071000Y2740D01*
X1070000Y2740D01*
X1069000Y2740D01*
X1068000Y2740D01*
X1067000Y2740D01*
X1066000Y2740D01*
X1065000Y2740D01*
X1064000Y2740D01*
X1063000Y2740D01*
X1062000Y2740D01*
X1061000Y2740D01*
X1060000Y2740D01*
X1059000Y2740D01*
X1058000Y2740D01*
X1057000Y2740D01*
X1056000Y2740D01*
X1055000Y2740D01*
X1054000Y2740D01*
X1053000Y2740D01*
X1052000Y2740D01*
X1051000Y2740D01*
X1050000Y2740D01*
X1049000Y2740D01*
X1048000Y2740D01*
X1047000Y2740D01*
X1046000Y2740D01*
X1045000Y2740D01*
X1044000Y2740D01*
X1043000Y2740D01*
X1042000Y2740D01*
X1041000Y2740D01*
X1040000Y2740D01*
X1039000Y2740D01*
X1038000Y2740D01*
X1037000Y2740D01*
X1036000Y2740D01*
X1035000Y2740D01*
X1034000Y2740D01*
X1033000Y2740D01*
X1032000Y2740D01*
X1031000Y2740D01*
X1030000Y2740D01*
X1029000Y2740D01*
X1028000Y2740D01*
X1027000Y2740D01*
X1026000Y2740D01*
X1025000Y2740D01*
X1024000Y2740D01*
X1023000Y2740D01*
X1022000Y2740D01*
X1021000Y2740D01*
X1020000Y2740D01*
X1019000Y2740D01*
X1018000Y2740D01*
X1017000Y2740D01*
X1016000Y2740D01*
X1015000Y2740D01*
X1014000Y2740D01*
X1013000Y2740D01*
X1012000Y2740D01*
X1011000Y2740D01*
X1010000Y2740D01*
X1009000Y2740D01*
X1008000Y2740D01*
X1007000Y2740D01*
X1006000Y2740D01*
X1005000Y2740D01*
X1004000Y2740D01*
X1003000Y2740D01*
X1002000Y2740D01*
X1001000Y2740D01*
X1000000Y2740D01*
X999000Y2740D01*
X998000Y2740D01*
X997000Y2740D01*
X996000Y2740D01*
X995000Y2740D01*
X994000Y2740D01*
X993000Y2740D01*
X992000Y2740D01*
X991000Y2740D01*
X990000Y2740D01*
X989000Y2740D01*
X988000Y2740D01*
X987000Y2740D01*
X986000Y2740D01*
X985000Y2740D01*
X984000Y2740D01*
X983000Y2740D01*
X982000Y2740D01*
X981000Y2740D01*
X980000Y2740D01*
X979000Y2740D01*
X978000Y2740D01*
X977000Y2740D01*
X976000Y2740D01*
X975000Y2740D01*
X974000Y2740D01*
X973000Y2740D01*
X972000Y2740D01*
X971000Y2740D01*
X970000Y2740D01*
X969000Y2740D01*
X968000Y2740D01*
X967000Y2740D01*
X966000Y2740D01*
X965000Y2740D01*
X964000Y2740D01*
X963000Y2740D01*
X962000Y2740D01*
X961000Y2740D01*
X960000Y2740D01*
X959000Y2740D01*
X958000Y2740D01*
X957000Y2740D01*
X956000Y2740D01*
X955000Y2740D01*
X954000Y2740D01*
X953000Y2740D01*
X952000Y2740D01*
X951000Y2740D01*
X950000Y2740D01*
X949000Y2740D01*
X948000Y2740D01*
X947000Y2740D01*
X946000Y2740D01*
X945000Y2740D01*
X944000Y2740D01*
X943000Y2740D01*
X942000Y2740D01*
X941000Y2740D01*
X940000Y2740D01*
X939000Y2740D01*
X938000Y2740D01*
X937000Y2740D01*
X936000Y2740D01*
X935000Y2740D01*
X934000Y2740D01*
X933000Y2740D01*
X932000Y2740D01*
X931000Y2740D01*
X930000Y2740D01*
X929000Y2740D01*
X928000Y2740D01*
X927000Y2740D01*
X926000Y2740D01*
X925000Y2740D01*
X924000Y2740D01*
X923000Y2740D01*
X922000Y2740D01*
X921000Y2740D01*
X920000Y2740D01*
X919000Y2740D01*
X918000Y2740D01*
X917000Y2740D01*
X916000Y2740D01*
X915000Y2740D01*
X914000Y2740D01*
X913000Y2740D01*
X912000Y2740D01*
X911000Y2740D01*
X910000Y2740D01*
X909000Y2740D01*
X908000Y2740D01*
X907000Y2740D01*
X906000Y2740D01*
X905000Y2740D01*
X904000Y2740D01*
X903000Y2740D01*
X902000Y2740D01*
X901000Y2740D01*
X900000Y2740D01*
X899000Y2740D01*
X898000Y2740D01*
X897000Y2740D01*
X896000Y2740D01*
X895000Y2740D01*
X894000Y2740D01*
X893000Y2740D01*
X892000Y2740D01*
X891000Y2740D01*
X890000Y2740D01*
X889000Y2740D01*
X888000Y2740D01*
X887000Y2740D01*
X886000Y2740D01*
X885000Y2740D01*
X884000Y2740D01*
X883000Y2740D01*
X882000Y2740D01*
X881000Y2740D01*
X880000Y2740D01*
X879000Y2740D01*
X878000Y2740D01*
X877000Y2740D01*
X876000Y2740D01*
X875000Y2740D01*
X874000Y2740D01*
X873000Y2740D01*
X872000Y2740D01*
X871000Y2740D01*
X870000Y2740D01*
X869000Y2740D01*
X868000Y2740D01*
X867000Y2740D01*
X866000Y2740D01*
X865000Y2740D01*
X864000Y2740D01*
X863000Y2740D01*
X862000Y2740D01*
X861000Y2740D01*
X860000Y2740D01*
X859000Y2740D01*
X858000Y2740D01*
X857000Y2740D01*
X856000Y2740D01*
X855000Y2740D01*
X854000Y2740D01*
X853000Y2740D01*
X852000Y2740D01*
X851000Y2740D01*
X850000Y2740D01*
X849000Y2740D01*
X848000Y2740D01*
X847000Y2740D01*
X846000Y2740D01*
X845000Y2740D01*
X844000Y2740D01*
X843000Y2740D01*
X842000Y2740D01*
X841000Y2740D01*
X840000Y2740D01*
X839000Y2740D01*
X838000Y2740D01*
X837000Y2740D01*
X836000Y2740D01*
X835000Y2740D01*
X834000Y2740D01*
X833000Y2740D01*
X832000Y2740D01*
X831000Y2740D01*
X830000Y2740D01*
X829000Y2740D01*
X828000Y2740D01*
X827000Y2740D01*
X826000Y2740D01*
X825000Y2740D01*
X824000Y2740D01*
X823000Y2740D01*
X822000Y2740D01*
X821000Y2740D01*
X820000Y2740D01*
X819000Y2740D01*
X818000Y2740D01*
X817000Y2740D01*
X816000Y2740D01*
X815000Y2740D01*
X814000Y2740D01*
X813000Y2740D01*
X812000Y2740D01*
X811000Y2740D01*
X810000Y2740D01*
X809000Y2740D01*
X808000Y2740D01*
X807000Y2740D01*
X806000Y2740D01*
X805000Y2740D01*
X804000Y2740D01*
X803000Y2740D01*
X802000Y2740D01*
X801000Y2740D01*
X800000Y2740D01*
X799000Y2740D01*
X798000Y2740D01*
X797000Y2740D01*
X796000Y2740D01*
X795000Y2740D01*
X794000Y2740D01*
X793000Y2740D01*
X792000Y2740D01*
X791000Y2740D01*
X790000Y2740D01*
X789000Y2740D01*
X788000Y2740D01*
X787000Y2740D01*
X786000Y2740D01*
X785000Y2740D01*
X784000Y2740D01*
X783000Y2740D01*
X782000Y2740D01*
X781000Y2740D01*
X780000Y2740D01*
X779000Y2740D01*
X778000Y2740D01*
X777000Y2740D01*
X776000Y2740D01*
X775000Y2740D01*
X774000Y2740D01*
X773000Y2740D01*
X772000Y2740D01*
X771000Y2740D01*
X770000Y2740D01*
X769000Y2740D01*
X768000Y2740D01*
X767000Y2740D01*
X766000Y2740D01*
X765000Y2740D01*
X764000Y2740D01*
X763000Y2740D01*
X762000Y2740D01*
X761000Y2740D01*
X760000Y2740D01*
X759000Y2740D01*
X758000Y2740D01*
X757000Y2740D01*
X756000Y2740D01*
X755000Y2740D01*
X754000Y2740D01*
X753000Y2740D01*
X752000Y2740D01*
X751000Y2740D01*
X750000Y2740D01*
X749000Y2740D01*
X748000Y2740D01*
X747000Y2740D01*
X746000Y2740D01*
X745000Y2740D01*
X744000Y2740D01*
X743000Y2740D01*
X742000Y2740D01*
X741000Y2740D01*
X740000Y2740D01*
X739000Y2740D01*
X738000Y2740D01*
X737000Y2740D01*
X736000Y2740D01*
X735000Y2740D01*
X734000Y2740D01*
X733000Y2740D01*
X732000Y2740D01*
X731000Y2740D01*
X730000Y2740D01*
X729000Y2740D01*
X728000Y2740D01*
X727000Y2740D01*
X726000Y2740D01*
X725000Y2740D01*
X724000Y2740D01*
X723000Y2740D01*
X722000Y2740D01*
X721000Y2740D01*
X720000Y2740D01*
X719000Y2740D01*
X718000Y2740D01*
X717000Y2740D01*
X716000Y2740D01*
X715000Y2740D01*
X714000Y2740D01*
X713000Y2740D01*
X712000Y2740D01*
X711000Y2740D01*
X710000Y2740D01*
X709000Y2740D01*
X708000Y2740D01*
X707000Y2740D01*
X706000Y2740D01*
X705000Y2740D01*
X704000Y2740D01*
X703000Y2740D01*
X702000Y2740D01*
X701000Y2740D01*
X700000Y2740D01*
X699000Y2740D01*
X698000Y2740D01*
X697000Y2740D01*
X696000Y2740D01*
X695000Y2740D01*
X694000Y2740D01*
X693000Y2740D01*
X692000Y2740D01*
X691000Y2740D01*
X690000Y2740D01*
X689000Y2740D01*
X688000Y2740D01*
X687000Y2740D01*
X686000Y2740D01*
X685000Y2740D01*
X684000Y2740D01*
X683000Y2740D01*
X682000Y2740D01*
X681000Y2740D01*
X680000Y2740D01*
X679000Y2740D01*
X678000Y2740D01*
X677000Y2740D01*
X676000Y2740D01*
X675000Y2740D01*
X674000Y2740D01*
X673000Y2740D01*
X672000Y2740D01*
X671000Y2740D01*
X670000Y2740D01*
X669000Y2740D01*
X668000Y2740D01*
X667000Y2740D01*
X666000Y2740D01*
X665000Y2740D01*
X664000Y2740D01*
X663000Y2740D01*
X662000Y2740D01*
X661000Y2740D01*
X660000Y2740D01*
X659000Y2740D01*
X658000Y2740D01*
X657000Y2740D01*
X656000Y2740D01*
X655000Y2740D01*
X654000Y2740D01*
X653000Y2740D01*
X652000Y2740D01*
X651000Y2740D01*
X650000Y2740D01*
X649000Y2740D01*
X648000Y2740D01*
X647000Y2740D01*
X646000Y2740D01*
X645000Y2740D01*
X644000Y2740D01*
X643000Y2740D01*
X642000Y2740D01*
X641000Y2740D01*
X640000Y2740D01*
X639000Y2740D01*
X638000Y2740D01*
X637000Y2740D01*
X636000Y2740D01*
X635000Y2740D01*
X634000Y2740D01*
X633000Y2740D01*
X632000Y2740D01*
X631000Y2740D01*
X630000Y2740D01*
X629000Y2740D01*
X628000Y2740D01*
X627000Y2740D01*
X626000Y2740D01*
X625000Y2740D01*
X624000Y2740D01*
X623000Y2740D01*
X622000Y2740D01*
X621000Y2740D01*
X620000Y2740D01*
X619000Y2740D01*
X618000Y2740D01*
X617000Y2740D01*
X616000Y2740D01*
X615000Y2740D01*
X614000Y2740D01*
X613000Y2740D01*
X612000Y2740D01*
X611000Y2740D01*
X610000Y2740D01*
X609000Y2740D01*
X608000Y2740D01*
X607000Y2740D01*
X606000Y2740D01*
X605000Y2740D01*
X604000Y2740D01*
X603000Y2740D01*
X602000Y2740D01*
X601000Y2740D01*
X600000Y2740D01*
X599000Y2740D01*
X598000Y2740D01*
X597000Y2740D01*
X596000Y2740D01*
X595000Y2740D01*
X594000Y2740D01*
X593000Y2740D01*
X592000Y2740D01*
X591000Y2740D01*
X590000Y2740D01*
X589000Y2740D01*
X588000Y2740D01*
X587000Y2740D01*
X586000Y2740D01*
X585000Y2740D01*
X584000Y2740D01*
X583000Y2740D01*
X582000Y2740D01*
X581000Y2740D01*
X580000Y2740D01*
X579000Y2740D01*
X578000Y2740D01*
X577000Y2740D01*
X576000Y2740D01*
X575000Y2740D01*
X574000Y2740D01*
X573000Y2740D01*
X572000Y2740D01*
X571000Y2740D01*
X570000Y2740D01*
X569000Y2740D01*
X568000Y2740D01*
X567000Y2740D01*
X566000Y2740D01*
X565000Y2740D01*
X564000Y2740D01*
X563000Y2740D01*
X562000Y2740D01*
X561000Y2740D01*
X560000Y2740D01*
X559000Y2740D01*
X558000Y2740D01*
X557000Y2740D01*
X556000Y2740D01*
X555000Y2740D01*
X554000Y2740D01*
X553000Y2740D01*
X552000Y2740D01*
X551000Y2740D01*
X550000Y2740D01*
X549000Y2740D01*
X548000Y2740D01*
X547000Y2740D01*
X546000Y2740D01*
X545000Y2740D01*
X544000Y2740D01*
X543000Y2740D01*
X542000Y2740D01*
X541000Y2740D01*
X540000Y2740D01*
X539000Y2740D01*
X538000Y2740D01*
X537000Y2740D01*
X536000Y2740D01*
X535000Y2740D01*
X534000Y2740D01*
X533000Y2740D01*
X532000Y2740D01*
X531000Y2740D01*
X530000Y2740D01*
X529000Y2740D01*
X528000Y2740D01*
X527000Y2740D01*
X526000Y2740D01*
X525000Y2740D01*
X524000Y2740D01*
X523000Y2740D01*
X522000Y2740D01*
X521000Y2740D01*
X520000Y2740D01*
X519000Y2740D01*
X518000Y2740D01*
X517000Y2740D01*
X516000Y2740D01*
X515000Y2740D01*
X514000Y2740D01*
X513000Y2740D01*
X512000Y2740D01*
X511000Y2740D01*
X510000Y2740D01*
X509000Y2740D01*
X508000Y2740D01*
X507000Y2740D01*
X506000Y2740D01*
X505000Y2740D01*
X504000Y2740D01*
X503000Y2740D01*
X502000Y2740D01*
X501000Y2740D01*
X500000Y2740D01*
X499000Y2740D01*
X498000Y2740D01*
X497000Y2740D01*
X496000Y2740D01*
X495000Y2740D01*
X494000Y2740D01*
X493000Y2740D01*
X492000Y2740D01*
X491000Y2740D01*
X490000Y2740D01*
X489000Y2740D01*
X488000Y2740D01*
X487000Y2740D01*
X486000Y2740D01*
X485000Y2740D01*
X484000Y2740D01*
X483000Y2740D01*
X482000Y2740D01*
X481000Y2740D01*
X480000Y2740D01*
X479000Y2740D01*
X478000Y2740D01*
X477000Y2740D01*
X476000Y2740D01*
X475000Y2740D01*
X474000Y2740D01*
X473000Y2740D01*
X472000Y2740D01*
X471000Y2740D01*
X470000Y2740D01*
X469000Y2740D01*
X468000Y2740D01*
X467000Y2740D01*
X466000Y2740D01*
X465000Y2740D01*
X464000Y2740D01*
X463000Y2740D01*
X462000Y2740D01*
X461000Y2740D01*
X460000Y2740D01*
X459000Y2740D01*
X458000Y2740D01*
X457000Y2740D01*
X456000Y2740D01*
X455000Y2740D01*
X454000Y2740D01*
X453000Y2740D01*
X452000Y2740D01*
X451000Y2740D01*
X450000Y2740D01*
X449000Y2740D01*
X448000Y2740D01*
X447000Y2740D01*
X446000Y2740D01*
X445000Y2740D01*
X444000Y2740D01*
X443000Y2740D01*
X442000Y2740D01*
X441000Y2740D01*
X440000Y2740D01*
X439000Y2740D01*
X438000Y2740D01*
X437000Y2740D01*
X436000Y2740D01*
X435000Y2740D01*
X434000Y2740D01*
X433000Y2740D01*
X432000Y2740D01*
X431000Y2740D01*
X430000Y2740D01*
X429000Y2740D01*
X428000Y2740D01*
X427000Y2740D01*
X426000Y2740D01*
X425000Y2740D01*
X424000Y2740D01*
X423000Y2740D01*
X422000Y2740D01*
X421000Y2740D01*
X420000Y2740D01*
X419000Y2740D01*
X418000Y2740D01*
X417000Y2740D01*
X416000Y2740D01*
X415000Y2740D01*
X414000Y2740D01*
X413000Y2740D01*
X412000Y2740D01*
X411000Y2740D01*
X410000Y2740D01*
X409000Y2740D01*
X408000Y2740D01*
X407000Y2740D01*
X406000Y2740D01*
X405000Y2740D01*
X404000Y2740D01*
X403000Y2740D01*
X402000Y2740D01*
X401000Y2740D01*
X400000Y2740D01*
X399000Y2740D01*
X398000Y2740D01*
X397000Y2740D01*
X396000Y2740D01*
X395000Y2740D01*
X394000Y2740D01*
X393000Y2740D01*
X392000Y2740D01*
X391000Y2740D01*
X390000Y2740D01*
X389000Y2740D01*
X388000Y2740D01*
X387000Y2740D01*
X386000Y2740D01*
X385000Y2740D01*
X384000Y2740D01*
X383000Y2740D01*
X382000Y2740D01*
X381000Y2740D01*
X380000Y2740D01*
X379000Y2740D01*
X378000Y2740D01*
X377000Y2740D01*
X376000Y2740D01*
X375000Y2740D01*
X374000Y2740D01*
X373000Y2740D01*
X372000Y2740D01*
X371000Y2740D01*
X370000Y2740D01*
X369000Y2740D01*
X368000Y2740D01*
X367000Y2740D01*
X366000Y2740D01*
X365000Y2740D01*
X364000Y2740D01*
X363000Y2740D01*
X362000Y2740D01*
X361000Y2740D01*
X360000Y2740D01*
X359000Y2740D01*
X358000Y2740D01*
X357000Y2740D01*
X356000Y2740D01*
X355000Y2740D01*
X354000Y2740D01*
X353000Y2740D01*
X352000Y2740D01*
X351000Y2740D01*
X350000Y2740D01*
X349000Y2740D01*
X348000Y2740D01*
X347000Y2740D01*
X346000Y2740D01*
X345000Y2740D01*
X344000Y2740D01*
X343000Y2740D01*
X342000Y2740D01*
X341000Y2740D01*
X340000Y2740D01*
X339000Y2740D01*
X338000Y2740D01*
X337000Y2740D01*
X336000Y2740D01*
X335000Y2740D01*
X334000Y2740D01*
X333000Y2740D01*
X332000Y2740D01*
X331000Y2740D01*
X330000Y2740D01*
X329000Y2740D01*
X328000Y2740D01*
X327000Y2740D01*
X326000Y2740D01*
X325000Y2740D01*
X324000Y2740D01*
X323000Y2740D01*
X322000Y2740D01*
X321000Y2740D01*
X320000Y2740D01*
X319000Y2740D01*
X318000Y2740D01*
X317000Y2740D01*
X316000Y2740D01*
X315000Y2740D01*
X314000Y2740D01*
X313000Y2740D01*
X312000Y2740D01*
X311000Y2740D01*
X310000Y2740D01*
X309000Y2740D01*
X308000Y2740D01*
X307000Y2740D01*
X306000Y2740D01*
X305000Y2740D01*
X304000Y2740D01*
X303000Y2740D01*
X302000Y2740D01*
X301000Y2740D01*
X300000Y2740D01*
X299000Y2740D01*
X298000Y2740D01*
X297000Y2740D01*
X296000Y2740D01*
X295000Y2740D01*
X294000Y2740D01*
X293000Y2740D01*
X292000Y2740D01*
X291000Y2740D01*
X290000Y2740D01*
X289000Y2740D01*
X288000Y2740D01*
X287000Y2740D01*
X286000Y2740D01*
X285000Y2740D01*
X284000Y2740D01*
X283000Y2740D01*
X282000Y2740D01*
X281000Y2740D01*
X280000Y2740D01*
X279000Y2740D01*
X278000Y2740D01*
X277000Y2740D01*
X276000Y2740D01*
X275000Y2740D01*
X274000Y2740D01*
X273000Y2740D01*
X272000Y2740D01*
X271000Y2740D01*
X270000Y2740D01*
X269000Y2740D01*
X268000Y2740D01*
X267000Y2740D01*
X266000Y2740D01*
X265000Y2740D01*
X264000Y2740D01*
X263000Y2740D01*
X262000Y2740D01*
X261000Y2740D01*
X260000Y2740D01*
X259000Y2740D01*
X258000Y2740D01*
X257000Y2740D01*
X256000Y2740D01*
X255000Y2740D01*
X254000Y2740D01*
X253000Y2740D01*
X252000Y2740D01*
X251000Y2740D01*
X250000Y2740D01*
X249000Y2740D01*
X248000Y2740D01*
X247000Y2740D01*
X246000Y2740D01*
X245000Y2740D01*
X244000Y2740D01*
X243000Y2740D01*
X242000Y2740D01*
X241000Y2740D01*
X240000Y2740D01*
X239000Y2740D01*
X238000Y2740D01*
X237000Y2740D01*
X236000Y2740D01*
X235000Y2740D01*
X234000Y2740D01*
X233000Y2740D01*
X232000Y2740D01*
X231000Y2740D01*
X230000Y2740D01*
X229000Y2740D01*
X228000Y2740D01*
X227000Y2740D01*
X226000Y2740D01*
X225000Y2740D01*
X224000Y2740D01*
X223000Y2740D01*
X222000Y2740D01*
X221000Y2740D01*
X220000Y2740D01*
X219000Y2740D01*
X218000Y2740D01*
X217000Y2740D01*
X216000Y2740D01*
X215000Y2740D01*
X214000Y2740D01*
X213000Y2740D01*
X212000Y2740D01*
X211000Y2740D01*
X210000Y2740D01*
X209000Y2740D01*
X208000Y2740D01*
X207000Y2740D01*
X206000Y2740D01*
X205000Y2740D01*
X204000Y2740D01*
X203000Y2740D01*
X202000Y2740D01*
X201000Y2740D01*
X200000Y2740D01*
X199000Y2740D01*
X198000Y2740D01*
X197000Y2740D01*
X196000Y2740D01*
X195000Y2740D01*
X194000Y2740D01*
X193000Y2740D01*
X192000Y2740D01*
X191000Y2740D01*
X190000Y2740D01*
X189000Y2740D01*
X188000Y2740D01*
X187000Y2740D01*
X186000Y2740D01*
X185000Y2740D01*
X184000Y2740D01*
X183000Y2740D01*
X182000Y2740D01*
X181000Y2740D01*
X180000Y2740D01*
X179000Y2740D01*
X178000Y2740D01*
X177000Y2740D01*
X176000Y2740D01*
X175000Y2740D01*
X174000Y2740D01*
X173000Y2740D01*
X172000Y2740D01*
X171000Y2740D01*
X170000Y2740D01*
X169000Y2740D01*
X168000Y2740D01*
X167000Y2740D01*
X166000Y2740D01*
X165000Y2740D01*
X164000Y2740D01*
X163000Y2740D01*
X162000Y2740D01*
X161000Y2740D01*
X160000Y2740D01*
X159000Y2740D01*
X158000Y2740D01*
X157000Y2740D01*
X156000Y2740D01*
X155000Y2740D01*
X154000Y2740D01*
X153000Y2740D01*
X152000Y2740D01*
X151000Y2740D01*
X150000Y2740D01*
X149000Y2740D01*
X148000Y2740D01*
X147000Y2740D01*
X146000Y2740D01*
X145000Y2740D01*
X144000Y2740D01*
X143000Y2740D01*
X142000Y2740D01*
X141000Y2740D01*
X140000Y2740D01*
X139000Y2740D01*
X138000Y2740D01*
X137000Y2740D01*
X136000Y2740D01*
X135000Y2740D01*
X134000Y2740D01*
X133000Y2740D01*
X132000Y2740D01*
X131000Y2740D01*
X130000Y2740D01*
X129000Y2740D01*
X128000Y2740D01*
X127000Y2740D01*
X126000Y2740D01*
X125000Y2740D01*
X124000Y2740D01*
X123000Y2740D01*
X122000Y2740D01*
X121000Y2740D01*
X120000Y2740D01*
X119000Y2740D01*
X118000Y2740D01*
X117000Y2740D01*
X116000Y2740D01*
X115000Y2740D01*
X114000Y2740D01*
X113000Y2740D01*
X112000Y2740D01*
X111000Y2740D01*
X110000Y2740D01*
X109000Y2740D01*
X108000Y2740D01*
X107000Y2740D01*
X106000Y2740D01*
X105000Y2740D01*
X104000Y2740D01*
X103000Y2740D01*
X102000Y2740D01*
X101000Y2740D01*
X100000Y2740D01*
X99000Y2740D01*
X98000Y2740D01*
X97000Y2740D01*
X96000Y2740D01*
X95000Y2740D01*
X94000Y2740D01*
X93000Y2740D01*
X92000Y2740D01*
X91000Y2740D01*
X90000Y2740D01*
X89000Y2740D01*
X88000Y2740D01*
X87000Y2740D01*
X86000Y2740D01*
X85000Y2740D01*
X84000Y2740D01*
X83000Y2740D01*
X82000Y2740D01*
X81000Y2740D01*
X80000Y2740D01*
X79000Y2740D01*
X78000Y2740D01*
X77000Y2740D01*
X76000Y2740D01*
X75000Y2740D01*
X74000Y2740D01*
X73000Y2740D01*
X72000Y2740D01*
X71000Y2740D01*
X70000Y2740D01*
X69000Y2740D01*
X68000Y2740D01*
X67000Y2740D01*
X66000Y2740D01*
X65000Y2740D01*
X64000Y2740D01*
X63000Y2740D01*
X62000Y2740D01*
X61000Y2740D01*
X60000Y2740D01*
X59000Y2740D01*
X58000Y2740D01*
X57000Y2740D01*
X56000Y2740D01*
X55000Y2740D01*
X54000Y2740D01*
X53000Y2740D01*
X52000Y2740D01*
X51000Y2740D01*
X50000Y2740D01*
X49000Y2740D01*
X48000Y2740D01*
X47000Y1740D01*
X46000Y1740D01*
X45000Y1740D01*
X44000Y1740D01*
X43000Y1740D01*
X42000Y1740D01*
X41000Y1740D01*
X40000Y1740D01*
X39000Y1740D01*
X38000Y1740D01*
X37000Y1740D01*
X36000Y1740D01*
X35000Y1740D01*
X34000Y1740D01*
X33000Y1740D01*
X32000Y1740D01*
X31000Y1740D01*
X30000Y1740D01*
X29000Y1740D01*
X28000Y1740D01*
X27000Y1740D01*
X26000Y1740D01*
X25000Y1740D01*
X24000Y1740D01*
X23000Y1740D01*
X22000Y1740D01*
X21000Y1740D01*
X20000Y1740D01*
X19000Y1740D01*
X18000Y1740D01*
X17000Y1740D01*
X16000Y1740D01*
X15000Y2740D01*
X14000Y2740D01*
X13000Y2740D01*
X12000Y2740D01*
X11000Y3740D01*
X10000Y3740D01*
X9000Y4740D01*
X8000Y4740D01*
X7000Y5740D01*
X7000Y6740D01*
X6000Y7740D01*
X5000Y8740D01*
X5000Y11740D01*
X4000Y12740D01*
X4000Y25740D01*
X3000Y26740D01*
X3000Y1655740D01*
X2000Y1656740D01*
X2000Y3485740D01*
X1000Y3486740D01*
X1000Y4993740D01*
X0Y4994740D01*
X0Y5041740D01*
X1000Y5042740D01*
X1000Y5050740D01*
X2000Y5051740D01*
X2000Y5054740D01*
X3000Y5055740D01*
X3000Y5057740D01*
X4000Y5058740D01*
X4000Y5059740D01*
X5000Y5060740D01*
X5000Y5061740D01*
X6000Y5062740D01*
X6000Y5063740D01*
X7000Y5064740D01*
X8000Y5065740D01*
X9000Y5066740D01*
X10000Y5067740D01*
X11000Y5068740D01*
X12000Y5069740D01*
X13000Y5070740D01*
X14000Y5070740D01*
X15000Y5071740D01*
X16000Y5071740D01*
X17000Y5072740D01*
X18000Y5072740D01*
X19000Y5072740D01*
X20000Y5073740D01*
X21000Y5073740D01*
X22000Y5073740D01*
X23000Y5074740D01*
X24000Y5074740D01*
X25000Y5074740D01*
X26000Y5075740D01*
X27000Y5075740D01*
X28000Y5075740D01*
X29000Y5075740D01*
X30000Y5075740D01*
X31000Y5075740D01*
X32000Y5076740D01*
X33000Y5076740D01*
X34000Y5076740D01*
X35000Y5076740D01*
X36000Y5076740D01*
X37000Y5076740D01*
X38000Y5076740D01*
X39000Y5076740D01*
X40000Y5077740D01*
X41000Y5077740D01*
X42000Y5077740D01*
X43000Y5077740D01*
X44000Y5077740D01*
X45000Y5077740D01*
X46000Y5077740D01*
X47000Y5077740D01*
X48000Y5077740D01*
X49000Y5077740D01*
X50000Y5077740D01*
X51000Y5077740D01*
X52000Y5077740D01*
X53000Y5077740D01*
X54000Y5077740D01*
X55000Y5077740D01*
X56000Y5077740D01*
X57000Y5077740D01*
X58000Y5077740D01*
X59000Y5077740D01*
X60000Y5077740D01*
X61000Y5077740D01*
X62000Y5077740D01*
X63000Y5077740D01*
X64000Y5077740D01*
X65000Y5077740D01*
X66000Y5077740D01*
X67000Y5077740D01*
X68000Y5077740D01*
X69000Y5077740D01*
X70000Y5077740D01*
X71000Y5077740D01*
X72000Y5077740D01*
X73000Y5077740D01*
X74000Y5077740D01*
X75000Y5077740D01*
X76000Y5077740D01*
X77000Y5077740D01*
X78000Y5077740D01*
X79000Y5077740D01*
X80000Y5077740D01*
X81000Y5077740D01*
X82000Y5077740D01*
X83000Y5077740D01*
X84000Y5077740D01*
X85000Y5077740D01*
X86000Y5077740D01*
X87000Y5077740D01*
X88000Y5077740D01*
X89000Y5077740D01*
X90000Y5077740D01*
X91000Y5077740D01*
X92000Y5077740D01*
X93000Y5077740D01*
X94000Y5077740D01*
X95000Y5077740D01*
X96000Y5077740D01*
X97000Y5077740D01*
X98000Y5077740D01*
X99000Y5077740D01*
X100000Y5077740D01*
X101000Y5077740D01*
X102000Y5077740D01*
X103000Y5077740D01*
X104000Y5077740D01*
X105000Y5077740D01*
X106000Y5077740D01*
X107000Y5077740D01*
X108000Y5077740D01*
X109000Y5077740D01*
X110000Y5077740D01*
X111000Y5077740D01*
X112000Y5077740D01*
X113000Y5077740D01*
X114000Y5077740D01*
X115000Y5077740D01*
X116000Y5077740D01*
X117000Y5077740D01*
X118000Y5077740D01*
X119000Y5077740D01*
X120000Y5077740D01*
X121000Y5077740D01*
X122000Y5077740D01*
X123000Y5077740D01*
X124000Y5077740D01*
X125000Y5077740D01*
X126000Y5077740D01*
X127000Y5077740D01*
X128000Y5077740D01*
X129000Y5077740D01*
X130000Y5077740D01*
X131000Y5077740D01*
X132000Y5077740D01*
X133000Y5077740D01*
X134000Y5077740D01*
X135000Y5077740D01*
X136000Y5077740D01*
X137000Y5077740D01*
X138000Y5077740D01*
X139000Y5077740D01*
X140000Y5077740D01*
X141000Y5077740D01*
X142000Y5077740D01*
X143000Y5077740D01*
X144000Y5077740D01*
X145000Y5077740D01*
X146000Y5077740D01*
X147000Y5077740D01*
X148000Y5077740D01*
X149000Y5077740D01*
X150000Y5077740D01*
X151000Y5077740D01*
X152000Y5077740D01*
X153000Y5077740D01*
X154000Y5077740D01*
X155000Y5077740D01*
X156000Y5077740D01*
X157000Y5077740D01*
X158000Y5077740D01*
X159000Y5077740D01*
X160000Y5077740D01*
X161000Y5077740D01*
X162000Y5077740D01*
X163000Y5077740D01*
X164000Y5077740D01*
X165000Y5077740D01*
X166000Y5077740D01*
X167000Y5077740D01*
X168000Y5077740D01*
X169000Y5077740D01*
X170000Y5077740D01*
X171000Y5077740D01*
X172000Y5077740D01*
X173000Y5077740D01*
X174000Y5077740D01*
X175000Y5077740D01*
X176000Y5077740D01*
X177000Y5077740D01*
X178000Y5077740D01*
X179000Y5077740D01*
X180000Y5077740D01*
X181000Y5077740D01*
X182000Y5077740D01*
X183000Y5077740D01*
X184000Y5077740D01*
X185000Y5077740D01*
X186000Y5077740D01*
X187000Y5077740D01*
X188000Y5077740D01*
X189000Y5077740D01*
X190000Y5077740D01*
X191000Y5077740D01*
X192000Y5077740D01*
X193000Y5077740D01*
X194000Y5077740D01*
X195000Y5077740D01*
X196000Y5077740D01*
X197000Y5077740D01*
X198000Y5077740D01*
X199000Y5077740D01*
X200000Y5077740D01*
X201000Y5077740D01*
X202000Y5077740D01*
X203000Y5077740D01*
X204000Y5077740D01*
X205000Y5077740D01*
X206000Y5077740D01*
X207000Y5077740D01*
X208000Y5077740D01*
X209000Y5077740D01*
X210000Y5077740D01*
X211000Y5077740D01*
X212000Y5077740D01*
X213000Y5077740D01*
X214000Y5077740D01*
X215000Y5077740D01*
X216000Y5077740D01*
X217000Y5077740D01*
X218000Y5077740D01*
X219000Y5077740D01*
X220000Y5077740D01*
X221000Y5077740D01*
X222000Y5077740D01*
X223000Y5077740D01*
X224000Y5077740D01*
X225000Y5077740D01*
X226000Y5077740D01*
X227000Y5077740D01*
X228000Y5077740D01*
X229000Y5077740D01*
X230000Y5077740D01*
X231000Y5077740D01*
X232000Y5077740D01*
X233000Y5077740D01*
X234000Y5077740D01*
X235000Y5077740D01*
X236000Y5077740D01*
X237000Y5077740D01*
X238000Y5077740D01*
X239000Y5077740D01*
X240000Y5077740D01*
X241000Y5077740D01*
X242000Y5077740D01*
X243000Y5077740D01*
X244000Y5077740D01*
X245000Y5077740D01*
X246000Y5077740D01*
X247000Y5077740D01*
X248000Y5077740D01*
X249000Y5077740D01*
X250000Y5077740D01*
X251000Y5077740D01*
X252000Y5077740D01*
X253000Y5077740D01*
X254000Y5077740D01*
X255000Y5077740D01*
X256000Y5077740D01*
X257000Y5077740D01*
X258000Y5077740D01*
X259000Y5077740D01*
X260000Y5077740D01*
X261000Y5077740D01*
X262000Y5077740D01*
X263000Y5077740D01*
X264000Y5077740D01*
X265000Y5077740D01*
X266000Y5077740D01*
X267000Y5077740D01*
X268000Y5077740D01*
X269000Y5077740D01*
X270000Y5077740D01*
X271000Y5077740D01*
X272000Y5077740D01*
X273000Y5077740D01*
X274000Y5077740D01*
X275000Y5077740D01*
X276000Y5077740D01*
X277000Y5077740D01*
X278000Y5077740D01*
X279000Y5077740D01*
X280000Y5077740D01*
X281000Y5077740D01*
X282000Y5077740D01*
X283000Y5077740D01*
X284000Y5077740D01*
X285000Y5077740D01*
X286000Y5077740D01*
X287000Y5077740D01*
X288000Y5077740D01*
X289000Y5077740D01*
X290000Y5077740D01*
X291000Y5077740D01*
X292000Y5077740D01*
X293000Y5077740D01*
X294000Y5077740D01*
X295000Y5077740D01*
X296000Y5077740D01*
X297000Y5077740D01*
X298000Y5077740D01*
X299000Y5077740D01*
X300000Y5077740D01*
X301000Y5077740D01*
X302000Y5077740D01*
X303000Y5077740D01*
X304000Y5077740D01*
X305000Y5077740D01*
X306000Y5077740D01*
X307000Y5077740D01*
X308000Y5077740D01*
X309000Y5077740D01*
X310000Y5077740D01*
X311000Y5077740D01*
X312000Y5077740D01*
X313000Y5077740D01*
X314000Y5077740D01*
X315000Y5077740D01*
X316000Y5077740D01*
X317000Y5077740D01*
X318000Y5077740D01*
X319000Y5077740D01*
X320000Y5077740D01*
X321000Y5077740D01*
X322000Y5077740D01*
X323000Y5077740D01*
X324000Y5077740D01*
X325000Y5077740D01*
X326000Y5077740D01*
X327000Y5077740D01*
X328000Y5077740D01*
X329000Y5077740D01*
X330000Y5077740D01*
X331000Y5077740D01*
X332000Y5077740D01*
X333000Y5077740D01*
X334000Y5077740D01*
X335000Y5077740D01*
X336000Y5077740D01*
X337000Y5077740D01*
X338000Y5077740D01*
X339000Y5077740D01*
X340000Y5077740D01*
X341000Y5077740D01*
X342000Y5077740D01*
X343000Y5077740D01*
X344000Y5077740D01*
X345000Y5077740D01*
X346000Y5077740D01*
X347000Y5077740D01*
X348000Y5077740D01*
X349000Y5077740D01*
X350000Y5077740D01*
X351000Y5077740D01*
X352000Y5077740D01*
X353000Y5077740D01*
X354000Y5077740D01*
X355000Y5077740D01*
X356000Y5077740D01*
X357000Y5077740D01*
X358000Y5077740D01*
X359000Y5077740D01*
X360000Y5077740D01*
X361000Y5077740D01*
X362000Y5077740D01*
X363000Y5077740D01*
X364000Y5077740D01*
X365000Y5077740D01*
X366000Y5077740D01*
X367000Y5077740D01*
X368000Y5077740D01*
X369000Y5077740D01*
X370000Y5077740D01*
X371000Y5077740D01*
X372000Y5077740D01*
X373000Y5077740D01*
X374000Y5077740D01*
X375000Y5077740D01*
X376000Y5077740D01*
X377000Y5077740D01*
X378000Y5077740D01*
X379000Y5077740D01*
X380000Y5077740D01*
X381000Y5077740D01*
X382000Y5077740D01*
X383000Y5077740D01*
X384000Y5077740D01*
X385000Y5077740D01*
X386000Y5077740D01*
X387000Y5077740D01*
X388000Y5077740D01*
X389000Y5077740D01*
X390000Y5077740D01*
X391000Y5077740D01*
X392000Y5077740D01*
X393000Y5077740D01*
X394000Y5077740D01*
X395000Y5077740D01*
X396000Y5077740D01*
X397000Y5077740D01*
X398000Y5077740D01*
X399000Y5077740D01*
X400000Y5077740D01*
X401000Y5077740D01*
X402000Y5077740D01*
X403000Y5077740D01*
X404000Y5077740D01*
X405000Y5077740D01*
X406000Y5077740D01*
X407000Y5077740D01*
X408000Y5077740D01*
X409000Y5077740D01*
X410000Y5077740D01*
X411000Y5077740D01*
X412000Y5077740D01*
X413000Y5077740D01*
X414000Y5077740D01*
X415000Y5077740D01*
X416000Y5077740D01*
X417000Y5077740D01*
X418000Y5077740D01*
X419000Y5077740D01*
X420000Y5077740D01*
X421000Y5077740D01*
X422000Y5077740D01*
X423000Y5077740D01*
X424000Y5077740D01*
X425000Y5077740D01*
X426000Y5077740D01*
X427000Y5077740D01*
X428000Y5077740D01*
X429000Y5077740D01*
X430000Y5077740D01*
X431000Y5077740D01*
X432000Y5077740D01*
X433000Y5077740D01*
X434000Y5077740D01*
X435000Y5077740D01*
X436000Y5077740D01*
X437000Y5077740D01*
X438000Y5077740D01*
X439000Y5077740D01*
X440000Y5077740D01*
X441000Y5077740D01*
X442000Y5077740D01*
X443000Y5077740D01*
X444000Y5077740D01*
X445000Y5077740D01*
X446000Y5077740D01*
X447000Y5077740D01*
X448000Y5077740D01*
X449000Y5077740D01*
X450000Y5078740D01*
D02*
X604000Y2825740D02*
X604000Y2824740D01*
X604000Y2628740D01*
X605000Y2628740D01*
X606000Y2628740D01*
X607000Y2628740D01*
X608000Y2628740D01*
X609000Y2628740D01*
X610000Y2628740D01*
X611000Y2628740D01*
X612000Y2628740D01*
X613000Y2628740D01*
X614000Y2628740D01*
X615000Y2628740D01*
X616000Y2628740D01*
X617000Y2628740D01*
X618000Y2628740D01*
X619000Y2628740D01*
X620000Y2628740D01*
X621000Y2628740D01*
X622000Y2628740D01*
X623000Y2628740D01*
X624000Y2628740D01*
X625000Y2628740D01*
X626000Y2628740D01*
X627000Y2628740D01*
X628000Y2628740D01*
X629000Y2628740D01*
X630000Y2628740D01*
X631000Y2628740D01*
X632000Y2628740D01*
X633000Y2628740D01*
X634000Y2628740D01*
X635000Y2628740D01*
X636000Y2628740D01*
X637000Y2628740D01*
X638000Y2628740D01*
X639000Y2628740D01*
X640000Y2628740D01*
X641000Y2628740D01*
X642000Y2628740D01*
X643000Y2628740D01*
X644000Y2628740D01*
X645000Y2628740D01*
X646000Y2628740D01*
X647000Y2628740D01*
X648000Y2628740D01*
X649000Y2628740D01*
X650000Y2628740D01*
X651000Y2628740D01*
X652000Y2628740D01*
X653000Y2628740D01*
X654000Y2628740D01*
X655000Y2628740D01*
X656000Y2628740D01*
X657000Y2628740D01*
X658000Y2628740D01*
X659000Y2628740D01*
X660000Y2628740D01*
X661000Y2628740D01*
X662000Y2628740D01*
X663000Y2628740D01*
X664000Y2628740D01*
X665000Y2628740D01*
X666000Y2628740D01*
X667000Y2628740D01*
X668000Y2628740D01*
X669000Y2628740D01*
X670000Y2628740D01*
X671000Y2628740D01*
X672000Y2628740D01*
X673000Y2628740D01*
X674000Y2628740D01*
X675000Y2628740D01*
X676000Y2628740D01*
X677000Y2628740D01*
X678000Y2628740D01*
X679000Y2628740D01*
X680000Y2628740D01*
X681000Y2628740D01*
X682000Y2628740D01*
X683000Y2628740D01*
X684000Y2628740D01*
X685000Y2628740D01*
X686000Y2628740D01*
X687000Y2628740D01*
X688000Y2628740D01*
X689000Y2628740D01*
X690000Y2628740D01*
X691000Y2628740D01*
X692000Y2628740D01*
X693000Y2628740D01*
X694000Y2628740D01*
X695000Y2628740D01*
X696000Y2628740D01*
X697000Y2628740D01*
X698000Y2628740D01*
X699000Y2628740D01*
X700000Y2628740D01*
X701000Y2628740D01*
X702000Y2628740D01*
X703000Y2628740D01*
X704000Y2628740D01*
X705000Y2628740D01*
X706000Y2628740D01*
X707000Y2628740D01*
X708000Y2628740D01*
X709000Y2628740D01*
X710000Y2628740D01*
X711000Y2628740D01*
X712000Y2628740D01*
X713000Y2628740D01*
X714000Y2628740D01*
X715000Y2628740D01*
X716000Y2628740D01*
X717000Y2628740D01*
X718000Y2628740D01*
X719000Y2628740D01*
X720000Y2628740D01*
X721000Y2628740D01*
X721000Y2825740D01*
X720000Y2825740D01*
X719000Y2825740D01*
X718000Y2825740D01*
X717000Y2825740D01*
X716000Y2825740D01*
X715000Y2825740D01*
X714000Y2825740D01*
X713000Y2825740D01*
X712000Y2825740D01*
X711000Y2825740D01*
X710000Y2825740D01*
X709000Y2825740D01*
X708000Y2825740D01*
X707000Y2825740D01*
X706000Y2825740D01*
X705000Y2825740D01*
X704000Y2825740D01*
X703000Y2825740D01*
X702000Y2825740D01*
X701000Y2825740D01*
X700000Y2825740D01*
X699000Y2825740D01*
X698000Y2825740D01*
X697000Y2825740D01*
X696000Y2825740D01*
X695000Y2825740D01*
X694000Y2825740D01*
X693000Y2825740D01*
X692000Y2825740D01*
X691000Y2825740D01*
X690000Y2825740D01*
X689000Y2825740D01*
X688000Y2825740D01*
X687000Y2825740D01*
X686000Y2825740D01*
X685000Y2825740D01*
X684000Y2825740D01*
X683000Y2825740D01*
X682000Y2825740D01*
X681000Y2825740D01*
X680000Y2825740D01*
X679000Y2825740D01*
X678000Y2825740D01*
X677000Y2825740D01*
X676000Y2825740D01*
X675000Y2825740D01*
X674000Y2825740D01*
X673000Y2825740D01*
X672000Y2825740D01*
X671000Y2825740D01*
X670000Y2825740D01*
X669000Y2825740D01*
X668000Y2825740D01*
X667000Y2825740D01*
X666000Y2825740D01*
X665000Y2825740D01*
X664000Y2825740D01*
X663000Y2825740D01*
X662000Y2825740D01*
X661000Y2825740D01*
X660000Y2825740D01*
X659000Y2825740D01*
X658000Y2825740D01*
X657000Y2825740D01*
X656000Y2825740D01*
X655000Y2825740D01*
X654000Y2825740D01*
X653000Y2825740D01*
X652000Y2825740D01*
X651000Y2825740D01*
X650000Y2825740D01*
X649000Y2825740D01*
X648000Y2825740D01*
X647000Y2825740D01*
X646000Y2825740D01*
X645000Y2825740D01*
X644000Y2825740D01*
X643000Y2825740D01*
X642000Y2825740D01*
X641000Y2825740D01*
X640000Y2825740D01*
X639000Y2825740D01*
X638000Y2825740D01*
X637000Y2825740D01*
X636000Y2825740D01*
X635000Y2825740D01*
X634000Y2825740D01*
X633000Y2825740D01*
X632000Y2825740D01*
X631000Y2825740D01*
X630000Y2825740D01*
X629000Y2825740D01*
X628000Y2825740D01*
X627000Y2825740D01*
X626000Y2825740D01*
X625000Y2825740D01*
X624000Y2825740D01*
X623000Y2825740D01*
X622000Y2825740D01*
X621000Y2825740D01*
X620000Y2825740D01*
X619000Y2825740D01*
X618000Y2825740D01*
X617000Y2825740D01*
X616000Y2825740D01*
X615000Y2825740D01*
X614000Y2825740D01*
X613000Y2825740D01*
X612000Y2825740D01*
X611000Y2825740D01*
X610000Y2825740D01*
X609000Y2825740D01*
X608000Y2825740D01*
X607000Y2825740D01*
X606000Y2825740D01*
X605000Y2825740D01*
X604000Y2825740D01*
D02*
X603000Y2331740D02*
X603000Y2330740D01*
X603000Y2134740D01*
X604000Y2134740D01*
X605000Y2134740D01*
X606000Y2134740D01*
X607000Y2134740D01*
X608000Y2134740D01*
X609000Y2134740D01*
X610000Y2134740D01*
X611000Y2134740D01*
X612000Y2134740D01*
X613000Y2134740D01*
X614000Y2134740D01*
X615000Y2134740D01*
X616000Y2134740D01*
X617000Y2134740D01*
X618000Y2134740D01*
X619000Y2134740D01*
X620000Y2134740D01*
X621000Y2134740D01*
X622000Y2134740D01*
X623000Y2134740D01*
X624000Y2134740D01*
X625000Y2134740D01*
X626000Y2134740D01*
X627000Y2134740D01*
X628000Y2134740D01*
X629000Y2134740D01*
X630000Y2134740D01*
X631000Y2134740D01*
X632000Y2134740D01*
X633000Y2134740D01*
X634000Y2134740D01*
X635000Y2134740D01*
X636000Y2134740D01*
X637000Y2134740D01*
X638000Y2134740D01*
X639000Y2134740D01*
X640000Y2134740D01*
X641000Y2134740D01*
X642000Y2134740D01*
X643000Y2134740D01*
X644000Y2134740D01*
X645000Y2134740D01*
X646000Y2134740D01*
X647000Y2134740D01*
X648000Y2134740D01*
X649000Y2134740D01*
X650000Y2134740D01*
X651000Y2134740D01*
X652000Y2134740D01*
X653000Y2134740D01*
X654000Y2134740D01*
X655000Y2134740D01*
X656000Y2134740D01*
X657000Y2134740D01*
X658000Y2134740D01*
X659000Y2134740D01*
X660000Y2134740D01*
X661000Y2134740D01*
X662000Y2134740D01*
X663000Y2134740D01*
X664000Y2134740D01*
X665000Y2134740D01*
X666000Y2134740D01*
X667000Y2134740D01*
X668000Y2134740D01*
X669000Y2134740D01*
X670000Y2134740D01*
X671000Y2134740D01*
X672000Y2134740D01*
X673000Y2134740D01*
X674000Y2134740D01*
X675000Y2134740D01*
X676000Y2134740D01*
X677000Y2134740D01*
X678000Y2134740D01*
X679000Y2134740D01*
X680000Y2134740D01*
X681000Y2134740D01*
X682000Y2134740D01*
X683000Y2134740D01*
X684000Y2134740D01*
X685000Y2134740D01*
X686000Y2134740D01*
X687000Y2134740D01*
X688000Y2134740D01*
X689000Y2134740D01*
X690000Y2134740D01*
X691000Y2134740D01*
X692000Y2134740D01*
X693000Y2134740D01*
X694000Y2134740D01*
X695000Y2134740D01*
X696000Y2134740D01*
X697000Y2134740D01*
X698000Y2134740D01*
X699000Y2134740D01*
X700000Y2134740D01*
X701000Y2134740D01*
X702000Y2134740D01*
X703000Y2134740D01*
X704000Y2134740D01*
X705000Y2134740D01*
X706000Y2134740D01*
X707000Y2134740D01*
X708000Y2134740D01*
X709000Y2134740D01*
X710000Y2134740D01*
X711000Y2134740D01*
X712000Y2134740D01*
X713000Y2134740D01*
X714000Y2134740D01*
X715000Y2134740D01*
X716000Y2134740D01*
X717000Y2134740D01*
X718000Y2134740D01*
X719000Y2134740D01*
X720000Y2134740D01*
X720000Y2331740D01*
X719000Y2331740D01*
X718000Y2331740D01*
X717000Y2331740D01*
X716000Y2331740D01*
X715000Y2331740D01*
X714000Y2331740D01*
X713000Y2331740D01*
X712000Y2331740D01*
X711000Y2331740D01*
X710000Y2331740D01*
X709000Y2331740D01*
X708000Y2331740D01*
X707000Y2331740D01*
X706000Y2331740D01*
X705000Y2331740D01*
X704000Y2331740D01*
X703000Y2331740D01*
X702000Y2331740D01*
X701000Y2331740D01*
X700000Y2331740D01*
X699000Y2331740D01*
X698000Y2331740D01*
X697000Y2331740D01*
X696000Y2331740D01*
X695000Y2331740D01*
X694000Y2331740D01*
X693000Y2331740D01*
X692000Y2331740D01*
X691000Y2331740D01*
X690000Y2331740D01*
X689000Y2331740D01*
X688000Y2331740D01*
X687000Y2331740D01*
X686000Y2331740D01*
X685000Y2331740D01*
X684000Y2331740D01*
X683000Y2331740D01*
X682000Y2331740D01*
X681000Y2331740D01*
X680000Y2331740D01*
X679000Y2331740D01*
X678000Y2331740D01*
X677000Y2331740D01*
X676000Y2331740D01*
X675000Y2331740D01*
X674000Y2331740D01*
X673000Y2331740D01*
X672000Y2331740D01*
X671000Y2331740D01*
X670000Y2331740D01*
X669000Y2331740D01*
X668000Y2331740D01*
X667000Y2331740D01*
X666000Y2331740D01*
X665000Y2331740D01*
X664000Y2331740D01*
X663000Y2331740D01*
X662000Y2331740D01*
X661000Y2331740D01*
X660000Y2331740D01*
X659000Y2331740D01*
X658000Y2331740D01*
X657000Y2331740D01*
X656000Y2331740D01*
X655000Y2331740D01*
X654000Y2331740D01*
X653000Y2331740D01*
X652000Y2331740D01*
X651000Y2331740D01*
X650000Y2331740D01*
X649000Y2331740D01*
X648000Y2331740D01*
X647000Y2331740D01*
X646000Y2331740D01*
X645000Y2331740D01*
X644000Y2331740D01*
X643000Y2331740D01*
X642000Y2331740D01*
X641000Y2331740D01*
X640000Y2331740D01*
X639000Y2331740D01*
X638000Y2331740D01*
X637000Y2331740D01*
X636000Y2331740D01*
X635000Y2331740D01*
X634000Y2331740D01*
X633000Y2331740D01*
X632000Y2331740D01*
X631000Y2331740D01*
X630000Y2331740D01*
X629000Y2331740D01*
X628000Y2331740D01*
X627000Y2331740D01*
X626000Y2331740D01*
X625000Y2331740D01*
X624000Y2331740D01*
X623000Y2331740D01*
X622000Y2331740D01*
X621000Y2331740D01*
X620000Y2331740D01*
X619000Y2331740D01*
X618000Y2331740D01*
X617000Y2331740D01*
X616000Y2331740D01*
X615000Y2331740D01*
X614000Y2331740D01*
X613000Y2331740D01*
X612000Y2331740D01*
X611000Y2331740D01*
X610000Y2331740D01*
X609000Y2331740D01*
X608000Y2331740D01*
X607000Y2331740D01*
X606000Y2331740D01*
X605000Y2331740D01*
X604000Y2331740D01*
X603000Y2331740D01*
D02*
X604000Y1723740D02*
X605000Y1723740D01*
X606000Y1723740D01*
X607000Y1723740D01*
X608000Y1723740D01*
X609000Y1723740D01*
X610000Y1723740D01*
X611000Y1723740D01*
X612000Y1723740D01*
X613000Y1723740D01*
X614000Y1723740D01*
X615000Y1723740D01*
X616000Y1723740D01*
X617000Y1723740D01*
X618000Y1723740D01*
X619000Y1723740D01*
X620000Y1723740D01*
X621000Y1723740D01*
X622000Y1723740D01*
X623000Y1723740D01*
X624000Y1723740D01*
X625000Y1723740D01*
X626000Y1723740D01*
X627000Y1723740D01*
X628000Y1723740D01*
X629000Y1723740D01*
X630000Y1723740D01*
X631000Y1723740D01*
X632000Y1723740D01*
X633000Y1723740D01*
X634000Y1723740D01*
X635000Y1723740D01*
X636000Y1723740D01*
X637000Y1723740D01*
X638000Y1723740D01*
X639000Y1723740D01*
X640000Y1723740D01*
X641000Y1723740D01*
X642000Y1723740D01*
X643000Y1723740D01*
X644000Y1723740D01*
X645000Y1723740D01*
X646000Y1723740D01*
X647000Y1723740D01*
X648000Y1723740D01*
X649000Y1723740D01*
X650000Y1723740D01*
X651000Y1723740D01*
X652000Y1723740D01*
X653000Y1723740D01*
X654000Y1723740D01*
X655000Y1723740D01*
X656000Y1723740D01*
X657000Y1723740D01*
X658000Y1723740D01*
X659000Y1723740D01*
X660000Y1723740D01*
X661000Y1723740D01*
X662000Y1723740D01*
X663000Y1723740D01*
X664000Y1723740D01*
X665000Y1723740D01*
X666000Y1723740D01*
X667000Y1723740D01*
X668000Y1723740D01*
X669000Y1723740D01*
X670000Y1723740D01*
X671000Y1723740D01*
X672000Y1723740D01*
X673000Y1723740D01*
X674000Y1723740D01*
X675000Y1723740D01*
X676000Y1723740D01*
X677000Y1723740D01*
X678000Y1723740D01*
X679000Y1723740D01*
X680000Y1723740D01*
X681000Y1723740D01*
X682000Y1723740D01*
X683000Y1723740D01*
X684000Y1723740D01*
X685000Y1723740D01*
X686000Y1723740D01*
X687000Y1723740D01*
X688000Y1723740D01*
X689000Y1723740D01*
X690000Y1723740D01*
X691000Y1723740D01*
X692000Y1723740D01*
X693000Y1723740D01*
X694000Y1723740D01*
X695000Y1723740D01*
X696000Y1723740D01*
X697000Y1723740D01*
X698000Y1723740D01*
X699000Y1723740D01*
X700000Y1723740D01*
X701000Y1723740D01*
X702000Y1723740D01*
X703000Y1723740D01*
X704000Y1723740D01*
X705000Y1723740D01*
X706000Y1723740D01*
X707000Y1723740D01*
X708000Y1723740D01*
X709000Y1723740D01*
X710000Y1723740D01*
X711000Y1723740D01*
X712000Y1723740D01*
X713000Y1723740D01*
X714000Y1723740D01*
X715000Y1723740D01*
X716000Y1723740D01*
X717000Y1723740D01*
X718000Y1723740D01*
X719000Y1723740D01*
X720000Y1723740D01*
X720000Y1525740D01*
X719000Y1525740D01*
X718000Y1525740D01*
X717000Y1525740D01*
X716000Y1525740D01*
X715000Y1525740D01*
X714000Y1525740D01*
X713000Y1525740D01*
X712000Y1525740D01*
X711000Y1525740D01*
X710000Y1525740D01*
X709000Y1525740D01*
X708000Y1525740D01*
X707000Y1525740D01*
X706000Y1525740D01*
X705000Y1525740D01*
X704000Y1525740D01*
X703000Y1525740D01*
X702000Y1525740D01*
X701000Y1525740D01*
X700000Y1525740D01*
X699000Y1525740D01*
X698000Y1525740D01*
X697000Y1525740D01*
X696000Y1525740D01*
X695000Y1525740D01*
X694000Y1525740D01*
X693000Y1525740D01*
X692000Y1525740D01*
X691000Y1525740D01*
X690000Y1525740D01*
X689000Y1525740D01*
X688000Y1525740D01*
X687000Y1525740D01*
X686000Y1525740D01*
X685000Y1525740D01*
X684000Y1525740D01*
X683000Y1525740D01*
X682000Y1525740D01*
X681000Y1525740D01*
X680000Y1525740D01*
X679000Y1525740D01*
X678000Y1525740D01*
X677000Y1525740D01*
X676000Y1525740D01*
X675000Y1525740D01*
X674000Y1525740D01*
X673000Y1525740D01*
X672000Y1525740D01*
X671000Y1525740D01*
X670000Y1525740D01*
X669000Y1525740D01*
X668000Y1525740D01*
X667000Y1525740D01*
X666000Y1525740D01*
X665000Y1525740D01*
X664000Y1525740D01*
X663000Y1525740D01*
X662000Y1525740D01*
X661000Y1525740D01*
X660000Y1525740D01*
X659000Y1525740D01*
X658000Y1525740D01*
X657000Y1525740D01*
X656000Y1525740D01*
X655000Y1525740D01*
X654000Y1525740D01*
X653000Y1525740D01*
X652000Y1525740D01*
X651000Y1525740D01*
X650000Y1525740D01*
X649000Y1525740D01*
X648000Y1525740D01*
X647000Y1525740D01*
X646000Y1525740D01*
X645000Y1525740D01*
X644000Y1525740D01*
X643000Y1525740D01*
X642000Y1525740D01*
X641000Y1525740D01*
X640000Y1525740D01*
X639000Y1525740D01*
X638000Y1525740D01*
X637000Y1525740D01*
X636000Y1525740D01*
X635000Y1525740D01*
X634000Y1525740D01*
X633000Y1525740D01*
X632000Y1525740D01*
X631000Y1525740D01*
X630000Y1525740D01*
X629000Y1525740D01*
X628000Y1525740D01*
X627000Y1525740D01*
X626000Y1525740D01*
X625000Y1525740D01*
X624000Y1525740D01*
X623000Y1525740D01*
X622000Y1525740D01*
X621000Y1525740D01*
X620000Y1525740D01*
X619000Y1525740D01*
X618000Y1525740D01*
X617000Y1525740D01*
X616000Y1525740D01*
X615000Y1525740D01*
X614000Y1525740D01*
X613000Y1525740D01*
X612000Y1525740D01*
X611000Y1525740D01*
X610000Y1525740D01*
X609000Y1525740D01*
X608000Y1525740D01*
X607000Y1525740D01*
X606000Y1525740D01*
X605000Y1525740D01*
X604000Y1525740D01*
X603000Y1525740D01*
X603000Y1722740D01*
X604000Y1723740D01*
D02*
X603000Y1236740D02*
X603000Y1235740D01*
X603000Y1039740D01*
X604000Y1039740D01*
X605000Y1039740D01*
X606000Y1039740D01*
X607000Y1039740D01*
X608000Y1039740D01*
X609000Y1039740D01*
X610000Y1039740D01*
X611000Y1039740D01*
X612000Y1039740D01*
X613000Y1039740D01*
X614000Y1039740D01*
X615000Y1039740D01*
X616000Y1039740D01*
X617000Y1039740D01*
X618000Y1039740D01*
X619000Y1039740D01*
X620000Y1039740D01*
X621000Y1039740D01*
X622000Y1039740D01*
X623000Y1039740D01*
X624000Y1039740D01*
X625000Y1039740D01*
X626000Y1039740D01*
X627000Y1039740D01*
X628000Y1039740D01*
X629000Y1039740D01*
X630000Y1039740D01*
X631000Y1039740D01*
X632000Y1039740D01*
X633000Y1039740D01*
X634000Y1039740D01*
X635000Y1039740D01*
X636000Y1039740D01*
X637000Y1039740D01*
X638000Y1039740D01*
X639000Y1039740D01*
X640000Y1039740D01*
X641000Y1039740D01*
X642000Y1039740D01*
X643000Y1039740D01*
X644000Y1039740D01*
X645000Y1039740D01*
X646000Y1039740D01*
X647000Y1039740D01*
X648000Y1039740D01*
X649000Y1039740D01*
X650000Y1039740D01*
X651000Y1039740D01*
X652000Y1039740D01*
X653000Y1039740D01*
X654000Y1039740D01*
X655000Y1039740D01*
X656000Y1039740D01*
X657000Y1039740D01*
X658000Y1039740D01*
X659000Y1039740D01*
X660000Y1039740D01*
X661000Y1039740D01*
X662000Y1039740D01*
X663000Y1039740D01*
X664000Y1039740D01*
X665000Y1039740D01*
X666000Y1039740D01*
X667000Y1039740D01*
X668000Y1039740D01*
X669000Y1039740D01*
X670000Y1039740D01*
X671000Y1039740D01*
X672000Y1039740D01*
X673000Y1039740D01*
X674000Y1039740D01*
X675000Y1039740D01*
X676000Y1039740D01*
X677000Y1039740D01*
X678000Y1039740D01*
X679000Y1039740D01*
X680000Y1039740D01*
X681000Y1039740D01*
X682000Y1039740D01*
X683000Y1039740D01*
X684000Y1039740D01*
X685000Y1039740D01*
X686000Y1039740D01*
X687000Y1039740D01*
X688000Y1039740D01*
X689000Y1039740D01*
X690000Y1039740D01*
X691000Y1039740D01*
X692000Y1039740D01*
X693000Y1039740D01*
X694000Y1039740D01*
X695000Y1039740D01*
X696000Y1039740D01*
X697000Y1039740D01*
X698000Y1039740D01*
X699000Y1039740D01*
X700000Y1039740D01*
X701000Y1039740D01*
X702000Y1039740D01*
X703000Y1039740D01*
X704000Y1039740D01*
X705000Y1039740D01*
X706000Y1039740D01*
X707000Y1039740D01*
X708000Y1039740D01*
X709000Y1039740D01*
X710000Y1039740D01*
X711000Y1039740D01*
X712000Y1039740D01*
X713000Y1039740D01*
X714000Y1039740D01*
X715000Y1039740D01*
X716000Y1039740D01*
X717000Y1039740D01*
X718000Y1039740D01*
X719000Y1039740D01*
X720000Y1039740D01*
X720000Y1236740D01*
X719000Y1236740D01*
X718000Y1236740D01*
X717000Y1236740D01*
X716000Y1236740D01*
X715000Y1236740D01*
X714000Y1236740D01*
X713000Y1236740D01*
X712000Y1236740D01*
X711000Y1236740D01*
X710000Y1236740D01*
X709000Y1236740D01*
X708000Y1236740D01*
X707000Y1236740D01*
X706000Y1236740D01*
X705000Y1236740D01*
X704000Y1236740D01*
X703000Y1236740D01*
X702000Y1236740D01*
X701000Y1236740D01*
X700000Y1236740D01*
X699000Y1236740D01*
X698000Y1236740D01*
X697000Y1236740D01*
X696000Y1236740D01*
X695000Y1236740D01*
X694000Y1236740D01*
X693000Y1236740D01*
X692000Y1236740D01*
X691000Y1236740D01*
X690000Y1236740D01*
X689000Y1236740D01*
X688000Y1236740D01*
X687000Y1236740D01*
X686000Y1236740D01*
X685000Y1236740D01*
X684000Y1236740D01*
X683000Y1236740D01*
X682000Y1236740D01*
X681000Y1236740D01*
X680000Y1236740D01*
X679000Y1236740D01*
X678000Y1236740D01*
X677000Y1236740D01*
X676000Y1236740D01*
X675000Y1236740D01*
X674000Y1236740D01*
X673000Y1236740D01*
X672000Y1236740D01*
X671000Y1236740D01*
X670000Y1236740D01*
X669000Y1236740D01*
X668000Y1236740D01*
X667000Y1236740D01*
X666000Y1236740D01*
X665000Y1236740D01*
X664000Y1236740D01*
X663000Y1236740D01*
X662000Y1236740D01*
X661000Y1236740D01*
X660000Y1236740D01*
X659000Y1236740D01*
X658000Y1236740D01*
X657000Y1236740D01*
X656000Y1236740D01*
X655000Y1236740D01*
X654000Y1236740D01*
X653000Y1236740D01*
X652000Y1236740D01*
X651000Y1236740D01*
X650000Y1236740D01*
X649000Y1236740D01*
X648000Y1236740D01*
X647000Y1236740D01*
X646000Y1236740D01*
X645000Y1236740D01*
X644000Y1236740D01*
X643000Y1236740D01*
X642000Y1236740D01*
X641000Y1236740D01*
X640000Y1236740D01*
X639000Y1236740D01*
X638000Y1236740D01*
X637000Y1236740D01*
X636000Y1236740D01*
X635000Y1236740D01*
X634000Y1236740D01*
X633000Y1236740D01*
X632000Y1236740D01*
X631000Y1236740D01*
X630000Y1236740D01*
X629000Y1236740D01*
X628000Y1236740D01*
X627000Y1236740D01*
X626000Y1236740D01*
X625000Y1236740D01*
X624000Y1236740D01*
X623000Y1236740D01*
X622000Y1236740D01*
X621000Y1236740D01*
X620000Y1236740D01*
X619000Y1236740D01*
X618000Y1236740D01*
X617000Y1236740D01*
X616000Y1236740D01*
X615000Y1236740D01*
X614000Y1236740D01*
X613000Y1236740D01*
X612000Y1236740D01*
X611000Y1236740D01*
X610000Y1236740D01*
X609000Y1236740D01*
X608000Y1236740D01*
X607000Y1236740D01*
X606000Y1236740D01*
X605000Y1236740D01*
X604000Y1236740D01*
X603000Y1236740D01*
D02*
X604000Y647740D02*
X605000Y647740D01*
X606000Y647740D01*
X607000Y647740D01*
X608000Y647740D01*
X609000Y647740D01*
X610000Y647740D01*
X611000Y647740D01*
X612000Y647740D01*
X613000Y647740D01*
X614000Y647740D01*
X615000Y647740D01*
X616000Y647740D01*
X617000Y647740D01*
X618000Y647740D01*
X619000Y647740D01*
X620000Y647740D01*
X621000Y647740D01*
X622000Y647740D01*
X623000Y647740D01*
X624000Y647740D01*
X625000Y647740D01*
X626000Y647740D01*
X627000Y647740D01*
X628000Y647740D01*
X629000Y647740D01*
X630000Y647740D01*
X631000Y647740D01*
X632000Y647740D01*
X633000Y647740D01*
X634000Y647740D01*
X635000Y647740D01*
X636000Y647740D01*
X637000Y647740D01*
X638000Y647740D01*
X639000Y647740D01*
X640000Y647740D01*
X641000Y647740D01*
X642000Y647740D01*
X643000Y647740D01*
X644000Y647740D01*
X645000Y647740D01*
X646000Y647740D01*
X647000Y647740D01*
X648000Y647740D01*
X649000Y647740D01*
X650000Y647740D01*
X651000Y647740D01*
X652000Y647740D01*
X653000Y647740D01*
X654000Y647740D01*
X655000Y647740D01*
X656000Y647740D01*
X657000Y647740D01*
X658000Y647740D01*
X659000Y647740D01*
X660000Y647740D01*
X661000Y647740D01*
X662000Y647740D01*
X663000Y647740D01*
X664000Y647740D01*
X665000Y647740D01*
X666000Y647740D01*
X667000Y647740D01*
X668000Y647740D01*
X669000Y647740D01*
X670000Y647740D01*
X671000Y647740D01*
X672000Y647740D01*
X673000Y647740D01*
X674000Y647740D01*
X675000Y647740D01*
X676000Y647740D01*
X677000Y647740D01*
X678000Y647740D01*
X679000Y647740D01*
X680000Y647740D01*
X681000Y647740D01*
X682000Y647740D01*
X683000Y647740D01*
X684000Y647740D01*
X685000Y647740D01*
X686000Y647740D01*
X687000Y647740D01*
X688000Y647740D01*
X689000Y647740D01*
X690000Y647740D01*
X691000Y647740D01*
X692000Y647740D01*
X693000Y647740D01*
X694000Y647740D01*
X695000Y647740D01*
X696000Y647740D01*
X697000Y647740D01*
X698000Y647740D01*
X699000Y647740D01*
X700000Y647740D01*
X701000Y647740D01*
X702000Y647740D01*
X703000Y647740D01*
X704000Y647740D01*
X705000Y647740D01*
X706000Y647740D01*
X707000Y647740D01*
X708000Y647740D01*
X709000Y647740D01*
X710000Y647740D01*
X711000Y647740D01*
X712000Y647740D01*
X713000Y647740D01*
X714000Y647740D01*
X715000Y647740D01*
X716000Y647740D01*
X717000Y647740D01*
X718000Y647740D01*
X719000Y647740D01*
X720000Y647740D01*
X720000Y449740D01*
X719000Y449740D01*
X718000Y449740D01*
X717000Y449740D01*
X716000Y449740D01*
X715000Y449740D01*
X714000Y449740D01*
X713000Y449740D01*
X712000Y449740D01*
X711000Y449740D01*
X710000Y449740D01*
X709000Y449740D01*
X708000Y449740D01*
X707000Y449740D01*
X706000Y449740D01*
X705000Y449740D01*
X704000Y449740D01*
X703000Y449740D01*
X702000Y449740D01*
X701000Y449740D01*
X700000Y449740D01*
X699000Y449740D01*
X698000Y449740D01*
X697000Y449740D01*
X696000Y449740D01*
X695000Y449740D01*
X694000Y449740D01*
X693000Y449740D01*
X692000Y449740D01*
X691000Y449740D01*
X690000Y449740D01*
X689000Y449740D01*
X688000Y449740D01*
X687000Y449740D01*
X686000Y449740D01*
X685000Y449740D01*
X684000Y449740D01*
X683000Y449740D01*
X682000Y449740D01*
X681000Y449740D01*
X680000Y449740D01*
X679000Y449740D01*
X678000Y449740D01*
X677000Y449740D01*
X676000Y449740D01*
X675000Y449740D01*
X674000Y449740D01*
X673000Y449740D01*
X672000Y449740D01*
X671000Y449740D01*
X670000Y449740D01*
X669000Y449740D01*
X668000Y449740D01*
X667000Y449740D01*
X666000Y449740D01*
X665000Y449740D01*
X664000Y449740D01*
X663000Y449740D01*
X662000Y449740D01*
X661000Y449740D01*
X660000Y449740D01*
X659000Y449740D01*
X658000Y449740D01*
X657000Y449740D01*
X656000Y449740D01*
X655000Y449740D01*
X654000Y449740D01*
X653000Y449740D01*
X652000Y449740D01*
X651000Y449740D01*
X650000Y449740D01*
X649000Y449740D01*
X648000Y449740D01*
X647000Y449740D01*
X646000Y449740D01*
X645000Y449740D01*
X644000Y449740D01*
X643000Y449740D01*
X642000Y449740D01*
X641000Y449740D01*
X640000Y449740D01*
X639000Y449740D01*
X638000Y449740D01*
X637000Y449740D01*
X636000Y449740D01*
X635000Y449740D01*
X634000Y449740D01*
X633000Y449740D01*
X632000Y449740D01*
X631000Y449740D01*
X630000Y449740D01*
X629000Y449740D01*
X628000Y449740D01*
X627000Y449740D01*
X626000Y449740D01*
X625000Y449740D01*
X624000Y449740D01*
X623000Y449740D01*
X622000Y449740D01*
X621000Y449740D01*
X620000Y449740D01*
X619000Y449740D01*
X618000Y449740D01*
X617000Y449740D01*
X616000Y449740D01*
X615000Y449740D01*
X614000Y449740D01*
X613000Y449740D01*
X612000Y449740D01*
X611000Y449740D01*
X610000Y449740D01*
X609000Y449740D01*
X608000Y449740D01*
X607000Y449740D01*
X606000Y449740D01*
X605000Y449740D01*
X604000Y449740D01*
X603000Y449740D01*
X603000Y646740D01*
X604000Y647740D01*
D02*
G04 End of contour*
M02*