G04 MADE WITH FRITZING*
G04 WWW.FRITZING.ORG*
G04 DOUBLE SIDED*
G04 HOLES PLATED*
G04 CONTOUR ON CENTER OF CONTOUR VECTOR*
%FSLAX26Y26*%
%MOIN*%
%ADD10R,0.001000X0.001000*%
G04 SILK0*
%FSLAX26Y26*%
%MOIN*%
D10*
X1476500Y2412240D02*
X1523500Y2412240D01*
X1475500Y2411240D02*
X1525500Y2411240D01*
X1474500Y2410240D02*
X1526500Y2410240D01*
X1474500Y2409240D02*
X1526500Y2409240D01*
X1474500Y2408240D02*
X1526500Y2408240D01*
X1474500Y2407240D02*
X1526500Y2407240D01*
X1475500Y2406240D02*
X1525500Y2406240D01*
X1492500Y2405240D02*
X1502500Y2405240D01*
X1513500Y2405240D02*
X1522500Y2405240D01*
X1492500Y2404240D02*
X1500500Y2404240D01*
X1514500Y2404240D02*
X1523500Y2404240D01*
X1491500Y2403240D02*
X1499500Y2403240D01*
X1515500Y2403240D02*
X1523500Y2403240D01*
X1490500Y2402240D02*
X1498500Y2402240D01*
X1516500Y2402240D02*
X1524500Y2402240D01*
X1490500Y2401240D02*
X1497500Y2401240D01*
X1517500Y2401240D02*
X1525500Y2401240D01*
X1489500Y2400240D02*
X1496500Y2400240D01*
X1518500Y2400240D02*
X1525500Y2400240D01*
X1489500Y2399240D02*
X1496500Y2399240D01*
X1519500Y2399240D02*
X1526500Y2399240D01*
X1488500Y2398240D02*
X1495500Y2398240D01*
X1519500Y2398240D02*
X1526500Y2398240D01*
X1488500Y2397240D02*
X1494500Y2397240D01*
X1520500Y2397240D02*
X1526500Y2397240D01*
X1488500Y2396240D02*
X1494500Y2396240D01*
X1520500Y2396240D02*
X1526500Y2396240D01*
X1488500Y2395240D02*
X1494500Y2395240D01*
X1520500Y2395240D02*
X1526500Y2395240D01*
X1488500Y2394240D02*
X1494500Y2394240D01*
X1520500Y2394240D02*
X1526500Y2394240D01*
X1488500Y2393240D02*
X1494500Y2393240D01*
X1520500Y2393240D02*
X1526500Y2393240D01*
X1488500Y2392240D02*
X1494500Y2392240D01*
X1520500Y2392240D02*
X1526500Y2392240D01*
X1488500Y2391240D02*
X1494500Y2391240D01*
X1520500Y2391240D02*
X1526500Y2391240D01*
X1488500Y2390240D02*
X1494500Y2390240D01*
X1520500Y2390240D02*
X1526500Y2390240D01*
X1488500Y2389240D02*
X1495500Y2389240D01*
X1520500Y2389240D02*
X1526500Y2389240D01*
X1489500Y2388240D02*
X1495500Y2388240D01*
X1519500Y2388240D02*
X1526500Y2388240D01*
X1489500Y2387240D02*
X1496500Y2387240D01*
X1518500Y2387240D02*
X1525500Y2387240D01*
X1489500Y2386240D02*
X1497500Y2386240D01*
X1517500Y2386240D02*
X1525500Y2386240D01*
X1490500Y2385240D02*
X1499500Y2385240D01*
X1515500Y2385240D02*
X1524500Y2385240D01*
X1491500Y2384240D02*
X1523500Y2384240D01*
X1491500Y2383240D02*
X1523500Y2383240D01*
X1492500Y2382240D02*
X1522500Y2382240D01*
X1493500Y2381240D02*
X1521500Y2381240D01*
X1495500Y2380240D02*
X1519500Y2380240D01*
X1496500Y2379240D02*
X1518500Y2379240D01*
X1476500Y2359240D02*
X1477500Y2359240D01*
X1522500Y2359240D02*
X1524500Y2359240D01*
X1475500Y2358240D02*
X1479500Y2358240D01*
X1521500Y2358240D02*
X1525500Y2358240D01*
X1474500Y2357240D02*
X1479500Y2357240D01*
X1520500Y2357240D02*
X1526500Y2357240D01*
X1474500Y2356240D02*
X1479500Y2356240D01*
X1520500Y2356240D02*
X1526500Y2356240D01*
X1474500Y2355240D02*
X1480500Y2355240D01*
X1520500Y2355240D02*
X1526500Y2355240D01*
X1474500Y2354240D02*
X1480500Y2354240D01*
X1520500Y2354240D02*
X1526500Y2354240D01*
X1474500Y2353240D02*
X1480500Y2353240D01*
X1520500Y2353240D02*
X1526500Y2353240D01*
X1474500Y2352240D02*
X1480500Y2352240D01*
X1520500Y2352240D02*
X1526500Y2352240D01*
X1474500Y2351240D02*
X1480500Y2351240D01*
X1520500Y2351240D02*
X1526500Y2351240D01*
X1474500Y2350240D02*
X1480500Y2350240D01*
X1520500Y2350240D02*
X1526500Y2350240D01*
X1474500Y2349240D02*
X1526500Y2349240D01*
X1474500Y2348240D02*
X1526500Y2348240D01*
X1474500Y2347240D02*
X1526500Y2347240D01*
X1474500Y2346240D02*
X1526500Y2346240D01*
X1474500Y2345240D02*
X1526500Y2345240D01*
X1474500Y2344240D02*
X1526500Y2344240D01*
X1475500Y2343240D02*
X1526500Y2343240D01*
X1520500Y2342240D02*
X1526500Y2342240D01*
X1520500Y2341240D02*
X1526500Y2341240D01*
X1520500Y2340240D02*
X1526500Y2340240D01*
X1520500Y2339240D02*
X1526500Y2339240D01*
X1520500Y2338240D02*
X1526500Y2338240D01*
X1520500Y2337240D02*
X1526500Y2337240D01*
X1520500Y2336240D02*
X1526500Y2336240D01*
X1520500Y2335240D02*
X1526500Y2335240D01*
X1520500Y2334240D02*
X1526500Y2334240D01*
X1521500Y2333240D02*
X1525500Y2333240D01*
X1523500Y2332240D02*
X1523500Y2332240D01*
X1490500Y2312240D02*
X1520500Y2312240D01*
X1489500Y2311240D02*
X1522500Y2311240D01*
X1488500Y2310240D02*
X1523500Y2310240D01*
X1488500Y2309240D02*
X1524500Y2309240D01*
X1488500Y2308240D02*
X1524500Y2308240D01*
X1489500Y2307240D02*
X1525500Y2307240D01*
X1490500Y2306240D02*
X1525500Y2306240D01*
X1519500Y2305240D02*
X1526500Y2305240D01*
X1520500Y2304240D02*
X1526500Y2304240D01*
X1520500Y2303240D02*
X1526500Y2303240D01*
X1520500Y2302240D02*
X1526500Y2302240D01*
X1520500Y2301240D02*
X1526500Y2301240D01*
X1520500Y2300240D02*
X1526500Y2300240D01*
X1520500Y2299240D02*
X1526500Y2299240D01*
X1520500Y2298240D02*
X1526500Y2298240D01*
X1520500Y2297240D02*
X1526500Y2297240D01*
X1519500Y2296240D02*
X1526500Y2296240D01*
X1518500Y2295240D02*
X1525500Y2295240D01*
X1518500Y2294240D02*
X1525500Y2294240D01*
X1517500Y2293240D02*
X1524500Y2293240D01*
X1517500Y2292240D02*
X1524500Y2292240D01*
X1516500Y2291240D02*
X1523500Y2291240D01*
X1515500Y2290240D02*
X1522500Y2290240D01*
X1515500Y2289240D02*
X1522500Y2289240D01*
X1514500Y2288240D02*
X1521500Y2288240D01*
X1513500Y2287240D02*
X1521500Y2287240D01*
X1490500Y2286240D02*
X1524500Y2286240D01*
X1489500Y2285240D02*
X1525500Y2285240D01*
X1488500Y2284240D02*
X1526500Y2284240D01*
X1488500Y2283240D02*
X1526500Y2283240D01*
X1488500Y2282240D02*
X1526500Y2282240D01*
X1489500Y2281240D02*
X1525500Y2281240D01*
X1490500Y2280240D02*
X1524500Y2280240D01*
X1497500Y2263240D02*
X1517500Y2263240D01*
X1495500Y2262240D02*
X1519500Y2262240D01*
X1494500Y2261240D02*
X1520500Y2261240D01*
X1493500Y2260240D02*
X1521500Y2260240D01*
X1492500Y2259240D02*
X1522500Y2259240D01*
X1491500Y2258240D02*
X1523500Y2258240D01*
X1490500Y2257240D02*
X1524500Y2257240D01*
X1490500Y2256240D02*
X1498500Y2256240D01*
X1504500Y2256240D02*
X1510500Y2256240D01*
X1516500Y2256240D02*
X1525500Y2256240D01*
X1489500Y2255240D02*
X1496500Y2255240D01*
X1504500Y2255240D02*
X1510500Y2255240D01*
X1518500Y2255240D02*
X1525500Y2255240D01*
X1489500Y2254240D02*
X1496500Y2254240D01*
X1504500Y2254240D02*
X1510500Y2254240D01*
X1519500Y2254240D02*
X1525500Y2254240D01*
X1488500Y2253240D02*
X1495500Y2253240D01*
X1504500Y2253240D02*
X1510500Y2253240D01*
X1519500Y2253240D02*
X1526500Y2253240D01*
X1488500Y2252240D02*
X1494500Y2252240D01*
X1504500Y2252240D02*
X1510500Y2252240D01*
X1520500Y2252240D02*
X1526500Y2252240D01*
X1488500Y2251240D02*
X1494500Y2251240D01*
X1504500Y2251240D02*
X1510500Y2251240D01*
X1520500Y2251240D02*
X1526500Y2251240D01*
X1488500Y2250240D02*
X1494500Y2250240D01*
X1504500Y2250240D02*
X1510500Y2250240D01*
X1520500Y2250240D02*
X1526500Y2250240D01*
X1488500Y2249240D02*
X1494500Y2249240D01*
X1504500Y2249240D02*
X1510500Y2249240D01*
X1520500Y2249240D02*
X1526500Y2249240D01*
X1488500Y2248240D02*
X1494500Y2248240D01*
X1504500Y2248240D02*
X1510500Y2248240D01*
X1520500Y2248240D02*
X1526500Y2248240D01*
X1488500Y2247240D02*
X1494500Y2247240D01*
X1504500Y2247240D02*
X1510500Y2247240D01*
X1520500Y2247240D02*
X1526500Y2247240D01*
X1488500Y2246240D02*
X1494500Y2246240D01*
X1504500Y2246240D02*
X1510500Y2246240D01*
X1520500Y2246240D02*
X1526500Y2246240D01*
X1488500Y2245240D02*
X1494500Y2245240D01*
X1504500Y2245240D02*
X1510500Y2245240D01*
X1520500Y2245240D02*
X1526500Y2245240D01*
X1488500Y2244240D02*
X1494500Y2244240D01*
X1504500Y2244240D02*
X1510500Y2244240D01*
X1520500Y2244240D02*
X1526500Y2244240D01*
X1488500Y2243240D02*
X1494500Y2243240D01*
X1504500Y2243240D02*
X1510500Y2243240D01*
X1520500Y2243240D02*
X1526500Y2243240D01*
X1488500Y2242240D02*
X1494500Y2242240D01*
X1504500Y2242240D02*
X1510500Y2242240D01*
X1520500Y2242240D02*
X1526500Y2242240D01*
X1488500Y2241240D02*
X1494500Y2241240D01*
X1504500Y2241240D02*
X1510500Y2241240D01*
X1520500Y2241240D02*
X1526500Y2241240D01*
X1488500Y2240240D02*
X1495500Y2240240D01*
X1504500Y2240240D02*
X1510500Y2240240D01*
X1520500Y2240240D02*
X1526500Y2240240D01*
X1489500Y2239240D02*
X1496500Y2239240D01*
X1504500Y2239240D02*
X1510500Y2239240D01*
X1520500Y2239240D02*
X1526500Y2239240D01*
X1489500Y2238240D02*
X1496500Y2238240D01*
X1504500Y2238240D02*
X1510500Y2238240D01*
X1520500Y2238240D02*
X1526500Y2238240D01*
X1490500Y2237240D02*
X1498500Y2237240D01*
X1504500Y2237240D02*
X1510500Y2237240D01*
X1520500Y2237240D02*
X1526500Y2237240D01*
X1490500Y2236240D02*
X1510500Y2236240D01*
X1520500Y2236240D02*
X1526500Y2236240D01*
X1491500Y2235240D02*
X1510500Y2235240D01*
X1520500Y2235240D02*
X1526500Y2235240D01*
X1492500Y2234240D02*
X1510500Y2234240D01*
X1520500Y2234240D02*
X1526500Y2234240D01*
X1493500Y2233240D02*
X1510500Y2233240D01*
X1520500Y2233240D02*
X1526500Y2233240D01*
X1494500Y2232240D02*
X1510500Y2232240D01*
X1520500Y2232240D02*
X1526500Y2232240D01*
X1495500Y2231240D02*
X1509500Y2231240D01*
X1521500Y2231240D02*
X1525500Y2231240D01*
X1498500Y2230240D02*
X1508500Y2230240D01*
X1522500Y2230240D02*
X1524500Y2230240D01*
X1489500Y2214240D02*
X1538500Y2214240D01*
X1488500Y2213240D02*
X1540500Y2213240D01*
X1487500Y2212240D02*
X1540500Y2212240D01*
X1487500Y2211240D02*
X1540500Y2211240D01*
X1487500Y2210240D02*
X1540500Y2210240D01*
X1487500Y2209240D02*
X1540500Y2209240D01*
X1488500Y2208240D02*
X1539500Y2208240D01*
X1492500Y2207240D02*
X1501500Y2207240D01*
X1513500Y2207240D02*
X1523500Y2207240D01*
X1491500Y2206240D02*
X1500500Y2206240D01*
X1515500Y2206240D02*
X1524500Y2206240D01*
X1490500Y2205240D02*
X1498500Y2205240D01*
X1516500Y2205240D02*
X1524500Y2205240D01*
X1489500Y2204240D02*
X1497500Y2204240D01*
X1517500Y2204240D02*
X1525500Y2204240D01*
X1488500Y2203240D02*
X1496500Y2203240D01*
X1518500Y2203240D02*
X1526500Y2203240D01*
X1488500Y2202240D02*
X1495500Y2202240D01*
X1519500Y2202240D02*
X1526500Y2202240D01*
X1487500Y2201240D02*
X1494500Y2201240D01*
X1520500Y2201240D02*
X1527500Y2201240D01*
X1487500Y2200240D02*
X1494500Y2200240D01*
X1521500Y2200240D02*
X1527500Y2200240D01*
X1487500Y2199240D02*
X1493500Y2199240D01*
X1521500Y2199240D02*
X1527500Y2199240D01*
X1487500Y2198240D02*
X1493500Y2198240D01*
X1522500Y2198240D02*
X1527500Y2198240D01*
X1487500Y2197240D02*
X1493500Y2197240D01*
X1522500Y2197240D02*
X1527500Y2197240D01*
X1487500Y2196240D02*
X1493500Y2196240D01*
X1521500Y2196240D02*
X1527500Y2196240D01*
X1487500Y2195240D02*
X1493500Y2195240D01*
X1521500Y2195240D02*
X1527500Y2195240D01*
X1487500Y2194240D02*
X1494500Y2194240D01*
X1521500Y2194240D02*
X1527500Y2194240D01*
X1487500Y2193240D02*
X1494500Y2193240D01*
X1520500Y2193240D02*
X1527500Y2193240D01*
X1488500Y2192240D02*
X1495500Y2192240D01*
X1519500Y2192240D02*
X1526500Y2192240D01*
X1488500Y2191240D02*
X1496500Y2191240D01*
X1518500Y2191240D02*
X1526500Y2191240D01*
X1489500Y2190240D02*
X1497500Y2190240D01*
X1517500Y2190240D02*
X1525500Y2190240D01*
X1490500Y2189240D02*
X1498500Y2189240D01*
X1516500Y2189240D02*
X1525500Y2189240D01*
X1490500Y2188240D02*
X1499500Y2188240D01*
X1515500Y2188240D02*
X1524500Y2188240D01*
X1491500Y2187240D02*
X1501500Y2187240D01*
X1513500Y2187240D02*
X1523500Y2187240D01*
X1492500Y2186240D02*
X1522500Y2186240D01*
X1493500Y2185240D02*
X1521500Y2185240D01*
X1494500Y2184240D02*
X1520500Y2184240D01*
X1495500Y2183240D02*
X1519500Y2183240D01*
X1496500Y2182240D02*
X1518500Y2182240D01*
X1498500Y2181240D02*
X1516500Y2181240D01*
X1490500Y2164240D02*
X1525500Y2164240D01*
X1489500Y2163240D02*
X1525500Y2163240D01*
X1488500Y2162240D02*
X1526500Y2162240D01*
X1488500Y2161240D02*
X1526500Y2161240D01*
X1488500Y2160240D02*
X1526500Y2160240D01*
X1489500Y2159240D02*
X1525500Y2159240D01*
X1491500Y2158240D02*
X1524500Y2158240D01*
X1495500Y2157240D02*
X1503500Y2157240D01*
X1494500Y2156240D02*
X1502500Y2156240D01*
X1493500Y2155240D02*
X1501500Y2155240D01*
X1492500Y2154240D02*
X1501500Y2154240D01*
X1492500Y2153240D02*
X1500500Y2153240D01*
X1491500Y2152240D02*
X1499500Y2152240D01*
X1490500Y2151240D02*
X1498500Y2151240D01*
X1489500Y2150240D02*
X1497500Y2150240D01*
X1488500Y2149240D02*
X1496500Y2149240D01*
X1488500Y2148240D02*
X1495500Y2148240D01*
X1488500Y2147240D02*
X1495500Y2147240D01*
X1488500Y2146240D02*
X1494500Y2146240D01*
X1488500Y2145240D02*
X1494500Y2145240D01*
X1488500Y2144240D02*
X1494500Y2144240D01*
X1488500Y2143240D02*
X1494500Y2143240D01*
X1488500Y2142240D02*
X1494500Y2142240D01*
X1488500Y2141240D02*
X1494500Y2141240D01*
X1488500Y2140240D02*
X1494500Y2140240D01*
X1488500Y2139240D02*
X1494500Y2139240D01*
X1488500Y2138240D02*
X1495500Y2138240D01*
X1489500Y2137240D02*
X1500500Y2137240D01*
X1489500Y2136240D02*
X1501500Y2136240D01*
X1489500Y2135240D02*
X1502500Y2135240D01*
X1490500Y2134240D02*
X1502500Y2134240D01*
X1491500Y2133240D02*
X1502500Y2133240D01*
X1492500Y2132240D02*
X1502500Y2132240D01*
X1495500Y2131240D02*
X1501500Y2131240D01*
X1490500Y2111240D02*
X1493500Y2111240D01*
X1522500Y2111240D02*
X1525500Y2111240D01*
X1489500Y2110240D02*
X1494500Y2110240D01*
X1521500Y2110240D02*
X1525500Y2110240D01*
X1488500Y2109240D02*
X1494500Y2109240D01*
X1520500Y2109240D02*
X1526500Y2109240D01*
X1488500Y2108240D02*
X1494500Y2108240D01*
X1520500Y2108240D02*
X1526500Y2108240D01*
X1488500Y2107240D02*
X1494500Y2107240D01*
X1520500Y2107240D02*
X1526500Y2107240D01*
X1488500Y2106240D02*
X1494500Y2106240D01*
X1520500Y2106240D02*
X1526500Y2106240D01*
X1488500Y2105240D02*
X1494500Y2105240D01*
X1520500Y2105240D02*
X1526500Y2105240D01*
X1472500Y2104240D02*
X1478500Y2104240D01*
X1488500Y2104240D02*
X1494500Y2104240D01*
X1520500Y2104240D02*
X1526500Y2104240D01*
X1471500Y2103240D02*
X1479500Y2103240D01*
X1488500Y2103240D02*
X1494500Y2103240D01*
X1520500Y2103240D02*
X1526500Y2103240D01*
X1471500Y2102240D02*
X1479500Y2102240D01*
X1488500Y2102240D02*
X1494500Y2102240D01*
X1520500Y2102240D02*
X1526500Y2102240D01*
X1471500Y2101240D02*
X1480500Y2101240D01*
X1488500Y2101240D02*
X1526500Y2101240D01*
X1471500Y2100240D02*
X1480500Y2100240D01*
X1488500Y2100240D02*
X1526500Y2100240D01*
X1471500Y2099240D02*
X1480500Y2099240D01*
X1488500Y2099240D02*
X1526500Y2099240D01*
X1471500Y2098240D02*
X1480500Y2098240D01*
X1488500Y2098240D02*
X1526500Y2098240D01*
X1471500Y2097240D02*
X1479500Y2097240D01*
X1488500Y2097240D02*
X1526500Y2097240D01*
X1472500Y2096240D02*
X1479500Y2096240D01*
X1489500Y2096240D02*
X1526500Y2096240D01*
X1473500Y2095240D02*
X1477500Y2095240D01*
X1490500Y2095240D02*
X1526500Y2095240D01*
X1520500Y2094240D02*
X1526500Y2094240D01*
X1520500Y2093240D02*
X1526500Y2093240D01*
X1520500Y2092240D02*
X1526500Y2092240D01*
X1520500Y2091240D02*
X1526500Y2091240D01*
X1520500Y2090240D02*
X1526500Y2090240D01*
X1520500Y2089240D02*
X1526500Y2089240D01*
X1520500Y2088240D02*
X1526500Y2088240D01*
X1520500Y2087240D02*
X1526500Y2087240D01*
X1521500Y2086240D02*
X1525500Y2086240D01*
X1522500Y2085240D02*
X1524500Y2085240D01*
X1491500Y2065240D02*
X1524500Y2065240D01*
X1489500Y2064240D02*
X1525500Y2064240D01*
X1488500Y2063240D02*
X1526500Y2063240D01*
X1488500Y2062240D02*
X1526500Y2062240D01*
X1488500Y2061240D02*
X1526500Y2061240D01*
X1489500Y2060240D02*
X1525500Y2060240D01*
X1489500Y2059240D02*
X1525500Y2059240D01*
X1494500Y2058240D02*
X1501500Y2058240D01*
X1493500Y2057240D02*
X1500500Y2057240D01*
X1493500Y2056240D02*
X1500500Y2056240D01*
X1492500Y2055240D02*
X1499500Y2055240D01*
X1491500Y2054240D02*
X1499500Y2054240D01*
X1491500Y2053240D02*
X1498500Y2053240D01*
X1490500Y2052240D02*
X1497500Y2052240D01*
X1489500Y2051240D02*
X1497500Y2051240D01*
X1489500Y2050240D02*
X1496500Y2050240D01*
X1489500Y2049240D02*
X1495500Y2049240D01*
X1488500Y2048240D02*
X1495500Y2048240D01*
X1488500Y2047240D02*
X1494500Y2047240D01*
X1488500Y2046240D02*
X1494500Y2046240D01*
X1488500Y2045240D02*
X1494500Y2045240D01*
X1488500Y2044240D02*
X1494500Y2044240D01*
X1488500Y2043240D02*
X1494500Y2043240D01*
X1488500Y2042240D02*
X1494500Y2042240D01*
X1488500Y2041240D02*
X1494500Y2041240D01*
X1488500Y2040240D02*
X1495500Y2040240D01*
X1489500Y2039240D02*
X1497500Y2039240D01*
X1489500Y2038240D02*
X1525500Y2038240D01*
X1490500Y2037240D02*
X1526500Y2037240D01*
X1490500Y2036240D02*
X1526500Y2036240D01*
X1491500Y2035240D02*
X1526500Y2035240D01*
X1492500Y2034240D02*
X1526500Y2034240D01*
X1494500Y2033240D02*
X1525500Y2033240D01*
X1491500Y2016240D02*
X1491500Y2016240D01*
X1489500Y2015240D02*
X1493500Y2015240D01*
X1489500Y2014240D02*
X1494500Y2014240D01*
X1488500Y2013240D02*
X1494500Y2013240D01*
X1488500Y2012240D02*
X1494500Y2012240D01*
X1488500Y2011240D02*
X1494500Y2011240D01*
X1488500Y2010240D02*
X1494500Y2010240D01*
X1478500Y2009240D02*
X1518500Y2009240D01*
X1477500Y2008240D02*
X1521500Y2008240D01*
X1477500Y2007240D02*
X1522500Y2007240D01*
X1477500Y2006240D02*
X1523500Y2006240D01*
X1477500Y2005240D02*
X1524500Y2005240D01*
X1477500Y2004240D02*
X1525500Y2004240D01*
X1478500Y2003240D02*
X1525500Y2003240D01*
X1488500Y2002240D02*
X1494500Y2002240D01*
X1518500Y2002240D02*
X1526500Y2002240D01*
X1488500Y2001240D02*
X1494500Y2001240D01*
X1519500Y2001240D02*
X1526500Y2001240D01*
X1488500Y2000240D02*
X1494500Y2000240D01*
X1520500Y2000240D02*
X1526500Y2000240D01*
X1488500Y1999240D02*
X1494500Y1999240D01*
X1520500Y1999240D02*
X1526500Y1999240D01*
X1488500Y1998240D02*
X1494500Y1998240D01*
X1520500Y1998240D02*
X1526500Y1998240D01*
X1488500Y1997240D02*
X1494500Y1997240D01*
X1520500Y1997240D02*
X1526500Y1997240D01*
X1488500Y1996240D02*
X1494500Y1996240D01*
X1520500Y1996240D02*
X1526500Y1996240D01*
X1488500Y1995240D02*
X1494500Y1995240D01*
X1520500Y1995240D02*
X1526500Y1995240D01*
X1488500Y1994240D02*
X1494500Y1994240D01*
X1520500Y1994240D02*
X1526500Y1994240D01*
X1488500Y1993240D02*
X1494500Y1993240D01*
X1520500Y1993240D02*
X1526500Y1993240D01*
X1488500Y1992240D02*
X1494500Y1992240D01*
X1520500Y1992240D02*
X1526500Y1992240D01*
X1488500Y1991240D02*
X1494500Y1991240D01*
X1520500Y1991240D02*
X1526500Y1991240D01*
X1488500Y1990240D02*
X1494500Y1990240D01*
X1519500Y1990240D02*
X1526500Y1990240D01*
X1489500Y1989240D02*
X1493500Y1989240D01*
X1517500Y1989240D02*
X1525500Y1989240D01*
X1490500Y1988240D02*
X1492500Y1988240D01*
X1516500Y1988240D02*
X1525500Y1988240D01*
X1515500Y1987240D02*
X1524500Y1987240D01*
X1514500Y1986240D02*
X1524500Y1986240D01*
X1514500Y1985240D02*
X1523500Y1985240D01*
X1515500Y1984240D02*
X1522500Y1984240D01*
X1516500Y1983240D02*
X1520500Y1983240D01*
X1481500Y1966240D02*
X1484500Y1966240D01*
X1501500Y1966240D02*
X1519500Y1966240D01*
X1479500Y1965240D02*
X1485500Y1965240D01*
X1499500Y1965240D02*
X1521500Y1965240D01*
X1478500Y1964240D02*
X1485500Y1964240D01*
X1498500Y1964240D02*
X1522500Y1964240D01*
X1477500Y1963240D02*
X1485500Y1963240D01*
X1497500Y1963240D02*
X1523500Y1963240D01*
X1476500Y1962240D02*
X1485500Y1962240D01*
X1496500Y1962240D02*
X1524500Y1962240D01*
X1476500Y1961240D02*
X1485500Y1961240D01*
X1495500Y1961240D02*
X1525500Y1961240D01*
X1475500Y1960240D02*
X1483500Y1960240D01*
X1495500Y1960240D02*
X1525500Y1960240D01*
X1475500Y1959240D02*
X1482500Y1959240D01*
X1494500Y1959240D02*
X1501500Y1959240D01*
X1519500Y1959240D02*
X1526500Y1959240D01*
X1474500Y1958240D02*
X1481500Y1958240D01*
X1494500Y1958240D02*
X1500500Y1958240D01*
X1520500Y1958240D02*
X1526500Y1958240D01*
X1474500Y1957240D02*
X1480500Y1957240D01*
X1494500Y1957240D02*
X1500500Y1957240D01*
X1520500Y1957240D02*
X1526500Y1957240D01*
X1474500Y1956240D02*
X1480500Y1956240D01*
X1494500Y1956240D02*
X1500500Y1956240D01*
X1520500Y1956240D02*
X1526500Y1956240D01*
X1474500Y1955240D02*
X1480500Y1955240D01*
X1494500Y1955240D02*
X1500500Y1955240D01*
X1520500Y1955240D02*
X1526500Y1955240D01*
X1474500Y1954240D02*
X1480500Y1954240D01*
X1494500Y1954240D02*
X1500500Y1954240D01*
X1519500Y1954240D02*
X1526500Y1954240D01*
X1474500Y1953240D02*
X1480500Y1953240D01*
X1494500Y1953240D02*
X1525500Y1953240D01*
X1474500Y1952240D02*
X1480500Y1952240D01*
X1494500Y1952240D02*
X1525500Y1952240D01*
X1474500Y1951240D02*
X1480500Y1951240D01*
X1494500Y1951240D02*
X1524500Y1951240D01*
X1474500Y1950240D02*
X1480500Y1950240D01*
X1494500Y1950240D02*
X1524500Y1950240D01*
X1474500Y1949240D02*
X1480500Y1949240D01*
X1494500Y1949240D02*
X1524500Y1949240D01*
X1474500Y1948240D02*
X1480500Y1948240D01*
X1494500Y1948240D02*
X1525500Y1948240D01*
X1474500Y1947240D02*
X1480500Y1947240D01*
X1495500Y1947240D02*
X1525500Y1947240D01*
X1474500Y1946240D02*
X1480500Y1946240D01*
X1517500Y1946240D02*
X1525500Y1946240D01*
X1474500Y1945240D02*
X1480500Y1945240D01*
X1519500Y1945240D02*
X1526500Y1945240D01*
X1474500Y1944240D02*
X1480500Y1944240D01*
X1520500Y1944240D02*
X1526500Y1944240D01*
X1474500Y1943240D02*
X1480500Y1943240D01*
X1520500Y1943240D02*
X1526500Y1943240D01*
X1474500Y1942240D02*
X1480500Y1942240D01*
X1520500Y1942240D02*
X1526500Y1942240D01*
X1474500Y1941240D02*
X1481500Y1941240D01*
X1520500Y1941240D02*
X1526500Y1941240D01*
X1475500Y1940240D02*
X1483500Y1940240D01*
X1519500Y1940240D02*
X1526500Y1940240D01*
X1475500Y1939240D02*
X1525500Y1939240D01*
X1476500Y1938240D02*
X1525500Y1938240D01*
X1476500Y1937240D02*
X1524500Y1937240D01*
X1477500Y1936240D02*
X1523500Y1936240D01*
X1479500Y1935240D02*
X1522500Y1935240D01*
X1480500Y1934240D02*
X1521500Y1934240D01*
X1483500Y1933240D02*
X1519500Y1933240D01*
X1489500Y1917240D02*
X1538500Y1917240D01*
X1488500Y1916240D02*
X1540500Y1916240D01*
X1487500Y1915240D02*
X1540500Y1915240D01*
X1487500Y1914240D02*
X1540500Y1914240D01*
X1487500Y1913240D02*
X1540500Y1913240D01*
X1487500Y1912240D02*
X1540500Y1912240D01*
X1488500Y1911240D02*
X1539500Y1911240D01*
X1492500Y1910240D02*
X1501500Y1910240D01*
X1513500Y1910240D02*
X1523500Y1910240D01*
X1491500Y1909240D02*
X1500500Y1909240D01*
X1515500Y1909240D02*
X1524500Y1909240D01*
X1490500Y1908240D02*
X1499500Y1908240D01*
X1516500Y1908240D02*
X1524500Y1908240D01*
X1489500Y1907240D02*
X1497500Y1907240D01*
X1517500Y1907240D02*
X1525500Y1907240D01*
X1488500Y1906240D02*
X1496500Y1906240D01*
X1518500Y1906240D02*
X1526500Y1906240D01*
X1488500Y1905240D02*
X1495500Y1905240D01*
X1519500Y1905240D02*
X1526500Y1905240D01*
X1487500Y1904240D02*
X1494500Y1904240D01*
X1520500Y1904240D02*
X1527500Y1904240D01*
X1487500Y1903240D02*
X1494500Y1903240D01*
X1521500Y1903240D02*
X1527500Y1903240D01*
X1487500Y1902240D02*
X1493500Y1902240D01*
X1521500Y1902240D02*
X1527500Y1902240D01*
X1487500Y1901240D02*
X1493500Y1901240D01*
X1522500Y1901240D02*
X1527500Y1901240D01*
X1487500Y1900240D02*
X1493500Y1900240D01*
X1522500Y1900240D02*
X1527500Y1900240D01*
X1487500Y1899240D02*
X1493500Y1899240D01*
X1521500Y1899240D02*
X1527500Y1899240D01*
X1487500Y1898240D02*
X1493500Y1898240D01*
X1521500Y1898240D02*
X1527500Y1898240D01*
X1487500Y1897240D02*
X1494500Y1897240D01*
X1521500Y1897240D02*
X1527500Y1897240D01*
X1487500Y1896240D02*
X1494500Y1896240D01*
X1520500Y1896240D02*
X1527500Y1896240D01*
X1488500Y1895240D02*
X1495500Y1895240D01*
X1519500Y1895240D02*
X1527500Y1895240D01*
X1488500Y1894240D02*
X1496500Y1894240D01*
X1518500Y1894240D02*
X1526500Y1894240D01*
X1489500Y1893240D02*
X1497500Y1893240D01*
X1517500Y1893240D02*
X1525500Y1893240D01*
X1490500Y1892240D02*
X1498500Y1892240D01*
X1516500Y1892240D02*
X1525500Y1892240D01*
X1490500Y1891240D02*
X1499500Y1891240D01*
X1515500Y1891240D02*
X1524500Y1891240D01*
X1491500Y1890240D02*
X1501500Y1890240D01*
X1513500Y1890240D02*
X1523500Y1890240D01*
X1492500Y1889240D02*
X1522500Y1889240D01*
X1493500Y1888240D02*
X1521500Y1888240D01*
X1494500Y1887240D02*
X1520500Y1887240D01*
X1495500Y1886240D02*
X1519500Y1886240D01*
X1496500Y1885240D02*
X1518500Y1885240D01*
X1498500Y1884240D02*
X1516500Y1884240D01*
X1497500Y1867240D02*
X1517500Y1867240D01*
X1495500Y1866240D02*
X1519500Y1866240D01*
X1494500Y1865240D02*
X1520500Y1865240D01*
X1493500Y1864240D02*
X1521500Y1864240D01*
X1492500Y1863240D02*
X1522500Y1863240D01*
X1491500Y1862240D02*
X1523500Y1862240D01*
X1490500Y1861240D02*
X1524500Y1861240D01*
X1490500Y1860240D02*
X1498500Y1860240D01*
X1516500Y1860240D02*
X1525500Y1860240D01*
X1489500Y1859240D02*
X1496500Y1859240D01*
X1518500Y1859240D02*
X1525500Y1859240D01*
X1489500Y1858240D02*
X1496500Y1858240D01*
X1519500Y1858240D02*
X1525500Y1858240D01*
X1488500Y1857240D02*
X1495500Y1857240D01*
X1519500Y1857240D02*
X1526500Y1857240D01*
X1488500Y1856240D02*
X1494500Y1856240D01*
X1520500Y1856240D02*
X1526500Y1856240D01*
X1488500Y1855240D02*
X1494500Y1855240D01*
X1520500Y1855240D02*
X1526500Y1855240D01*
X1488500Y1854240D02*
X1494500Y1854240D01*
X1520500Y1854240D02*
X1526500Y1854240D01*
X1488500Y1853240D02*
X1494500Y1853240D01*
X1520500Y1853240D02*
X1526500Y1853240D01*
X1488500Y1852240D02*
X1494500Y1852240D01*
X1520500Y1852240D02*
X1526500Y1852240D01*
X1488500Y1851240D02*
X1494500Y1851240D01*
X1520500Y1851240D02*
X1526500Y1851240D01*
X1488500Y1850240D02*
X1494500Y1850240D01*
X1520500Y1850240D02*
X1526500Y1850240D01*
X1488500Y1849240D02*
X1494500Y1849240D01*
X1520500Y1849240D02*
X1526500Y1849240D01*
X1488500Y1848240D02*
X1494500Y1848240D01*
X1520500Y1848240D02*
X1526500Y1848240D01*
X1488500Y1847240D02*
X1494500Y1847240D01*
X1520500Y1847240D02*
X1526500Y1847240D01*
X1488500Y1846240D02*
X1494500Y1846240D01*
X1520500Y1846240D02*
X1526500Y1846240D01*
X1488500Y1845240D02*
X1494500Y1845240D01*
X1520500Y1845240D02*
X1526500Y1845240D01*
X1488500Y1844240D02*
X1495500Y1844240D01*
X1519500Y1844240D02*
X1526500Y1844240D01*
X1489500Y1843240D02*
X1495500Y1843240D01*
X1519500Y1843240D02*
X1525500Y1843240D01*
X1489500Y1842240D02*
X1496500Y1842240D01*
X1518500Y1842240D02*
X1525500Y1842240D01*
X1490500Y1841240D02*
X1498500Y1841240D01*
X1516500Y1841240D02*
X1524500Y1841240D01*
X1490500Y1840240D02*
X1524500Y1840240D01*
X1491500Y1839240D02*
X1523500Y1839240D01*
X1492500Y1838240D02*
X1522500Y1838240D01*
X1493500Y1837240D02*
X1521500Y1837240D01*
X1494500Y1836240D02*
X1520500Y1836240D01*
X1495500Y1835240D02*
X1519500Y1835240D01*
X1498500Y1834240D02*
X1517500Y1834240D01*
X1500500Y1818240D02*
X1515500Y1818240D01*
X1496500Y1817240D02*
X1518500Y1817240D01*
X1495500Y1816240D02*
X1520500Y1816240D01*
X1493500Y1815240D02*
X1521500Y1815240D01*
X1492500Y1814240D02*
X1522500Y1814240D01*
X1491500Y1813240D02*
X1523500Y1813240D01*
X1491500Y1812240D02*
X1524500Y1812240D01*
X1490500Y1811240D02*
X1499500Y1811240D01*
X1504500Y1811240D02*
X1510500Y1811240D01*
X1515500Y1811240D02*
X1524500Y1811240D01*
X1489500Y1810240D02*
X1497500Y1810240D01*
X1504500Y1810240D02*
X1510500Y1810240D01*
X1517500Y1810240D02*
X1525500Y1810240D01*
X1489500Y1809240D02*
X1496500Y1809240D01*
X1504500Y1809240D02*
X1510500Y1809240D01*
X1518500Y1809240D02*
X1525500Y1809240D01*
X1489500Y1808240D02*
X1495500Y1808240D01*
X1504500Y1808240D02*
X1510500Y1808240D01*
X1519500Y1808240D02*
X1526500Y1808240D01*
X1488500Y1807240D02*
X1495500Y1807240D01*
X1504500Y1807240D02*
X1510500Y1807240D01*
X1520500Y1807240D02*
X1526500Y1807240D01*
X1488500Y1806240D02*
X1494500Y1806240D01*
X1504500Y1806240D02*
X1510500Y1806240D01*
X1520500Y1806240D02*
X1526500Y1806240D01*
X1488500Y1805240D02*
X1494500Y1805240D01*
X1504500Y1805240D02*
X1510500Y1805240D01*
X1520500Y1805240D02*
X1526500Y1805240D01*
X1488500Y1804240D02*
X1494500Y1804240D01*
X1504500Y1804240D02*
X1510500Y1804240D01*
X1520500Y1804240D02*
X1526500Y1804240D01*
X1488500Y1803240D02*
X1494500Y1803240D01*
X1504500Y1803240D02*
X1510500Y1803240D01*
X1520500Y1803240D02*
X1526500Y1803240D01*
X1488500Y1802240D02*
X1494500Y1802240D01*
X1504500Y1802240D02*
X1510500Y1802240D01*
X1520500Y1802240D02*
X1526500Y1802240D01*
X1488500Y1801240D02*
X1494500Y1801240D01*
X1504500Y1801240D02*
X1510500Y1801240D01*
X1520500Y1801240D02*
X1526500Y1801240D01*
X1488500Y1800240D02*
X1494500Y1800240D01*
X1504500Y1800240D02*
X1510500Y1800240D01*
X1520500Y1800240D02*
X1526500Y1800240D01*
X1488500Y1799240D02*
X1494500Y1799240D01*
X1504500Y1799240D02*
X1510500Y1799240D01*
X1520500Y1799240D02*
X1526500Y1799240D01*
X1488500Y1798240D02*
X1494500Y1798240D01*
X1504500Y1798240D02*
X1510500Y1798240D01*
X1520500Y1798240D02*
X1526500Y1798240D01*
X1488500Y1797240D02*
X1494500Y1797240D01*
X1504500Y1797240D02*
X1510500Y1797240D01*
X1520500Y1797240D02*
X1526500Y1797240D01*
X1488500Y1796240D02*
X1494500Y1796240D01*
X1504500Y1796240D02*
X1510500Y1796240D01*
X1520500Y1796240D02*
X1526500Y1796240D01*
X1488500Y1795240D02*
X1495500Y1795240D01*
X1504500Y1795240D02*
X1510500Y1795240D01*
X1520500Y1795240D02*
X1526500Y1795240D01*
X1489500Y1794240D02*
X1495500Y1794240D01*
X1504500Y1794240D02*
X1510500Y1794240D01*
X1520500Y1794240D02*
X1526500Y1794240D01*
X1489500Y1793240D02*
X1496500Y1793240D01*
X1504500Y1793240D02*
X1510500Y1793240D01*
X1520500Y1793240D02*
X1526500Y1793240D01*
X1489500Y1792240D02*
X1497500Y1792240D01*
X1504500Y1792240D02*
X1510500Y1792240D01*
X1520500Y1792240D02*
X1526500Y1792240D01*
X1490500Y1791240D02*
X1499500Y1791240D01*
X1504500Y1791240D02*
X1510500Y1791240D01*
X1520500Y1791240D02*
X1526500Y1791240D01*
X1491500Y1790240D02*
X1510500Y1790240D01*
X1520500Y1790240D02*
X1526500Y1790240D01*
X1491500Y1789240D02*
X1510500Y1789240D01*
X1520500Y1789240D02*
X1526500Y1789240D01*
X1492500Y1788240D02*
X1510500Y1788240D01*
X1520500Y1788240D02*
X1526500Y1788240D01*
X1493500Y1787240D02*
X1510500Y1787240D01*
X1520500Y1787240D02*
X1526500Y1787240D01*
X1495500Y1786240D02*
X1510500Y1786240D01*
X1521500Y1786240D02*
X1526500Y1786240D01*
X1496500Y1785240D02*
X1509500Y1785240D01*
X1521500Y1785240D02*
X1525500Y1785240D01*
X1501500Y1784240D02*
X1507500Y1784240D01*
X1490500Y1768240D02*
X1493500Y1768240D01*
X1489500Y1767240D02*
X1494500Y1767240D01*
X1488500Y1766240D02*
X1494500Y1766240D01*
X1488500Y1765240D02*
X1494500Y1765240D01*
X1488500Y1764240D02*
X1494500Y1764240D01*
X1488500Y1763240D02*
X1494500Y1763240D01*
X1480500Y1762240D02*
X1494500Y1762240D01*
X1478500Y1761240D02*
X1520500Y1761240D01*
X1477500Y1760240D02*
X1522500Y1760240D01*
X1477500Y1759240D02*
X1523500Y1759240D01*
X1477500Y1758240D02*
X1524500Y1758240D01*
X1477500Y1757240D02*
X1524500Y1757240D01*
X1478500Y1756240D02*
X1525500Y1756240D01*
X1480500Y1755240D02*
X1525500Y1755240D01*
X1488500Y1754240D02*
X1494500Y1754240D01*
X1519500Y1754240D02*
X1526500Y1754240D01*
X1488500Y1753240D02*
X1494500Y1753240D01*
X1520500Y1753240D02*
X1526500Y1753240D01*
X1488500Y1752240D02*
X1494500Y1752240D01*
X1520500Y1752240D02*
X1526500Y1752240D01*
X1488500Y1751240D02*
X1494500Y1751240D01*
X1520500Y1751240D02*
X1526500Y1751240D01*
X1488500Y1750240D02*
X1494500Y1750240D01*
X1520500Y1750240D02*
X1526500Y1750240D01*
X1488500Y1749240D02*
X1494500Y1749240D01*
X1520500Y1749240D02*
X1526500Y1749240D01*
X1488500Y1748240D02*
X1494500Y1748240D01*
X1520500Y1748240D02*
X1526500Y1748240D01*
X1488500Y1747240D02*
X1494500Y1747240D01*
X1520500Y1747240D02*
X1526500Y1747240D01*
X1488500Y1746240D02*
X1494500Y1746240D01*
X1520500Y1746240D02*
X1526500Y1746240D01*
X1488500Y1745240D02*
X1494500Y1745240D01*
X1520500Y1745240D02*
X1526500Y1745240D01*
X1488500Y1744240D02*
X1494500Y1744240D01*
X1520500Y1744240D02*
X1526500Y1744240D01*
X1488500Y1743240D02*
X1494500Y1743240D01*
X1519500Y1743240D02*
X1526500Y1743240D01*
X1489500Y1742240D02*
X1494500Y1742240D01*
X1518500Y1742240D02*
X1526500Y1742240D01*
X1489500Y1741240D02*
X1493500Y1741240D01*
X1517500Y1741240D02*
X1525500Y1741240D01*
X1515500Y1740240D02*
X1525500Y1740240D01*
X1514500Y1739240D02*
X1524500Y1739240D01*
X1514500Y1738240D02*
X1523500Y1738240D01*
X1515500Y1737240D02*
X1522500Y1737240D01*
X1515500Y1736240D02*
X1521500Y1736240D01*
X1516500Y1735240D02*
X1519500Y1735240D01*
X1512500Y1719240D02*
X1517500Y1719240D01*
X1508500Y1718240D02*
X1520500Y1718240D01*
X1507500Y1717240D02*
X1522500Y1717240D01*
X1506500Y1716240D02*
X1523500Y1716240D01*
X1505500Y1715240D02*
X1524500Y1715240D01*
X1490500Y1714240D02*
X1492500Y1714240D01*
X1504500Y1714240D02*
X1525500Y1714240D01*
X1489500Y1713240D02*
X1493500Y1713240D01*
X1504500Y1713240D02*
X1525500Y1713240D01*
X1488500Y1712240D02*
X1494500Y1712240D01*
X1503500Y1712240D02*
X1510500Y1712240D01*
X1519500Y1712240D02*
X1525500Y1712240D01*
X1488500Y1711240D02*
X1494500Y1711240D01*
X1503500Y1711240D02*
X1509500Y1711240D01*
X1520500Y1711240D02*
X1526500Y1711240D01*
X1488500Y1710240D02*
X1494500Y1710240D01*
X1503500Y1710240D02*
X1508500Y1710240D01*
X1520500Y1710240D02*
X1526500Y1710240D01*
X1488500Y1709240D02*
X1494500Y1709240D01*
X1503500Y1709240D02*
X1508500Y1709240D01*
X1520500Y1709240D02*
X1526500Y1709240D01*
X1488500Y1708240D02*
X1494500Y1708240D01*
X1503500Y1708240D02*
X1508500Y1708240D01*
X1521500Y1708240D02*
X1526500Y1708240D01*
X1488500Y1707240D02*
X1494500Y1707240D01*
X1503500Y1707240D02*
X1508500Y1707240D01*
X1521500Y1707240D02*
X1526500Y1707240D01*
X1488500Y1706240D02*
X1494500Y1706240D01*
X1503500Y1706240D02*
X1508500Y1706240D01*
X1521500Y1706240D02*
X1526500Y1706240D01*
X1488500Y1705240D02*
X1494500Y1705240D01*
X1503500Y1705240D02*
X1508500Y1705240D01*
X1521500Y1705240D02*
X1526500Y1705240D01*
X1488500Y1704240D02*
X1494500Y1704240D01*
X1503500Y1704240D02*
X1508500Y1704240D01*
X1521500Y1704240D02*
X1526500Y1704240D01*
X1488500Y1703240D02*
X1494500Y1703240D01*
X1503500Y1703240D02*
X1508500Y1703240D01*
X1521500Y1703240D02*
X1526500Y1703240D01*
X1488500Y1702240D02*
X1494500Y1702240D01*
X1503500Y1702240D02*
X1508500Y1702240D01*
X1521500Y1702240D02*
X1526500Y1702240D01*
X1488500Y1701240D02*
X1494500Y1701240D01*
X1503500Y1701240D02*
X1508500Y1701240D01*
X1521500Y1701240D02*
X1526500Y1701240D01*
X1488500Y1700240D02*
X1494500Y1700240D01*
X1503500Y1700240D02*
X1508500Y1700240D01*
X1521500Y1700240D02*
X1526500Y1700240D01*
X1488500Y1699240D02*
X1494500Y1699240D01*
X1503500Y1699240D02*
X1508500Y1699240D01*
X1520500Y1699240D02*
X1526500Y1699240D01*
X1488500Y1698240D02*
X1494500Y1698240D01*
X1503500Y1698240D02*
X1508500Y1698240D01*
X1520500Y1698240D02*
X1526500Y1698240D01*
X1488500Y1697240D02*
X1494500Y1697240D01*
X1503500Y1697240D02*
X1508500Y1697240D01*
X1519500Y1697240D02*
X1526500Y1697240D01*
X1488500Y1696240D02*
X1494500Y1696240D01*
X1503500Y1696240D02*
X1508500Y1696240D01*
X1518500Y1696240D02*
X1525500Y1696240D01*
X1488500Y1695240D02*
X1494500Y1695240D01*
X1503500Y1695240D02*
X1508500Y1695240D01*
X1518500Y1695240D02*
X1525500Y1695240D01*
X1488500Y1694240D02*
X1494500Y1694240D01*
X1503500Y1694240D02*
X1509500Y1694240D01*
X1517500Y1694240D02*
X1524500Y1694240D01*
X1489500Y1693240D02*
X1495500Y1693240D01*
X1503500Y1693240D02*
X1509500Y1693240D01*
X1517500Y1693240D02*
X1523500Y1693240D01*
X1489500Y1692240D02*
X1497500Y1692240D01*
X1503500Y1692240D02*
X1511500Y1692240D01*
X1516500Y1692240D02*
X1523500Y1692240D01*
X1489500Y1691240D02*
X1525500Y1691240D01*
X1490500Y1690240D02*
X1526500Y1690240D01*
X1369500Y1689240D02*
X1370500Y1689240D01*
X1405500Y1689240D02*
X1406500Y1689240D01*
X1491500Y1689240D02*
X1526500Y1689240D01*
X1368500Y1688240D02*
X1372500Y1688240D01*
X1404500Y1688240D02*
X1408500Y1688240D01*
X1492500Y1688240D02*
X1526500Y1688240D01*
X1367500Y1687240D02*
X1373500Y1687240D01*
X1403500Y1687240D02*
X1409500Y1687240D01*
X1493500Y1687240D02*
X1526500Y1687240D01*
X1367500Y1686240D02*
X1373500Y1686240D01*
X1403500Y1686240D02*
X1409500Y1686240D01*
X1494500Y1686240D02*
X1525500Y1686240D01*
X1366500Y1685240D02*
X1373500Y1685240D01*
X1402500Y1685240D02*
X1409500Y1685240D01*
X1498500Y1685240D02*
X1523500Y1685240D01*
X1366500Y1684240D02*
X1373500Y1684240D01*
X1402500Y1684240D02*
X1409500Y1684240D01*
X1366500Y1683240D02*
X1373500Y1683240D01*
X1402500Y1683240D02*
X1409500Y1683240D01*
X1366500Y1682240D02*
X1373500Y1682240D01*
X1402500Y1682240D02*
X1409500Y1682240D01*
X1366500Y1681240D02*
X1373500Y1681240D01*
X1402500Y1681240D02*
X1409500Y1681240D01*
X1366500Y1680240D02*
X1373500Y1680240D01*
X1402500Y1680240D02*
X1409500Y1680240D01*
X1366500Y1679240D02*
X1373500Y1679240D01*
X1402500Y1679240D02*
X1409500Y1679240D01*
X1366500Y1678240D02*
X1373500Y1678240D01*
X1402500Y1678240D02*
X1409500Y1678240D01*
X1366500Y1677240D02*
X1373500Y1677240D01*
X1402500Y1677240D02*
X1409500Y1677240D01*
X1366500Y1676240D02*
X1373500Y1676240D01*
X1402500Y1676240D02*
X1409500Y1676240D01*
X1366500Y1675240D02*
X1373500Y1675240D01*
X1402500Y1675240D02*
X1409500Y1675240D01*
X1366500Y1674240D02*
X1373500Y1674240D01*
X1402500Y1674240D02*
X1409500Y1674240D01*
X1366500Y1673240D02*
X1373500Y1673240D01*
X1402500Y1673240D02*
X1409500Y1673240D01*
X1366500Y1672240D02*
X1373500Y1672240D01*
X1402500Y1672240D02*
X1409500Y1672240D01*
X1366500Y1671240D02*
X1373500Y1671240D01*
X1402500Y1671240D02*
X1409500Y1671240D01*
X1366500Y1670240D02*
X1373500Y1670240D01*
X1402500Y1670240D02*
X1409500Y1670240D01*
X1366500Y1669240D02*
X1373500Y1669240D01*
X1402500Y1669240D02*
X1409500Y1669240D01*
X1519500Y1669240D02*
X1522500Y1669240D01*
X1367500Y1668240D02*
X1373500Y1668240D01*
X1402500Y1668240D02*
X1409500Y1668240D01*
X1493500Y1668240D02*
X1499500Y1668240D01*
X1518500Y1668240D02*
X1523500Y1668240D01*
X1367500Y1667240D02*
X1374500Y1667240D01*
X1402500Y1667240D02*
X1409500Y1667240D01*
X1492500Y1667240D02*
X1501500Y1667240D01*
X1517500Y1667240D02*
X1523500Y1667240D01*
X1367500Y1666240D02*
X1375500Y1666240D01*
X1401500Y1666240D02*
X1409500Y1666240D01*
X1491500Y1666240D02*
X1502500Y1666240D01*
X1517500Y1666240D02*
X1524500Y1666240D01*
X1367500Y1665240D02*
X1375500Y1665240D01*
X1400500Y1665240D02*
X1408500Y1665240D01*
X1490500Y1665240D02*
X1503500Y1665240D01*
X1518500Y1665240D02*
X1525500Y1665240D01*
X1368500Y1664240D02*
X1376500Y1664240D01*
X1399500Y1664240D02*
X1408500Y1664240D01*
X1489500Y1664240D02*
X1504500Y1664240D01*
X1518500Y1664240D02*
X1525500Y1664240D01*
X1368500Y1663240D02*
X1377500Y1663240D01*
X1398500Y1663240D02*
X1408500Y1663240D01*
X1489500Y1663240D02*
X1504500Y1663240D01*
X1519500Y1663240D02*
X1525500Y1663240D01*
X1369500Y1662240D02*
X1378500Y1662240D01*
X1398500Y1662240D02*
X1407500Y1662240D01*
X1488500Y1662240D02*
X1505500Y1662240D01*
X1519500Y1662240D02*
X1526500Y1662240D01*
X1370500Y1661240D02*
X1379500Y1661240D01*
X1397500Y1661240D02*
X1406500Y1661240D01*
X1488500Y1661240D02*
X1494500Y1661240D01*
X1499500Y1661240D02*
X1505500Y1661240D01*
X1520500Y1661240D02*
X1526500Y1661240D01*
X1371500Y1660240D02*
X1380500Y1660240D01*
X1396500Y1660240D02*
X1406500Y1660240D01*
X1488500Y1660240D02*
X1494500Y1660240D01*
X1499500Y1660240D02*
X1506500Y1660240D01*
X1520500Y1660240D02*
X1526500Y1660240D01*
X1371500Y1659240D02*
X1381500Y1659240D01*
X1394500Y1659240D02*
X1405500Y1659240D01*
X1488500Y1659240D02*
X1494500Y1659240D01*
X1499500Y1659240D02*
X1506500Y1659240D01*
X1520500Y1659240D02*
X1526500Y1659240D01*
X1372500Y1658240D02*
X1404500Y1658240D01*
X1488500Y1658240D02*
X1494500Y1658240D01*
X1500500Y1658240D02*
X1506500Y1658240D01*
X1520500Y1658240D02*
X1526500Y1658240D01*
X1373500Y1657240D02*
X1403500Y1657240D01*
X1488500Y1657240D02*
X1494500Y1657240D01*
X1500500Y1657240D02*
X1507500Y1657240D01*
X1520500Y1657240D02*
X1526500Y1657240D01*
X1374500Y1656240D02*
X1402500Y1656240D01*
X1488500Y1656240D02*
X1494500Y1656240D01*
X1501500Y1656240D02*
X1507500Y1656240D01*
X1520500Y1656240D02*
X1526500Y1656240D01*
X1375500Y1655240D02*
X1401500Y1655240D01*
X1488500Y1655240D02*
X1494500Y1655240D01*
X1501500Y1655240D02*
X1508500Y1655240D01*
X1520500Y1655240D02*
X1526500Y1655240D01*
X1376500Y1654240D02*
X1400500Y1654240D01*
X1488500Y1654240D02*
X1494500Y1654240D01*
X1502500Y1654240D02*
X1508500Y1654240D01*
X1520500Y1654240D02*
X1526500Y1654240D01*
X1377500Y1653240D02*
X1399500Y1653240D01*
X1488500Y1653240D02*
X1494500Y1653240D01*
X1502500Y1653240D02*
X1509500Y1653240D01*
X1520500Y1653240D02*
X1526500Y1653240D01*
X1379500Y1652240D02*
X1397500Y1652240D01*
X1488500Y1652240D02*
X1494500Y1652240D01*
X1502500Y1652240D02*
X1509500Y1652240D01*
X1520500Y1652240D02*
X1526500Y1652240D01*
X1382500Y1651240D02*
X1393500Y1651240D01*
X1488500Y1651240D02*
X1494500Y1651240D01*
X1503500Y1651240D02*
X1509500Y1651240D01*
X1520500Y1651240D02*
X1526500Y1651240D01*
X1488500Y1650240D02*
X1494500Y1650240D01*
X1503500Y1650240D02*
X1510500Y1650240D01*
X1520500Y1650240D02*
X1526500Y1650240D01*
X1488500Y1649240D02*
X1494500Y1649240D01*
X1504500Y1649240D02*
X1510500Y1649240D01*
X1520500Y1649240D02*
X1526500Y1649240D01*
X1488500Y1648240D02*
X1494500Y1648240D01*
X1504500Y1648240D02*
X1511500Y1648240D01*
X1520500Y1648240D02*
X1526500Y1648240D01*
X1488500Y1647240D02*
X1494500Y1647240D01*
X1505500Y1647240D02*
X1511500Y1647240D01*
X1520500Y1647240D02*
X1526500Y1647240D01*
X1488500Y1646240D02*
X1494500Y1646240D01*
X1505500Y1646240D02*
X1512500Y1646240D01*
X1520500Y1646240D02*
X1526500Y1646240D01*
X1488500Y1645240D02*
X1494500Y1645240D01*
X1505500Y1645240D02*
X1512500Y1645240D01*
X1520500Y1645240D02*
X1526500Y1645240D01*
X1488500Y1644240D02*
X1494500Y1644240D01*
X1506500Y1644240D02*
X1513500Y1644240D01*
X1519500Y1644240D02*
X1526500Y1644240D01*
X1488500Y1643240D02*
X1495500Y1643240D01*
X1506500Y1643240D02*
X1514500Y1643240D01*
X1518500Y1643240D02*
X1526500Y1643240D01*
X1489500Y1642240D02*
X1496500Y1642240D01*
X1507500Y1642240D02*
X1525500Y1642240D01*
X1489500Y1641240D02*
X1497500Y1641240D01*
X1507500Y1641240D02*
X1525500Y1641240D01*
X1490500Y1640240D02*
X1497500Y1640240D01*
X1508500Y1640240D02*
X1524500Y1640240D01*
X1490500Y1639240D02*
X1497500Y1639240D01*
X1509500Y1639240D02*
X1523500Y1639240D01*
X1491500Y1638240D02*
X1496500Y1638240D01*
X1510500Y1638240D02*
X1522500Y1638240D01*
X1492500Y1637240D02*
X1496500Y1637240D01*
X1511500Y1637240D02*
X1521500Y1637240D01*
X1514500Y1636240D02*
X1519500Y1636240D01*
X1368500Y1629240D02*
X1371500Y1629240D01*
X1367500Y1628240D02*
X1372500Y1628240D01*
X1367500Y1627240D02*
X1373500Y1627240D01*
X1367500Y1626240D02*
X1373500Y1626240D01*
X1366500Y1625240D02*
X1373500Y1625240D01*
X1366500Y1624240D02*
X1373500Y1624240D01*
X1366500Y1623240D02*
X1373500Y1623240D01*
X1366500Y1622240D02*
X1373500Y1622240D01*
X1366500Y1621240D02*
X1373500Y1621240D01*
X1366500Y1620240D02*
X1373500Y1620240D01*
X1491500Y1620240D02*
X1491500Y1620240D01*
X1366500Y1619240D02*
X1373500Y1619240D01*
X1489500Y1619240D02*
X1493500Y1619240D01*
X1366500Y1618240D02*
X1423500Y1618240D01*
X1489500Y1618240D02*
X1494500Y1618240D01*
X1366500Y1617240D02*
X1424500Y1617240D01*
X1488500Y1617240D02*
X1494500Y1617240D01*
X1366500Y1616240D02*
X1425500Y1616240D01*
X1488500Y1616240D02*
X1494500Y1616240D01*
X1366500Y1615240D02*
X1425500Y1615240D01*
X1488500Y1615240D02*
X1494500Y1615240D01*
X1366500Y1614240D02*
X1425500Y1614240D01*
X1488500Y1614240D02*
X1494500Y1614240D01*
X1366500Y1613240D02*
X1425500Y1613240D01*
X1478500Y1613240D02*
X1518500Y1613240D01*
X1366500Y1612240D02*
X1425500Y1612240D01*
X1477500Y1612240D02*
X1521500Y1612240D01*
X1366500Y1611240D02*
X1425500Y1611240D01*
X1477500Y1611240D02*
X1522500Y1611240D01*
X1366500Y1610240D02*
X1373500Y1610240D01*
X1419500Y1610240D02*
X1425500Y1610240D01*
X1477500Y1610240D02*
X1523500Y1610240D01*
X1366500Y1609240D02*
X1373500Y1609240D01*
X1419500Y1609240D02*
X1425500Y1609240D01*
X1477500Y1609240D02*
X1524500Y1609240D01*
X1366500Y1608240D02*
X1373500Y1608240D01*
X1419500Y1608240D02*
X1425500Y1608240D01*
X1477500Y1608240D02*
X1525500Y1608240D01*
X1366500Y1607240D02*
X1373500Y1607240D01*
X1419500Y1607240D02*
X1425500Y1607240D01*
X1478500Y1607240D02*
X1525500Y1607240D01*
X1366500Y1606240D02*
X1373500Y1606240D01*
X1419500Y1606240D02*
X1425500Y1606240D01*
X1488500Y1606240D02*
X1494500Y1606240D01*
X1518500Y1606240D02*
X1526500Y1606240D01*
X1366500Y1605240D02*
X1373500Y1605240D01*
X1419500Y1605240D02*
X1425500Y1605240D01*
X1488500Y1605240D02*
X1494500Y1605240D01*
X1519500Y1605240D02*
X1526500Y1605240D01*
X1366500Y1604240D02*
X1373500Y1604240D01*
X1419500Y1604240D02*
X1425500Y1604240D01*
X1488500Y1604240D02*
X1494500Y1604240D01*
X1520500Y1604240D02*
X1526500Y1604240D01*
X1367500Y1603240D02*
X1373500Y1603240D01*
X1419500Y1603240D02*
X1425500Y1603240D01*
X1488500Y1603240D02*
X1494500Y1603240D01*
X1520500Y1603240D02*
X1526500Y1603240D01*
X1367500Y1602240D02*
X1373500Y1602240D01*
X1419500Y1602240D02*
X1425500Y1602240D01*
X1488500Y1602240D02*
X1494500Y1602240D01*
X1520500Y1602240D02*
X1526500Y1602240D01*
X1367500Y1601240D02*
X1373500Y1601240D01*
X1419500Y1601240D02*
X1425500Y1601240D01*
X1488500Y1601240D02*
X1494500Y1601240D01*
X1520500Y1601240D02*
X1526500Y1601240D01*
X1368500Y1600240D02*
X1372500Y1600240D01*
X1420500Y1600240D02*
X1424500Y1600240D01*
X1488500Y1600240D02*
X1494500Y1600240D01*
X1520500Y1600240D02*
X1526500Y1600240D01*
X1488500Y1599240D02*
X1494500Y1599240D01*
X1520500Y1599240D02*
X1526500Y1599240D01*
X1488500Y1598240D02*
X1494500Y1598240D01*
X1520500Y1598240D02*
X1526500Y1598240D01*
X1488500Y1597240D02*
X1494500Y1597240D01*
X1520500Y1597240D02*
X1526500Y1597240D01*
X1488500Y1596240D02*
X1494500Y1596240D01*
X1520500Y1596240D02*
X1526500Y1596240D01*
X1488500Y1595240D02*
X1494500Y1595240D01*
X1520500Y1595240D02*
X1526500Y1595240D01*
X1488500Y1594240D02*
X1494500Y1594240D01*
X1519500Y1594240D02*
X1526500Y1594240D01*
X1489500Y1593240D02*
X1493500Y1593240D01*
X1517500Y1593240D02*
X1525500Y1593240D01*
X1490500Y1592240D02*
X1492500Y1592240D01*
X1516500Y1592240D02*
X1525500Y1592240D01*
X1515500Y1591240D02*
X1524500Y1591240D01*
X1514500Y1590240D02*
X1524500Y1590240D01*
X1514500Y1589240D02*
X1523500Y1589240D01*
X1515500Y1588240D02*
X1522500Y1588240D01*
X1515500Y1587240D02*
X1520500Y1587240D01*
X1360500Y1574240D02*
X1406500Y1574240D01*
X1422500Y1574240D02*
X1426500Y1574240D01*
X1357500Y1573240D02*
X1408500Y1573240D01*
X1420500Y1573240D02*
X1427500Y1573240D01*
X1355500Y1572240D02*
X1409500Y1572240D01*
X1419500Y1572240D02*
X1428500Y1572240D01*
X1354500Y1571240D02*
X1409500Y1571240D01*
X1419500Y1571240D02*
X1429500Y1571240D01*
X1353500Y1570240D02*
X1409500Y1570240D01*
X1419500Y1570240D02*
X1429500Y1570240D01*
X1497500Y1570240D02*
X1517500Y1570240D01*
X1352500Y1569240D02*
X1409500Y1569240D01*
X1419500Y1569240D02*
X1429500Y1569240D01*
X1495500Y1569240D02*
X1519500Y1569240D01*
X1352500Y1568240D02*
X1409500Y1568240D01*
X1419500Y1568240D02*
X1429500Y1568240D01*
X1494500Y1568240D02*
X1520500Y1568240D01*
X1351500Y1567240D02*
X1409500Y1567240D01*
X1419500Y1567240D02*
X1429500Y1567240D01*
X1493500Y1567240D02*
X1521500Y1567240D01*
X1351500Y1566240D02*
X1359500Y1566240D01*
X1402500Y1566240D02*
X1409500Y1566240D01*
X1419500Y1566240D02*
X1429500Y1566240D01*
X1492500Y1566240D02*
X1522500Y1566240D01*
X1350500Y1565240D02*
X1358500Y1565240D01*
X1402500Y1565240D02*
X1409500Y1565240D01*
X1419500Y1565240D02*
X1428500Y1565240D01*
X1491500Y1565240D02*
X1523500Y1565240D01*
X1350500Y1564240D02*
X1357500Y1564240D01*
X1402500Y1564240D02*
X1409500Y1564240D01*
X1420500Y1564240D02*
X1428500Y1564240D01*
X1490500Y1564240D02*
X1524500Y1564240D01*
X1350500Y1563240D02*
X1357500Y1563240D01*
X1402500Y1563240D02*
X1409500Y1563240D01*
X1421500Y1563240D02*
X1427500Y1563240D01*
X1490500Y1563240D02*
X1498500Y1563240D01*
X1504500Y1563240D02*
X1510500Y1563240D01*
X1516500Y1563240D02*
X1525500Y1563240D01*
X1350500Y1562240D02*
X1357500Y1562240D01*
X1402500Y1562240D02*
X1409500Y1562240D01*
X1489500Y1562240D02*
X1496500Y1562240D01*
X1504500Y1562240D02*
X1510500Y1562240D01*
X1518500Y1562240D02*
X1525500Y1562240D01*
X1350500Y1561240D02*
X1357500Y1561240D01*
X1402500Y1561240D02*
X1409500Y1561240D01*
X1489500Y1561240D02*
X1496500Y1561240D01*
X1504500Y1561240D02*
X1510500Y1561240D01*
X1519500Y1561240D02*
X1525500Y1561240D01*
X1350500Y1560240D02*
X1357500Y1560240D01*
X1402500Y1560240D02*
X1409500Y1560240D01*
X1488500Y1560240D02*
X1495500Y1560240D01*
X1504500Y1560240D02*
X1510500Y1560240D01*
X1519500Y1560240D02*
X1526500Y1560240D01*
X1350500Y1559240D02*
X1357500Y1559240D01*
X1402500Y1559240D02*
X1409500Y1559240D01*
X1488500Y1559240D02*
X1494500Y1559240D01*
X1504500Y1559240D02*
X1510500Y1559240D01*
X1520500Y1559240D02*
X1526500Y1559240D01*
X1350500Y1558240D02*
X1357500Y1558240D01*
X1402500Y1558240D02*
X1409500Y1558240D01*
X1488500Y1558240D02*
X1494500Y1558240D01*
X1504500Y1558240D02*
X1510500Y1558240D01*
X1520500Y1558240D02*
X1526500Y1558240D01*
X1350500Y1557240D02*
X1357500Y1557240D01*
X1402500Y1557240D02*
X1409500Y1557240D01*
X1488500Y1557240D02*
X1494500Y1557240D01*
X1504500Y1557240D02*
X1510500Y1557240D01*
X1520500Y1557240D02*
X1526500Y1557240D01*
X1350500Y1556240D02*
X1357500Y1556240D01*
X1402500Y1556240D02*
X1409500Y1556240D01*
X1488500Y1556240D02*
X1494500Y1556240D01*
X1504500Y1556240D02*
X1510500Y1556240D01*
X1520500Y1556240D02*
X1526500Y1556240D01*
X1350500Y1555240D02*
X1357500Y1555240D01*
X1402500Y1555240D02*
X1409500Y1555240D01*
X1488500Y1555240D02*
X1494500Y1555240D01*
X1504500Y1555240D02*
X1510500Y1555240D01*
X1520500Y1555240D02*
X1526500Y1555240D01*
X1350500Y1554240D02*
X1357500Y1554240D01*
X1403500Y1554240D02*
X1409500Y1554240D01*
X1488500Y1554240D02*
X1494500Y1554240D01*
X1504500Y1554240D02*
X1510500Y1554240D01*
X1520500Y1554240D02*
X1526500Y1554240D01*
X1350500Y1553240D02*
X1358500Y1553240D01*
X1403500Y1553240D02*
X1409500Y1553240D01*
X1488500Y1553240D02*
X1494500Y1553240D01*
X1504500Y1553240D02*
X1510500Y1553240D01*
X1520500Y1553240D02*
X1526500Y1553240D01*
X1351500Y1552240D02*
X1358500Y1552240D01*
X1404500Y1552240D02*
X1408500Y1552240D01*
X1488500Y1552240D02*
X1494500Y1552240D01*
X1504500Y1552240D02*
X1510500Y1552240D01*
X1520500Y1552240D02*
X1526500Y1552240D01*
X1351500Y1551240D02*
X1360500Y1551240D01*
X1488500Y1551240D02*
X1494500Y1551240D01*
X1504500Y1551240D02*
X1510500Y1551240D01*
X1520500Y1551240D02*
X1526500Y1551240D01*
X1351500Y1550240D02*
X1362500Y1550240D01*
X1488500Y1550240D02*
X1494500Y1550240D01*
X1504500Y1550240D02*
X1510500Y1550240D01*
X1520500Y1550240D02*
X1526500Y1550240D01*
X1352500Y1549240D02*
X1363500Y1549240D01*
X1488500Y1549240D02*
X1494500Y1549240D01*
X1504500Y1549240D02*
X1510500Y1549240D01*
X1520500Y1549240D02*
X1526500Y1549240D01*
X1353500Y1548240D02*
X1363500Y1548240D01*
X1488500Y1548240D02*
X1494500Y1548240D01*
X1504500Y1548240D02*
X1510500Y1548240D01*
X1520500Y1548240D02*
X1526500Y1548240D01*
X1353500Y1547240D02*
X1363500Y1547240D01*
X1488500Y1547240D02*
X1495500Y1547240D01*
X1504500Y1547240D02*
X1510500Y1547240D01*
X1520500Y1547240D02*
X1526500Y1547240D01*
X1354500Y1546240D02*
X1363500Y1546240D01*
X1489500Y1546240D02*
X1495500Y1546240D01*
X1504500Y1546240D02*
X1510500Y1546240D01*
X1520500Y1546240D02*
X1526500Y1546240D01*
X1356500Y1545240D02*
X1363500Y1545240D01*
X1489500Y1545240D02*
X1496500Y1545240D01*
X1504500Y1545240D02*
X1510500Y1545240D01*
X1520500Y1545240D02*
X1526500Y1545240D01*
X1358500Y1544240D02*
X1361500Y1544240D01*
X1490500Y1544240D02*
X1498500Y1544240D01*
X1504500Y1544240D02*
X1510500Y1544240D01*
X1520500Y1544240D02*
X1526500Y1544240D01*
X1490500Y1543240D02*
X1510500Y1543240D01*
X1520500Y1543240D02*
X1526500Y1543240D01*
X1491500Y1542240D02*
X1510500Y1542240D01*
X1520500Y1542240D02*
X1526500Y1542240D01*
X1492500Y1541240D02*
X1510500Y1541240D01*
X1520500Y1541240D02*
X1526500Y1541240D01*
X1493500Y1540240D02*
X1510500Y1540240D01*
X1520500Y1540240D02*
X1526500Y1540240D01*
X1494500Y1539240D02*
X1510500Y1539240D01*
X1520500Y1539240D02*
X1526500Y1539240D01*
X1495500Y1538240D02*
X1509500Y1538240D01*
X1521500Y1538240D02*
X1525500Y1538240D01*
X1498500Y1537240D02*
X1508500Y1537240D01*
X1522500Y1537240D02*
X1524500Y1537240D01*
X1369500Y1522240D02*
X1371500Y1522240D01*
X1405500Y1522240D02*
X1407500Y1522240D01*
X1368500Y1521240D02*
X1372500Y1521240D01*
X1403500Y1521240D02*
X1408500Y1521240D01*
X1491500Y1521240D02*
X1523500Y1521240D01*
X1367500Y1520240D02*
X1373500Y1520240D01*
X1403500Y1520240D02*
X1409500Y1520240D01*
X1489500Y1520240D02*
X1525500Y1520240D01*
X1367500Y1519240D02*
X1373500Y1519240D01*
X1402500Y1519240D02*
X1409500Y1519240D01*
X1488500Y1519240D02*
X1526500Y1519240D01*
X1366500Y1518240D02*
X1373500Y1518240D01*
X1402500Y1518240D02*
X1409500Y1518240D01*
X1488500Y1518240D02*
X1526500Y1518240D01*
X1366500Y1517240D02*
X1373500Y1517240D01*
X1402500Y1517240D02*
X1409500Y1517240D01*
X1488500Y1517240D02*
X1526500Y1517240D01*
X1366500Y1516240D02*
X1373500Y1516240D01*
X1402500Y1516240D02*
X1409500Y1516240D01*
X1489500Y1516240D02*
X1526500Y1516240D01*
X1366500Y1515240D02*
X1373500Y1515240D01*
X1402500Y1515240D02*
X1409500Y1515240D01*
X1490500Y1515240D02*
X1525500Y1515240D01*
X1366500Y1514240D02*
X1373500Y1514240D01*
X1402500Y1514240D02*
X1409500Y1514240D01*
X1495500Y1514240D02*
X1504500Y1514240D01*
X1366500Y1513240D02*
X1373500Y1513240D01*
X1402500Y1513240D02*
X1409500Y1513240D01*
X1495500Y1513240D02*
X1503500Y1513240D01*
X1366500Y1512240D02*
X1373500Y1512240D01*
X1402500Y1512240D02*
X1409500Y1512240D01*
X1494500Y1512240D02*
X1502500Y1512240D01*
X1366500Y1511240D02*
X1373500Y1511240D01*
X1402500Y1511240D02*
X1409500Y1511240D01*
X1493500Y1511240D02*
X1501500Y1511240D01*
X1366500Y1510240D02*
X1373500Y1510240D01*
X1402500Y1510240D02*
X1409500Y1510240D01*
X1492500Y1510240D02*
X1500500Y1510240D01*
X1366500Y1509240D02*
X1373500Y1509240D01*
X1402500Y1509240D02*
X1409500Y1509240D01*
X1491500Y1509240D02*
X1499500Y1509240D01*
X1366500Y1508240D02*
X1373500Y1508240D01*
X1402500Y1508240D02*
X1409500Y1508240D01*
X1490500Y1508240D02*
X1498500Y1508240D01*
X1366500Y1507240D02*
X1373500Y1507240D01*
X1402500Y1507240D02*
X1409500Y1507240D01*
X1489500Y1507240D02*
X1498500Y1507240D01*
X1366500Y1506240D02*
X1373500Y1506240D01*
X1402500Y1506240D02*
X1409500Y1506240D01*
X1489500Y1506240D02*
X1497500Y1506240D01*
X1366500Y1505240D02*
X1373500Y1505240D01*
X1402500Y1505240D02*
X1409500Y1505240D01*
X1488500Y1505240D02*
X1496500Y1505240D01*
X1366500Y1504240D02*
X1373500Y1504240D01*
X1402500Y1504240D02*
X1409500Y1504240D01*
X1488500Y1504240D02*
X1495500Y1504240D01*
X1366500Y1503240D02*
X1373500Y1503240D01*
X1402500Y1503240D02*
X1409500Y1503240D01*
X1488500Y1503240D02*
X1494500Y1503240D01*
X1367500Y1502240D02*
X1373500Y1502240D01*
X1402500Y1502240D02*
X1409500Y1502240D01*
X1488500Y1502240D02*
X1494500Y1502240D01*
X1367500Y1501240D02*
X1373500Y1501240D01*
X1402500Y1501240D02*
X1409500Y1501240D01*
X1488500Y1501240D02*
X1494500Y1501240D01*
X1367500Y1500240D02*
X1374500Y1500240D01*
X1402500Y1500240D02*
X1409500Y1500240D01*
X1488500Y1500240D02*
X1494500Y1500240D01*
X1367500Y1499240D02*
X1375500Y1499240D01*
X1401500Y1499240D02*
X1409500Y1499240D01*
X1488500Y1499240D02*
X1494500Y1499240D01*
X1367500Y1498240D02*
X1376500Y1498240D01*
X1400500Y1498240D02*
X1408500Y1498240D01*
X1488500Y1498240D02*
X1494500Y1498240D01*
X1368500Y1497240D02*
X1376500Y1497240D01*
X1399500Y1497240D02*
X1408500Y1497240D01*
X1488500Y1497240D02*
X1494500Y1497240D01*
X1368500Y1496240D02*
X1377500Y1496240D01*
X1398500Y1496240D02*
X1407500Y1496240D01*
X1488500Y1496240D02*
X1494500Y1496240D01*
X1369500Y1495240D02*
X1378500Y1495240D01*
X1397500Y1495240D02*
X1407500Y1495240D01*
X1488500Y1495240D02*
X1495500Y1495240D01*
X1370500Y1494240D02*
X1379500Y1494240D01*
X1397500Y1494240D02*
X1406500Y1494240D01*
X1489500Y1494240D02*
X1497500Y1494240D01*
X1371500Y1493240D02*
X1380500Y1493240D01*
X1396500Y1493240D02*
X1405500Y1493240D01*
X1489500Y1493240D02*
X1501500Y1493240D01*
X1372500Y1492240D02*
X1382500Y1492240D01*
X1394500Y1492240D02*
X1405500Y1492240D01*
X1489500Y1492240D02*
X1502500Y1492240D01*
X1372500Y1491240D02*
X1404500Y1491240D01*
X1490500Y1491240D02*
X1502500Y1491240D01*
X1373500Y1490240D02*
X1403500Y1490240D01*
X1490500Y1490240D02*
X1502500Y1490240D01*
X1374500Y1489240D02*
X1402500Y1489240D01*
X1492500Y1489240D02*
X1502500Y1489240D01*
X1375500Y1488240D02*
X1401500Y1488240D01*
X1493500Y1488240D02*
X1501500Y1488240D01*
X1376500Y1487240D02*
X1400500Y1487240D01*
X1498500Y1487240D02*
X1499500Y1487240D01*
X1377500Y1486240D02*
X1398500Y1486240D01*
X1379500Y1485240D02*
X1397500Y1485240D01*
X1368500Y1462240D02*
X1372500Y1462240D01*
X1367500Y1461240D02*
X1373500Y1461240D01*
X1367500Y1460240D02*
X1373500Y1460240D01*
X1367500Y1459240D02*
X1373500Y1459240D01*
X1366500Y1458240D02*
X1373500Y1458240D01*
X1366500Y1457240D02*
X1373500Y1457240D01*
X1366500Y1456240D02*
X1373500Y1456240D01*
X1366500Y1455240D02*
X1373500Y1455240D01*
X1366500Y1454240D02*
X1373500Y1454240D01*
X1366500Y1453240D02*
X1373500Y1453240D01*
X1366500Y1452240D02*
X1373500Y1452240D01*
X1366500Y1451240D02*
X1423500Y1451240D01*
X1366500Y1450240D02*
X1424500Y1450240D01*
X1366500Y1449240D02*
X1425500Y1449240D01*
X1366500Y1448240D02*
X1425500Y1448240D01*
X1366500Y1447240D02*
X1425500Y1447240D01*
X1366500Y1446240D02*
X1425500Y1446240D01*
X1366500Y1445240D02*
X1425500Y1445240D01*
X1366500Y1444240D02*
X1425500Y1444240D01*
X1366500Y1443240D02*
X1373500Y1443240D01*
X1419500Y1443240D02*
X1425500Y1443240D01*
X1366500Y1442240D02*
X1373500Y1442240D01*
X1419500Y1442240D02*
X1425500Y1442240D01*
X1366500Y1441240D02*
X1373500Y1441240D01*
X1419500Y1441240D02*
X1425500Y1441240D01*
X1366500Y1440240D02*
X1373500Y1440240D01*
X1419500Y1440240D02*
X1425500Y1440240D01*
X1366500Y1439240D02*
X1373500Y1439240D01*
X1419500Y1439240D02*
X1425500Y1439240D01*
X1366500Y1438240D02*
X1373500Y1438240D01*
X1419500Y1438240D02*
X1425500Y1438240D01*
X1366500Y1437240D02*
X1373500Y1437240D01*
X1419500Y1437240D02*
X1425500Y1437240D01*
X1367500Y1436240D02*
X1373500Y1436240D01*
X1419500Y1436240D02*
X1425500Y1436240D01*
X1367500Y1435240D02*
X1373500Y1435240D01*
X1419500Y1435240D02*
X1425500Y1435240D01*
X1367500Y1434240D02*
X1372500Y1434240D01*
X1419500Y1434240D02*
X1425500Y1434240D01*
X1368500Y1433240D02*
X1372500Y1433240D01*
X1420500Y1433240D02*
X1424500Y1433240D01*
X1510500Y1411240D02*
X1520500Y1411240D01*
X1510500Y1410240D02*
X1520500Y1410240D01*
X1509500Y1409240D02*
X1521500Y1409240D01*
X1509500Y1408240D02*
X1521500Y1408240D01*
X1359500Y1407240D02*
X1407500Y1407240D01*
X1421500Y1407240D02*
X1426500Y1407240D01*
X1509500Y1407240D02*
X1521500Y1407240D01*
X1356500Y1406240D02*
X1408500Y1406240D01*
X1420500Y1406240D02*
X1428500Y1406240D01*
X1509500Y1406240D02*
X1521500Y1406240D01*
X1355500Y1405240D02*
X1409500Y1405240D01*
X1419500Y1405240D02*
X1428500Y1405240D01*
X1509500Y1405240D02*
X1521500Y1405240D01*
X1354500Y1404240D02*
X1409500Y1404240D01*
X1419500Y1404240D02*
X1429500Y1404240D01*
X1509500Y1404240D02*
X1521500Y1404240D01*
X1353500Y1403240D02*
X1409500Y1403240D01*
X1419500Y1403240D02*
X1429500Y1403240D01*
X1509500Y1403240D02*
X1521500Y1403240D01*
X1352500Y1402240D02*
X1409500Y1402240D01*
X1419500Y1402240D02*
X1429500Y1402240D01*
X1509500Y1402240D02*
X1521500Y1402240D01*
X1351500Y1401240D02*
X1409500Y1401240D01*
X1419500Y1401240D02*
X1429500Y1401240D01*
X1509500Y1401240D02*
X1521500Y1401240D01*
X1351500Y1400240D02*
X1409500Y1400240D01*
X1419500Y1400240D02*
X1429500Y1400240D01*
X1510500Y1400240D02*
X1520500Y1400240D01*
X1351500Y1399240D02*
X1359500Y1399240D01*
X1402500Y1399240D02*
X1409500Y1399240D01*
X1419500Y1399240D02*
X1429500Y1399240D01*
X1510500Y1399240D02*
X1520500Y1399240D01*
X1350500Y1398240D02*
X1358500Y1398240D01*
X1402500Y1398240D02*
X1409500Y1398240D01*
X1419500Y1398240D02*
X1428500Y1398240D01*
X1350500Y1397240D02*
X1357500Y1397240D01*
X1402500Y1397240D02*
X1409500Y1397240D01*
X1420500Y1397240D02*
X1428500Y1397240D01*
X1350500Y1396240D02*
X1357500Y1396240D01*
X1402500Y1396240D02*
X1409500Y1396240D01*
X1421500Y1396240D02*
X1426500Y1396240D01*
X1350500Y1395240D02*
X1357500Y1395240D01*
X1402500Y1395240D02*
X1409500Y1395240D01*
X1350500Y1394240D02*
X1357500Y1394240D01*
X1402500Y1394240D02*
X1409500Y1394240D01*
X1350500Y1393240D02*
X1357500Y1393240D01*
X1402500Y1393240D02*
X1409500Y1393240D01*
X1350500Y1392240D02*
X1357500Y1392240D01*
X1402500Y1392240D02*
X1409500Y1392240D01*
X1350500Y1391240D02*
X1357500Y1391240D01*
X1402500Y1391240D02*
X1409500Y1391240D01*
X1350500Y1390240D02*
X1357500Y1390240D01*
X1402500Y1390240D02*
X1409500Y1390240D01*
X1350500Y1389240D02*
X1357500Y1389240D01*
X1402500Y1389240D02*
X1409500Y1389240D01*
X1350500Y1388240D02*
X1357500Y1388240D01*
X1402500Y1388240D02*
X1409500Y1388240D01*
X1350500Y1387240D02*
X1357500Y1387240D01*
X1403500Y1387240D02*
X1409500Y1387240D01*
X1350500Y1386240D02*
X1358500Y1386240D01*
X1403500Y1386240D02*
X1408500Y1386240D01*
X1351500Y1385240D02*
X1359500Y1385240D01*
X1404500Y1385240D02*
X1407500Y1385240D01*
X1351500Y1384240D02*
X1361500Y1384240D01*
X1352500Y1383240D02*
X1362500Y1383240D01*
X1352500Y1382240D02*
X1363500Y1382240D01*
X1353500Y1381240D02*
X1363500Y1381240D01*
X1354500Y1380240D02*
X1363500Y1380240D01*
X1355500Y1379240D02*
X1363500Y1379240D01*
X1356500Y1378240D02*
X1362500Y1378240D01*
X1358500Y1377240D02*
X1361500Y1377240D01*
X1369500Y1355240D02*
X1371500Y1355240D01*
X1404500Y1355240D02*
X1407500Y1355240D01*
X1367500Y1354240D02*
X1372500Y1354240D01*
X1403500Y1354240D02*
X1408500Y1354240D01*
X1367500Y1353240D02*
X1373500Y1353240D01*
X1403500Y1353240D02*
X1409500Y1353240D01*
X1367500Y1352240D02*
X1373500Y1352240D01*
X1402500Y1352240D02*
X1409500Y1352240D01*
X1366500Y1351240D02*
X1373500Y1351240D01*
X1402500Y1351240D02*
X1409500Y1351240D01*
X1366500Y1350240D02*
X1373500Y1350240D01*
X1402500Y1350240D02*
X1409500Y1350240D01*
X1366500Y1349240D02*
X1373500Y1349240D01*
X1402500Y1349240D02*
X1409500Y1349240D01*
X1366500Y1348240D02*
X1373500Y1348240D01*
X1402500Y1348240D02*
X1409500Y1348240D01*
X1366500Y1347240D02*
X1373500Y1347240D01*
X1402500Y1347240D02*
X1409500Y1347240D01*
X1366500Y1346240D02*
X1373500Y1346240D01*
X1402500Y1346240D02*
X1409500Y1346240D01*
X1366500Y1345240D02*
X1373500Y1345240D01*
X1402500Y1345240D02*
X1409500Y1345240D01*
X1366500Y1344240D02*
X1373500Y1344240D01*
X1402500Y1344240D02*
X1409500Y1344240D01*
X1366500Y1343240D02*
X1373500Y1343240D01*
X1402500Y1343240D02*
X1409500Y1343240D01*
X1366500Y1342240D02*
X1373500Y1342240D01*
X1402500Y1342240D02*
X1409500Y1342240D01*
X1366500Y1341240D02*
X1373500Y1341240D01*
X1402500Y1341240D02*
X1409500Y1341240D01*
X1366500Y1340240D02*
X1373500Y1340240D01*
X1402500Y1340240D02*
X1409500Y1340240D01*
X1366500Y1339240D02*
X1373500Y1339240D01*
X1402500Y1339240D02*
X1409500Y1339240D01*
X1366500Y1338240D02*
X1373500Y1338240D01*
X1402500Y1338240D02*
X1409500Y1338240D01*
X1366500Y1337240D02*
X1373500Y1337240D01*
X1402500Y1337240D02*
X1409500Y1337240D01*
X1366500Y1336240D02*
X1373500Y1336240D01*
X1402500Y1336240D02*
X1409500Y1336240D01*
X1367500Y1335240D02*
X1373500Y1335240D01*
X1402500Y1335240D02*
X1409500Y1335240D01*
X1367500Y1334240D02*
X1374500Y1334240D01*
X1402500Y1334240D02*
X1409500Y1334240D01*
X1367500Y1333240D02*
X1374500Y1333240D01*
X1401500Y1333240D02*
X1409500Y1333240D01*
X1367500Y1332240D02*
X1375500Y1332240D01*
X1401500Y1332240D02*
X1409500Y1332240D01*
X1367500Y1331240D02*
X1376500Y1331240D01*
X1400500Y1331240D02*
X1408500Y1331240D01*
X1368500Y1330240D02*
X1377500Y1330240D01*
X1399500Y1330240D02*
X1408500Y1330240D01*
X1368500Y1329240D02*
X1378500Y1329240D01*
X1398500Y1329240D02*
X1407500Y1329240D01*
X1369500Y1328240D02*
X1378500Y1328240D01*
X1397500Y1328240D02*
X1407500Y1328240D01*
X1370500Y1327240D02*
X1379500Y1327240D01*
X1396500Y1327240D02*
X1406500Y1327240D01*
X1371500Y1326240D02*
X1380500Y1326240D01*
X1395500Y1326240D02*
X1405500Y1326240D01*
X1372500Y1325240D02*
X1404500Y1325240D01*
X1373500Y1324240D02*
X1403500Y1324240D01*
X1373500Y1323240D02*
X1402500Y1323240D01*
X1499500Y1323240D02*
X1515500Y1323240D01*
X1374500Y1322240D02*
X1401500Y1322240D01*
X1496500Y1322240D02*
X1518500Y1322240D01*
X1375500Y1321240D02*
X1400500Y1321240D01*
X1494500Y1321240D02*
X1520500Y1321240D01*
X1376500Y1320240D02*
X1399500Y1320240D01*
X1493500Y1320240D02*
X1521500Y1320240D01*
X1378500Y1319240D02*
X1398500Y1319240D01*
X1492500Y1319240D02*
X1522500Y1319240D01*
X1380500Y1318240D02*
X1396500Y1318240D01*
X1491500Y1318240D02*
X1523500Y1318240D01*
X1491500Y1317240D02*
X1524500Y1317240D01*
X1490500Y1316240D02*
X1499500Y1316240D01*
X1516500Y1316240D02*
X1524500Y1316240D01*
X1489500Y1315240D02*
X1497500Y1315240D01*
X1517500Y1315240D02*
X1525500Y1315240D01*
X1489500Y1314240D02*
X1496500Y1314240D01*
X1518500Y1314240D02*
X1525500Y1314240D01*
X1489500Y1313240D02*
X1495500Y1313240D01*
X1519500Y1313240D02*
X1526500Y1313240D01*
X1488500Y1312240D02*
X1495500Y1312240D01*
X1520500Y1312240D02*
X1526500Y1312240D01*
X1488500Y1311240D02*
X1494500Y1311240D01*
X1520500Y1311240D02*
X1526500Y1311240D01*
X1488500Y1310240D02*
X1494500Y1310240D01*
X1520500Y1310240D02*
X1526500Y1310240D01*
X1488500Y1309240D02*
X1494500Y1309240D01*
X1520500Y1309240D02*
X1526500Y1309240D01*
X1488500Y1308240D02*
X1494500Y1308240D01*
X1520500Y1308240D02*
X1526500Y1308240D01*
X1488500Y1307240D02*
X1494500Y1307240D01*
X1520500Y1307240D02*
X1526500Y1307240D01*
X1488500Y1306240D02*
X1494500Y1306240D01*
X1520500Y1306240D02*
X1526500Y1306240D01*
X1488500Y1305240D02*
X1494500Y1305240D01*
X1520500Y1305240D02*
X1526500Y1305240D01*
X1488500Y1304240D02*
X1494500Y1304240D01*
X1520500Y1304240D02*
X1526500Y1304240D01*
X1488500Y1303240D02*
X1495500Y1303240D01*
X1519500Y1303240D02*
X1526500Y1303240D01*
X1489500Y1302240D02*
X1496500Y1302240D01*
X1518500Y1302240D02*
X1525500Y1302240D01*
X1489500Y1301240D02*
X1497500Y1301240D01*
X1518500Y1301240D02*
X1525500Y1301240D01*
X1490500Y1300240D02*
X1498500Y1300240D01*
X1517500Y1300240D02*
X1525500Y1300240D01*
X1490500Y1299240D02*
X1498500Y1299240D01*
X1516500Y1299240D02*
X1524500Y1299240D01*
X1491500Y1298240D02*
X1499500Y1298240D01*
X1515500Y1298240D02*
X1523500Y1298240D01*
X1492500Y1297240D02*
X1500500Y1297240D01*
X1514500Y1297240D02*
X1522500Y1297240D01*
X1370500Y1296240D02*
X1370500Y1296240D01*
X1492500Y1296240D02*
X1502500Y1296240D01*
X1512500Y1296240D02*
X1522500Y1296240D01*
X1368500Y1295240D02*
X1372500Y1295240D01*
X1475500Y1295240D02*
X1525500Y1295240D01*
X1367500Y1294240D02*
X1373500Y1294240D01*
X1474500Y1294240D02*
X1526500Y1294240D01*
X1367500Y1293240D02*
X1373500Y1293240D01*
X1474500Y1293240D02*
X1526500Y1293240D01*
X1366500Y1292240D02*
X1373500Y1292240D01*
X1474500Y1292240D02*
X1526500Y1292240D01*
X1366500Y1291240D02*
X1373500Y1291240D01*
X1474500Y1291240D02*
X1526500Y1291240D01*
X1366500Y1290240D02*
X1373500Y1290240D01*
X1475500Y1290240D02*
X1525500Y1290240D01*
X1366500Y1289240D02*
X1373500Y1289240D01*
X1366500Y1288240D02*
X1373500Y1288240D01*
X1366500Y1287240D02*
X1373500Y1287240D01*
X1366500Y1286240D02*
X1373500Y1286240D01*
X1366500Y1285240D02*
X1373500Y1285240D01*
X1366500Y1284240D02*
X1424500Y1284240D01*
X1366500Y1283240D02*
X1425500Y1283240D01*
X1366500Y1282240D02*
X1425500Y1282240D01*
X1366500Y1281240D02*
X1425500Y1281240D01*
X1366500Y1280240D02*
X1425500Y1280240D01*
X1366500Y1279240D02*
X1425500Y1279240D01*
X1366500Y1278240D02*
X1425500Y1278240D01*
X1366500Y1277240D02*
X1425500Y1277240D01*
X1366500Y1276240D02*
X1373500Y1276240D01*
X1419500Y1276240D02*
X1425500Y1276240D01*
X1366500Y1275240D02*
X1373500Y1275240D01*
X1419500Y1275240D02*
X1425500Y1275240D01*
X1366500Y1274240D02*
X1373500Y1274240D01*
X1419500Y1274240D02*
X1425500Y1274240D01*
X1366500Y1273240D02*
X1373500Y1273240D01*
X1419500Y1273240D02*
X1425500Y1273240D01*
X1498500Y1273240D02*
X1517500Y1273240D01*
X1366500Y1272240D02*
X1373500Y1272240D01*
X1419500Y1272240D02*
X1425500Y1272240D01*
X1495500Y1272240D02*
X1519500Y1272240D01*
X1366500Y1271240D02*
X1373500Y1271240D01*
X1419500Y1271240D02*
X1425500Y1271240D01*
X1494500Y1271240D02*
X1520500Y1271240D01*
X1366500Y1270240D02*
X1373500Y1270240D01*
X1419500Y1270240D02*
X1425500Y1270240D01*
X1493500Y1270240D02*
X1521500Y1270240D01*
X1367500Y1269240D02*
X1373500Y1269240D01*
X1419500Y1269240D02*
X1425500Y1269240D01*
X1492500Y1269240D02*
X1522500Y1269240D01*
X1367500Y1268240D02*
X1373500Y1268240D01*
X1419500Y1268240D02*
X1425500Y1268240D01*
X1491500Y1268240D02*
X1523500Y1268240D01*
X1367500Y1267240D02*
X1372500Y1267240D01*
X1420500Y1267240D02*
X1425500Y1267240D01*
X1490500Y1267240D02*
X1524500Y1267240D01*
X1368500Y1266240D02*
X1371500Y1266240D01*
X1421500Y1266240D02*
X1423500Y1266240D01*
X1490500Y1266240D02*
X1498500Y1266240D01*
X1504500Y1266240D02*
X1510500Y1266240D01*
X1516500Y1266240D02*
X1525500Y1266240D01*
X1489500Y1265240D02*
X1497500Y1265240D01*
X1504500Y1265240D02*
X1510500Y1265240D01*
X1518500Y1265240D02*
X1525500Y1265240D01*
X1489500Y1264240D02*
X1496500Y1264240D01*
X1504500Y1264240D02*
X1510500Y1264240D01*
X1519500Y1264240D02*
X1525500Y1264240D01*
X1488500Y1263240D02*
X1495500Y1263240D01*
X1504500Y1263240D02*
X1510500Y1263240D01*
X1519500Y1263240D02*
X1526500Y1263240D01*
X1488500Y1262240D02*
X1494500Y1262240D01*
X1504500Y1262240D02*
X1510500Y1262240D01*
X1520500Y1262240D02*
X1526500Y1262240D01*
X1488500Y1261240D02*
X1494500Y1261240D01*
X1504500Y1261240D02*
X1510500Y1261240D01*
X1520500Y1261240D02*
X1526500Y1261240D01*
X1488500Y1260240D02*
X1494500Y1260240D01*
X1504500Y1260240D02*
X1510500Y1260240D01*
X1520500Y1260240D02*
X1526500Y1260240D01*
X1488500Y1259240D02*
X1494500Y1259240D01*
X1504500Y1259240D02*
X1510500Y1259240D01*
X1520500Y1259240D02*
X1526500Y1259240D01*
X1488500Y1258240D02*
X1494500Y1258240D01*
X1504500Y1258240D02*
X1510500Y1258240D01*
X1520500Y1258240D02*
X1526500Y1258240D01*
X1488500Y1257240D02*
X1494500Y1257240D01*
X1504500Y1257240D02*
X1510500Y1257240D01*
X1520500Y1257240D02*
X1526500Y1257240D01*
X1488500Y1256240D02*
X1494500Y1256240D01*
X1504500Y1256240D02*
X1510500Y1256240D01*
X1520500Y1256240D02*
X1526500Y1256240D01*
X1488500Y1255240D02*
X1494500Y1255240D01*
X1504500Y1255240D02*
X1510500Y1255240D01*
X1520500Y1255240D02*
X1526500Y1255240D01*
X1488500Y1254240D02*
X1494500Y1254240D01*
X1504500Y1254240D02*
X1510500Y1254240D01*
X1520500Y1254240D02*
X1526500Y1254240D01*
X1488500Y1253240D02*
X1494500Y1253240D01*
X1504500Y1253240D02*
X1510500Y1253240D01*
X1520500Y1253240D02*
X1526500Y1253240D01*
X1488500Y1252240D02*
X1494500Y1252240D01*
X1504500Y1252240D02*
X1510500Y1252240D01*
X1520500Y1252240D02*
X1526500Y1252240D01*
X1488500Y1251240D02*
X1494500Y1251240D01*
X1504500Y1251240D02*
X1510500Y1251240D01*
X1520500Y1251240D02*
X1526500Y1251240D01*
X1488500Y1250240D02*
X1495500Y1250240D01*
X1504500Y1250240D02*
X1510500Y1250240D01*
X1520500Y1250240D02*
X1526500Y1250240D01*
X1489500Y1249240D02*
X1495500Y1249240D01*
X1504500Y1249240D02*
X1510500Y1249240D01*
X1520500Y1249240D02*
X1526500Y1249240D01*
X1489500Y1248240D02*
X1496500Y1248240D01*
X1504500Y1248240D02*
X1510500Y1248240D01*
X1520500Y1248240D02*
X1526500Y1248240D01*
X1490500Y1247240D02*
X1498500Y1247240D01*
X1504500Y1247240D02*
X1510500Y1247240D01*
X1520500Y1247240D02*
X1526500Y1247240D01*
X1490500Y1246240D02*
X1510500Y1246240D01*
X1520500Y1246240D02*
X1526500Y1246240D01*
X1491500Y1245240D02*
X1510500Y1245240D01*
X1520500Y1245240D02*
X1526500Y1245240D01*
X1492500Y1244240D02*
X1510500Y1244240D01*
X1520500Y1244240D02*
X1526500Y1244240D01*
X1493500Y1243240D02*
X1510500Y1243240D01*
X1520500Y1243240D02*
X1526500Y1243240D01*
X1494500Y1242240D02*
X1510500Y1242240D01*
X1520500Y1242240D02*
X1526500Y1242240D01*
X1495500Y1241240D02*
X1509500Y1241240D01*
X1521500Y1241240D02*
X1525500Y1241240D01*
X1358500Y1240240D02*
X1407500Y1240240D01*
X1421500Y1240240D02*
X1427500Y1240240D01*
X1498500Y1240240D02*
X1508500Y1240240D01*
X1522500Y1240240D02*
X1524500Y1240240D01*
X1356500Y1239240D02*
X1408500Y1239240D01*
X1420500Y1239240D02*
X1428500Y1239240D01*
X1355500Y1238240D02*
X1409500Y1238240D01*
X1419500Y1238240D02*
X1428500Y1238240D01*
X1353500Y1237240D02*
X1409500Y1237240D01*
X1419500Y1237240D02*
X1429500Y1237240D01*
X1353500Y1236240D02*
X1409500Y1236240D01*
X1419500Y1236240D02*
X1429500Y1236240D01*
X1352500Y1235240D02*
X1409500Y1235240D01*
X1419500Y1235240D02*
X1429500Y1235240D01*
X1351500Y1234240D02*
X1409500Y1234240D01*
X1419500Y1234240D02*
X1429500Y1234240D01*
X1351500Y1233240D02*
X1409500Y1233240D01*
X1419500Y1233240D02*
X1429500Y1233240D01*
X1351500Y1232240D02*
X1359500Y1232240D01*
X1402500Y1232240D02*
X1409500Y1232240D01*
X1419500Y1232240D02*
X1429500Y1232240D01*
X1350500Y1231240D02*
X1358500Y1231240D01*
X1402500Y1231240D02*
X1409500Y1231240D01*
X1419500Y1231240D02*
X1428500Y1231240D01*
X1350500Y1230240D02*
X1357500Y1230240D01*
X1402500Y1230240D02*
X1409500Y1230240D01*
X1420500Y1230240D02*
X1427500Y1230240D01*
X1350500Y1229240D02*
X1357500Y1229240D01*
X1402500Y1229240D02*
X1409500Y1229240D01*
X1422500Y1229240D02*
X1425500Y1229240D01*
X1350500Y1228240D02*
X1357500Y1228240D01*
X1402500Y1228240D02*
X1409500Y1228240D01*
X1350500Y1227240D02*
X1357500Y1227240D01*
X1402500Y1227240D02*
X1409500Y1227240D01*
X1350500Y1226240D02*
X1357500Y1226240D01*
X1402500Y1226240D02*
X1409500Y1226240D01*
X1350500Y1225240D02*
X1357500Y1225240D01*
X1402500Y1225240D02*
X1409500Y1225240D01*
X1350500Y1224240D02*
X1357500Y1224240D01*
X1402500Y1224240D02*
X1409500Y1224240D01*
X1350500Y1223240D02*
X1357500Y1223240D01*
X1402500Y1223240D02*
X1409500Y1223240D01*
X1350500Y1222240D02*
X1357500Y1222240D01*
X1402500Y1222240D02*
X1409500Y1222240D01*
X1350500Y1221240D02*
X1357500Y1221240D01*
X1402500Y1221240D02*
X1409500Y1221240D01*
X1350500Y1220240D02*
X1357500Y1220240D01*
X1403500Y1220240D02*
X1409500Y1220240D01*
X1350500Y1219240D02*
X1358500Y1219240D01*
X1403500Y1219240D02*
X1408500Y1219240D01*
X1351500Y1218240D02*
X1359500Y1218240D01*
X1404500Y1218240D02*
X1407500Y1218240D01*
X1351500Y1217240D02*
X1361500Y1217240D01*
X1352500Y1216240D02*
X1363500Y1216240D01*
X1352500Y1215240D02*
X1363500Y1215240D01*
X1353500Y1214240D02*
X1363500Y1214240D01*
X1354500Y1213240D02*
X1363500Y1213240D01*
X1355500Y1212240D02*
X1363500Y1212240D01*
X1356500Y1211240D02*
X1362500Y1211240D01*
X1359500Y1210240D02*
X1361500Y1210240D01*
X1368500Y1188240D02*
X1371500Y1188240D01*
X1404500Y1188240D02*
X1407500Y1188240D01*
X1367500Y1187240D02*
X1372500Y1187240D01*
X1403500Y1187240D02*
X1408500Y1187240D01*
X1367500Y1186240D02*
X1373500Y1186240D01*
X1403500Y1186240D02*
X1409500Y1186240D01*
X1367500Y1185240D02*
X1373500Y1185240D01*
X1402500Y1185240D02*
X1409500Y1185240D01*
X1366500Y1184240D02*
X1373500Y1184240D01*
X1402500Y1184240D02*
X1409500Y1184240D01*
X1366500Y1183240D02*
X1373500Y1183240D01*
X1402500Y1183240D02*
X1409500Y1183240D01*
X1366500Y1182240D02*
X1373500Y1182240D01*
X1402500Y1182240D02*
X1409500Y1182240D01*
X1366500Y1181240D02*
X1373500Y1181240D01*
X1402500Y1181240D02*
X1409500Y1181240D01*
X1366500Y1180240D02*
X1373500Y1180240D01*
X1402500Y1180240D02*
X1409500Y1180240D01*
X1366500Y1179240D02*
X1373500Y1179240D01*
X1402500Y1179240D02*
X1409500Y1179240D01*
X1366500Y1178240D02*
X1373500Y1178240D01*
X1402500Y1178240D02*
X1409500Y1178240D01*
X1366500Y1177240D02*
X1373500Y1177240D01*
X1402500Y1177240D02*
X1409500Y1177240D01*
X1366500Y1176240D02*
X1373500Y1176240D01*
X1402500Y1176240D02*
X1409500Y1176240D01*
X1366500Y1175240D02*
X1373500Y1175240D01*
X1402500Y1175240D02*
X1409500Y1175240D01*
X1366500Y1174240D02*
X1373500Y1174240D01*
X1402500Y1174240D02*
X1409500Y1174240D01*
X1475500Y1174240D02*
X1478500Y1174240D01*
X1501500Y1174240D02*
X1526500Y1174240D01*
X1366500Y1173240D02*
X1373500Y1173240D01*
X1402500Y1173240D02*
X1409500Y1173240D01*
X1474500Y1173240D02*
X1479500Y1173240D01*
X1500500Y1173240D02*
X1526500Y1173240D01*
X1366500Y1172240D02*
X1373500Y1172240D01*
X1402500Y1172240D02*
X1409500Y1172240D01*
X1474500Y1172240D02*
X1479500Y1172240D01*
X1499500Y1172240D02*
X1526500Y1172240D01*
X1366500Y1171240D02*
X1373500Y1171240D01*
X1402500Y1171240D02*
X1409500Y1171240D01*
X1474500Y1171240D02*
X1480500Y1171240D01*
X1498500Y1171240D02*
X1526500Y1171240D01*
X1366500Y1170240D02*
X1373500Y1170240D01*
X1402500Y1170240D02*
X1409500Y1170240D01*
X1474500Y1170240D02*
X1480500Y1170240D01*
X1497500Y1170240D02*
X1526500Y1170240D01*
X1366500Y1169240D02*
X1373500Y1169240D01*
X1402500Y1169240D02*
X1409500Y1169240D01*
X1474500Y1169240D02*
X1480500Y1169240D01*
X1497500Y1169240D02*
X1526500Y1169240D01*
X1367500Y1168240D02*
X1373500Y1168240D01*
X1402500Y1168240D02*
X1409500Y1168240D01*
X1474500Y1168240D02*
X1480500Y1168240D01*
X1497500Y1168240D02*
X1526500Y1168240D01*
X1367500Y1167240D02*
X1374500Y1167240D01*
X1402500Y1167240D02*
X1409500Y1167240D01*
X1474500Y1167240D02*
X1480500Y1167240D01*
X1497500Y1167240D02*
X1503500Y1167240D01*
X1520500Y1167240D02*
X1526500Y1167240D01*
X1367500Y1166240D02*
X1374500Y1166240D01*
X1401500Y1166240D02*
X1409500Y1166240D01*
X1474500Y1166240D02*
X1480500Y1166240D01*
X1497500Y1166240D02*
X1503500Y1166240D01*
X1520500Y1166240D02*
X1526500Y1166240D01*
X1367500Y1165240D02*
X1375500Y1165240D01*
X1400500Y1165240D02*
X1409500Y1165240D01*
X1474500Y1165240D02*
X1480500Y1165240D01*
X1497500Y1165240D02*
X1503500Y1165240D01*
X1520500Y1165240D02*
X1526500Y1165240D01*
X1367500Y1164240D02*
X1376500Y1164240D01*
X1400500Y1164240D02*
X1408500Y1164240D01*
X1474500Y1164240D02*
X1480500Y1164240D01*
X1497500Y1164240D02*
X1503500Y1164240D01*
X1520500Y1164240D02*
X1526500Y1164240D01*
X1368500Y1163240D02*
X1377500Y1163240D01*
X1399500Y1163240D02*
X1408500Y1163240D01*
X1474500Y1163240D02*
X1480500Y1163240D01*
X1497500Y1163240D02*
X1503500Y1163240D01*
X1520500Y1163240D02*
X1526500Y1163240D01*
X1369500Y1162240D02*
X1378500Y1162240D01*
X1398500Y1162240D02*
X1407500Y1162240D01*
X1474500Y1162240D02*
X1480500Y1162240D01*
X1497500Y1162240D02*
X1503500Y1162240D01*
X1520500Y1162240D02*
X1526500Y1162240D01*
X1369500Y1161240D02*
X1379500Y1161240D01*
X1397500Y1161240D02*
X1407500Y1161240D01*
X1474500Y1161240D02*
X1480500Y1161240D01*
X1497500Y1161240D02*
X1503500Y1161240D01*
X1520500Y1161240D02*
X1526500Y1161240D01*
X1370500Y1160240D02*
X1379500Y1160240D01*
X1396500Y1160240D02*
X1406500Y1160240D01*
X1474500Y1160240D02*
X1480500Y1160240D01*
X1497500Y1160240D02*
X1503500Y1160240D01*
X1520500Y1160240D02*
X1526500Y1160240D01*
X1371500Y1159240D02*
X1380500Y1159240D01*
X1395500Y1159240D02*
X1405500Y1159240D01*
X1474500Y1159240D02*
X1480500Y1159240D01*
X1497500Y1159240D02*
X1503500Y1159240D01*
X1520500Y1159240D02*
X1526500Y1159240D01*
X1372500Y1158240D02*
X1404500Y1158240D01*
X1474500Y1158240D02*
X1480500Y1158240D01*
X1497500Y1158240D02*
X1503500Y1158240D01*
X1520500Y1158240D02*
X1526500Y1158240D01*
X1373500Y1157240D02*
X1403500Y1157240D01*
X1474500Y1157240D02*
X1480500Y1157240D01*
X1497500Y1157240D02*
X1503500Y1157240D01*
X1520500Y1157240D02*
X1526500Y1157240D01*
X1374500Y1156240D02*
X1402500Y1156240D01*
X1474500Y1156240D02*
X1480500Y1156240D01*
X1497500Y1156240D02*
X1503500Y1156240D01*
X1520500Y1156240D02*
X1526500Y1156240D01*
X1374500Y1155240D02*
X1401500Y1155240D01*
X1474500Y1155240D02*
X1480500Y1155240D01*
X1497500Y1155240D02*
X1503500Y1155240D01*
X1520500Y1155240D02*
X1526500Y1155240D01*
X1375500Y1154240D02*
X1400500Y1154240D01*
X1474500Y1154240D02*
X1480500Y1154240D01*
X1497500Y1154240D02*
X1503500Y1154240D01*
X1520500Y1154240D02*
X1526500Y1154240D01*
X1376500Y1153240D02*
X1399500Y1153240D01*
X1474500Y1153240D02*
X1480500Y1153240D01*
X1497500Y1153240D02*
X1503500Y1153240D01*
X1520500Y1153240D02*
X1526500Y1153240D01*
X1378500Y1152240D02*
X1398500Y1152240D01*
X1474500Y1152240D02*
X1480500Y1152240D01*
X1497500Y1152240D02*
X1503500Y1152240D01*
X1520500Y1152240D02*
X1526500Y1152240D01*
X1380500Y1151240D02*
X1395500Y1151240D01*
X1474500Y1151240D02*
X1480500Y1151240D01*
X1497500Y1151240D02*
X1503500Y1151240D01*
X1520500Y1151240D02*
X1526500Y1151240D01*
X1474500Y1150240D02*
X1480500Y1150240D01*
X1497500Y1150240D02*
X1503500Y1150240D01*
X1520500Y1150240D02*
X1526500Y1150240D01*
X1474500Y1149240D02*
X1480500Y1149240D01*
X1497500Y1149240D02*
X1503500Y1149240D01*
X1520500Y1149240D02*
X1526500Y1149240D01*
X1474500Y1148240D02*
X1480500Y1148240D01*
X1497500Y1148240D02*
X1503500Y1148240D01*
X1520500Y1148240D02*
X1526500Y1148240D01*
X1474500Y1147240D02*
X1503500Y1147240D01*
X1520500Y1147240D02*
X1526500Y1147240D01*
X1474500Y1146240D02*
X1503500Y1146240D01*
X1520500Y1146240D02*
X1526500Y1146240D01*
X1474500Y1145240D02*
X1502500Y1145240D01*
X1520500Y1145240D02*
X1526500Y1145240D01*
X1475500Y1144240D02*
X1502500Y1144240D01*
X1520500Y1144240D02*
X1526500Y1144240D01*
X1475500Y1143240D02*
X1501500Y1143240D01*
X1520500Y1143240D02*
X1526500Y1143240D01*
X1476500Y1142240D02*
X1500500Y1142240D01*
X1521500Y1142240D02*
X1525500Y1142240D01*
X1478500Y1141240D02*
X1498500Y1141240D01*
X1522500Y1141240D02*
X1524500Y1141240D01*
X1369500Y1129240D02*
X1371500Y1129240D01*
X1368500Y1128240D02*
X1372500Y1128240D01*
X1367500Y1127240D02*
X1373500Y1127240D01*
X1367500Y1126240D02*
X1373500Y1126240D01*
X1366500Y1125240D02*
X1373500Y1125240D01*
X1479500Y1125240D02*
X1520500Y1125240D01*
X1366500Y1124240D02*
X1373500Y1124240D01*
X1477500Y1124240D02*
X1523500Y1124240D01*
X1366500Y1123240D02*
X1373500Y1123240D01*
X1476500Y1123240D02*
X1524500Y1123240D01*
X1366500Y1122240D02*
X1373500Y1122240D01*
X1475500Y1122240D02*
X1525500Y1122240D01*
X1366500Y1121240D02*
X1373500Y1121240D01*
X1474500Y1121240D02*
X1525500Y1121240D01*
X1366500Y1120240D02*
X1373500Y1120240D01*
X1474500Y1120240D02*
X1526500Y1120240D01*
X1366500Y1119240D02*
X1373500Y1119240D01*
X1474500Y1119240D02*
X1526500Y1119240D01*
X1366500Y1118240D02*
X1373500Y1118240D01*
X1474500Y1118240D02*
X1480500Y1118240D01*
X1520500Y1118240D02*
X1526500Y1118240D01*
X1366500Y1117240D02*
X1424500Y1117240D01*
X1474500Y1117240D02*
X1480500Y1117240D01*
X1520500Y1117240D02*
X1526500Y1117240D01*
X1366500Y1116240D02*
X1425500Y1116240D01*
X1474500Y1116240D02*
X1480500Y1116240D01*
X1520500Y1116240D02*
X1526500Y1116240D01*
X1366500Y1115240D02*
X1425500Y1115240D01*
X1474500Y1115240D02*
X1480500Y1115240D01*
X1520500Y1115240D02*
X1526500Y1115240D01*
X1366500Y1114240D02*
X1425500Y1114240D01*
X1474500Y1114240D02*
X1480500Y1114240D01*
X1520500Y1114240D02*
X1526500Y1114240D01*
X1366500Y1113240D02*
X1425500Y1113240D01*
X1474500Y1113240D02*
X1480500Y1113240D01*
X1520500Y1113240D02*
X1526500Y1113240D01*
X1366500Y1112240D02*
X1425500Y1112240D01*
X1474500Y1112240D02*
X1480500Y1112240D01*
X1520500Y1112240D02*
X1526500Y1112240D01*
X1366500Y1111240D02*
X1425500Y1111240D01*
X1474500Y1111240D02*
X1480500Y1111240D01*
X1520500Y1111240D02*
X1526500Y1111240D01*
X1366500Y1110240D02*
X1374500Y1110240D01*
X1418500Y1110240D02*
X1425500Y1110240D01*
X1474500Y1110240D02*
X1480500Y1110240D01*
X1520500Y1110240D02*
X1526500Y1110240D01*
X1366500Y1109240D02*
X1373500Y1109240D01*
X1419500Y1109240D02*
X1425500Y1109240D01*
X1474500Y1109240D02*
X1480500Y1109240D01*
X1520500Y1109240D02*
X1526500Y1109240D01*
X1366500Y1108240D02*
X1373500Y1108240D01*
X1419500Y1108240D02*
X1425500Y1108240D01*
X1474500Y1108240D02*
X1480500Y1108240D01*
X1520500Y1108240D02*
X1526500Y1108240D01*
X1366500Y1107240D02*
X1373500Y1107240D01*
X1419500Y1107240D02*
X1425500Y1107240D01*
X1474500Y1107240D02*
X1480500Y1107240D01*
X1520500Y1107240D02*
X1526500Y1107240D01*
X1366500Y1106240D02*
X1373500Y1106240D01*
X1419500Y1106240D02*
X1425500Y1106240D01*
X1474500Y1106240D02*
X1480500Y1106240D01*
X1520500Y1106240D02*
X1526500Y1106240D01*
X1366500Y1105240D02*
X1373500Y1105240D01*
X1419500Y1105240D02*
X1425500Y1105240D01*
X1474500Y1105240D02*
X1480500Y1105240D01*
X1520500Y1105240D02*
X1526500Y1105240D01*
X1366500Y1104240D02*
X1373500Y1104240D01*
X1419500Y1104240D02*
X1425500Y1104240D01*
X1474500Y1104240D02*
X1480500Y1104240D01*
X1520500Y1104240D02*
X1526500Y1104240D01*
X1366500Y1103240D02*
X1373500Y1103240D01*
X1419500Y1103240D02*
X1425500Y1103240D01*
X1474500Y1103240D02*
X1480500Y1103240D01*
X1520500Y1103240D02*
X1526500Y1103240D01*
X1367500Y1102240D02*
X1373500Y1102240D01*
X1419500Y1102240D02*
X1425500Y1102240D01*
X1474500Y1102240D02*
X1480500Y1102240D01*
X1520500Y1102240D02*
X1526500Y1102240D01*
X1367500Y1101240D02*
X1373500Y1101240D01*
X1419500Y1101240D02*
X1425500Y1101240D01*
X1474500Y1101240D02*
X1480500Y1101240D01*
X1520500Y1101240D02*
X1526500Y1101240D01*
X1367500Y1100240D02*
X1372500Y1100240D01*
X1420500Y1100240D02*
X1424500Y1100240D01*
X1474500Y1100240D02*
X1480500Y1100240D01*
X1520500Y1100240D02*
X1526500Y1100240D01*
X1369500Y1099240D02*
X1371500Y1099240D01*
X1421500Y1099240D02*
X1423500Y1099240D01*
X1474500Y1099240D02*
X1480500Y1099240D01*
X1520500Y1099240D02*
X1526500Y1099240D01*
X1474500Y1098240D02*
X1480500Y1098240D01*
X1520500Y1098240D02*
X1526500Y1098240D01*
X1474500Y1097240D02*
X1526500Y1097240D01*
X1474500Y1096240D02*
X1526500Y1096240D01*
X1474500Y1095240D02*
X1525500Y1095240D01*
X1475500Y1094240D02*
X1525500Y1094240D01*
X1476500Y1093240D02*
X1524500Y1093240D01*
X1477500Y1092240D02*
X1523500Y1092240D01*
X1475500Y1075240D02*
X1478500Y1075240D01*
X1501500Y1075240D02*
X1526500Y1075240D01*
X1474500Y1074240D02*
X1479500Y1074240D01*
X1500500Y1074240D02*
X1526500Y1074240D01*
X1358500Y1073240D02*
X1407500Y1073240D01*
X1421500Y1073240D02*
X1427500Y1073240D01*
X1474500Y1073240D02*
X1479500Y1073240D01*
X1499500Y1073240D02*
X1526500Y1073240D01*
X1356500Y1072240D02*
X1408500Y1072240D01*
X1419500Y1072240D02*
X1428500Y1072240D01*
X1474500Y1072240D02*
X1480500Y1072240D01*
X1498500Y1072240D02*
X1526500Y1072240D01*
X1354500Y1071240D02*
X1409500Y1071240D01*
X1419500Y1071240D02*
X1428500Y1071240D01*
X1474500Y1071240D02*
X1480500Y1071240D01*
X1497500Y1071240D02*
X1526500Y1071240D01*
X1353500Y1070240D02*
X1409500Y1070240D01*
X1419500Y1070240D02*
X1429500Y1070240D01*
X1474500Y1070240D02*
X1480500Y1070240D01*
X1497500Y1070240D02*
X1526500Y1070240D01*
X1352500Y1069240D02*
X1409500Y1069240D01*
X1419500Y1069240D02*
X1429500Y1069240D01*
X1474500Y1069240D02*
X1480500Y1069240D01*
X1497500Y1069240D02*
X1526500Y1069240D01*
X1352500Y1068240D02*
X1409500Y1068240D01*
X1419500Y1068240D02*
X1429500Y1068240D01*
X1474500Y1068240D02*
X1480500Y1068240D01*
X1497500Y1068240D02*
X1503500Y1068240D01*
X1520500Y1068240D02*
X1526500Y1068240D01*
X1351500Y1067240D02*
X1409500Y1067240D01*
X1419500Y1067240D02*
X1429500Y1067240D01*
X1474500Y1067240D02*
X1480500Y1067240D01*
X1497500Y1067240D02*
X1503500Y1067240D01*
X1520500Y1067240D02*
X1526500Y1067240D01*
X1351500Y1066240D02*
X1409500Y1066240D01*
X1419500Y1066240D02*
X1429500Y1066240D01*
X1474500Y1066240D02*
X1480500Y1066240D01*
X1497500Y1066240D02*
X1503500Y1066240D01*
X1520500Y1066240D02*
X1526500Y1066240D01*
X1351500Y1065240D02*
X1358500Y1065240D01*
X1402500Y1065240D02*
X1409500Y1065240D01*
X1419500Y1065240D02*
X1429500Y1065240D01*
X1474500Y1065240D02*
X1480500Y1065240D01*
X1497500Y1065240D02*
X1503500Y1065240D01*
X1520500Y1065240D02*
X1526500Y1065240D01*
X1350500Y1064240D02*
X1358500Y1064240D01*
X1402500Y1064240D02*
X1409500Y1064240D01*
X1419500Y1064240D02*
X1428500Y1064240D01*
X1474500Y1064240D02*
X1480500Y1064240D01*
X1497500Y1064240D02*
X1503500Y1064240D01*
X1520500Y1064240D02*
X1526500Y1064240D01*
X1350500Y1063240D02*
X1357500Y1063240D01*
X1402500Y1063240D02*
X1409500Y1063240D01*
X1420500Y1063240D02*
X1427500Y1063240D01*
X1474500Y1063240D02*
X1480500Y1063240D01*
X1497500Y1063240D02*
X1503500Y1063240D01*
X1520500Y1063240D02*
X1526500Y1063240D01*
X1350500Y1062240D02*
X1357500Y1062240D01*
X1402500Y1062240D02*
X1409500Y1062240D01*
X1474500Y1062240D02*
X1480500Y1062240D01*
X1497500Y1062240D02*
X1503500Y1062240D01*
X1520500Y1062240D02*
X1526500Y1062240D01*
X1350500Y1061240D02*
X1357500Y1061240D01*
X1402500Y1061240D02*
X1409500Y1061240D01*
X1474500Y1061240D02*
X1480500Y1061240D01*
X1497500Y1061240D02*
X1503500Y1061240D01*
X1520500Y1061240D02*
X1526500Y1061240D01*
X1350500Y1060240D02*
X1357500Y1060240D01*
X1402500Y1060240D02*
X1409500Y1060240D01*
X1474500Y1060240D02*
X1480500Y1060240D01*
X1497500Y1060240D02*
X1503500Y1060240D01*
X1520500Y1060240D02*
X1526500Y1060240D01*
X1350500Y1059240D02*
X1357500Y1059240D01*
X1402500Y1059240D02*
X1409500Y1059240D01*
X1474500Y1059240D02*
X1480500Y1059240D01*
X1497500Y1059240D02*
X1503500Y1059240D01*
X1520500Y1059240D02*
X1526500Y1059240D01*
X1350500Y1058240D02*
X1357500Y1058240D01*
X1402500Y1058240D02*
X1409500Y1058240D01*
X1474500Y1058240D02*
X1480500Y1058240D01*
X1497500Y1058240D02*
X1503500Y1058240D01*
X1520500Y1058240D02*
X1526500Y1058240D01*
X1350500Y1057240D02*
X1357500Y1057240D01*
X1402500Y1057240D02*
X1409500Y1057240D01*
X1474500Y1057240D02*
X1480500Y1057240D01*
X1497500Y1057240D02*
X1503500Y1057240D01*
X1520500Y1057240D02*
X1526500Y1057240D01*
X1350500Y1056240D02*
X1357500Y1056240D01*
X1402500Y1056240D02*
X1409500Y1056240D01*
X1474500Y1056240D02*
X1480500Y1056240D01*
X1497500Y1056240D02*
X1503500Y1056240D01*
X1520500Y1056240D02*
X1526500Y1056240D01*
X1350500Y1055240D02*
X1357500Y1055240D01*
X1402500Y1055240D02*
X1409500Y1055240D01*
X1474500Y1055240D02*
X1480500Y1055240D01*
X1497500Y1055240D02*
X1503500Y1055240D01*
X1520500Y1055240D02*
X1526500Y1055240D01*
X1350500Y1054240D02*
X1357500Y1054240D01*
X1402500Y1054240D02*
X1409500Y1054240D01*
X1474500Y1054240D02*
X1480500Y1054240D01*
X1497500Y1054240D02*
X1503500Y1054240D01*
X1520500Y1054240D02*
X1526500Y1054240D01*
X1350500Y1053240D02*
X1357500Y1053240D01*
X1403500Y1053240D02*
X1409500Y1053240D01*
X1474500Y1053240D02*
X1480500Y1053240D01*
X1497500Y1053240D02*
X1503500Y1053240D01*
X1520500Y1053240D02*
X1526500Y1053240D01*
X1351500Y1052240D02*
X1358500Y1052240D01*
X1403500Y1052240D02*
X1408500Y1052240D01*
X1474500Y1052240D02*
X1480500Y1052240D01*
X1497500Y1052240D02*
X1503500Y1052240D01*
X1520500Y1052240D02*
X1526500Y1052240D01*
X1351500Y1051240D02*
X1359500Y1051240D01*
X1405500Y1051240D02*
X1407500Y1051240D01*
X1474500Y1051240D02*
X1480500Y1051240D01*
X1497500Y1051240D02*
X1503500Y1051240D01*
X1520500Y1051240D02*
X1526500Y1051240D01*
X1351500Y1050240D02*
X1362500Y1050240D01*
X1474500Y1050240D02*
X1480500Y1050240D01*
X1497500Y1050240D02*
X1503500Y1050240D01*
X1520500Y1050240D02*
X1526500Y1050240D01*
X1352500Y1049240D02*
X1363500Y1049240D01*
X1474500Y1049240D02*
X1480500Y1049240D01*
X1497500Y1049240D02*
X1503500Y1049240D01*
X1520500Y1049240D02*
X1526500Y1049240D01*
X1352500Y1048240D02*
X1363500Y1048240D01*
X1474500Y1048240D02*
X1503500Y1048240D01*
X1520500Y1048240D02*
X1526500Y1048240D01*
X1353500Y1047240D02*
X1363500Y1047240D01*
X1474500Y1047240D02*
X1503500Y1047240D01*
X1520500Y1047240D02*
X1526500Y1047240D01*
X1354500Y1046240D02*
X1363500Y1046240D01*
X1474500Y1046240D02*
X1502500Y1046240D01*
X1520500Y1046240D02*
X1526500Y1046240D01*
X1355500Y1045240D02*
X1363500Y1045240D01*
X1475500Y1045240D02*
X1502500Y1045240D01*
X1520500Y1045240D02*
X1526500Y1045240D01*
X1357500Y1044240D02*
X1362500Y1044240D01*
X1475500Y1044240D02*
X1501500Y1044240D01*
X1520500Y1044240D02*
X1526500Y1044240D01*
X1476500Y1043240D02*
X1500500Y1043240D01*
X1521500Y1043240D02*
X1525500Y1043240D01*
X1478500Y1042240D02*
X1498500Y1042240D01*
X1522500Y1042240D02*
X1524500Y1042240D01*
X1477500Y1026240D02*
X1523500Y1026240D01*
X1475500Y1025240D02*
X1525500Y1025240D01*
X1474500Y1024240D02*
X1526500Y1024240D01*
X1474500Y1023240D02*
X1526500Y1023240D01*
X1474500Y1022240D02*
X1526500Y1022240D01*
X1474500Y1021240D02*
X1526500Y1021240D01*
X1474500Y1020240D02*
X1526500Y1020240D01*
X1474500Y1019240D02*
X1480500Y1019240D01*
X1500500Y1019240D02*
X1507500Y1019240D01*
X1520500Y1019240D02*
X1526500Y1019240D01*
X1474500Y1018240D02*
X1480500Y1018240D01*
X1501500Y1018240D02*
X1507500Y1018240D01*
X1520500Y1018240D02*
X1526500Y1018240D01*
X1474500Y1017240D02*
X1480500Y1017240D01*
X1501500Y1017240D02*
X1507500Y1017240D01*
X1520500Y1017240D02*
X1526500Y1017240D01*
X1474500Y1016240D02*
X1480500Y1016240D01*
X1501500Y1016240D02*
X1507500Y1016240D01*
X1520500Y1016240D02*
X1526500Y1016240D01*
X1474500Y1015240D02*
X1480500Y1015240D01*
X1501500Y1015240D02*
X1507500Y1015240D01*
X1520500Y1015240D02*
X1526500Y1015240D01*
X1474500Y1014240D02*
X1480500Y1014240D01*
X1501500Y1014240D02*
X1507500Y1014240D01*
X1520500Y1014240D02*
X1526500Y1014240D01*
X1474500Y1013240D02*
X1480500Y1013240D01*
X1501500Y1013240D02*
X1507500Y1013240D01*
X1520500Y1013240D02*
X1526500Y1013240D01*
X1474500Y1012240D02*
X1480500Y1012240D01*
X1501500Y1012240D02*
X1507500Y1012240D01*
X1520500Y1012240D02*
X1526500Y1012240D01*
X1474500Y1011240D02*
X1480500Y1011240D01*
X1501500Y1011240D02*
X1507500Y1011240D01*
X1520500Y1011240D02*
X1526500Y1011240D01*
X1474500Y1010240D02*
X1480500Y1010240D01*
X1501500Y1010240D02*
X1507500Y1010240D01*
X1520500Y1010240D02*
X1526500Y1010240D01*
X1474500Y1009240D02*
X1480500Y1009240D01*
X1501500Y1009240D02*
X1507500Y1009240D01*
X1520500Y1009240D02*
X1526500Y1009240D01*
X1474500Y1008240D02*
X1480500Y1008240D01*
X1501500Y1008240D02*
X1507500Y1008240D01*
X1520500Y1008240D02*
X1526500Y1008240D01*
X1474500Y1007240D02*
X1480500Y1007240D01*
X1501500Y1007240D02*
X1507500Y1007240D01*
X1520500Y1007240D02*
X1526500Y1007240D01*
X1474500Y1006240D02*
X1480500Y1006240D01*
X1501500Y1006240D02*
X1507500Y1006240D01*
X1520500Y1006240D02*
X1526500Y1006240D01*
X1474500Y1005240D02*
X1480500Y1005240D01*
X1501500Y1005240D02*
X1507500Y1005240D01*
X1520500Y1005240D02*
X1526500Y1005240D01*
X1474500Y1004240D02*
X1480500Y1004240D01*
X1501500Y1004240D02*
X1507500Y1004240D01*
X1520500Y1004240D02*
X1526500Y1004240D01*
X1474500Y1003240D02*
X1480500Y1003240D01*
X1501500Y1003240D02*
X1507500Y1003240D01*
X1520500Y1003240D02*
X1526500Y1003240D01*
X1474500Y1002240D02*
X1479500Y1002240D01*
X1501500Y1002240D02*
X1507500Y1002240D01*
X1520500Y1002240D02*
X1526500Y1002240D01*
X1474500Y1001240D02*
X1479500Y1001240D01*
X1501500Y1001240D02*
X1507500Y1001240D01*
X1520500Y1001240D02*
X1526500Y1001240D01*
X1475500Y1000240D02*
X1479500Y1000240D01*
X1501500Y1000240D02*
X1507500Y1000240D01*
X1520500Y1000240D02*
X1526500Y1000240D01*
X1476500Y999240D02*
X1477500Y999240D01*
X1501500Y999240D02*
X1507500Y999240D01*
X1520500Y999240D02*
X1526500Y999240D01*
X1501500Y998240D02*
X1526500Y998240D01*
X1501500Y997240D02*
X1526500Y997240D01*
X1501500Y996240D02*
X1526500Y996240D01*
X1501500Y995240D02*
X1526500Y995240D01*
X1501500Y994240D02*
X1526500Y994240D01*
X1502500Y993240D02*
X1525500Y993240D01*
X1504500Y992240D02*
X1523500Y992240D01*
D02*
G04 End of Silk0*
M02*