G04 MADE WITH FRITZING*
G04 WWW.FRITZING.ORG*
G04 DOUBLE SIDED*
G04 HOLES PLATED*
G04 CONTOUR ON CENTER OF CONTOUR VECTOR*
%FSLAX26Y26*%
%MOIN*%
%ADD10C,0.005000*%
%ADD10C,0.008*%
G04 CONTOUR*
%FSLAX26Y26*%
%MOIN*%
D10*
D10*
X55000Y5078740D02*
X56000Y5078740D01*
X57000Y5078740D01*
X58000Y5078740D01*
X59000Y5078740D01*
X60000Y5078740D01*
X61000Y5078740D01*
X62000Y5078740D01*
X63000Y5078740D01*
X64000Y5078740D01*
X65000Y5078740D01*
X66000Y5078740D01*
X67000Y5078740D01*
X68000Y5078740D01*
X69000Y5078740D01*
X70000Y5078740D01*
X71000Y5078740D01*
X72000Y5078740D01*
X73000Y5078740D01*
X74000Y5078740D01*
X75000Y5078740D01*
X76000Y5078740D01*
X77000Y5078740D01*
X78000Y5078740D01*
X79000Y5078740D01*
X80000Y5078740D01*
X81000Y5078740D01*
X82000Y5078740D01*
X83000Y5078740D01*
X84000Y5078740D01*
X85000Y5078740D01*
X86000Y5078740D01*
X87000Y5078740D01*
X88000Y5078740D01*
X89000Y5078740D01*
X90000Y5078740D01*
X91000Y5078740D01*
X92000Y5078740D01*
X93000Y5078740D01*
X94000Y5078740D01*
X95000Y5078740D01*
X96000Y5078740D01*
X97000Y5078740D01*
X98000Y5078740D01*
X99000Y5078740D01*
X100000Y5078740D01*
X101000Y5078740D01*
X102000Y5078740D01*
X103000Y5078740D01*
X104000Y5078740D01*
X105000Y5078740D01*
X106000Y5078740D01*
X107000Y5078740D01*
X108000Y5078740D01*
X109000Y5078740D01*
X110000Y5078740D01*
X111000Y5078740D01*
X112000Y5078740D01*
X113000Y5078740D01*
X114000Y5078740D01*
X115000Y5078740D01*
X116000Y5078740D01*
X117000Y5078740D01*
X118000Y5078740D01*
X119000Y5078740D01*
X120000Y5078740D01*
X121000Y5078740D01*
X122000Y5078740D01*
X123000Y5078740D01*
X124000Y5078740D01*
X125000Y5078740D01*
X126000Y5078740D01*
X127000Y5078740D01*
X128000Y5078740D01*
X129000Y5078740D01*
X130000Y5078740D01*
X131000Y5078740D01*
X132000Y5078740D01*
X133000Y5078740D01*
X134000Y5078740D01*
X135000Y5078740D01*
X136000Y5078740D01*
X137000Y5078740D01*
X138000Y5078740D01*
X139000Y5078740D01*
X140000Y5078740D01*
X141000Y5078740D01*
X142000Y5078740D01*
X143000Y5078740D01*
X144000Y5078740D01*
X145000Y5078740D01*
X146000Y5078740D01*
X147000Y5078740D01*
X148000Y5078740D01*
X149000Y5078740D01*
X150000Y5078740D01*
X151000Y5078740D01*
X152000Y5078740D01*
X153000Y5078740D01*
X154000Y5078740D01*
X155000Y5078740D01*
X156000Y5078740D01*
X157000Y5078740D01*
X158000Y5078740D01*
X159000Y5078740D01*
X160000Y5078740D01*
X161000Y5078740D01*
X162000Y5078740D01*
X163000Y5078740D01*
X164000Y5078740D01*
X165000Y5078740D01*
X166000Y5078740D01*
X167000Y5078740D01*
X168000Y5078740D01*
X169000Y5078740D01*
X170000Y5078740D01*
X171000Y5078740D01*
X172000Y5078740D01*
X173000Y5078740D01*
X174000Y5078740D01*
X175000Y5078740D01*
X176000Y5078740D01*
X177000Y5078740D01*
X178000Y5078740D01*
X179000Y5078740D01*
X180000Y5078740D01*
X181000Y5078740D01*
X182000Y5078740D01*
X183000Y5078740D01*
X184000Y5078740D01*
X185000Y5078740D01*
X186000Y5078740D01*
X187000Y5078740D01*
X188000Y5078740D01*
X189000Y5078740D01*
X190000Y5078740D01*
X191000Y5078740D01*
X192000Y5078740D01*
X193000Y5078740D01*
X194000Y5078740D01*
X195000Y5078740D01*
X196000Y5078740D01*
X197000Y5078740D01*
X198000Y5078740D01*
X199000Y5078740D01*
X200000Y5078740D01*
X201000Y5078740D01*
X202000Y5078740D01*
X203000Y5078740D01*
X204000Y5078740D01*
X205000Y5078740D01*
X206000Y5078740D01*
X207000Y5078740D01*
X208000Y5078740D01*
X209000Y5078740D01*
X210000Y5078740D01*
X211000Y5078740D01*
X212000Y5078740D01*
X213000Y5078740D01*
X214000Y5078740D01*
X215000Y5078740D01*
X216000Y5078740D01*
X217000Y5078740D01*
X218000Y5078740D01*
X219000Y5078740D01*
X220000Y5078740D01*
X221000Y5078740D01*
X222000Y5078740D01*
X223000Y5078740D01*
X224000Y5078740D01*
X225000Y5078740D01*
X226000Y5078740D01*
X227000Y5078740D01*
X228000Y5078740D01*
X229000Y5078740D01*
X230000Y5078740D01*
X231000Y5078740D01*
X232000Y5078740D01*
X233000Y5078740D01*
X234000Y5078740D01*
X235000Y5078740D01*
X236000Y5078740D01*
X237000Y5078740D01*
X238000Y5078740D01*
X239000Y5078740D01*
X240000Y5078740D01*
X241000Y5078740D01*
X242000Y5078740D01*
X243000Y5078740D01*
X244000Y5078740D01*
X245000Y5078740D01*
X246000Y5078740D01*
X247000Y5078740D01*
X248000Y5078740D01*
X249000Y5078740D01*
X250000Y5078740D01*
X251000Y5078740D01*
X252000Y5078740D01*
X253000Y5078740D01*
X254000Y5078740D01*
X255000Y5078740D01*
X256000Y5078740D01*
X257000Y5078740D01*
X258000Y5078740D01*
X259000Y5078740D01*
X260000Y5078740D01*
X261000Y5078740D01*
X262000Y5078740D01*
X263000Y5078740D01*
X264000Y5078740D01*
X265000Y5078740D01*
X266000Y5078740D01*
X267000Y5078740D01*
X268000Y5078740D01*
X269000Y5078740D01*
X270000Y5078740D01*
X271000Y5078740D01*
X272000Y5078740D01*
X273000Y5078740D01*
X274000Y5078740D01*
X275000Y5078740D01*
X276000Y5078740D01*
X277000Y5078740D01*
X278000Y5078740D01*
X279000Y5078740D01*
X280000Y5078740D01*
X281000Y5078740D01*
X282000Y5078740D01*
X283000Y5078740D01*
X284000Y5078740D01*
X285000Y5078740D01*
X286000Y5078740D01*
X287000Y5078740D01*
X288000Y5078740D01*
X289000Y5078740D01*
X290000Y5078740D01*
X291000Y5078740D01*
X292000Y5078740D01*
X293000Y5078740D01*
X294000Y5078740D01*
X295000Y5078740D01*
X296000Y5078740D01*
X297000Y5078740D01*
X298000Y5078740D01*
X299000Y5078740D01*
X300000Y5078740D01*
X301000Y5078740D01*
X302000Y5078740D01*
X303000Y5078740D01*
X304000Y5078740D01*
X305000Y5078740D01*
X306000Y5078740D01*
X307000Y5078740D01*
X308000Y5078740D01*
X309000Y5078740D01*
X310000Y5078740D01*
X311000Y5078740D01*
X312000Y5078740D01*
X313000Y5078740D01*
X314000Y5078740D01*
X315000Y5078740D01*
X316000Y5078740D01*
X317000Y5078740D01*
X318000Y5078740D01*
X319000Y5078740D01*
X320000Y5078740D01*
X321000Y5078740D01*
X322000Y5078740D01*
X323000Y5078740D01*
X324000Y5078740D01*
X325000Y5078740D01*
X326000Y5078740D01*
X327000Y5078740D01*
X328000Y5078740D01*
X329000Y5078740D01*
X330000Y5078740D01*
X331000Y5078740D01*
X332000Y5078740D01*
X333000Y5078740D01*
X334000Y5078740D01*
X335000Y5078740D01*
X336000Y5078740D01*
X337000Y5078740D01*
X338000Y5078740D01*
X339000Y5078740D01*
X340000Y5078740D01*
X341000Y5078740D01*
X342000Y5078740D01*
X343000Y5078740D01*
X344000Y5078740D01*
X345000Y5078740D01*
X346000Y5078740D01*
X347000Y5078740D01*
X348000Y5078740D01*
X349000Y5078740D01*
X350000Y5078740D01*
X351000Y5078740D01*
X352000Y5078740D01*
X353000Y5078740D01*
X354000Y5078740D01*
X355000Y5078740D01*
X356000Y5078740D01*
X357000Y5078740D01*
X358000Y5078740D01*
X359000Y5078740D01*
X360000Y5078740D01*
X361000Y5078740D01*
X362000Y5078740D01*
X363000Y5078740D01*
X364000Y5078740D01*
X365000Y5078740D01*
X366000Y5078740D01*
X367000Y5078740D01*
X368000Y5078740D01*
X369000Y5078740D01*
X370000Y5078740D01*
X371000Y5078740D01*
X372000Y5078740D01*
X373000Y5078740D01*
X374000Y5078740D01*
X375000Y5078740D01*
X376000Y5078740D01*
X377000Y5078740D01*
X378000Y5078740D01*
X379000Y5078740D01*
X380000Y5078740D01*
X381000Y5078740D01*
X382000Y5078740D01*
X383000Y5078740D01*
X384000Y5078740D01*
X385000Y5078740D01*
X386000Y5078740D01*
X387000Y5078740D01*
X388000Y5078740D01*
X389000Y5078740D01*
X390000Y5078740D01*
X391000Y5078740D01*
X392000Y5078740D01*
X393000Y5078740D01*
X394000Y5078740D01*
X395000Y5078740D01*
X396000Y5078740D01*
X397000Y5078740D01*
X398000Y5078740D01*
X399000Y5078740D01*
X400000Y5078740D01*
X401000Y5078740D01*
X402000Y5078740D01*
X403000Y5078740D01*
X404000Y5078740D01*
X405000Y5078740D01*
X406000Y5078740D01*
X407000Y5078740D01*
X408000Y5078740D01*
X409000Y5078740D01*
X410000Y5078740D01*
X411000Y5078740D01*
X412000Y5078740D01*
X413000Y5078740D01*
X414000Y5078740D01*
X415000Y5078740D01*
X416000Y5078740D01*
X417000Y5078740D01*
X418000Y5078740D01*
X419000Y5078740D01*
X420000Y5078740D01*
X421000Y5078740D01*
X422000Y5078740D01*
X423000Y5078740D01*
X424000Y5078740D01*
X425000Y5078740D01*
X426000Y5078740D01*
X427000Y5078740D01*
X428000Y5078740D01*
X429000Y5078740D01*
X430000Y5078740D01*
X431000Y5078740D01*
X432000Y5078740D01*
X433000Y5078740D01*
X434000Y5078740D01*
X435000Y5078740D01*
X436000Y5078740D01*
X437000Y5078740D01*
X438000Y5078740D01*
X439000Y5078740D01*
X440000Y5078740D01*
X441000Y5078740D01*
X442000Y5078740D01*
X443000Y5078740D01*
X444000Y5078740D01*
X445000Y5078740D01*
X446000Y5078740D01*
X447000Y5078740D01*
X448000Y5078740D01*
X449000Y5078740D01*
X450000Y5078740D01*
X451000Y5078740D01*
X452000Y5078740D01*
X453000Y5078740D01*
X454000Y5078740D01*
X455000Y5078740D01*
X456000Y5078740D01*
X457000Y5078740D01*
X458000Y5078740D01*
X459000Y5078740D01*
X460000Y5078740D01*
X461000Y5078740D01*
X462000Y5078740D01*
X463000Y5078740D01*
X464000Y5078740D01*
X465000Y5078740D01*
X466000Y5078740D01*
X467000Y5078740D01*
X468000Y5078740D01*
X469000Y5078740D01*
X470000Y5078740D01*
X471000Y5078740D01*
X472000Y5078740D01*
X473000Y5078740D01*
X474000Y5078740D01*
X475000Y5078740D01*
X476000Y5078740D01*
X477000Y5078740D01*
X478000Y5078740D01*
X479000Y5078740D01*
X480000Y5078740D01*
X481000Y5078740D01*
X482000Y5078740D01*
X483000Y5078740D01*
X484000Y5078740D01*
X485000Y5078740D01*
X486000Y5078740D01*
X487000Y5078740D01*
X488000Y5078740D01*
X489000Y5078740D01*
X490000Y5078740D01*
X491000Y5078740D01*
X492000Y5078740D01*
X493000Y5078740D01*
X494000Y5078740D01*
X495000Y5078740D01*
X496000Y5078740D01*
X497000Y5078740D01*
X498000Y5078740D01*
X499000Y5078740D01*
X500000Y5078740D01*
X501000Y5078740D01*
X502000Y5078740D01*
X503000Y5078740D01*
X504000Y5078740D01*
X505000Y5078740D01*
X506000Y5078740D01*
X507000Y5078740D01*
X508000Y5078740D01*
X509000Y5078740D01*
X510000Y5078740D01*
X511000Y5078740D01*
X512000Y5078740D01*
X513000Y5078740D01*
X514000Y5078740D01*
X515000Y5078740D01*
X516000Y5078740D01*
X517000Y5078740D01*
X518000Y5078740D01*
X519000Y5078740D01*
X520000Y5078740D01*
X521000Y5078740D01*
X522000Y5078740D01*
X523000Y5078740D01*
X524000Y5078740D01*
X525000Y5078740D01*
X526000Y5078740D01*
X527000Y5078740D01*
X528000Y5078740D01*
X529000Y5078740D01*
X530000Y5078740D01*
X531000Y5078740D01*
X532000Y5078740D01*
X533000Y5078740D01*
X534000Y5078740D01*
X535000Y5078740D01*
X536000Y5078740D01*
X537000Y5078740D01*
X538000Y5078740D01*
X539000Y5078740D01*
X540000Y5078740D01*
X541000Y5078740D01*
X542000Y5078740D01*
X543000Y5078740D01*
X544000Y5078740D01*
X545000Y5078740D01*
X546000Y5078740D01*
X547000Y5078740D01*
X548000Y5078740D01*
X549000Y5078740D01*
X550000Y5078740D01*
X551000Y5078740D01*
X552000Y5078740D01*
X553000Y5078740D01*
X554000Y5078740D01*
X555000Y5078740D01*
X556000Y5078740D01*
X557000Y5078740D01*
X558000Y5078740D01*
X559000Y5078740D01*
X560000Y5078740D01*
X561000Y5078740D01*
X562000Y5078740D01*
X563000Y5078740D01*
X564000Y5078740D01*
X565000Y5078740D01*
X566000Y5078740D01*
X567000Y5078740D01*
X568000Y5078740D01*
X569000Y5078740D01*
X570000Y5078740D01*
X571000Y5078740D01*
X572000Y5078740D01*
X573000Y5078740D01*
X574000Y5078740D01*
X575000Y5078740D01*
X576000Y5078740D01*
X577000Y5078740D01*
X578000Y5078740D01*
X579000Y5078740D01*
X580000Y5078740D01*
X581000Y5078740D01*
X582000Y5078740D01*
X583000Y5078740D01*
X584000Y5078740D01*
X585000Y5078740D01*
X586000Y5078740D01*
X587000Y5078740D01*
X588000Y5078740D01*
X589000Y5078740D01*
X590000Y5078740D01*
X591000Y5078740D01*
X592000Y5078740D01*
X593000Y5078740D01*
X594000Y5078740D01*
X595000Y5078740D01*
X596000Y5078740D01*
X597000Y5078740D01*
X598000Y5078740D01*
X599000Y5078740D01*
X600000Y5078740D01*
X601000Y5078740D01*
X602000Y5078740D01*
X603000Y5078740D01*
X604000Y5078740D01*
X605000Y5078740D01*
X606000Y5078740D01*
X607000Y5078740D01*
X608000Y5078740D01*
X609000Y5078740D01*
X610000Y5078740D01*
X611000Y5078740D01*
X612000Y5078740D01*
X613000Y5078740D01*
X614000Y5078740D01*
X615000Y5078740D01*
X616000Y5078740D01*
X617000Y5078740D01*
X618000Y5078740D01*
X619000Y5078740D01*
X620000Y5078740D01*
X621000Y5078740D01*
X622000Y5078740D01*
X623000Y5078740D01*
X624000Y5078740D01*
X625000Y5078740D01*
X626000Y5078740D01*
X627000Y5078740D01*
X628000Y5078740D01*
X629000Y5078740D01*
X630000Y5078740D01*
X631000Y5078740D01*
X632000Y5078740D01*
X633000Y5078740D01*
X634000Y5078740D01*
X635000Y5078740D01*
X636000Y5078740D01*
X637000Y5078740D01*
X638000Y5078740D01*
X639000Y5078740D01*
X640000Y5078740D01*
X641000Y5078740D01*
X642000Y5078740D01*
X643000Y5078740D01*
X644000Y5078740D01*
X645000Y5078740D01*
X646000Y5078740D01*
X647000Y5078740D01*
X648000Y5078740D01*
X649000Y5078740D01*
X650000Y5078740D01*
X651000Y5078740D01*
X652000Y5078740D01*
X653000Y5078740D01*
X654000Y5078740D01*
X655000Y5078740D01*
X656000Y5078740D01*
X657000Y5078740D01*
X658000Y5078740D01*
X659000Y5078740D01*
X660000Y5078740D01*
X661000Y5078740D01*
X662000Y5078740D01*
X663000Y5078740D01*
X664000Y5078740D01*
X665000Y5078740D01*
X666000Y5078740D01*
X667000Y5078740D01*
X668000Y5078740D01*
X669000Y5078740D01*
X670000Y5078740D01*
X671000Y5078740D01*
X672000Y5078740D01*
X673000Y5078740D01*
X674000Y5078740D01*
X675000Y5078740D01*
X676000Y5078740D01*
X677000Y5078740D01*
X678000Y5078740D01*
X679000Y5078740D01*
X680000Y5078740D01*
X681000Y5078740D01*
X682000Y5078740D01*
X683000Y5078740D01*
X684000Y5078740D01*
X685000Y5078740D01*
X686000Y5078740D01*
X687000Y5078740D01*
X688000Y5078740D01*
X689000Y5078740D01*
X690000Y5078740D01*
X691000Y5078740D01*
X692000Y5078740D01*
X693000Y5078740D01*
X694000Y5078740D01*
X695000Y5078740D01*
X696000Y5078740D01*
X697000Y5078740D01*
X698000Y5078740D01*
X699000Y5078740D01*
X700000Y5078740D01*
X701000Y5078740D01*
X702000Y5078740D01*
X703000Y5078740D01*
X704000Y5078740D01*
X705000Y5078740D01*
X706000Y5078740D01*
X707000Y5078740D01*
X708000Y5078740D01*
X709000Y5078740D01*
X710000Y5078740D01*
X711000Y5078740D01*
X712000Y5078740D01*
X713000Y5078740D01*
X714000Y5078740D01*
X715000Y5078740D01*
X716000Y5078740D01*
X717000Y5078740D01*
X718000Y5078740D01*
X719000Y5078740D01*
X720000Y5078740D01*
X721000Y5078740D01*
X722000Y5078740D01*
X723000Y5078740D01*
X724000Y5078740D01*
X725000Y5078740D01*
X726000Y5078740D01*
X727000Y5078740D01*
X728000Y5078740D01*
X729000Y5078740D01*
X730000Y5078740D01*
X731000Y5078740D01*
X732000Y5078740D01*
X733000Y5078740D01*
X734000Y5078740D01*
X735000Y5078740D01*
X736000Y5078740D01*
X737000Y5078740D01*
X738000Y5078740D01*
X739000Y5078740D01*
X740000Y5078740D01*
X741000Y5078740D01*
X742000Y5078740D01*
X743000Y5078740D01*
X744000Y5078740D01*
X745000Y5078740D01*
X746000Y5078740D01*
X747000Y5078740D01*
X748000Y5078740D01*
X749000Y5078740D01*
X750000Y5078740D01*
X751000Y5078740D01*
X752000Y5078740D01*
X753000Y5078740D01*
X754000Y5078740D01*
X755000Y5078740D01*
X756000Y5078740D01*
X757000Y5078740D01*
X758000Y5078740D01*
X759000Y5078740D01*
X760000Y5078740D01*
X761000Y5078740D01*
X762000Y5078740D01*
X763000Y5078740D01*
X764000Y5078740D01*
X765000Y5078740D01*
X766000Y5078740D01*
X767000Y5078740D01*
X768000Y5078740D01*
X769000Y5078740D01*
X770000Y5078740D01*
X771000Y5078740D01*
X772000Y5078740D01*
X773000Y5078740D01*
X774000Y5078740D01*
X775000Y5078740D01*
X776000Y5078740D01*
X777000Y5078740D01*
X778000Y5078740D01*
X779000Y5078740D01*
X780000Y5078740D01*
X781000Y5078740D01*
X782000Y5078740D01*
X783000Y5078740D01*
X784000Y5078740D01*
X785000Y5078740D01*
X786000Y5078740D01*
X787000Y5078740D01*
X788000Y5078740D01*
X789000Y5078740D01*
X790000Y5078740D01*
X791000Y5078740D01*
X792000Y5078740D01*
X793000Y5078740D01*
X794000Y5078740D01*
X795000Y5078740D01*
X796000Y5078740D01*
X797000Y5078740D01*
X798000Y5078740D01*
X799000Y5078740D01*
X800000Y5078740D01*
X801000Y5078740D01*
X802000Y5078740D01*
X803000Y5078740D01*
X804000Y5078740D01*
X805000Y5078740D01*
X806000Y5078740D01*
X807000Y5078740D01*
X808000Y5078740D01*
X809000Y5078740D01*
X810000Y5078740D01*
X811000Y5078740D01*
X812000Y5078740D01*
X813000Y5078740D01*
X814000Y5078740D01*
X815000Y5078740D01*
X816000Y5078740D01*
X817000Y5078740D01*
X818000Y5078740D01*
X819000Y5078740D01*
X820000Y5078740D01*
X821000Y5078740D01*
X822000Y5078740D01*
X823000Y5078740D01*
X824000Y5078740D01*
X825000Y5078740D01*
X826000Y5078740D01*
X827000Y5078740D01*
X828000Y5078740D01*
X829000Y5078740D01*
X830000Y5078740D01*
X831000Y5078740D01*
X832000Y5078740D01*
X833000Y5078740D01*
X834000Y5078740D01*
X835000Y5078740D01*
X836000Y5078740D01*
X837000Y5078740D01*
X838000Y5078740D01*
X839000Y5078740D01*
X840000Y5078740D01*
X841000Y5078740D01*
X842000Y5078740D01*
X843000Y5078740D01*
X844000Y5078740D01*
X845000Y5078740D01*
X846000Y5078740D01*
X847000Y5078740D01*
X848000Y5078740D01*
X849000Y5078740D01*
X850000Y5078740D01*
X851000Y5078740D01*
X852000Y5078740D01*
X853000Y5078740D01*
X854000Y5078740D01*
X855000Y5078740D01*
X856000Y5078740D01*
X857000Y5078740D01*
X858000Y5078740D01*
X859000Y5078740D01*
X860000Y5078740D01*
X861000Y5078740D01*
X862000Y5078740D01*
X863000Y5078740D01*
X864000Y5078740D01*
X865000Y5078740D01*
X866000Y5078740D01*
X867000Y5078740D01*
X868000Y5078740D01*
X869000Y5078740D01*
X870000Y5078740D01*
X871000Y5078740D01*
X872000Y5078740D01*
X873000Y5078740D01*
X874000Y5078740D01*
X875000Y5078740D01*
X876000Y5078740D01*
X877000Y5078740D01*
X878000Y5078740D01*
X879000Y5078740D01*
X880000Y5078740D01*
X881000Y5078740D01*
X882000Y5078740D01*
X883000Y5078740D01*
X884000Y5078740D01*
X885000Y5078740D01*
X886000Y5078740D01*
X887000Y5078740D01*
X888000Y5078740D01*
X889000Y5078740D01*
X890000Y5078740D01*
X891000Y5078740D01*
X892000Y5078740D01*
X893000Y5078740D01*
X894000Y5078740D01*
X895000Y5078740D01*
X896000Y5078740D01*
X897000Y5078740D01*
X898000Y5078740D01*
X899000Y5078740D01*
X900000Y5078740D01*
X901000Y5078740D01*
X902000Y5078740D01*
X903000Y5078740D01*
X904000Y5078740D01*
X905000Y5078740D01*
X906000Y5078740D01*
X907000Y5078740D01*
X908000Y5078740D01*
X909000Y5078740D01*
X910000Y5078740D01*
X911000Y5078740D01*
X912000Y5078740D01*
X913000Y5078740D01*
X914000Y5078740D01*
X915000Y5078740D01*
X916000Y5078740D01*
X917000Y5078740D01*
X918000Y5078740D01*
X919000Y5078740D01*
X920000Y5078740D01*
X921000Y5078740D01*
X922000Y5078740D01*
X923000Y5078740D01*
X924000Y5078740D01*
X925000Y5078740D01*
X926000Y5078740D01*
X927000Y5078740D01*
X928000Y5078740D01*
X929000Y5078740D01*
X930000Y5078740D01*
X931000Y5078740D01*
X932000Y5078740D01*
X933000Y5078740D01*
X934000Y5078740D01*
X935000Y5078740D01*
X936000Y5078740D01*
X937000Y5078740D01*
X938000Y5078740D01*
X939000Y5078740D01*
X940000Y5078740D01*
X941000Y5078740D01*
X942000Y5078740D01*
X943000Y5078740D01*
X944000Y5078740D01*
X945000Y5078740D01*
X946000Y5078740D01*
X947000Y5078740D01*
X948000Y5078740D01*
X949000Y5078740D01*
X950000Y5078740D01*
X951000Y5078740D01*
X952000Y5078740D01*
X953000Y5078740D01*
X954000Y5078740D01*
X955000Y5078740D01*
X956000Y5078740D01*
X957000Y5078740D01*
X958000Y5078740D01*
X959000Y5078740D01*
X960000Y5078740D01*
X961000Y5078740D01*
X962000Y5078740D01*
X963000Y5078740D01*
X964000Y5078740D01*
X965000Y5078740D01*
X966000Y5078740D01*
X967000Y5078740D01*
X968000Y5078740D01*
X969000Y5078740D01*
X970000Y5078740D01*
X971000Y5078740D01*
X972000Y5078740D01*
X973000Y5078740D01*
X974000Y5078740D01*
X975000Y5078740D01*
X976000Y5078740D01*
X977000Y5078740D01*
X978000Y5078740D01*
X979000Y5078740D01*
X980000Y5078740D01*
X981000Y5078740D01*
X982000Y5078740D01*
X983000Y5078740D01*
X984000Y5078740D01*
X985000Y5078740D01*
X986000Y5078740D01*
X987000Y5078740D01*
X988000Y5078740D01*
X989000Y5078740D01*
X990000Y5078740D01*
X991000Y5078740D01*
X992000Y5078740D01*
X993000Y5078740D01*
X994000Y5078740D01*
X995000Y5078740D01*
X996000Y5078740D01*
X997000Y5078740D01*
X998000Y5078740D01*
X999000Y5078740D01*
X1000000Y5078740D01*
X1001000Y5078740D01*
X1002000Y5078740D01*
X1003000Y5078740D01*
X1004000Y5078740D01*
X1005000Y5078740D01*
X1006000Y5078740D01*
X1007000Y5078740D01*
X1008000Y5078740D01*
X1009000Y5078740D01*
X1010000Y5078740D01*
X1011000Y5078740D01*
X1012000Y5078740D01*
X1013000Y5078740D01*
X1014000Y5078740D01*
X1015000Y5078740D01*
X1016000Y5078740D01*
X1017000Y5078740D01*
X1018000Y5078740D01*
X1019000Y5078740D01*
X1020000Y5078740D01*
X1021000Y5078740D01*
X1022000Y5078740D01*
X1023000Y5078740D01*
X1024000Y5078740D01*
X1025000Y5078740D01*
X1026000Y5078740D01*
X1027000Y5078740D01*
X1028000Y5078740D01*
X1029000Y5078740D01*
X1030000Y5078740D01*
X1031000Y5078740D01*
X1032000Y5078740D01*
X1033000Y5078740D01*
X1034000Y5078740D01*
X1035000Y5078740D01*
X1036000Y5078740D01*
X1037000Y5078740D01*
X1038000Y5078740D01*
X1039000Y5078740D01*
X1040000Y5078740D01*
X1041000Y5078740D01*
X1042000Y5078740D01*
X1043000Y5078740D01*
X1044000Y5078740D01*
X1045000Y5078740D01*
X1046000Y5078740D01*
X1047000Y5078740D01*
X1048000Y5078740D01*
X1049000Y5078740D01*
X1050000Y5078740D01*
X1051000Y5078740D01*
X1052000Y5078740D01*
X1053000Y5078740D01*
X1054000Y5078740D01*
X1055000Y5078740D01*
X1056000Y5078740D01*
X1057000Y5078740D01*
X1058000Y5078740D01*
X1059000Y5078740D01*
X1060000Y5078740D01*
X1061000Y5078740D01*
X1062000Y5078740D01*
X1063000Y5078740D01*
X1064000Y5078740D01*
X1065000Y5078740D01*
X1066000Y5078740D01*
X1067000Y5078740D01*
X1068000Y5078740D01*
X1069000Y5078740D01*
X1070000Y5078740D01*
X1071000Y5078740D01*
X1072000Y5078740D01*
X1073000Y5078740D01*
X1074000Y5078740D01*
X1075000Y5078740D01*
X1076000Y5078740D01*
X1077000Y5078740D01*
X1078000Y5078740D01*
X1079000Y5078740D01*
X1080000Y5078740D01*
X1081000Y5078740D01*
X1082000Y5078740D01*
X1083000Y5078740D01*
X1084000Y5078740D01*
X1085000Y5078740D01*
X1086000Y5078740D01*
X1087000Y5078740D01*
X1088000Y5078740D01*
X1089000Y5078740D01*
X1090000Y5078740D01*
X1091000Y5078740D01*
X1092000Y5078740D01*
X1093000Y5078740D01*
X1094000Y5078740D01*
X1095000Y5078740D01*
X1096000Y5078740D01*
X1097000Y5078740D01*
X1098000Y5078740D01*
X1099000Y5078740D01*
X1100000Y5078740D01*
X1101000Y5078740D01*
X1102000Y5078740D01*
X1103000Y5078740D01*
X1104000Y5078740D01*
X1105000Y5078740D01*
X1106000Y5078740D01*
X1107000Y5078740D01*
X1108000Y5078740D01*
X1109000Y5078740D01*
X1110000Y5078740D01*
X1111000Y5078740D01*
X1112000Y5078740D01*
X1113000Y5078740D01*
X1114000Y5078740D01*
X1115000Y5078740D01*
X1116000Y5078740D01*
X1117000Y5078740D01*
X1118000Y5078740D01*
X1119000Y5078740D01*
X1120000Y5078740D01*
X1121000Y5078740D01*
X1122000Y5078740D01*
X1123000Y5078740D01*
X1124000Y5078740D01*
X1125000Y5078740D01*
X1126000Y5078740D01*
X1127000Y5078740D01*
X1128000Y5078740D01*
X1129000Y5078740D01*
X1130000Y5078740D01*
X1131000Y5078740D01*
X1132000Y5078740D01*
X1133000Y5078740D01*
X1134000Y5078740D01*
X1135000Y5078740D01*
X1136000Y5078740D01*
X1137000Y5078740D01*
X1138000Y5078740D01*
X1139000Y5078740D01*
X1140000Y5078740D01*
X1141000Y5078740D01*
X1142000Y5078740D01*
X1143000Y5078740D01*
X1144000Y5078740D01*
X1145000Y5078740D01*
X1146000Y5078740D01*
X1147000Y5078740D01*
X1148000Y5078740D01*
X1149000Y5078740D01*
X1150000Y5078740D01*
X1151000Y5078740D01*
X1152000Y5078740D01*
X1153000Y5078740D01*
X1154000Y5078740D01*
X1155000Y5078740D01*
X1156000Y5078740D01*
X1157000Y5078740D01*
X1158000Y5078740D01*
X1159000Y5078740D01*
X1160000Y5078740D01*
X1161000Y5078740D01*
X1162000Y5078740D01*
X1163000Y5078740D01*
X1164000Y5078740D01*
X1165000Y5078740D01*
X1166000Y5078740D01*
X1167000Y5078740D01*
X1168000Y5078740D01*
X1169000Y5078740D01*
X1170000Y5078740D01*
X1171000Y5078740D01*
X1172000Y5078740D01*
X1173000Y5078740D01*
X1174000Y5078740D01*
X1175000Y5078740D01*
X1176000Y5078740D01*
X1177000Y5078740D01*
X1178000Y5078740D01*
X1179000Y5078740D01*
X1180000Y5078740D01*
X1181000Y5078740D01*
X1182000Y5078740D01*
X1183000Y5078740D01*
X1184000Y5078740D01*
X1185000Y5078740D01*
X1186000Y5078740D01*
X1187000Y5078740D01*
X1188000Y5078740D01*
X1189000Y5078740D01*
X1190000Y5078740D01*
X1191000Y5078740D01*
X1192000Y5078740D01*
X1193000Y5078740D01*
X1194000Y5078740D01*
X1195000Y5078740D01*
X1196000Y5078740D01*
X1197000Y5078740D01*
X1198000Y5078740D01*
X1199000Y5078740D01*
X1200000Y5078740D01*
X1201000Y5078740D01*
X1202000Y5078740D01*
X1203000Y5078740D01*
X1204000Y5078740D01*
X1205000Y5078740D01*
X1206000Y5078740D01*
X1207000Y5078740D01*
X1208000Y5078740D01*
X1209000Y5078740D01*
X1210000Y5078740D01*
X1211000Y5078740D01*
X1212000Y5078740D01*
X1213000Y5078740D01*
X1214000Y5078740D01*
X1215000Y5078740D01*
X1216000Y5078740D01*
X1217000Y5078740D01*
X1218000Y5078740D01*
X1219000Y5078740D01*
X1220000Y5078740D01*
X1221000Y5078740D01*
X1222000Y5078740D01*
X1223000Y5078740D01*
X1224000Y5078740D01*
X1225000Y5078740D01*
X1226000Y5078740D01*
X1227000Y5078740D01*
X1228000Y5078740D01*
X1229000Y5078740D01*
X1230000Y5078740D01*
X1231000Y5078740D01*
X1232000Y5078740D01*
X1233000Y5078740D01*
X1234000Y5078740D01*
X1235000Y5078740D01*
X1236000Y5078740D01*
X1237000Y5078740D01*
X1238000Y5078740D01*
X1239000Y5078740D01*
X1240000Y5078740D01*
X1241000Y5078740D01*
X1242000Y5078740D01*
X1243000Y5078740D01*
X1244000Y5078740D01*
X1245000Y5078740D01*
X1246000Y5078740D01*
X1247000Y5078740D01*
X1248000Y5078740D01*
X1249000Y5078740D01*
X1250000Y5078740D01*
X1251000Y5078740D01*
X1252000Y5078740D01*
X1253000Y5078740D01*
X1254000Y5078740D01*
X1255000Y5078740D01*
X1256000Y5078740D01*
X1257000Y5078740D01*
X1258000Y5078740D01*
X1259000Y5078740D01*
X1260000Y5078740D01*
X1261000Y5078740D01*
X1262000Y5078740D01*
X1263000Y5078740D01*
X1264000Y5078740D01*
X1265000Y5078740D01*
X1266000Y5078740D01*
X1267000Y5078740D01*
X1268000Y5078740D01*
X1269000Y5078740D01*
X1270000Y5078740D01*
X1271000Y5078740D01*
X1272000Y5078740D01*
X1273000Y5078740D01*
X1274000Y5078740D01*
X1275000Y5078740D01*
X1276000Y5078740D01*
X1277000Y5078740D01*
X1278000Y5078740D01*
X1279000Y5078740D01*
X1280000Y5078740D01*
X1281000Y5078740D01*
X1282000Y5078740D01*
X1283000Y5078740D01*
X1284000Y5078740D01*
X1285000Y5078740D01*
X1286000Y5078740D01*
X1287000Y5078740D01*
X1288000Y5078740D01*
X1289000Y5078740D01*
X1290000Y5078740D01*
X1291000Y5078740D01*
X1292000Y5078740D01*
X1293000Y5078740D01*
X1294000Y5078740D01*
X1295000Y5078740D01*
X1296000Y5078740D01*
X1297000Y5078740D01*
X1298000Y5078740D01*
X1299000Y5078740D01*
X1300000Y5078740D01*
X1301000Y5078740D01*
X1302000Y5078740D01*
X1303000Y5078740D01*
X1304000Y5078740D01*
X1305000Y5078740D01*
X1306000Y5078740D01*
X1307000Y5078740D01*
X1308000Y5078740D01*
X1309000Y5078740D01*
X1310000Y5078740D01*
X1311000Y5078740D01*
X1312000Y5078740D01*
X1313000Y5078740D01*
X1314000Y5078740D01*
X1315000Y5078740D01*
X1316000Y5078740D01*
X1317000Y5078740D01*
X1318000Y5078740D01*
X1319000Y5078740D01*
X1320000Y5078740D01*
X1321000Y5078740D01*
X1322000Y5078740D01*
X1323000Y5078740D01*
X1324000Y5078740D01*
X1325000Y5078740D01*
X1326000Y5078740D01*
X1327000Y5078740D01*
X1328000Y5078740D01*
X1329000Y5078740D01*
X1330000Y5078740D01*
X1331000Y5078740D01*
X1332000Y5078740D01*
X1333000Y5078740D01*
X1334000Y5078740D01*
X1335000Y5078740D01*
X1336000Y5078740D01*
X1337000Y5078740D01*
X1338000Y5078740D01*
X1339000Y5078740D01*
X1340000Y5078740D01*
X1341000Y5078740D01*
X1342000Y5078740D01*
X1343000Y5078740D01*
X1344000Y5078740D01*
X1345000Y5078740D01*
X1346000Y5078740D01*
X1347000Y5078740D01*
X1348000Y5078740D01*
X1349000Y5078740D01*
X1350000Y5078740D01*
X1351000Y5078740D01*
X1352000Y5078740D01*
X1353000Y5078740D01*
X1354000Y5078740D01*
X1355000Y5078740D01*
X1356000Y5078740D01*
X1357000Y5078740D01*
X1358000Y5078740D01*
X1359000Y5078740D01*
X1360000Y5078740D01*
X1361000Y5078740D01*
X1362000Y5078740D01*
X1363000Y5078740D01*
X1364000Y5078740D01*
X1365000Y5078740D01*
X1366000Y5078740D01*
X1367000Y5078740D01*
X1368000Y5078740D01*
X1369000Y5078740D01*
X1370000Y5078740D01*
X1371000Y5078740D01*
X1372000Y5078740D01*
X1373000Y5078740D01*
X1374000Y5078740D01*
X1375000Y5078740D01*
X1376000Y5078740D01*
X1377000Y5078740D01*
X1378000Y5078740D01*
X1379000Y5078740D01*
X1380000Y5078740D01*
X1381000Y5078740D01*
X1382000Y5078740D01*
X1383000Y5078740D01*
X1384000Y5078740D01*
X1385000Y5078740D01*
X1386000Y5078740D01*
X1387000Y5078740D01*
X1388000Y5078740D01*
X1389000Y5078740D01*
X1390000Y5078740D01*
X1391000Y5078740D01*
X1392000Y5078740D01*
X1393000Y5078740D01*
X1394000Y5078740D01*
X1395000Y5078740D01*
X1396000Y5078740D01*
X1397000Y5078740D01*
X1398000Y5078740D01*
X1399000Y5078740D01*
X1400000Y5078740D01*
X1401000Y5078740D01*
X1402000Y5078740D01*
X1403000Y5078740D01*
X1404000Y5078740D01*
X1405000Y5078740D01*
X1406000Y5078740D01*
X1407000Y5078740D01*
X1408000Y5078740D01*
X1409000Y5078740D01*
X1410000Y5078740D01*
X1411000Y5078740D01*
X1412000Y5078740D01*
X1413000Y5078740D01*
X1414000Y5078740D01*
X1415000Y5078740D01*
X1416000Y5078740D01*
X1417000Y5078740D01*
X1418000Y5078740D01*
X1419000Y5078740D01*
X1420000Y5078740D01*
X1421000Y5078740D01*
X1422000Y5078740D01*
X1423000Y5078740D01*
X1424000Y5078740D01*
X1425000Y5078740D01*
X1426000Y5078740D01*
X1427000Y5078740D01*
X1428000Y5078740D01*
X1429000Y5078740D01*
X1430000Y5078740D01*
X1431000Y5078740D01*
X1432000Y5078740D01*
X1433000Y5078740D01*
X1434000Y5078740D01*
X1435000Y5078740D01*
X1436000Y5078740D01*
X1437000Y5078740D01*
X1438000Y5078740D01*
X1439000Y5078740D01*
X1440000Y5078740D01*
X1441000Y5078740D01*
X1442000Y5078740D01*
X1443000Y5078740D01*
X1444000Y5078740D01*
X1445000Y5078740D01*
X1446000Y5078740D01*
X1447000Y5078740D01*
X1448000Y5078740D01*
X1449000Y5078740D01*
X1450000Y5078740D01*
X1451000Y5078740D01*
X1452000Y5078740D01*
X1453000Y5078740D01*
X1454000Y5078740D01*
X1455000Y5078740D01*
X1456000Y5078740D01*
X1457000Y5078740D01*
X1458000Y5078740D01*
X1459000Y5078740D01*
X1460000Y5078740D01*
X1461000Y5078740D01*
X1462000Y5078740D01*
X1463000Y5078740D01*
X1464000Y5078740D01*
X1465000Y5078740D01*
X1466000Y5078740D01*
X1467000Y5078740D01*
X1468000Y5078740D01*
X1469000Y5078740D01*
X1470000Y5078740D01*
X1471000Y5078740D01*
X1472000Y5078740D01*
X1473000Y5078740D01*
X1474000Y5078740D01*
X1475000Y5078740D01*
X1476000Y5078740D01*
X1477000Y5078740D01*
X1478000Y5078740D01*
X1479000Y5078740D01*
X1480000Y5078740D01*
X1481000Y5078740D01*
X1482000Y5078740D01*
X1483000Y5078740D01*
X1484000Y5078740D01*
X1485000Y5078740D01*
X1486000Y5078740D01*
X1487000Y5078740D01*
X1488000Y5078740D01*
X1489000Y5078740D01*
X1490000Y5078740D01*
X1491000Y5078740D01*
X1492000Y5078740D01*
X1493000Y5078740D01*
X1494000Y5078740D01*
X1495000Y5078740D01*
X1496000Y5078740D01*
X1497000Y5078740D01*
X1498000Y5078740D01*
X1499000Y5078740D01*
X1500000Y5078740D01*
X1501000Y5078740D01*
X1502000Y5078740D01*
X1503000Y5078740D01*
X1504000Y5078740D01*
X1505000Y5078740D01*
X1506000Y5078740D01*
X1507000Y5078740D01*
X1508000Y5078740D01*
X1509000Y5078740D01*
X1510000Y5078740D01*
X1511000Y5078740D01*
X1512000Y5078740D01*
X1513000Y5078740D01*
X1514000Y5078740D01*
X1515000Y5078740D01*
X1516000Y5078740D01*
X1517000Y5078740D01*
X1518000Y5077740D01*
X1519000Y5077740D01*
X1520000Y5077740D01*
X1521000Y5077740D01*
X1522000Y5077740D01*
X1523000Y5076740D01*
X1524000Y5076740D01*
X1525000Y5076740D01*
X1526000Y5075740D01*
X1527000Y5075740D01*
X1528000Y5075740D01*
X1529000Y5074740D01*
X1530000Y5074740D01*
X1531000Y5073740D01*
X1532000Y5073740D01*
X1533000Y5072740D01*
X1534000Y5071740D01*
X1535000Y5071740D01*
X1536000Y5070740D01*
X1537000Y5069740D01*
X1538000Y5069740D01*
X1539000Y5068740D01*
X1540000Y5067740D01*
X1541000Y5066740D01*
X1542000Y5065740D01*
X1543000Y5064740D01*
X1544000Y5063740D01*
X1545000Y5063740D01*
X1546000Y5062740D01*
X1546000Y5061740D01*
X1547000Y5060740D01*
X1548000Y5059740D01*
X1549000Y5058740D01*
X1550000Y5057740D01*
X1551000Y5056740D01*
X1551000Y5055740D01*
X1552000Y5054740D01*
X1553000Y5053740D01*
X1553000Y5052740D01*
X1554000Y5051740D01*
X1555000Y5050740D01*
X1555000Y5049740D01*
X1556000Y5048740D01*
X1557000Y5047740D01*
X1557000Y5046740D01*
X1558000Y5045740D01*
X1558000Y5044740D01*
X1559000Y5043740D01*
X1559000Y5042740D01*
X1560000Y5041740D01*
X1560000Y5040740D01*
X1561000Y5039740D01*
X1561000Y5038740D01*
X1562000Y5037740D01*
X1562000Y5036740D01*
X1563000Y5035740D01*
X1563000Y5033740D01*
X1564000Y5032740D01*
X1564000Y5030740D01*
X1565000Y5029740D01*
X1565000Y5028740D01*
X1566000Y5027740D01*
X1566000Y5024740D01*
X1567000Y5023740D01*
X1567000Y5021740D01*
X1568000Y5020740D01*
X1568000Y5017740D01*
X1569000Y5016740D01*
X1569000Y5013740D01*
X1570000Y5012740D01*
X1570000Y5008740D01*
X1571000Y5007740D01*
X1571000Y5002740D01*
X1572000Y5001740D01*
X1572000Y4993740D01*
X1573000Y4992740D01*
X1573000Y87740D01*
X1572000Y86740D01*
X1572000Y78740D01*
X1571000Y77740D01*
X1571000Y72740D01*
X1570000Y71740D01*
X1570000Y67740D01*
X1569000Y66740D01*
X1569000Y63740D01*
X1568000Y62740D01*
X1568000Y59740D01*
X1567000Y58740D01*
X1567000Y56740D01*
X1566000Y55740D01*
X1566000Y52740D01*
X1565000Y51740D01*
X1565000Y50740D01*
X1564000Y49740D01*
X1564000Y47740D01*
X1563000Y46740D01*
X1563000Y44740D01*
X1562000Y43740D01*
X1562000Y42740D01*
X1561000Y41740D01*
X1561000Y40740D01*
X1560000Y39740D01*
X1560000Y38740D01*
X1559000Y37740D01*
X1559000Y36740D01*
X1558000Y35740D01*
X1558000Y34740D01*
X1557000Y33740D01*
X1557000Y32740D01*
X1556000Y31740D01*
X1555000Y30740D01*
X1555000Y29740D01*
X1554000Y28740D01*
X1553000Y27740D01*
X1553000Y26740D01*
X1552000Y25740D01*
X1551000Y24740D01*
X1551000Y23740D01*
X1550000Y22740D01*
X1549000Y21740D01*
X1548000Y20740D01*
X1547000Y19740D01*
X1546000Y18740D01*
X1546000Y17740D01*
X1545000Y16740D01*
X1544000Y16740D01*
X1543000Y15740D01*
X1542000Y14740D01*
X1541000Y13740D01*
X1540000Y12740D01*
X1539000Y11740D01*
X1538000Y10740D01*
X1537000Y10740D01*
X1536000Y9740D01*
X1535000Y8740D01*
X1534000Y8740D01*
X1533000Y7740D01*
X1532000Y6740D01*
X1531000Y6740D01*
X1530000Y5740D01*
X1529000Y5740D01*
X1528000Y4740D01*
X1527000Y4740D01*
X1526000Y4740D01*
X1525000Y3740D01*
X1524000Y3740D01*
X1523000Y3740D01*
X1522000Y2740D01*
X1521000Y2740D01*
X1520000Y2740D01*
X1519000Y2740D01*
X1518000Y2740D01*
X1517000Y1740D01*
X1516000Y1740D01*
X1515000Y1740D01*
X1514000Y1740D01*
X1513000Y1740D01*
X1512000Y1740D01*
X1511000Y1740D01*
X1510000Y1740D01*
X1509000Y1740D01*
X1508000Y1740D01*
X1507000Y1740D01*
X1506000Y1740D01*
X1505000Y1740D01*
X1504000Y1740D01*
X1503000Y1740D01*
X1502000Y1740D01*
X1501000Y1740D01*
X1500000Y1740D01*
X1499000Y1740D01*
X1498000Y1740D01*
X1497000Y1740D01*
X1496000Y1740D01*
X1495000Y1740D01*
X1494000Y1740D01*
X1493000Y1740D01*
X1492000Y1740D01*
X1491000Y1740D01*
X1490000Y1740D01*
X1489000Y1740D01*
X1488000Y1740D01*
X1487000Y1740D01*
X1486000Y1740D01*
X1485000Y1740D01*
X1484000Y1740D01*
X1483000Y1740D01*
X1482000Y1740D01*
X1481000Y1740D01*
X1480000Y1740D01*
X1479000Y1740D01*
X1478000Y1740D01*
X1477000Y1740D01*
X1476000Y1740D01*
X1475000Y1740D01*
X1474000Y1740D01*
X1473000Y1740D01*
X1472000Y1740D01*
X1471000Y1740D01*
X1470000Y1740D01*
X1469000Y1740D01*
X1468000Y1740D01*
X1467000Y1740D01*
X1466000Y1740D01*
X1465000Y1740D01*
X1464000Y1740D01*
X1463000Y1740D01*
X1462000Y1740D01*
X1461000Y1740D01*
X1460000Y1740D01*
X1459000Y1740D01*
X1458000Y1740D01*
X1457000Y1740D01*
X1456000Y1740D01*
X1455000Y1740D01*
X1454000Y1740D01*
X1453000Y1740D01*
X1452000Y1740D01*
X1451000Y1740D01*
X1450000Y1740D01*
X1449000Y1740D01*
X1448000Y1740D01*
X1447000Y1740D01*
X1446000Y1740D01*
X1445000Y1740D01*
X1444000Y1740D01*
X1443000Y1740D01*
X1442000Y1740D01*
X1441000Y1740D01*
X1440000Y1740D01*
X1439000Y1740D01*
X1438000Y1740D01*
X1437000Y1740D01*
X1436000Y1740D01*
X1435000Y1740D01*
X1434000Y1740D01*
X1433000Y1740D01*
X1432000Y1740D01*
X1431000Y1740D01*
X1430000Y1740D01*
X1429000Y1740D01*
X1428000Y1740D01*
X1427000Y1740D01*
X1426000Y1740D01*
X1425000Y1740D01*
X1424000Y1740D01*
X1423000Y1740D01*
X1422000Y1740D01*
X1421000Y1740D01*
X1420000Y1740D01*
X1419000Y1740D01*
X1418000Y1740D01*
X1417000Y1740D01*
X1416000Y1740D01*
X1415000Y1740D01*
X1414000Y1740D01*
X1413000Y1740D01*
X1412000Y1740D01*
X1411000Y1740D01*
X1410000Y1740D01*
X1409000Y1740D01*
X1408000Y1740D01*
X1407000Y1740D01*
X1406000Y1740D01*
X1405000Y1740D01*
X1404000Y1740D01*
X1403000Y1740D01*
X1402000Y1740D01*
X1401000Y1740D01*
X1400000Y1740D01*
X1399000Y1740D01*
X1398000Y1740D01*
X1397000Y1740D01*
X1396000Y1740D01*
X1395000Y1740D01*
X1394000Y1740D01*
X1393000Y1740D01*
X1392000Y1740D01*
X1391000Y1740D01*
X1390000Y1740D01*
X1389000Y1740D01*
X1388000Y1740D01*
X1387000Y1740D01*
X1386000Y1740D01*
X1385000Y1740D01*
X1384000Y1740D01*
X1383000Y1740D01*
X1382000Y1740D01*
X1381000Y1740D01*
X1380000Y1740D01*
X1379000Y1740D01*
X1378000Y1740D01*
X1377000Y1740D01*
X1376000Y1740D01*
X1375000Y1740D01*
X1374000Y1740D01*
X1373000Y1740D01*
X1372000Y1740D01*
X1371000Y1740D01*
X1370000Y1740D01*
X1369000Y1740D01*
X1368000Y1740D01*
X1367000Y1740D01*
X1366000Y1740D01*
X1365000Y1740D01*
X1364000Y1740D01*
X1363000Y1740D01*
X1362000Y1740D01*
X1361000Y1740D01*
X1360000Y1740D01*
X1359000Y1740D01*
X1358000Y1740D01*
X1357000Y1740D01*
X1356000Y1740D01*
X1355000Y1740D01*
X1354000Y1740D01*
X1353000Y1740D01*
X1352000Y1740D01*
X1351000Y1740D01*
X1350000Y1740D01*
X1349000Y1740D01*
X1348000Y1740D01*
X1347000Y1740D01*
X1346000Y1740D01*
X1345000Y1740D01*
X1344000Y1740D01*
X1343000Y1740D01*
X1342000Y1740D01*
X1341000Y1740D01*
X1340000Y1740D01*
X1339000Y1740D01*
X1338000Y1740D01*
X1337000Y1740D01*
X1336000Y1740D01*
X1335000Y1740D01*
X1334000Y1740D01*
X1333000Y1740D01*
X1332000Y1740D01*
X1331000Y1740D01*
X1330000Y1740D01*
X1329000Y1740D01*
X1328000Y1740D01*
X1327000Y1740D01*
X1326000Y1740D01*
X1325000Y1740D01*
X1324000Y1740D01*
X1323000Y1740D01*
X1322000Y1740D01*
X1321000Y1740D01*
X1320000Y1740D01*
X1319000Y1740D01*
X1318000Y1740D01*
X1317000Y1740D01*
X1316000Y1740D01*
X1315000Y1740D01*
X1314000Y1740D01*
X1313000Y1740D01*
X1312000Y1740D01*
X1311000Y1740D01*
X1310000Y1740D01*
X1309000Y1740D01*
X1308000Y1740D01*
X1307000Y1740D01*
X1306000Y1740D01*
X1305000Y1740D01*
X1304000Y1740D01*
X1303000Y1740D01*
X1302000Y1740D01*
X1301000Y1740D01*
X1300000Y1740D01*
X1299000Y1740D01*
X1298000Y1740D01*
X1297000Y1740D01*
X1296000Y1740D01*
X1295000Y1740D01*
X1294000Y1740D01*
X1293000Y1740D01*
X1292000Y1740D01*
X1291000Y1740D01*
X1290000Y1740D01*
X1289000Y1740D01*
X1288000Y1740D01*
X1287000Y1740D01*
X1286000Y1740D01*
X1285000Y1740D01*
X1284000Y1740D01*
X1283000Y1740D01*
X1282000Y1740D01*
X1281000Y1740D01*
X1280000Y1740D01*
X1279000Y1740D01*
X1278000Y1740D01*
X1277000Y1740D01*
X1276000Y1740D01*
X1275000Y1740D01*
X1274000Y1740D01*
X1273000Y1740D01*
X1272000Y1740D01*
X1271000Y1740D01*
X1270000Y1740D01*
X1269000Y1740D01*
X1268000Y1740D01*
X1267000Y1740D01*
X1266000Y1740D01*
X1265000Y1740D01*
X1264000Y1740D01*
X1263000Y1740D01*
X1262000Y1740D01*
X1261000Y1740D01*
X1260000Y1740D01*
X1259000Y1740D01*
X1258000Y1740D01*
X1257000Y1740D01*
X1256000Y1740D01*
X1255000Y1740D01*
X1254000Y1740D01*
X1253000Y1740D01*
X1252000Y1740D01*
X1251000Y1740D01*
X1250000Y1740D01*
X1249000Y1740D01*
X1248000Y1740D01*
X1247000Y1740D01*
X1246000Y1740D01*
X1245000Y1740D01*
X1244000Y1740D01*
X1243000Y1740D01*
X1242000Y1740D01*
X1241000Y1740D01*
X1240000Y1740D01*
X1239000Y1740D01*
X1238000Y1740D01*
X1237000Y1740D01*
X1236000Y1740D01*
X1235000Y1740D01*
X1234000Y1740D01*
X1233000Y1740D01*
X1232000Y1740D01*
X1231000Y1740D01*
X1230000Y1740D01*
X1229000Y1740D01*
X1228000Y1740D01*
X1227000Y1740D01*
X1226000Y1740D01*
X1225000Y1740D01*
X1224000Y1740D01*
X1223000Y1740D01*
X1222000Y1740D01*
X1221000Y1740D01*
X1220000Y1740D01*
X1219000Y1740D01*
X1218000Y1740D01*
X1217000Y1740D01*
X1216000Y1740D01*
X1215000Y1740D01*
X1214000Y1740D01*
X1213000Y1740D01*
X1212000Y1740D01*
X1211000Y1740D01*
X1210000Y1740D01*
X1209000Y1740D01*
X1208000Y1740D01*
X1207000Y1740D01*
X1206000Y1740D01*
X1205000Y1740D01*
X1204000Y1740D01*
X1203000Y1740D01*
X1202000Y1740D01*
X1201000Y1740D01*
X1200000Y1740D01*
X1199000Y1740D01*
X1198000Y1740D01*
X1197000Y1740D01*
X1196000Y1740D01*
X1195000Y1740D01*
X1194000Y1740D01*
X1193000Y1740D01*
X1192000Y1740D01*
X1191000Y1740D01*
X1190000Y1740D01*
X1189000Y1740D01*
X1188000Y1740D01*
X1187000Y1740D01*
X1186000Y1740D01*
X1185000Y1740D01*
X1184000Y1740D01*
X1183000Y1740D01*
X1182000Y1740D01*
X1181000Y1740D01*
X1180000Y1740D01*
X1179000Y1740D01*
X1178000Y1740D01*
X1177000Y1740D01*
X1176000Y1740D01*
X1175000Y1740D01*
X1174000Y1740D01*
X1173000Y1740D01*
X1172000Y1740D01*
X1171000Y1740D01*
X1170000Y1740D01*
X1169000Y1740D01*
X1168000Y1740D01*
X1167000Y1740D01*
X1166000Y1740D01*
X1165000Y1740D01*
X1164000Y1740D01*
X1163000Y1740D01*
X1162000Y1740D01*
X1161000Y1740D01*
X1160000Y1740D01*
X1159000Y1740D01*
X1158000Y1740D01*
X1157000Y1740D01*
X1156000Y1740D01*
X1155000Y1740D01*
X1154000Y1740D01*
X1153000Y1740D01*
X1152000Y1740D01*
X1151000Y1740D01*
X1150000Y1740D01*
X1149000Y1740D01*
X1148000Y1740D01*
X1147000Y1740D01*
X1146000Y1740D01*
X1145000Y1740D01*
X1144000Y1740D01*
X1143000Y1740D01*
X1142000Y1740D01*
X1141000Y1740D01*
X1140000Y1740D01*
X1139000Y1740D01*
X1138000Y1740D01*
X1137000Y1740D01*
X1136000Y1740D01*
X1135000Y1740D01*
X1134000Y1740D01*
X1133000Y1740D01*
X1132000Y1740D01*
X1131000Y1740D01*
X1130000Y1740D01*
X1129000Y1740D01*
X1128000Y1740D01*
X1127000Y1740D01*
X1126000Y1740D01*
X1125000Y1740D01*
X1124000Y1740D01*
X1123000Y1740D01*
X1122000Y1740D01*
X1121000Y1740D01*
X1120000Y1740D01*
X1119000Y1740D01*
X1118000Y1740D01*
X1117000Y1740D01*
X1116000Y1740D01*
X1115000Y1740D01*
X1114000Y1740D01*
X1113000Y1740D01*
X1112000Y1740D01*
X1111000Y1740D01*
X1110000Y1740D01*
X1109000Y1740D01*
X1108000Y1740D01*
X1107000Y1740D01*
X1106000Y1740D01*
X1105000Y1740D01*
X1104000Y1740D01*
X1103000Y1740D01*
X1102000Y1740D01*
X1101000Y1740D01*
X1100000Y1740D01*
X1099000Y1740D01*
X1098000Y1740D01*
X1097000Y1740D01*
X1096000Y1740D01*
X1095000Y1740D01*
X1094000Y1740D01*
X1093000Y1740D01*
X1092000Y1740D01*
X1091000Y1740D01*
X1090000Y1740D01*
X1089000Y1740D01*
X1088000Y1740D01*
X1087000Y1740D01*
X1086000Y1740D01*
X1085000Y1740D01*
X1084000Y1740D01*
X1083000Y1740D01*
X1082000Y1740D01*
X1081000Y1740D01*
X1080000Y1740D01*
X1079000Y1740D01*
X1078000Y1740D01*
X1077000Y1740D01*
X1076000Y1740D01*
X1075000Y1740D01*
X1074000Y1740D01*
X1073000Y1740D01*
X1072000Y1740D01*
X1071000Y1740D01*
X1070000Y1740D01*
X1069000Y1740D01*
X1068000Y1740D01*
X1067000Y1740D01*
X1066000Y1740D01*
X1065000Y1740D01*
X1064000Y1740D01*
X1063000Y1740D01*
X1062000Y1740D01*
X1061000Y1740D01*
X1060000Y1740D01*
X1059000Y1740D01*
X1058000Y1740D01*
X1057000Y1740D01*
X1056000Y1740D01*
X1055000Y1740D01*
X1054000Y1740D01*
X1053000Y1740D01*
X1052000Y1740D01*
X1051000Y1740D01*
X1050000Y1740D01*
X1049000Y1740D01*
X1048000Y1740D01*
X1047000Y1740D01*
X1046000Y1740D01*
X1045000Y1740D01*
X1044000Y1740D01*
X1043000Y1740D01*
X1042000Y1740D01*
X1041000Y1740D01*
X1040000Y1740D01*
X1039000Y1740D01*
X1038000Y1740D01*
X1037000Y1740D01*
X1036000Y1740D01*
X1035000Y1740D01*
X1034000Y1740D01*
X1033000Y1740D01*
X1032000Y1740D01*
X1031000Y1740D01*
X1030000Y1740D01*
X1029000Y1740D01*
X1028000Y1740D01*
X1027000Y1740D01*
X1026000Y1740D01*
X1025000Y1740D01*
X1024000Y1740D01*
X1023000Y1740D01*
X1022000Y1740D01*
X1021000Y1740D01*
X1020000Y1740D01*
X1019000Y1740D01*
X1018000Y1740D01*
X1017000Y1740D01*
X1016000Y1740D01*
X1015000Y1740D01*
X1014000Y1740D01*
X1013000Y1740D01*
X1012000Y1740D01*
X1011000Y1740D01*
X1010000Y1740D01*
X1009000Y1740D01*
X1008000Y1740D01*
X1007000Y1740D01*
X1006000Y1740D01*
X1005000Y1740D01*
X1004000Y1740D01*
X1003000Y1740D01*
X1002000Y1740D01*
X1001000Y1740D01*
X1000000Y1740D01*
X999000Y1740D01*
X998000Y1740D01*
X997000Y1740D01*
X996000Y1740D01*
X995000Y1740D01*
X994000Y1740D01*
X993000Y1740D01*
X992000Y1740D01*
X991000Y1740D01*
X990000Y1740D01*
X989000Y1740D01*
X988000Y1740D01*
X987000Y1740D01*
X986000Y1740D01*
X985000Y1740D01*
X984000Y1740D01*
X983000Y1740D01*
X982000Y1740D01*
X981000Y1740D01*
X980000Y1740D01*
X979000Y1740D01*
X978000Y1740D01*
X977000Y1740D01*
X976000Y1740D01*
X975000Y1740D01*
X974000Y1740D01*
X973000Y1740D01*
X972000Y1740D01*
X971000Y1740D01*
X970000Y1740D01*
X969000Y1740D01*
X968000Y1740D01*
X967000Y1740D01*
X966000Y1740D01*
X965000Y1740D01*
X964000Y1740D01*
X963000Y1740D01*
X962000Y1740D01*
X961000Y1740D01*
X960000Y1740D01*
X959000Y1740D01*
X958000Y1740D01*
X957000Y1740D01*
X956000Y1740D01*
X955000Y1740D01*
X954000Y1740D01*
X953000Y1740D01*
X952000Y1740D01*
X951000Y1740D01*
X950000Y1740D01*
X949000Y1740D01*
X948000Y1740D01*
X947000Y1740D01*
X946000Y1740D01*
X945000Y1740D01*
X944000Y1740D01*
X943000Y1740D01*
X942000Y1740D01*
X941000Y1740D01*
X940000Y1740D01*
X939000Y1740D01*
X938000Y1740D01*
X937000Y1740D01*
X936000Y1740D01*
X935000Y1740D01*
X934000Y1740D01*
X933000Y1740D01*
X932000Y1740D01*
X931000Y1740D01*
X930000Y1740D01*
X929000Y1740D01*
X928000Y1740D01*
X927000Y1740D01*
X926000Y1740D01*
X925000Y1740D01*
X924000Y1740D01*
X923000Y1740D01*
X922000Y1740D01*
X921000Y1740D01*
X920000Y1740D01*
X919000Y1740D01*
X918000Y1740D01*
X917000Y1740D01*
X916000Y1740D01*
X915000Y1740D01*
X914000Y1740D01*
X913000Y1740D01*
X912000Y1740D01*
X911000Y1740D01*
X910000Y1740D01*
X909000Y1740D01*
X908000Y1740D01*
X907000Y1740D01*
X906000Y1740D01*
X905000Y1740D01*
X904000Y1740D01*
X903000Y1740D01*
X902000Y1740D01*
X901000Y1740D01*
X900000Y1740D01*
X899000Y1740D01*
X898000Y1740D01*
X897000Y1740D01*
X896000Y1740D01*
X895000Y1740D01*
X894000Y1740D01*
X893000Y1740D01*
X892000Y1740D01*
X891000Y1740D01*
X890000Y1740D01*
X889000Y1740D01*
X888000Y1740D01*
X887000Y1740D01*
X886000Y1740D01*
X885000Y1740D01*
X884000Y1740D01*
X883000Y1740D01*
X882000Y1740D01*
X881000Y1740D01*
X880000Y1740D01*
X879000Y1740D01*
X878000Y1740D01*
X877000Y1740D01*
X876000Y1740D01*
X875000Y1740D01*
X874000Y1740D01*
X873000Y1740D01*
X872000Y1740D01*
X871000Y1740D01*
X870000Y1740D01*
X869000Y1740D01*
X868000Y1740D01*
X867000Y1740D01*
X866000Y1740D01*
X865000Y1740D01*
X864000Y1740D01*
X863000Y1740D01*
X862000Y1740D01*
X861000Y1740D01*
X860000Y1740D01*
X859000Y1740D01*
X858000Y1740D01*
X857000Y1740D01*
X856000Y1740D01*
X855000Y1740D01*
X854000Y1740D01*
X853000Y1740D01*
X852000Y1740D01*
X851000Y1740D01*
X850000Y1740D01*
X849000Y1740D01*
X848000Y1740D01*
X847000Y1740D01*
X846000Y1740D01*
X845000Y1740D01*
X844000Y1740D01*
X843000Y1740D01*
X842000Y1740D01*
X841000Y1740D01*
X840000Y1740D01*
X839000Y1740D01*
X838000Y1740D01*
X837000Y1740D01*
X836000Y1740D01*
X835000Y1740D01*
X834000Y1740D01*
X833000Y1740D01*
X832000Y1740D01*
X831000Y1740D01*
X830000Y1740D01*
X829000Y1740D01*
X828000Y1740D01*
X827000Y1740D01*
X826000Y1740D01*
X825000Y1740D01*
X824000Y1740D01*
X823000Y1740D01*
X822000Y1740D01*
X821000Y1740D01*
X820000Y1740D01*
X819000Y1740D01*
X818000Y1740D01*
X817000Y1740D01*
X816000Y1740D01*
X815000Y1740D01*
X814000Y1740D01*
X813000Y1740D01*
X812000Y1740D01*
X811000Y1740D01*
X810000Y1740D01*
X809000Y1740D01*
X808000Y1740D01*
X807000Y1740D01*
X806000Y1740D01*
X805000Y1740D01*
X804000Y1740D01*
X803000Y1740D01*
X802000Y1740D01*
X801000Y1740D01*
X800000Y1740D01*
X799000Y1740D01*
X798000Y1740D01*
X797000Y1740D01*
X796000Y1740D01*
X795000Y1740D01*
X794000Y1740D01*
X793000Y1740D01*
X792000Y1740D01*
X791000Y1740D01*
X790000Y1740D01*
X789000Y1740D01*
X788000Y1740D01*
X787000Y1740D01*
X786000Y1740D01*
X785000Y1740D01*
X784000Y1740D01*
X783000Y1740D01*
X782000Y1740D01*
X781000Y1740D01*
X780000Y1740D01*
X779000Y1740D01*
X778000Y1740D01*
X777000Y1740D01*
X776000Y1740D01*
X775000Y1740D01*
X774000Y1740D01*
X773000Y1740D01*
X772000Y1740D01*
X771000Y1740D01*
X770000Y1740D01*
X769000Y1740D01*
X768000Y1740D01*
X767000Y1740D01*
X766000Y1740D01*
X765000Y1740D01*
X764000Y1740D01*
X763000Y1740D01*
X762000Y1740D01*
X761000Y1740D01*
X760000Y1740D01*
X759000Y1740D01*
X758000Y1740D01*
X757000Y1740D01*
X756000Y1740D01*
X755000Y1740D01*
X754000Y1740D01*
X753000Y1740D01*
X752000Y1740D01*
X751000Y1740D01*
X750000Y1740D01*
X749000Y1740D01*
X748000Y1740D01*
X747000Y1740D01*
X746000Y1740D01*
X745000Y1740D01*
X744000Y1740D01*
X743000Y1740D01*
X742000Y1740D01*
X741000Y1740D01*
X740000Y1740D01*
X739000Y1740D01*
X738000Y1740D01*
X737000Y1740D01*
X736000Y1740D01*
X735000Y1740D01*
X734000Y1740D01*
X733000Y1740D01*
X732000Y1740D01*
X731000Y1740D01*
X730000Y1740D01*
X729000Y1740D01*
X728000Y1740D01*
X727000Y1740D01*
X726000Y1740D01*
X725000Y1740D01*
X724000Y1740D01*
X723000Y1740D01*
X722000Y1740D01*
X721000Y1740D01*
X720000Y1740D01*
X719000Y1740D01*
X718000Y1740D01*
X717000Y1740D01*
X716000Y1740D01*
X715000Y1740D01*
X714000Y1740D01*
X713000Y1740D01*
X712000Y1740D01*
X711000Y1740D01*
X710000Y1740D01*
X709000Y1740D01*
X708000Y1740D01*
X707000Y1740D01*
X706000Y1740D01*
X705000Y1740D01*
X704000Y1740D01*
X703000Y1740D01*
X702000Y1740D01*
X701000Y1740D01*
X700000Y1740D01*
X699000Y1740D01*
X698000Y1740D01*
X697000Y1740D01*
X696000Y1740D01*
X695000Y1740D01*
X694000Y1740D01*
X693000Y1740D01*
X692000Y1740D01*
X691000Y1740D01*
X690000Y1740D01*
X689000Y1740D01*
X688000Y1740D01*
X687000Y1740D01*
X686000Y1740D01*
X685000Y1740D01*
X684000Y1740D01*
X683000Y1740D01*
X682000Y1740D01*
X681000Y1740D01*
X680000Y1740D01*
X679000Y1740D01*
X678000Y1740D01*
X677000Y1740D01*
X676000Y1740D01*
X675000Y1740D01*
X674000Y1740D01*
X673000Y1740D01*
X672000Y1740D01*
X671000Y1740D01*
X670000Y1740D01*
X669000Y1740D01*
X668000Y1740D01*
X667000Y1740D01*
X666000Y1740D01*
X665000Y1740D01*
X664000Y1740D01*
X663000Y1740D01*
X662000Y1740D01*
X661000Y1740D01*
X660000Y1740D01*
X659000Y1740D01*
X658000Y1740D01*
X657000Y1740D01*
X656000Y1740D01*
X655000Y1740D01*
X654000Y1740D01*
X653000Y1740D01*
X652000Y1740D01*
X651000Y1740D01*
X650000Y1740D01*
X649000Y1740D01*
X648000Y1740D01*
X647000Y1740D01*
X646000Y1740D01*
X645000Y1740D01*
X644000Y1740D01*
X643000Y1740D01*
X642000Y1740D01*
X641000Y1740D01*
X640000Y1740D01*
X639000Y1740D01*
X638000Y1740D01*
X637000Y1740D01*
X636000Y1740D01*
X635000Y1740D01*
X634000Y1740D01*
X633000Y1740D01*
X632000Y1740D01*
X631000Y1740D01*
X630000Y1740D01*
X629000Y1740D01*
X628000Y1740D01*
X627000Y1740D01*
X626000Y1740D01*
X625000Y1740D01*
X624000Y1740D01*
X623000Y1740D01*
X622000Y1740D01*
X621000Y1740D01*
X620000Y1740D01*
X619000Y1740D01*
X618000Y1740D01*
X617000Y1740D01*
X616000Y1740D01*
X615000Y1740D01*
X614000Y1740D01*
X613000Y1740D01*
X612000Y1740D01*
X611000Y1740D01*
X610000Y1740D01*
X609000Y1740D01*
X608000Y1740D01*
X607000Y1740D01*
X606000Y1740D01*
X605000Y1740D01*
X604000Y1740D01*
X603000Y1740D01*
X602000Y1740D01*
X601000Y1740D01*
X600000Y1740D01*
X599000Y1740D01*
X598000Y1740D01*
X597000Y1740D01*
X596000Y1740D01*
X595000Y1740D01*
X594000Y1740D01*
X593000Y1740D01*
X592000Y1740D01*
X591000Y1740D01*
X590000Y1740D01*
X589000Y1740D01*
X588000Y1740D01*
X587000Y1740D01*
X586000Y1740D01*
X585000Y1740D01*
X584000Y1740D01*
X583000Y1740D01*
X582000Y1740D01*
X581000Y1740D01*
X580000Y1740D01*
X579000Y1740D01*
X578000Y1740D01*
X577000Y1740D01*
X576000Y1740D01*
X575000Y1740D01*
X574000Y1740D01*
X573000Y1740D01*
X572000Y1740D01*
X571000Y1740D01*
X570000Y1740D01*
X569000Y1740D01*
X568000Y1740D01*
X567000Y1740D01*
X566000Y1740D01*
X565000Y1740D01*
X564000Y1740D01*
X563000Y1740D01*
X562000Y1740D01*
X561000Y1740D01*
X560000Y1740D01*
X559000Y1740D01*
X558000Y1740D01*
X557000Y1740D01*
X556000Y1740D01*
X555000Y1740D01*
X554000Y1740D01*
X553000Y1740D01*
X552000Y1740D01*
X551000Y1740D01*
X550000Y1740D01*
X549000Y1740D01*
X548000Y1740D01*
X547000Y1740D01*
X546000Y1740D01*
X545000Y1740D01*
X544000Y1740D01*
X543000Y1740D01*
X542000Y1740D01*
X541000Y1740D01*
X540000Y1740D01*
X539000Y1740D01*
X538000Y1740D01*
X537000Y1740D01*
X536000Y1740D01*
X535000Y1740D01*
X534000Y1740D01*
X533000Y1740D01*
X532000Y1740D01*
X531000Y1740D01*
X530000Y1740D01*
X529000Y1740D01*
X528000Y1740D01*
X527000Y1740D01*
X526000Y1740D01*
X525000Y1740D01*
X524000Y1740D01*
X523000Y1740D01*
X522000Y1740D01*
X521000Y1740D01*
X520000Y1740D01*
X519000Y1740D01*
X518000Y1740D01*
X517000Y1740D01*
X516000Y1740D01*
X515000Y1740D01*
X514000Y1740D01*
X513000Y1740D01*
X512000Y1740D01*
X511000Y1740D01*
X510000Y1740D01*
X509000Y1740D01*
X508000Y1740D01*
X507000Y1740D01*
X506000Y1740D01*
X505000Y1740D01*
X504000Y1740D01*
X503000Y1740D01*
X502000Y1740D01*
X501000Y1740D01*
X500000Y1740D01*
X499000Y1740D01*
X498000Y1740D01*
X497000Y1740D01*
X496000Y1740D01*
X495000Y1740D01*
X494000Y1740D01*
X493000Y1740D01*
X492000Y1740D01*
X491000Y1740D01*
X490000Y1740D01*
X489000Y1740D01*
X488000Y1740D01*
X487000Y1740D01*
X486000Y1740D01*
X485000Y1740D01*
X484000Y1740D01*
X483000Y1740D01*
X482000Y1740D01*
X481000Y1740D01*
X480000Y1740D01*
X479000Y1740D01*
X478000Y1740D01*
X477000Y1740D01*
X476000Y1740D01*
X475000Y1740D01*
X474000Y1740D01*
X473000Y1740D01*
X472000Y1740D01*
X471000Y1740D01*
X470000Y1740D01*
X469000Y1740D01*
X468000Y1740D01*
X467000Y1740D01*
X466000Y1740D01*
X465000Y1740D01*
X464000Y1740D01*
X463000Y1740D01*
X462000Y1740D01*
X461000Y1740D01*
X460000Y1740D01*
X459000Y1740D01*
X458000Y1740D01*
X457000Y1740D01*
X456000Y1740D01*
X455000Y1740D01*
X454000Y1740D01*
X453000Y1740D01*
X452000Y1740D01*
X451000Y1740D01*
X450000Y1740D01*
X449000Y1740D01*
X448000Y1740D01*
X447000Y1740D01*
X446000Y1740D01*
X445000Y1740D01*
X444000Y1740D01*
X443000Y1740D01*
X442000Y1740D01*
X441000Y1740D01*
X440000Y1740D01*
X439000Y1740D01*
X438000Y1740D01*
X437000Y1740D01*
X436000Y1740D01*
X435000Y1740D01*
X434000Y1740D01*
X433000Y1740D01*
X432000Y1740D01*
X431000Y1740D01*
X430000Y1740D01*
X429000Y1740D01*
X428000Y1740D01*
X427000Y1740D01*
X426000Y1740D01*
X425000Y1740D01*
X424000Y1740D01*
X423000Y1740D01*
X422000Y1740D01*
X421000Y1740D01*
X420000Y1740D01*
X419000Y1740D01*
X418000Y1740D01*
X417000Y1740D01*
X416000Y1740D01*
X415000Y1740D01*
X414000Y1740D01*
X413000Y1740D01*
X412000Y1740D01*
X411000Y1740D01*
X410000Y1740D01*
X409000Y1740D01*
X408000Y1740D01*
X407000Y1740D01*
X406000Y1740D01*
X405000Y1740D01*
X404000Y1740D01*
X403000Y1740D01*
X402000Y1740D01*
X401000Y1740D01*
X400000Y1740D01*
X399000Y1740D01*
X398000Y1740D01*
X397000Y1740D01*
X396000Y1740D01*
X395000Y1740D01*
X394000Y1740D01*
X393000Y1740D01*
X392000Y1740D01*
X391000Y1740D01*
X390000Y1740D01*
X389000Y1740D01*
X388000Y1740D01*
X387000Y1740D01*
X386000Y1740D01*
X385000Y1740D01*
X384000Y1740D01*
X383000Y1740D01*
X382000Y1740D01*
X381000Y1740D01*
X380000Y1740D01*
X379000Y1740D01*
X378000Y1740D01*
X377000Y1740D01*
X376000Y1740D01*
X375000Y1740D01*
X374000Y1740D01*
X373000Y1740D01*
X372000Y1740D01*
X371000Y1740D01*
X370000Y1740D01*
X369000Y1740D01*
X368000Y1740D01*
X367000Y1740D01*
X366000Y1740D01*
X365000Y1740D01*
X364000Y1740D01*
X363000Y1740D01*
X362000Y1740D01*
X361000Y1740D01*
X360000Y1740D01*
X359000Y1740D01*
X358000Y1740D01*
X357000Y1740D01*
X356000Y1740D01*
X355000Y1740D01*
X354000Y1740D01*
X353000Y1740D01*
X352000Y1740D01*
X351000Y1740D01*
X350000Y1740D01*
X349000Y1740D01*
X348000Y1740D01*
X347000Y1740D01*
X346000Y1740D01*
X345000Y1740D01*
X344000Y1740D01*
X343000Y1740D01*
X342000Y1740D01*
X341000Y1740D01*
X340000Y1740D01*
X339000Y1740D01*
X338000Y1740D01*
X337000Y1740D01*
X336000Y1740D01*
X335000Y1740D01*
X334000Y1740D01*
X333000Y1740D01*
X332000Y1740D01*
X331000Y1740D01*
X330000Y1740D01*
X329000Y1740D01*
X328000Y1740D01*
X327000Y1740D01*
X326000Y1740D01*
X325000Y1740D01*
X324000Y1740D01*
X323000Y1740D01*
X322000Y1740D01*
X321000Y1740D01*
X320000Y1740D01*
X319000Y1740D01*
X318000Y1740D01*
X317000Y1740D01*
X316000Y1740D01*
X315000Y1740D01*
X314000Y1740D01*
X313000Y1740D01*
X312000Y1740D01*
X311000Y1740D01*
X310000Y1740D01*
X309000Y1740D01*
X308000Y1740D01*
X307000Y1740D01*
X306000Y1740D01*
X305000Y1740D01*
X304000Y1740D01*
X303000Y1740D01*
X302000Y1740D01*
X301000Y1740D01*
X300000Y1740D01*
X299000Y1740D01*
X298000Y1740D01*
X297000Y1740D01*
X296000Y1740D01*
X295000Y1740D01*
X294000Y1740D01*
X293000Y1740D01*
X292000Y1740D01*
X291000Y1740D01*
X290000Y1740D01*
X289000Y1740D01*
X288000Y1740D01*
X287000Y1740D01*
X286000Y1740D01*
X285000Y1740D01*
X284000Y1740D01*
X283000Y1740D01*
X282000Y1740D01*
X281000Y1740D01*
X280000Y1740D01*
X279000Y1740D01*
X278000Y1740D01*
X277000Y1740D01*
X276000Y1740D01*
X275000Y1740D01*
X274000Y1740D01*
X273000Y1740D01*
X272000Y1740D01*
X271000Y1740D01*
X270000Y1740D01*
X269000Y1740D01*
X268000Y1740D01*
X267000Y1740D01*
X266000Y1740D01*
X265000Y1740D01*
X264000Y1740D01*
X263000Y1740D01*
X262000Y1740D01*
X261000Y1740D01*
X260000Y1740D01*
X259000Y1740D01*
X258000Y1740D01*
X257000Y1740D01*
X256000Y1740D01*
X255000Y1740D01*
X254000Y1740D01*
X253000Y1740D01*
X252000Y1740D01*
X251000Y1740D01*
X250000Y1740D01*
X249000Y1740D01*
X248000Y1740D01*
X247000Y1740D01*
X246000Y1740D01*
X245000Y1740D01*
X244000Y1740D01*
X243000Y1740D01*
X242000Y1740D01*
X241000Y1740D01*
X240000Y1740D01*
X239000Y1740D01*
X238000Y1740D01*
X237000Y1740D01*
X236000Y1740D01*
X235000Y1740D01*
X234000Y1740D01*
X233000Y1740D01*
X232000Y1740D01*
X231000Y1740D01*
X230000Y1740D01*
X229000Y1740D01*
X228000Y1740D01*
X227000Y1740D01*
X226000Y1740D01*
X225000Y1740D01*
X224000Y1740D01*
X223000Y1740D01*
X222000Y1740D01*
X221000Y1740D01*
X220000Y1740D01*
X219000Y1740D01*
X218000Y1740D01*
X217000Y1740D01*
X216000Y1740D01*
X215000Y1740D01*
X214000Y1740D01*
X213000Y1740D01*
X212000Y1740D01*
X211000Y1740D01*
X210000Y1740D01*
X209000Y1740D01*
X208000Y1740D01*
X207000Y1740D01*
X206000Y1740D01*
X205000Y1740D01*
X204000Y1740D01*
X203000Y1740D01*
X202000Y1740D01*
X201000Y1740D01*
X200000Y1740D01*
X199000Y1740D01*
X198000Y1740D01*
X197000Y1740D01*
X196000Y1740D01*
X195000Y1740D01*
X194000Y1740D01*
X193000Y1740D01*
X192000Y1740D01*
X191000Y1740D01*
X190000Y1740D01*
X189000Y1740D01*
X188000Y1740D01*
X187000Y1740D01*
X186000Y1740D01*
X185000Y1740D01*
X184000Y1740D01*
X183000Y1740D01*
X182000Y1740D01*
X181000Y1740D01*
X180000Y1740D01*
X179000Y1740D01*
X178000Y1740D01*
X177000Y1740D01*
X176000Y1740D01*
X175000Y1740D01*
X174000Y1740D01*
X173000Y1740D01*
X172000Y1740D01*
X171000Y1740D01*
X170000Y1740D01*
X169000Y1740D01*
X168000Y1740D01*
X167000Y1740D01*
X166000Y1740D01*
X165000Y1740D01*
X164000Y1740D01*
X163000Y1740D01*
X162000Y1740D01*
X161000Y1740D01*
X160000Y1740D01*
X159000Y1740D01*
X158000Y1740D01*
X157000Y1740D01*
X156000Y1740D01*
X155000Y1740D01*
X154000Y1740D01*
X153000Y1740D01*
X152000Y1740D01*
X151000Y1740D01*
X150000Y1740D01*
X149000Y1740D01*
X148000Y1740D01*
X147000Y1740D01*
X146000Y1740D01*
X145000Y1740D01*
X144000Y1740D01*
X143000Y1740D01*
X142000Y1740D01*
X141000Y1740D01*
X140000Y1740D01*
X139000Y1740D01*
X138000Y1740D01*
X137000Y1740D01*
X136000Y1740D01*
X135000Y1740D01*
X134000Y1740D01*
X133000Y1740D01*
X132000Y1740D01*
X131000Y1740D01*
X130000Y1740D01*
X129000Y1740D01*
X128000Y1740D01*
X127000Y1740D01*
X126000Y1740D01*
X125000Y1740D01*
X124000Y1740D01*
X123000Y1740D01*
X122000Y1740D01*
X121000Y1740D01*
X120000Y1740D01*
X119000Y1740D01*
X118000Y1740D01*
X117000Y1740D01*
X116000Y1740D01*
X115000Y1740D01*
X114000Y1740D01*
X113000Y1740D01*
X112000Y1740D01*
X111000Y1740D01*
X110000Y1740D01*
X109000Y1740D01*
X108000Y1740D01*
X107000Y1740D01*
X106000Y1740D01*
X105000Y1740D01*
X104000Y1740D01*
X103000Y1740D01*
X102000Y1740D01*
X101000Y1740D01*
X100000Y1740D01*
X99000Y1740D01*
X98000Y1740D01*
X97000Y1740D01*
X96000Y1740D01*
X95000Y1740D01*
X94000Y1740D01*
X93000Y1740D01*
X92000Y1740D01*
X91000Y1740D01*
X90000Y1740D01*
X89000Y1740D01*
X88000Y1740D01*
X87000Y1740D01*
X86000Y1740D01*
X85000Y1740D01*
X84000Y1740D01*
X83000Y1740D01*
X82000Y1740D01*
X81000Y1740D01*
X80000Y1740D01*
X79000Y1740D01*
X78000Y1740D01*
X77000Y1740D01*
X76000Y1740D01*
X75000Y1740D01*
X74000Y1740D01*
X73000Y1740D01*
X72000Y1740D01*
X71000Y1740D01*
X70000Y1740D01*
X69000Y1740D01*
X68000Y1740D01*
X67000Y1740D01*
X66000Y1740D01*
X65000Y1740D01*
X64000Y1740D01*
X63000Y1740D01*
X62000Y1740D01*
X61000Y1740D01*
X60000Y1740D01*
X59000Y1740D01*
X58000Y1740D01*
X57000Y1740D01*
X56000Y1740D01*
X55000Y2740D01*
X54000Y2740D01*
X53000Y2740D01*
X52000Y2740D01*
X51000Y2740D01*
X50000Y3740D01*
X49000Y3740D01*
X48000Y3740D01*
X47000Y4740D01*
X46000Y4740D01*
X45000Y4740D01*
X44000Y5740D01*
X43000Y5740D01*
X42000Y6740D01*
X41000Y6740D01*
X40000Y7740D01*
X39000Y8740D01*
X38000Y8740D01*
X37000Y9740D01*
X36000Y10740D01*
X35000Y10740D01*
X34000Y11740D01*
X33000Y12740D01*
X32000Y13740D01*
X31000Y14740D01*
X30000Y15740D01*
X29000Y16740D01*
X28000Y16740D01*
X27000Y17740D01*
X27000Y18740D01*
X26000Y19740D01*
X25000Y20740D01*
X24000Y21740D01*
X23000Y22740D01*
X22000Y23740D01*
X22000Y24740D01*
X21000Y25740D01*
X20000Y26740D01*
X20000Y27740D01*
X19000Y28740D01*
X18000Y29740D01*
X18000Y30740D01*
X17000Y31740D01*
X16000Y32740D01*
X16000Y33740D01*
X15000Y34740D01*
X15000Y35740D01*
X14000Y36740D01*
X14000Y37740D01*
X13000Y38740D01*
X13000Y39740D01*
X12000Y40740D01*
X12000Y41740D01*
X11000Y42740D01*
X11000Y43740D01*
X10000Y44740D01*
X10000Y46740D01*
X9000Y47740D01*
X9000Y49740D01*
X8000Y50740D01*
X8000Y51740D01*
X7000Y52740D01*
X7000Y55740D01*
X6000Y56740D01*
X6000Y58740D01*
X5000Y59740D01*
X5000Y62740D01*
X4000Y63740D01*
X4000Y66740D01*
X3000Y67740D01*
X3000Y71740D01*
X2000Y72740D01*
X2000Y77740D01*
X1000Y78740D01*
X1000Y86740D01*
X0Y87740D01*
X0Y4992740D01*
X1000Y4993740D01*
X1000Y5001740D01*
X2000Y5002740D01*
X2000Y5007740D01*
X3000Y5008740D01*
X3000Y5012740D01*
X4000Y5013740D01*
X4000Y5016740D01*
X5000Y5017740D01*
X5000Y5020740D01*
X6000Y5021740D01*
X6000Y5023740D01*
X7000Y5024740D01*
X7000Y5027740D01*
X8000Y5028740D01*
X8000Y5029740D01*
X9000Y5030740D01*
X9000Y5032740D01*
X10000Y5033740D01*
X10000Y5035740D01*
X11000Y5036740D01*
X11000Y5037740D01*
X12000Y5038740D01*
X12000Y5039740D01*
X13000Y5040740D01*
X13000Y5041740D01*
X14000Y5042740D01*
X14000Y5043740D01*
X15000Y5044740D01*
X15000Y5045740D01*
X16000Y5046740D01*
X16000Y5047740D01*
X17000Y5048740D01*
X18000Y5049740D01*
X18000Y5050740D01*
X19000Y5051740D01*
X20000Y5052740D01*
X20000Y5053740D01*
X21000Y5054740D01*
X22000Y5055740D01*
X22000Y5056740D01*
X23000Y5057740D01*
X24000Y5058740D01*
X25000Y5059740D01*
X26000Y5060740D01*
X27000Y5061740D01*
X27000Y5062740D01*
X28000Y5063740D01*
X29000Y5063740D01*
X30000Y5064740D01*
X31000Y5065740D01*
X32000Y5066740D01*
X33000Y5067740D01*
X34000Y5068740D01*
X35000Y5069740D01*
X36000Y5069740D01*
X37000Y5070740D01*
X38000Y5071740D01*
X39000Y5071740D01*
X40000Y5072740D01*
X41000Y5073740D01*
X42000Y5073740D01*
X43000Y5074740D01*
X44000Y5074740D01*
X45000Y5075740D01*
X46000Y5075740D01*
X47000Y5075740D01*
X48000Y5076740D01*
X49000Y5076740D01*
X50000Y5076740D01*
X51000Y5077740D01*
X52000Y5077740D01*
X53000Y5077740D01*
X54000Y5077740D01*
X55000Y5078740D01*
D02*
X209000Y4503740D02*
X210000Y4503740D01*
X211000Y4503740D01*
X212000Y4503740D01*
X213000Y4503740D01*
X214000Y4503740D01*
X215000Y4503740D01*
X216000Y4503740D01*
X217000Y4503740D01*
X218000Y4503740D01*
X219000Y4503740D01*
X220000Y4503740D01*
X221000Y4503740D01*
X222000Y4503740D01*
X223000Y4503740D01*
X224000Y4503740D01*
X225000Y4503740D01*
X226000Y4503740D01*
X227000Y4503740D01*
X228000Y4503740D01*
X229000Y4503740D01*
X230000Y4503740D01*
X231000Y4503740D01*
X232000Y4503740D01*
X233000Y4503740D01*
X234000Y4502740D01*
X235000Y4502740D01*
X236000Y4502740D01*
X237000Y4502740D01*
X238000Y4502740D01*
X239000Y4502740D01*
X240000Y4502740D01*
X241000Y4502740D01*
X242000Y4502740D01*
X243000Y4501740D01*
X244000Y4501740D01*
X245000Y4501740D01*
X246000Y4501740D01*
X247000Y4501740D01*
X248000Y4500740D01*
X249000Y4500740D01*
X250000Y4500740D01*
X251000Y4500740D01*
X252000Y4500740D01*
X253000Y4499740D01*
X254000Y4499740D01*
X255000Y4499740D01*
X256000Y4499740D01*
X257000Y4498740D01*
X258000Y4498740D01*
X259000Y4498740D01*
X260000Y4497740D01*
X261000Y4497740D01*
X262000Y4497740D01*
X263000Y4497740D01*
X264000Y4496740D01*
X265000Y4496740D01*
X266000Y4496740D01*
X267000Y4495740D01*
X268000Y4495740D01*
X269000Y4494740D01*
X270000Y4494740D01*
X271000Y4494740D01*
X272000Y4493740D01*
X273000Y4493740D01*
X274000Y4493740D01*
X275000Y4492740D01*
X276000Y4492740D01*
X277000Y4491740D01*
X278000Y4491740D01*
X279000Y4490740D01*
X280000Y4490740D01*
X281000Y4489740D01*
X282000Y4489740D01*
X283000Y4488740D01*
X284000Y4488740D01*
X285000Y4487740D01*
X286000Y4487740D01*
X287000Y4486740D01*
X288000Y4486740D01*
X289000Y4485740D01*
X290000Y4485740D01*
X291000Y4484740D01*
X292000Y4483740D01*
X293000Y4483740D01*
X294000Y4482740D01*
X295000Y4481740D01*
X296000Y4481740D01*
X297000Y4480740D01*
X298000Y4480740D01*
X299000Y4479740D01*
X300000Y4478740D01*
X301000Y4477740D01*
X302000Y4477740D01*
X303000Y4476740D01*
X304000Y4475740D01*
X305000Y4474740D01*
X306000Y4474740D01*
X307000Y4473740D01*
X308000Y4472740D01*
X309000Y4471740D01*
X310000Y4470740D01*
X311000Y4470740D01*
X312000Y4469740D01*
X313000Y4468740D01*
X314000Y4467740D01*
X315000Y4466740D01*
X316000Y4465740D01*
X317000Y4464740D01*
X318000Y4463740D01*
X319000Y4462740D01*
X320000Y4461740D01*
X321000Y4460740D01*
X322000Y4459740D01*
X323000Y4458740D01*
X324000Y4457740D01*
X325000Y4456740D01*
X325000Y4455740D01*
X326000Y4454740D01*
X327000Y4453740D01*
X328000Y4452740D01*
X329000Y4451740D01*
X329000Y4450740D01*
X330000Y4449740D01*
X331000Y4448740D01*
X332000Y4447740D01*
X332000Y4446740D01*
X333000Y4445740D01*
X334000Y4444740D01*
X335000Y4443740D01*
X335000Y4442740D01*
X336000Y4441740D01*
X336000Y4440740D01*
X337000Y4439740D01*
X338000Y4438740D01*
X338000Y4437740D01*
X339000Y4436740D01*
X340000Y4435740D01*
X340000Y4434740D01*
X341000Y4433740D01*
X341000Y4432740D01*
X342000Y4431740D01*
X342000Y4430740D01*
X343000Y4429740D01*
X343000Y4428740D01*
X344000Y4427740D01*
X344000Y4426740D01*
X345000Y4425740D01*
X345000Y4424740D01*
X346000Y4423740D01*
X346000Y4422740D01*
X347000Y4421740D01*
X347000Y4420740D01*
X348000Y4419740D01*
X348000Y4417740D01*
X349000Y4416740D01*
X349000Y4415740D01*
X350000Y4414740D01*
X350000Y4412740D01*
X351000Y4411740D01*
X351000Y4409740D01*
X352000Y4408740D01*
X352000Y4406740D01*
X353000Y4405740D01*
X353000Y4402740D01*
X354000Y4401740D01*
X354000Y4398740D01*
X355000Y4397740D01*
X355000Y4393740D01*
X356000Y4392740D01*
X356000Y4388740D01*
X357000Y4387740D01*
X357000Y4380740D01*
X358000Y4379740D01*
X358000Y4353740D01*
X357000Y4352740D01*
X357000Y4345740D01*
X356000Y4344740D01*
X356000Y4339740D01*
X355000Y4338740D01*
X355000Y4335740D01*
X354000Y4334740D01*
X354000Y4331740D01*
X353000Y4330740D01*
X353000Y4327740D01*
X352000Y4326740D01*
X352000Y4324740D01*
X351000Y4323740D01*
X351000Y4321740D01*
X350000Y4320740D01*
X350000Y4318740D01*
X349000Y4317740D01*
X349000Y4316740D01*
X348000Y4315740D01*
X348000Y4313740D01*
X347000Y4312740D01*
X347000Y4311740D01*
X346000Y4310740D01*
X346000Y4309740D01*
X345000Y4308740D01*
X345000Y4306740D01*
X344000Y4305740D01*
X344000Y4304740D01*
X343000Y4303740D01*
X342000Y4302740D01*
X342000Y4301740D01*
X341000Y4300740D01*
X341000Y4299740D01*
X340000Y4298740D01*
X340000Y4297740D01*
X339000Y4296740D01*
X339000Y4295740D01*
X338000Y4294740D01*
X337000Y4293740D01*
X337000Y4292740D01*
X336000Y4291740D01*
X335000Y4290740D01*
X335000Y4289740D01*
X334000Y4288740D01*
X333000Y4287740D01*
X333000Y4286740D01*
X332000Y4285740D01*
X331000Y4284740D01*
X330000Y4283740D01*
X330000Y4282740D01*
X329000Y4281740D01*
X328000Y4280740D01*
X327000Y4279740D01*
X327000Y4278740D01*
X326000Y4277740D01*
X325000Y4276740D01*
X324000Y4275740D01*
X323000Y4274740D01*
X322000Y4273740D01*
X321000Y4272740D01*
X320000Y4271740D01*
X319000Y4270740D01*
X318000Y4269740D01*
X317000Y4268740D01*
X316000Y4267740D01*
X315000Y4266740D01*
X314000Y4265740D01*
X313000Y4264740D01*
X312000Y4263740D01*
X311000Y4262740D01*
X310000Y4261740D01*
X309000Y4260740D01*
X308000Y4260740D01*
X307000Y4259740D01*
X306000Y4258740D01*
X305000Y4257740D01*
X304000Y4256740D01*
X303000Y4256740D01*
X302000Y4255740D01*
X301000Y4254740D01*
X300000Y4254740D01*
X299000Y4253740D01*
X298000Y4252740D01*
X297000Y4251740D01*
X296000Y4251740D01*
X295000Y4250740D01*
X294000Y4250740D01*
X293000Y4249740D01*
X292000Y4248740D01*
X291000Y4248740D01*
X290000Y4247740D01*
X289000Y4247740D01*
X288000Y4246740D01*
X287000Y4245740D01*
X286000Y4245740D01*
X285000Y4244740D01*
X284000Y4244740D01*
X283000Y4243740D01*
X282000Y4243740D01*
X281000Y4242740D01*
X280000Y4242740D01*
X279000Y4241740D01*
X278000Y4241740D01*
X277000Y4241740D01*
X276000Y4240740D01*
X275000Y4240740D01*
X274000Y4239740D01*
X273000Y4239740D01*
X272000Y4238740D01*
X271000Y4238740D01*
X270000Y4238740D01*
X269000Y4237740D01*
X268000Y4237740D01*
X267000Y4236740D01*
X266000Y4236740D01*
X265000Y4236740D01*
X264000Y4235740D01*
X263000Y4235740D01*
X262000Y4235740D01*
X261000Y4235740D01*
X260000Y4234740D01*
X259000Y4234740D01*
X258000Y4234740D01*
X257000Y4233740D01*
X256000Y4233740D01*
X255000Y4233740D01*
X254000Y4233740D01*
X253000Y4232740D01*
X252000Y4232740D01*
X251000Y4232740D01*
X250000Y4232740D01*
X249000Y4231740D01*
X248000Y4231740D01*
X247000Y4231740D01*
X246000Y4231740D01*
X245000Y4231740D01*
X244000Y4231740D01*
X243000Y4230740D01*
X242000Y4230740D01*
X241000Y4230740D01*
X240000Y4230740D01*
X239000Y4230740D01*
X238000Y4230740D01*
X237000Y4230740D01*
X236000Y4229740D01*
X235000Y4229740D01*
X234000Y4229740D01*
X233000Y4229740D01*
X232000Y4229740D01*
X231000Y4229740D01*
X230000Y4229740D01*
X229000Y4229740D01*
X228000Y4229740D01*
X227000Y4229740D01*
X226000Y4229740D01*
X225000Y4229740D01*
X224000Y4229740D01*
X223000Y4229740D01*
X222000Y4229740D01*
X221000Y4229740D01*
X220000Y4229740D01*
X219000Y4229740D01*
X218000Y4229740D01*
X217000Y4229740D01*
X216000Y4229740D01*
X215000Y4229740D01*
X214000Y4229740D01*
X213000Y4229740D01*
X212000Y4229740D01*
X211000Y4229740D01*
X210000Y4229740D01*
X209000Y4229740D01*
X208000Y4229740D01*
X207000Y4229740D01*
X206000Y4229740D01*
X205000Y4230740D01*
X204000Y4230740D01*
X203000Y4230740D01*
X202000Y4230740D01*
X201000Y4230740D01*
X200000Y4230740D01*
X199000Y4230740D01*
X198000Y4231740D01*
X197000Y4231740D01*
X196000Y4231740D01*
X195000Y4231740D01*
X194000Y4231740D01*
X193000Y4231740D01*
X192000Y4232740D01*
X191000Y4232740D01*
X190000Y4232740D01*
X189000Y4232740D01*
X188000Y4233740D01*
X187000Y4233740D01*
X186000Y4233740D01*
X185000Y4233740D01*
X184000Y4234740D01*
X183000Y4234740D01*
X182000Y4234740D01*
X181000Y4234740D01*
X180000Y4235740D01*
X179000Y4235740D01*
X178000Y4235740D01*
X177000Y4236740D01*
X176000Y4236740D01*
X175000Y4236740D01*
X174000Y4237740D01*
X173000Y4237740D01*
X172000Y4238740D01*
X171000Y4238740D01*
X170000Y4238740D01*
X169000Y4239740D01*
X168000Y4239740D01*
X167000Y4240740D01*
X166000Y4240740D01*
X165000Y4240740D01*
X164000Y4241740D01*
X163000Y4241740D01*
X162000Y4242740D01*
X161000Y4242740D01*
X160000Y4243740D01*
X159000Y4243740D01*
X158000Y4244740D01*
X157000Y4244740D01*
X156000Y4245740D01*
X155000Y4245740D01*
X154000Y4246740D01*
X153000Y4247740D01*
X152000Y4247740D01*
X151000Y4248740D01*
X150000Y4248740D01*
X149000Y4249740D01*
X148000Y4250740D01*
X147000Y4250740D01*
X146000Y4251740D01*
X145000Y4251740D01*
X144000Y4252740D01*
X143000Y4253740D01*
X142000Y4253740D01*
X141000Y4254740D01*
X140000Y4255740D01*
X139000Y4256740D01*
X138000Y4256740D01*
X137000Y4257740D01*
X136000Y4258740D01*
X135000Y4259740D01*
X134000Y4260740D01*
X133000Y4260740D01*
X132000Y4261740D01*
X131000Y4262740D01*
X130000Y4263740D01*
X129000Y4264740D01*
X128000Y4265740D01*
X127000Y4266740D01*
X126000Y4267740D01*
X125000Y4268740D01*
X124000Y4269740D01*
X123000Y4270740D01*
X122000Y4271740D01*
X121000Y4272740D01*
X120000Y4273740D01*
X119000Y4274740D01*
X118000Y4275740D01*
X117000Y4276740D01*
X116000Y4277740D01*
X115000Y4278740D01*
X115000Y4279740D01*
X114000Y4280740D01*
X113000Y4281740D01*
X112000Y4282740D01*
X111000Y4283740D01*
X111000Y4284740D01*
X110000Y4285740D01*
X109000Y4286740D01*
X109000Y4287740D01*
X108000Y4288740D01*
X107000Y4289740D01*
X106000Y4290740D01*
X106000Y4291740D01*
X105000Y4292740D01*
X105000Y4293740D01*
X104000Y4294740D01*
X103000Y4295740D01*
X103000Y4296740D01*
X102000Y4297740D01*
X102000Y4298740D01*
X101000Y4299740D01*
X100000Y4300740D01*
X100000Y4301740D01*
X99000Y4302740D01*
X99000Y4303740D01*
X98000Y4304740D01*
X98000Y4305740D01*
X97000Y4306740D01*
X97000Y4307740D01*
X96000Y4308740D01*
X96000Y4310740D01*
X95000Y4311740D01*
X95000Y4312740D01*
X94000Y4313740D01*
X94000Y4314740D01*
X93000Y4315740D01*
X93000Y4317740D01*
X92000Y4318740D01*
X92000Y4320740D01*
X91000Y4321740D01*
X91000Y4323740D01*
X90000Y4324740D01*
X90000Y4326740D01*
X89000Y4327740D01*
X89000Y4329740D01*
X88000Y4330740D01*
X88000Y4333740D01*
X87000Y4334740D01*
X87000Y4338740D01*
X86000Y4339740D01*
X86000Y4343740D01*
X85000Y4344740D01*
X85000Y4351740D01*
X84000Y4352740D01*
X84000Y4380740D01*
X85000Y4381740D01*
X85000Y4387740D01*
X86000Y4388740D01*
X86000Y4393740D01*
X87000Y4394740D01*
X87000Y4397740D01*
X88000Y4398740D01*
X88000Y4401740D01*
X89000Y4402740D01*
X89000Y4405740D01*
X90000Y4406740D01*
X90000Y4408740D01*
X91000Y4409740D01*
X91000Y4411740D01*
X92000Y4412740D01*
X92000Y4414740D01*
X93000Y4415740D01*
X93000Y4416740D01*
X94000Y4417740D01*
X94000Y4419740D01*
X95000Y4420740D01*
X95000Y4421740D01*
X96000Y4422740D01*
X96000Y4423740D01*
X97000Y4424740D01*
X97000Y4425740D01*
X98000Y4426740D01*
X98000Y4427740D01*
X99000Y4428740D01*
X99000Y4429740D01*
X100000Y4430740D01*
X100000Y4431740D01*
X101000Y4432740D01*
X101000Y4433740D01*
X102000Y4434740D01*
X102000Y4435740D01*
X103000Y4436740D01*
X104000Y4437740D01*
X104000Y4438740D01*
X105000Y4439740D01*
X105000Y4440740D01*
X106000Y4441740D01*
X107000Y4442740D01*
X107000Y4443740D01*
X108000Y4444740D01*
X109000Y4445740D01*
X109000Y4446740D01*
X110000Y4447740D01*
X111000Y4448740D01*
X112000Y4449740D01*
X112000Y4450740D01*
X113000Y4451740D01*
X114000Y4452740D01*
X115000Y4453740D01*
X116000Y4454740D01*
X116000Y4455740D01*
X117000Y4456740D01*
X118000Y4457740D01*
X119000Y4458740D01*
X120000Y4459740D01*
X121000Y4460740D01*
X122000Y4461740D01*
X123000Y4462740D01*
X124000Y4463740D01*
X125000Y4464740D01*
X126000Y4465740D01*
X127000Y4466740D01*
X128000Y4467740D01*
X129000Y4468740D01*
X130000Y4469740D01*
X131000Y4470740D01*
X132000Y4470740D01*
X133000Y4471740D01*
X134000Y4472740D01*
X135000Y4473740D01*
X136000Y4474740D01*
X137000Y4475740D01*
X138000Y4475740D01*
X139000Y4476740D01*
X140000Y4477740D01*
X141000Y4477740D01*
X142000Y4478740D01*
X143000Y4479740D01*
X144000Y4480740D01*
X145000Y4480740D01*
X146000Y4481740D01*
X147000Y4482740D01*
X148000Y4482740D01*
X149000Y4483740D01*
X150000Y4483740D01*
X151000Y4484740D01*
X152000Y4485740D01*
X153000Y4485740D01*
X154000Y4486740D01*
X155000Y4486740D01*
X156000Y4487740D01*
X157000Y4487740D01*
X158000Y4488740D01*
X159000Y4488740D01*
X160000Y4489740D01*
X161000Y4489740D01*
X162000Y4490740D01*
X163000Y4490740D01*
X164000Y4491740D01*
X165000Y4491740D01*
X166000Y4492740D01*
X167000Y4492740D01*
X168000Y4493740D01*
X169000Y4493740D01*
X170000Y4493740D01*
X171000Y4494740D01*
X172000Y4494740D01*
X173000Y4495740D01*
X174000Y4495740D01*
X175000Y4495740D01*
X176000Y4496740D01*
X177000Y4496740D01*
X178000Y4496740D01*
X179000Y4497740D01*
X180000Y4497740D01*
X181000Y4497740D01*
X182000Y4497740D01*
X183000Y4498740D01*
X184000Y4498740D01*
X185000Y4498740D01*
X186000Y4499740D01*
X187000Y4499740D01*
X188000Y4499740D01*
X189000Y4499740D01*
X190000Y4500740D01*
X191000Y4500740D01*
X192000Y4500740D01*
X193000Y4500740D01*
X194000Y4500740D01*
X195000Y4501740D01*
X196000Y4501740D01*
X197000Y4501740D01*
X198000Y4501740D01*
X199000Y4501740D01*
X200000Y4502740D01*
X201000Y4502740D01*
X202000Y4502740D01*
X203000Y4502740D01*
X204000Y4502740D01*
X205000Y4502740D01*
X206000Y4502740D01*
X207000Y4502740D01*
X208000Y4502740D01*
X209000Y4503740D01*
D02*
X604000Y2988740D02*
X604000Y2987740D01*
X604000Y2793740D01*
X605000Y2793740D01*
X606000Y2793740D01*
X607000Y2793740D01*
X608000Y2793740D01*
X609000Y2793740D01*
X610000Y2793740D01*
X611000Y2793740D01*
X612000Y2793740D01*
X613000Y2793740D01*
X614000Y2793740D01*
X615000Y2793740D01*
X616000Y2793740D01*
X617000Y2793740D01*
X618000Y2793740D01*
X619000Y2793740D01*
X620000Y2793740D01*
X621000Y2793740D01*
X622000Y2793740D01*
X623000Y2793740D01*
X624000Y2793740D01*
X625000Y2793740D01*
X626000Y2793740D01*
X627000Y2793740D01*
X628000Y2793740D01*
X629000Y2793740D01*
X630000Y2793740D01*
X631000Y2793740D01*
X632000Y2793740D01*
X633000Y2793740D01*
X634000Y2793740D01*
X635000Y2793740D01*
X636000Y2793740D01*
X637000Y2793740D01*
X638000Y2793740D01*
X639000Y2793740D01*
X640000Y2793740D01*
X641000Y2793740D01*
X642000Y2793740D01*
X643000Y2793740D01*
X644000Y2793740D01*
X645000Y2793740D01*
X646000Y2793740D01*
X647000Y2793740D01*
X648000Y2793740D01*
X649000Y2793740D01*
X650000Y2793740D01*
X651000Y2793740D01*
X652000Y2793740D01*
X653000Y2793740D01*
X654000Y2793740D01*
X655000Y2793740D01*
X656000Y2793740D01*
X657000Y2793740D01*
X658000Y2793740D01*
X659000Y2793740D01*
X660000Y2793740D01*
X661000Y2793740D01*
X662000Y2793740D01*
X663000Y2793740D01*
X664000Y2793740D01*
X665000Y2793740D01*
X666000Y2793740D01*
X667000Y2793740D01*
X668000Y2793740D01*
X669000Y2793740D01*
X670000Y2793740D01*
X671000Y2793740D01*
X672000Y2793740D01*
X673000Y2793740D01*
X674000Y2793740D01*
X675000Y2793740D01*
X676000Y2793740D01*
X677000Y2793740D01*
X678000Y2793740D01*
X679000Y2793740D01*
X680000Y2793740D01*
X681000Y2793740D01*
X682000Y2793740D01*
X683000Y2793740D01*
X684000Y2793740D01*
X685000Y2793740D01*
X686000Y2793740D01*
X687000Y2793740D01*
X688000Y2793740D01*
X689000Y2793740D01*
X690000Y2793740D01*
X691000Y2793740D01*
X692000Y2793740D01*
X693000Y2793740D01*
X694000Y2793740D01*
X695000Y2793740D01*
X696000Y2793740D01*
X697000Y2793740D01*
X698000Y2793740D01*
X699000Y2793740D01*
X700000Y2793740D01*
X701000Y2793740D01*
X702000Y2793740D01*
X703000Y2793740D01*
X704000Y2793740D01*
X705000Y2793740D01*
X706000Y2793740D01*
X707000Y2793740D01*
X708000Y2793740D01*
X709000Y2793740D01*
X710000Y2793740D01*
X711000Y2793740D01*
X712000Y2793740D01*
X713000Y2793740D01*
X714000Y2793740D01*
X715000Y2793740D01*
X716000Y2793740D01*
X717000Y2793740D01*
X718000Y2793740D01*
X719000Y2793740D01*
X720000Y2793740D01*
X721000Y2793740D01*
X721000Y2988740D01*
X720000Y2988740D01*
X719000Y2988740D01*
X718000Y2988740D01*
X717000Y2988740D01*
X716000Y2988740D01*
X715000Y2988740D01*
X714000Y2988740D01*
X713000Y2988740D01*
X712000Y2988740D01*
X711000Y2988740D01*
X710000Y2988740D01*
X709000Y2988740D01*
X708000Y2988740D01*
X707000Y2988740D01*
X706000Y2988740D01*
X705000Y2988740D01*
X704000Y2988740D01*
X703000Y2988740D01*
X702000Y2988740D01*
X701000Y2988740D01*
X700000Y2988740D01*
X699000Y2988740D01*
X698000Y2988740D01*
X697000Y2988740D01*
X696000Y2988740D01*
X695000Y2988740D01*
X694000Y2988740D01*
X693000Y2988740D01*
X692000Y2988740D01*
X691000Y2988740D01*
X690000Y2988740D01*
X689000Y2988740D01*
X688000Y2988740D01*
X687000Y2988740D01*
X686000Y2988740D01*
X685000Y2988740D01*
X684000Y2988740D01*
X683000Y2988740D01*
X682000Y2988740D01*
X681000Y2988740D01*
X680000Y2988740D01*
X679000Y2988740D01*
X678000Y2988740D01*
X677000Y2988740D01*
X676000Y2988740D01*
X675000Y2988740D01*
X674000Y2988740D01*
X673000Y2988740D01*
X672000Y2988740D01*
X671000Y2988740D01*
X670000Y2988740D01*
X669000Y2988740D01*
X668000Y2988740D01*
X667000Y2988740D01*
X666000Y2988740D01*
X665000Y2988740D01*
X664000Y2988740D01*
X663000Y2988740D01*
X662000Y2988740D01*
X661000Y2988740D01*
X660000Y2988740D01*
X659000Y2988740D01*
X658000Y2988740D01*
X657000Y2988740D01*
X656000Y2988740D01*
X655000Y2988740D01*
X654000Y2988740D01*
X653000Y2988740D01*
X652000Y2988740D01*
X651000Y2988740D01*
X650000Y2988740D01*
X649000Y2988740D01*
X648000Y2988740D01*
X647000Y2988740D01*
X646000Y2988740D01*
X645000Y2988740D01*
X644000Y2988740D01*
X643000Y2988740D01*
X642000Y2988740D01*
X641000Y2988740D01*
X640000Y2988740D01*
X639000Y2988740D01*
X638000Y2988740D01*
X637000Y2988740D01*
X636000Y2988740D01*
X635000Y2988740D01*
X634000Y2988740D01*
X633000Y2988740D01*
X632000Y2988740D01*
X631000Y2988740D01*
X630000Y2988740D01*
X629000Y2988740D01*
X628000Y2988740D01*
X627000Y2988740D01*
X626000Y2988740D01*
X625000Y2988740D01*
X624000Y2988740D01*
X623000Y2988740D01*
X622000Y2988740D01*
X621000Y2988740D01*
X620000Y2988740D01*
X619000Y2988740D01*
X618000Y2988740D01*
X617000Y2988740D01*
X616000Y2988740D01*
X615000Y2988740D01*
X614000Y2988740D01*
X613000Y2988740D01*
X612000Y2988740D01*
X611000Y2988740D01*
X610000Y2988740D01*
X609000Y2988740D01*
X608000Y2988740D01*
X607000Y2988740D01*
X606000Y2988740D01*
X605000Y2988740D01*
X604000Y2988740D01*
D02*
X603000Y2498740D02*
X603000Y2497740D01*
X603000Y2302740D01*
X604000Y2302740D01*
X605000Y2302740D01*
X606000Y2302740D01*
X607000Y2302740D01*
X608000Y2302740D01*
X609000Y2302740D01*
X610000Y2302740D01*
X611000Y2302740D01*
X612000Y2302740D01*
X613000Y2302740D01*
X614000Y2302740D01*
X615000Y2302740D01*
X616000Y2302740D01*
X617000Y2302740D01*
X618000Y2302740D01*
X619000Y2302740D01*
X620000Y2302740D01*
X621000Y2302740D01*
X622000Y2302740D01*
X623000Y2302740D01*
X624000Y2302740D01*
X625000Y2302740D01*
X626000Y2302740D01*
X627000Y2302740D01*
X628000Y2302740D01*
X629000Y2302740D01*
X630000Y2302740D01*
X631000Y2302740D01*
X632000Y2302740D01*
X633000Y2302740D01*
X634000Y2302740D01*
X635000Y2302740D01*
X636000Y2302740D01*
X637000Y2302740D01*
X638000Y2302740D01*
X639000Y2302740D01*
X640000Y2302740D01*
X641000Y2302740D01*
X642000Y2302740D01*
X643000Y2302740D01*
X644000Y2302740D01*
X645000Y2302740D01*
X646000Y2302740D01*
X647000Y2302740D01*
X648000Y2302740D01*
X649000Y2302740D01*
X650000Y2302740D01*
X651000Y2302740D01*
X652000Y2302740D01*
X653000Y2302740D01*
X654000Y2302740D01*
X655000Y2302740D01*
X656000Y2302740D01*
X657000Y2302740D01*
X658000Y2302740D01*
X659000Y2302740D01*
X660000Y2302740D01*
X661000Y2302740D01*
X662000Y2302740D01*
X663000Y2302740D01*
X664000Y2302740D01*
X665000Y2302740D01*
X666000Y2302740D01*
X667000Y2302740D01*
X668000Y2302740D01*
X669000Y2302740D01*
X670000Y2302740D01*
X671000Y2302740D01*
X672000Y2302740D01*
X673000Y2302740D01*
X674000Y2302740D01*
X675000Y2302740D01*
X676000Y2302740D01*
X677000Y2302740D01*
X678000Y2302740D01*
X679000Y2302740D01*
X680000Y2302740D01*
X681000Y2302740D01*
X682000Y2302740D01*
X683000Y2302740D01*
X684000Y2302740D01*
X685000Y2302740D01*
X686000Y2302740D01*
X687000Y2302740D01*
X688000Y2302740D01*
X689000Y2302740D01*
X690000Y2302740D01*
X691000Y2302740D01*
X692000Y2302740D01*
X693000Y2302740D01*
X694000Y2302740D01*
X695000Y2302740D01*
X696000Y2302740D01*
X697000Y2302740D01*
X698000Y2302740D01*
X699000Y2302740D01*
X700000Y2302740D01*
X701000Y2302740D01*
X702000Y2302740D01*
X703000Y2302740D01*
X704000Y2302740D01*
X705000Y2302740D01*
X706000Y2302740D01*
X707000Y2302740D01*
X708000Y2302740D01*
X709000Y2302740D01*
X710000Y2302740D01*
X711000Y2302740D01*
X712000Y2302740D01*
X713000Y2302740D01*
X714000Y2302740D01*
X715000Y2302740D01*
X716000Y2302740D01*
X717000Y2302740D01*
X718000Y2302740D01*
X719000Y2302740D01*
X720000Y2302740D01*
X720000Y2498740D01*
X719000Y2498740D01*
X718000Y2498740D01*
X717000Y2498740D01*
X716000Y2498740D01*
X715000Y2498740D01*
X714000Y2498740D01*
X713000Y2498740D01*
X712000Y2498740D01*
X711000Y2498740D01*
X710000Y2498740D01*
X709000Y2498740D01*
X708000Y2498740D01*
X707000Y2498740D01*
X706000Y2498740D01*
X705000Y2498740D01*
X704000Y2498740D01*
X703000Y2498740D01*
X702000Y2498740D01*
X701000Y2498740D01*
X700000Y2498740D01*
X699000Y2498740D01*
X698000Y2498740D01*
X697000Y2498740D01*
X696000Y2498740D01*
X695000Y2498740D01*
X694000Y2498740D01*
X693000Y2498740D01*
X692000Y2498740D01*
X691000Y2498740D01*
X690000Y2498740D01*
X689000Y2498740D01*
X688000Y2498740D01*
X687000Y2498740D01*
X686000Y2498740D01*
X685000Y2498740D01*
X684000Y2498740D01*
X683000Y2498740D01*
X682000Y2498740D01*
X681000Y2498740D01*
X680000Y2498740D01*
X679000Y2498740D01*
X678000Y2498740D01*
X677000Y2498740D01*
X676000Y2498740D01*
X675000Y2498740D01*
X674000Y2498740D01*
X673000Y2498740D01*
X672000Y2498740D01*
X671000Y2498740D01*
X670000Y2498740D01*
X669000Y2498740D01*
X668000Y2498740D01*
X667000Y2498740D01*
X666000Y2498740D01*
X665000Y2498740D01*
X664000Y2498740D01*
X663000Y2498740D01*
X662000Y2498740D01*
X661000Y2498740D01*
X660000Y2498740D01*
X659000Y2498740D01*
X658000Y2498740D01*
X657000Y2498740D01*
X656000Y2498740D01*
X655000Y2498740D01*
X654000Y2498740D01*
X653000Y2498740D01*
X652000Y2498740D01*
X651000Y2498740D01*
X650000Y2498740D01*
X649000Y2498740D01*
X648000Y2498740D01*
X647000Y2498740D01*
X646000Y2498740D01*
X645000Y2498740D01*
X644000Y2498740D01*
X643000Y2498740D01*
X642000Y2498740D01*
X641000Y2498740D01*
X640000Y2498740D01*
X639000Y2498740D01*
X638000Y2498740D01*
X637000Y2498740D01*
X636000Y2498740D01*
X635000Y2498740D01*
X634000Y2498740D01*
X633000Y2498740D01*
X632000Y2498740D01*
X631000Y2498740D01*
X630000Y2498740D01*
X629000Y2498740D01*
X628000Y2498740D01*
X627000Y2498740D01*
X626000Y2498740D01*
X625000Y2498740D01*
X624000Y2498740D01*
X623000Y2498740D01*
X622000Y2498740D01*
X621000Y2498740D01*
X620000Y2498740D01*
X619000Y2498740D01*
X618000Y2498740D01*
X617000Y2498740D01*
X616000Y2498740D01*
X615000Y2498740D01*
X614000Y2498740D01*
X613000Y2498740D01*
X612000Y2498740D01*
X611000Y2498740D01*
X610000Y2498740D01*
X609000Y2498740D01*
X608000Y2498740D01*
X607000Y2498740D01*
X606000Y2498740D01*
X605000Y2498740D01*
X604000Y2498740D01*
X603000Y2498740D01*
D02*
X603000Y1894740D02*
X603000Y1893740D01*
X603000Y1698740D01*
X604000Y1698740D01*
X605000Y1698740D01*
X606000Y1698740D01*
X607000Y1698740D01*
X608000Y1698740D01*
X609000Y1698740D01*
X610000Y1698740D01*
X611000Y1698740D01*
X612000Y1698740D01*
X613000Y1698740D01*
X614000Y1698740D01*
X615000Y1698740D01*
X616000Y1698740D01*
X617000Y1698740D01*
X618000Y1698740D01*
X619000Y1698740D01*
X620000Y1698740D01*
X621000Y1698740D01*
X622000Y1698740D01*
X623000Y1698740D01*
X624000Y1698740D01*
X625000Y1698740D01*
X626000Y1698740D01*
X627000Y1698740D01*
X628000Y1698740D01*
X629000Y1698740D01*
X630000Y1698740D01*
X631000Y1698740D01*
X632000Y1698740D01*
X633000Y1698740D01*
X634000Y1698740D01*
X635000Y1698740D01*
X636000Y1698740D01*
X637000Y1698740D01*
X638000Y1698740D01*
X639000Y1698740D01*
X640000Y1698740D01*
X641000Y1698740D01*
X642000Y1698740D01*
X643000Y1698740D01*
X644000Y1698740D01*
X645000Y1698740D01*
X646000Y1698740D01*
X647000Y1698740D01*
X648000Y1698740D01*
X649000Y1698740D01*
X650000Y1698740D01*
X651000Y1698740D01*
X652000Y1698740D01*
X653000Y1698740D01*
X654000Y1698740D01*
X655000Y1698740D01*
X656000Y1698740D01*
X657000Y1698740D01*
X658000Y1698740D01*
X659000Y1698740D01*
X660000Y1698740D01*
X661000Y1698740D01*
X662000Y1698740D01*
X663000Y1698740D01*
X664000Y1698740D01*
X665000Y1698740D01*
X666000Y1698740D01*
X667000Y1698740D01*
X668000Y1698740D01*
X669000Y1698740D01*
X670000Y1698740D01*
X671000Y1698740D01*
X672000Y1698740D01*
X673000Y1698740D01*
X674000Y1698740D01*
X675000Y1698740D01*
X676000Y1698740D01*
X677000Y1698740D01*
X678000Y1698740D01*
X679000Y1698740D01*
X680000Y1698740D01*
X681000Y1698740D01*
X682000Y1698740D01*
X683000Y1698740D01*
X684000Y1698740D01*
X685000Y1698740D01*
X686000Y1698740D01*
X687000Y1698740D01*
X688000Y1698740D01*
X689000Y1698740D01*
X690000Y1698740D01*
X691000Y1698740D01*
X692000Y1698740D01*
X693000Y1698740D01*
X694000Y1698740D01*
X695000Y1698740D01*
X696000Y1698740D01*
X697000Y1698740D01*
X698000Y1698740D01*
X699000Y1698740D01*
X700000Y1698740D01*
X701000Y1698740D01*
X702000Y1698740D01*
X703000Y1698740D01*
X704000Y1698740D01*
X705000Y1698740D01*
X706000Y1698740D01*
X707000Y1698740D01*
X708000Y1698740D01*
X709000Y1698740D01*
X710000Y1698740D01*
X711000Y1698740D01*
X712000Y1698740D01*
X713000Y1698740D01*
X714000Y1698740D01*
X715000Y1698740D01*
X716000Y1698740D01*
X717000Y1698740D01*
X718000Y1698740D01*
X719000Y1698740D01*
X720000Y1698740D01*
X720000Y1894740D01*
X719000Y1894740D01*
X718000Y1894740D01*
X717000Y1894740D01*
X716000Y1894740D01*
X715000Y1894740D01*
X714000Y1894740D01*
X713000Y1894740D01*
X712000Y1894740D01*
X711000Y1894740D01*
X710000Y1894740D01*
X709000Y1894740D01*
X708000Y1894740D01*
X707000Y1894740D01*
X706000Y1894740D01*
X705000Y1894740D01*
X704000Y1894740D01*
X703000Y1894740D01*
X702000Y1894740D01*
X701000Y1894740D01*
X700000Y1894740D01*
X699000Y1894740D01*
X698000Y1894740D01*
X697000Y1894740D01*
X696000Y1894740D01*
X695000Y1894740D01*
X694000Y1894740D01*
X693000Y1894740D01*
X692000Y1894740D01*
X691000Y1894740D01*
X690000Y1894740D01*
X689000Y1894740D01*
X688000Y1894740D01*
X687000Y1894740D01*
X686000Y1894740D01*
X685000Y1894740D01*
X684000Y1894740D01*
X683000Y1894740D01*
X682000Y1894740D01*
X681000Y1894740D01*
X680000Y1894740D01*
X679000Y1894740D01*
X678000Y1894740D01*
X677000Y1894740D01*
X676000Y1894740D01*
X675000Y1894740D01*
X674000Y1894740D01*
X673000Y1894740D01*
X672000Y1894740D01*
X671000Y1894740D01*
X670000Y1894740D01*
X669000Y1894740D01*
X668000Y1894740D01*
X667000Y1894740D01*
X666000Y1894740D01*
X665000Y1894740D01*
X664000Y1894740D01*
X663000Y1894740D01*
X662000Y1894740D01*
X661000Y1894740D01*
X660000Y1894740D01*
X659000Y1894740D01*
X658000Y1894740D01*
X657000Y1894740D01*
X656000Y1894740D01*
X655000Y1894740D01*
X654000Y1894740D01*
X653000Y1894740D01*
X652000Y1894740D01*
X651000Y1894740D01*
X650000Y1894740D01*
X649000Y1894740D01*
X648000Y1894740D01*
X647000Y1894740D01*
X646000Y1894740D01*
X645000Y1894740D01*
X644000Y1894740D01*
X643000Y1894740D01*
X642000Y1894740D01*
X641000Y1894740D01*
X640000Y1894740D01*
X639000Y1894740D01*
X638000Y1894740D01*
X637000Y1894740D01*
X636000Y1894740D01*
X635000Y1894740D01*
X634000Y1894740D01*
X633000Y1894740D01*
X632000Y1894740D01*
X631000Y1894740D01*
X630000Y1894740D01*
X629000Y1894740D01*
X628000Y1894740D01*
X627000Y1894740D01*
X626000Y1894740D01*
X625000Y1894740D01*
X624000Y1894740D01*
X623000Y1894740D01*
X622000Y1894740D01*
X621000Y1894740D01*
X620000Y1894740D01*
X619000Y1894740D01*
X618000Y1894740D01*
X617000Y1894740D01*
X616000Y1894740D01*
X615000Y1894740D01*
X614000Y1894740D01*
X613000Y1894740D01*
X612000Y1894740D01*
X611000Y1894740D01*
X610000Y1894740D01*
X609000Y1894740D01*
X608000Y1894740D01*
X607000Y1894740D01*
X606000Y1894740D01*
X605000Y1894740D01*
X604000Y1894740D01*
X603000Y1894740D01*
D02*
X603000Y1412740D02*
X603000Y1411740D01*
X603000Y1216740D01*
X604000Y1216740D01*
X605000Y1216740D01*
X606000Y1216740D01*
X607000Y1216740D01*
X608000Y1216740D01*
X609000Y1216740D01*
X610000Y1216740D01*
X611000Y1216740D01*
X612000Y1216740D01*
X613000Y1216740D01*
X614000Y1216740D01*
X615000Y1216740D01*
X616000Y1216740D01*
X617000Y1216740D01*
X618000Y1216740D01*
X619000Y1216740D01*
X620000Y1216740D01*
X621000Y1216740D01*
X622000Y1216740D01*
X623000Y1216740D01*
X624000Y1216740D01*
X625000Y1216740D01*
X626000Y1216740D01*
X627000Y1216740D01*
X628000Y1216740D01*
X629000Y1216740D01*
X630000Y1216740D01*
X631000Y1216740D01*
X632000Y1216740D01*
X633000Y1216740D01*
X634000Y1216740D01*
X635000Y1216740D01*
X636000Y1216740D01*
X637000Y1216740D01*
X638000Y1216740D01*
X639000Y1216740D01*
X640000Y1216740D01*
X641000Y1216740D01*
X642000Y1216740D01*
X643000Y1216740D01*
X644000Y1216740D01*
X645000Y1216740D01*
X646000Y1216740D01*
X647000Y1216740D01*
X648000Y1216740D01*
X649000Y1216740D01*
X650000Y1216740D01*
X651000Y1216740D01*
X652000Y1216740D01*
X653000Y1216740D01*
X654000Y1216740D01*
X655000Y1216740D01*
X656000Y1216740D01*
X657000Y1216740D01*
X658000Y1216740D01*
X659000Y1216740D01*
X660000Y1216740D01*
X661000Y1216740D01*
X662000Y1216740D01*
X663000Y1216740D01*
X664000Y1216740D01*
X665000Y1216740D01*
X666000Y1216740D01*
X667000Y1216740D01*
X668000Y1216740D01*
X669000Y1216740D01*
X670000Y1216740D01*
X671000Y1216740D01*
X672000Y1216740D01*
X673000Y1216740D01*
X674000Y1216740D01*
X675000Y1216740D01*
X676000Y1216740D01*
X677000Y1216740D01*
X678000Y1216740D01*
X679000Y1216740D01*
X680000Y1216740D01*
X681000Y1216740D01*
X682000Y1216740D01*
X683000Y1216740D01*
X684000Y1216740D01*
X685000Y1216740D01*
X686000Y1216740D01*
X687000Y1216740D01*
X688000Y1216740D01*
X689000Y1216740D01*
X690000Y1216740D01*
X691000Y1216740D01*
X692000Y1216740D01*
X693000Y1216740D01*
X694000Y1216740D01*
X695000Y1216740D01*
X696000Y1216740D01*
X697000Y1216740D01*
X698000Y1216740D01*
X699000Y1216740D01*
X700000Y1216740D01*
X701000Y1216740D01*
X702000Y1216740D01*
X703000Y1216740D01*
X704000Y1216740D01*
X705000Y1216740D01*
X706000Y1216740D01*
X707000Y1216740D01*
X708000Y1216740D01*
X709000Y1216740D01*
X710000Y1216740D01*
X711000Y1216740D01*
X712000Y1216740D01*
X713000Y1216740D01*
X714000Y1216740D01*
X715000Y1216740D01*
X716000Y1216740D01*
X717000Y1216740D01*
X718000Y1216740D01*
X719000Y1216740D01*
X720000Y1216740D01*
X720000Y1412740D01*
X719000Y1412740D01*
X718000Y1412740D01*
X717000Y1412740D01*
X716000Y1412740D01*
X715000Y1412740D01*
X714000Y1412740D01*
X713000Y1412740D01*
X712000Y1412740D01*
X711000Y1412740D01*
X710000Y1412740D01*
X709000Y1412740D01*
X708000Y1412740D01*
X707000Y1412740D01*
X706000Y1412740D01*
X705000Y1412740D01*
X704000Y1412740D01*
X703000Y1412740D01*
X702000Y1412740D01*
X701000Y1412740D01*
X700000Y1412740D01*
X699000Y1412740D01*
X698000Y1412740D01*
X697000Y1412740D01*
X696000Y1412740D01*
X695000Y1412740D01*
X694000Y1412740D01*
X693000Y1412740D01*
X692000Y1412740D01*
X691000Y1412740D01*
X690000Y1412740D01*
X689000Y1412740D01*
X688000Y1412740D01*
X687000Y1412740D01*
X686000Y1412740D01*
X685000Y1412740D01*
X684000Y1412740D01*
X683000Y1412740D01*
X682000Y1412740D01*
X681000Y1412740D01*
X680000Y1412740D01*
X679000Y1412740D01*
X678000Y1412740D01*
X677000Y1412740D01*
X676000Y1412740D01*
X675000Y1412740D01*
X674000Y1412740D01*
X673000Y1412740D01*
X672000Y1412740D01*
X671000Y1412740D01*
X670000Y1412740D01*
X669000Y1412740D01*
X668000Y1412740D01*
X667000Y1412740D01*
X666000Y1412740D01*
X665000Y1412740D01*
X664000Y1412740D01*
X663000Y1412740D01*
X662000Y1412740D01*
X661000Y1412740D01*
X660000Y1412740D01*
X659000Y1412740D01*
X658000Y1412740D01*
X657000Y1412740D01*
X656000Y1412740D01*
X655000Y1412740D01*
X654000Y1412740D01*
X653000Y1412740D01*
X652000Y1412740D01*
X651000Y1412740D01*
X650000Y1412740D01*
X649000Y1412740D01*
X648000Y1412740D01*
X647000Y1412740D01*
X646000Y1412740D01*
X645000Y1412740D01*
X644000Y1412740D01*
X643000Y1412740D01*
X642000Y1412740D01*
X641000Y1412740D01*
X640000Y1412740D01*
X639000Y1412740D01*
X638000Y1412740D01*
X637000Y1412740D01*
X636000Y1412740D01*
X635000Y1412740D01*
X634000Y1412740D01*
X633000Y1412740D01*
X632000Y1412740D01*
X631000Y1412740D01*
X630000Y1412740D01*
X629000Y1412740D01*
X628000Y1412740D01*
X627000Y1412740D01*
X626000Y1412740D01*
X625000Y1412740D01*
X624000Y1412740D01*
X623000Y1412740D01*
X622000Y1412740D01*
X621000Y1412740D01*
X620000Y1412740D01*
X619000Y1412740D01*
X618000Y1412740D01*
X617000Y1412740D01*
X616000Y1412740D01*
X615000Y1412740D01*
X614000Y1412740D01*
X613000Y1412740D01*
X612000Y1412740D01*
X611000Y1412740D01*
X610000Y1412740D01*
X609000Y1412740D01*
X608000Y1412740D01*
X607000Y1412740D01*
X606000Y1412740D01*
X605000Y1412740D01*
X604000Y1412740D01*
X603000Y1412740D01*
D02*
X1271000Y911740D02*
X1272000Y911740D01*
X1273000Y911740D01*
X1274000Y911740D01*
X1275000Y911740D01*
X1276000Y911740D01*
X1277000Y911740D01*
X1278000Y911740D01*
X1279000Y911740D01*
X1280000Y911740D01*
X1281000Y911740D01*
X1282000Y911740D01*
X1283000Y911740D01*
X1284000Y911740D01*
X1285000Y911740D01*
X1286000Y911740D01*
X1287000Y911740D01*
X1288000Y911740D01*
X1289000Y911740D01*
X1290000Y911740D01*
X1291000Y911740D01*
X1292000Y911740D01*
X1293000Y911740D01*
X1294000Y910740D01*
X1295000Y910740D01*
X1296000Y910740D01*
X1297000Y910740D01*
X1298000Y910740D01*
X1299000Y910740D01*
X1300000Y910740D01*
X1301000Y910740D01*
X1302000Y909740D01*
X1303000Y909740D01*
X1304000Y909740D01*
X1305000Y909740D01*
X1306000Y909740D01*
X1307000Y909740D01*
X1308000Y908740D01*
X1309000Y908740D01*
X1310000Y908740D01*
X1311000Y908740D01*
X1312000Y908740D01*
X1313000Y907740D01*
X1314000Y907740D01*
X1315000Y907740D01*
X1316000Y907740D01*
X1317000Y906740D01*
X1318000Y906740D01*
X1319000Y906740D01*
X1320000Y906740D01*
X1321000Y905740D01*
X1322000Y905740D01*
X1323000Y905740D01*
X1324000Y904740D01*
X1325000Y904740D01*
X1326000Y904740D01*
X1327000Y903740D01*
X1328000Y903740D01*
X1329000Y903740D01*
X1330000Y902740D01*
X1331000Y902740D01*
X1332000Y901740D01*
X1333000Y901740D01*
X1334000Y901740D01*
X1335000Y900740D01*
X1336000Y900740D01*
X1337000Y899740D01*
X1338000Y899740D01*
X1339000Y898740D01*
X1340000Y898740D01*
X1341000Y898740D01*
X1342000Y897740D01*
X1343000Y897740D01*
X1344000Y896740D01*
X1345000Y896740D01*
X1346000Y895740D01*
X1347000Y894740D01*
X1348000Y894740D01*
X1349000Y893740D01*
X1350000Y893740D01*
X1351000Y892740D01*
X1352000Y892740D01*
X1353000Y891740D01*
X1354000Y890740D01*
X1355000Y890740D01*
X1356000Y889740D01*
X1357000Y888740D01*
X1358000Y888740D01*
X1359000Y887740D01*
X1360000Y886740D01*
X1361000Y886740D01*
X1362000Y885740D01*
X1363000Y884740D01*
X1364000Y884740D01*
X1365000Y883740D01*
X1366000Y882740D01*
X1367000Y881740D01*
X1368000Y880740D01*
X1369000Y880740D01*
X1370000Y879740D01*
X1371000Y878740D01*
X1372000Y877740D01*
X1373000Y876740D01*
X1374000Y875740D01*
X1375000Y874740D01*
X1376000Y873740D01*
X1377000Y873740D01*
X1378000Y872740D01*
X1379000Y871740D01*
X1380000Y870740D01*
X1381000Y869740D01*
X1381000Y868740D01*
X1382000Y867740D01*
X1383000Y866740D01*
X1384000Y865740D01*
X1385000Y864740D01*
X1386000Y863740D01*
X1387000Y862740D01*
X1388000Y861740D01*
X1388000Y860740D01*
X1389000Y859740D01*
X1390000Y858740D01*
X1391000Y857740D01*
X1392000Y856740D01*
X1392000Y855740D01*
X1393000Y854740D01*
X1394000Y853740D01*
X1394000Y852740D01*
X1395000Y851740D01*
X1396000Y850740D01*
X1396000Y849740D01*
X1397000Y848740D01*
X1398000Y847740D01*
X1398000Y846740D01*
X1399000Y845740D01*
X1400000Y844740D01*
X1400000Y843740D01*
X1401000Y842740D01*
X1401000Y841740D01*
X1402000Y840740D01*
X1402000Y839740D01*
X1403000Y838740D01*
X1403000Y837740D01*
X1404000Y836740D01*
X1404000Y835740D01*
X1405000Y834740D01*
X1405000Y833740D01*
X1406000Y832740D01*
X1406000Y831740D01*
X1407000Y830740D01*
X1407000Y829740D01*
X1408000Y828740D01*
X1408000Y827740D01*
X1409000Y826740D01*
X1409000Y824740D01*
X1410000Y823740D01*
X1410000Y821740D01*
X1411000Y820740D01*
X1411000Y818740D01*
X1412000Y817740D01*
X1412000Y816740D01*
X1413000Y815740D01*
X1413000Y812740D01*
X1414000Y811740D01*
X1414000Y809740D01*
X1415000Y808740D01*
X1415000Y804740D01*
X1416000Y803740D01*
X1416000Y799740D01*
X1417000Y798740D01*
X1417000Y793740D01*
X1418000Y792740D01*
X1418000Y783740D01*
X1419000Y782740D01*
X1419000Y765740D01*
X1418000Y764740D01*
X1418000Y756740D01*
X1417000Y755740D01*
X1417000Y749740D01*
X1416000Y748740D01*
X1416000Y744740D01*
X1415000Y743740D01*
X1415000Y740740D01*
X1414000Y739740D01*
X1414000Y736740D01*
X1413000Y735740D01*
X1413000Y733740D01*
X1412000Y732740D01*
X1412000Y730740D01*
X1411000Y729740D01*
X1411000Y727740D01*
X1410000Y726740D01*
X1410000Y724740D01*
X1409000Y723740D01*
X1409000Y722740D01*
X1408000Y721740D01*
X1408000Y720740D01*
X1407000Y719740D01*
X1407000Y717740D01*
X1406000Y716740D01*
X1406000Y715740D01*
X1405000Y714740D01*
X1405000Y713740D01*
X1404000Y712740D01*
X1404000Y711740D01*
X1403000Y710740D01*
X1403000Y709740D01*
X1402000Y708740D01*
X1402000Y707740D01*
X1401000Y706740D01*
X1400000Y705740D01*
X1400000Y704740D01*
X1399000Y703740D01*
X1399000Y702740D01*
X1398000Y701740D01*
X1397000Y700740D01*
X1397000Y699740D01*
X1396000Y698740D01*
X1395000Y697740D01*
X1395000Y696740D01*
X1394000Y695740D01*
X1393000Y694740D01*
X1393000Y693740D01*
X1392000Y692740D01*
X1391000Y691740D01*
X1390000Y690740D01*
X1390000Y689740D01*
X1389000Y688740D01*
X1388000Y687740D01*
X1387000Y686740D01*
X1386000Y685740D01*
X1386000Y684740D01*
X1385000Y683740D01*
X1384000Y682740D01*
X1383000Y681740D01*
X1382000Y680740D01*
X1381000Y679740D01*
X1380000Y678740D01*
X1379000Y677740D01*
X1378000Y676740D01*
X1377000Y675740D01*
X1376000Y674740D01*
X1375000Y673740D01*
X1374000Y672740D01*
X1373000Y671740D01*
X1372000Y670740D01*
X1371000Y670740D01*
X1370000Y669740D01*
X1369000Y668740D01*
X1368000Y667740D01*
X1367000Y666740D01*
X1366000Y665740D01*
X1365000Y665740D01*
X1364000Y664740D01*
X1363000Y663740D01*
X1362000Y662740D01*
X1361000Y662740D01*
X1360000Y661740D01*
X1359000Y660740D01*
X1358000Y660740D01*
X1357000Y659740D01*
X1356000Y658740D01*
X1355000Y658740D01*
X1354000Y657740D01*
X1353000Y656740D01*
X1352000Y656740D01*
X1351000Y655740D01*
X1350000Y655740D01*
X1349000Y654740D01*
X1348000Y654740D01*
X1347000Y653740D01*
X1346000Y652740D01*
X1345000Y652740D01*
X1344000Y651740D01*
X1343000Y651740D01*
X1342000Y650740D01*
X1341000Y650740D01*
X1340000Y649740D01*
X1339000Y649740D01*
X1338000Y649740D01*
X1337000Y648740D01*
X1336000Y648740D01*
X1335000Y647740D01*
X1334000Y647740D01*
X1333000Y646740D01*
X1332000Y646740D01*
X1331000Y646740D01*
X1330000Y645740D01*
X1329000Y645740D01*
X1328000Y645740D01*
X1327000Y644740D01*
X1326000Y644740D01*
X1325000Y643740D01*
X1324000Y643740D01*
X1323000Y643740D01*
X1322000Y643740D01*
X1321000Y642740D01*
X1320000Y642740D01*
X1319000Y642740D01*
X1318000Y641740D01*
X1317000Y641740D01*
X1316000Y641740D01*
X1315000Y641740D01*
X1314000Y640740D01*
X1313000Y640740D01*
X1312000Y640740D01*
X1311000Y640740D01*
X1310000Y639740D01*
X1309000Y639740D01*
X1308000Y639740D01*
X1307000Y639740D01*
X1306000Y639740D01*
X1305000Y638740D01*
X1304000Y638740D01*
X1303000Y638740D01*
X1302000Y638740D01*
X1301000Y638740D01*
X1300000Y638740D01*
X1299000Y638740D01*
X1298000Y637740D01*
X1297000Y637740D01*
X1296000Y637740D01*
X1295000Y637740D01*
X1294000Y637740D01*
X1293000Y637740D01*
X1292000Y637740D01*
X1291000Y637740D01*
X1290000Y637740D01*
X1289000Y637740D01*
X1288000Y637740D01*
X1287000Y637740D01*
X1286000Y637740D01*
X1285000Y637740D01*
X1284000Y637740D01*
X1283000Y637740D01*
X1282000Y636740D01*
X1281000Y636740D01*
X1280000Y637740D01*
X1279000Y637740D01*
X1278000Y637740D01*
X1277000Y637740D01*
X1276000Y637740D01*
X1275000Y637740D01*
X1274000Y637740D01*
X1273000Y637740D01*
X1272000Y637740D01*
X1271000Y637740D01*
X1270000Y637740D01*
X1269000Y637740D01*
X1268000Y637740D01*
X1267000Y637740D01*
X1266000Y637740D01*
X1265000Y637740D01*
X1264000Y638740D01*
X1263000Y638740D01*
X1262000Y638740D01*
X1261000Y638740D01*
X1260000Y638740D01*
X1259000Y638740D01*
X1258000Y639740D01*
X1257000Y639740D01*
X1256000Y639740D01*
X1255000Y639740D01*
X1254000Y639740D01*
X1253000Y639740D01*
X1252000Y640740D01*
X1251000Y640740D01*
X1250000Y640740D01*
X1249000Y640740D01*
X1248000Y641740D01*
X1247000Y641740D01*
X1246000Y641740D01*
X1245000Y641740D01*
X1244000Y642740D01*
X1243000Y642740D01*
X1242000Y642740D01*
X1241000Y643740D01*
X1240000Y643740D01*
X1239000Y643740D01*
X1238000Y644740D01*
X1237000Y644740D01*
X1236000Y644740D01*
X1235000Y645740D01*
X1234000Y645740D01*
X1233000Y645740D01*
X1232000Y646740D01*
X1231000Y646740D01*
X1230000Y646740D01*
X1229000Y647740D01*
X1228000Y647740D01*
X1227000Y648740D01*
X1226000Y648740D01*
X1225000Y649740D01*
X1224000Y649740D01*
X1223000Y650740D01*
X1222000Y650740D01*
X1221000Y650740D01*
X1220000Y651740D01*
X1219000Y652740D01*
X1218000Y652740D01*
X1217000Y653740D01*
X1216000Y653740D01*
X1215000Y654740D01*
X1214000Y654740D01*
X1213000Y655740D01*
X1212000Y655740D01*
X1211000Y656740D01*
X1210000Y657740D01*
X1209000Y657740D01*
X1208000Y658740D01*
X1207000Y658740D01*
X1206000Y659740D01*
X1205000Y660740D01*
X1204000Y660740D01*
X1203000Y661740D01*
X1202000Y662740D01*
X1201000Y663740D01*
X1200000Y663740D01*
X1199000Y664740D01*
X1198000Y665740D01*
X1197000Y666740D01*
X1196000Y666740D01*
X1195000Y667740D01*
X1194000Y668740D01*
X1193000Y669740D01*
X1192000Y670740D01*
X1191000Y670740D01*
X1190000Y671740D01*
X1189000Y672740D01*
X1188000Y673740D01*
X1187000Y674740D01*
X1186000Y675740D01*
X1185000Y676740D01*
X1184000Y677740D01*
X1183000Y678740D01*
X1182000Y679740D01*
X1181000Y680740D01*
X1180000Y681740D01*
X1179000Y682740D01*
X1178000Y683740D01*
X1178000Y684740D01*
X1177000Y685740D01*
X1176000Y686740D01*
X1175000Y687740D01*
X1174000Y688740D01*
X1174000Y689740D01*
X1173000Y690740D01*
X1172000Y691740D01*
X1171000Y692740D01*
X1170000Y693740D01*
X1170000Y694740D01*
X1169000Y695740D01*
X1168000Y696740D01*
X1168000Y697740D01*
X1167000Y698740D01*
X1166000Y699740D01*
X1166000Y700740D01*
X1165000Y701740D01*
X1164000Y702740D01*
X1164000Y703740D01*
X1163000Y704740D01*
X1163000Y705740D01*
X1162000Y706740D01*
X1162000Y707740D01*
X1161000Y708740D01*
X1160000Y709740D01*
X1160000Y710740D01*
X1159000Y711740D01*
X1159000Y712740D01*
X1158000Y713740D01*
X1158000Y714740D01*
X1157000Y715740D01*
X1157000Y717740D01*
X1156000Y718740D01*
X1156000Y719740D01*
X1155000Y720740D01*
X1155000Y721740D01*
X1154000Y722740D01*
X1154000Y724740D01*
X1153000Y725740D01*
X1153000Y726740D01*
X1152000Y727740D01*
X1152000Y729740D01*
X1151000Y730740D01*
X1151000Y732740D01*
X1150000Y733740D01*
X1150000Y736740D01*
X1149000Y737740D01*
X1149000Y740740D01*
X1148000Y741740D01*
X1148000Y744740D01*
X1147000Y745740D01*
X1147000Y749740D01*
X1146000Y750740D01*
X1146000Y756740D01*
X1145000Y757740D01*
X1145000Y767740D01*
X1144000Y768740D01*
X1144000Y780740D01*
X1145000Y781740D01*
X1145000Y791740D01*
X1146000Y792740D01*
X1146000Y797740D01*
X1147000Y798740D01*
X1147000Y803740D01*
X1148000Y804740D01*
X1148000Y807740D01*
X1149000Y808740D01*
X1149000Y811740D01*
X1150000Y812740D01*
X1150000Y814740D01*
X1151000Y815740D01*
X1151000Y817740D01*
X1152000Y818740D01*
X1152000Y820740D01*
X1153000Y821740D01*
X1153000Y823740D01*
X1154000Y824740D01*
X1154000Y825740D01*
X1155000Y826740D01*
X1155000Y828740D01*
X1156000Y829740D01*
X1156000Y830740D01*
X1157000Y831740D01*
X1157000Y832740D01*
X1158000Y833740D01*
X1158000Y834740D01*
X1159000Y835740D01*
X1159000Y836740D01*
X1160000Y837740D01*
X1160000Y838740D01*
X1161000Y839740D01*
X1161000Y840740D01*
X1162000Y841740D01*
X1162000Y842740D01*
X1163000Y843740D01*
X1164000Y844740D01*
X1164000Y845740D01*
X1165000Y846740D01*
X1165000Y847740D01*
X1166000Y848740D01*
X1167000Y849740D01*
X1167000Y850740D01*
X1168000Y851740D01*
X1169000Y852740D01*
X1169000Y853740D01*
X1170000Y854740D01*
X1171000Y855740D01*
X1172000Y856740D01*
X1172000Y857740D01*
X1173000Y858740D01*
X1174000Y859740D01*
X1175000Y860740D01*
X1175000Y861740D01*
X1176000Y862740D01*
X1177000Y863740D01*
X1178000Y864740D01*
X1179000Y865740D01*
X1180000Y866740D01*
X1181000Y867740D01*
X1182000Y868740D01*
X1183000Y869740D01*
X1184000Y870740D01*
X1185000Y871740D01*
X1186000Y872740D01*
X1187000Y873740D01*
X1188000Y874740D01*
X1189000Y875740D01*
X1190000Y876740D01*
X1191000Y877740D01*
X1192000Y878740D01*
X1193000Y879740D01*
X1194000Y880740D01*
X1195000Y880740D01*
X1196000Y881740D01*
X1197000Y882740D01*
X1198000Y883740D01*
X1199000Y884740D01*
X1200000Y884740D01*
X1201000Y885740D01*
X1202000Y886740D01*
X1203000Y886740D01*
X1204000Y887740D01*
X1205000Y888740D01*
X1206000Y888740D01*
X1207000Y889740D01*
X1208000Y890740D01*
X1209000Y890740D01*
X1210000Y891740D01*
X1211000Y892740D01*
X1212000Y892740D01*
X1213000Y893740D01*
X1214000Y893740D01*
X1215000Y894740D01*
X1216000Y894740D01*
X1217000Y895740D01*
X1218000Y895740D01*
X1219000Y896740D01*
X1220000Y896740D01*
X1221000Y897740D01*
X1222000Y897740D01*
X1223000Y898740D01*
X1224000Y898740D01*
X1225000Y899740D01*
X1226000Y899740D01*
X1227000Y900740D01*
X1228000Y900740D01*
X1229000Y901740D01*
X1230000Y901740D01*
X1231000Y901740D01*
X1232000Y902740D01*
X1233000Y902740D01*
X1234000Y903740D01*
X1235000Y903740D01*
X1236000Y903740D01*
X1237000Y904740D01*
X1238000Y904740D01*
X1239000Y904740D01*
X1240000Y905740D01*
X1241000Y905740D01*
X1242000Y905740D01*
X1243000Y905740D01*
X1244000Y906740D01*
X1245000Y906740D01*
X1246000Y906740D01*
X1247000Y907740D01*
X1248000Y907740D01*
X1249000Y907740D01*
X1250000Y907740D01*
X1251000Y908740D01*
X1252000Y908740D01*
X1253000Y908740D01*
X1254000Y908740D01*
X1255000Y908740D01*
X1256000Y909740D01*
X1257000Y909740D01*
X1258000Y909740D01*
X1259000Y909740D01*
X1260000Y909740D01*
X1261000Y909740D01*
X1262000Y910740D01*
X1263000Y910740D01*
X1264000Y910740D01*
X1265000Y910740D01*
X1266000Y910740D01*
X1267000Y910740D01*
X1268000Y910740D01*
X1269000Y910740D01*
X1270000Y910740D01*
X1271000Y911740D01*
D02*
X603000Y826740D02*
X603000Y825740D01*
X603000Y630740D01*
X604000Y630740D01*
X605000Y630740D01*
X606000Y630740D01*
X607000Y630740D01*
X608000Y630740D01*
X609000Y630740D01*
X610000Y630740D01*
X611000Y630740D01*
X612000Y630740D01*
X613000Y630740D01*
X614000Y630740D01*
X615000Y630740D01*
X616000Y630740D01*
X617000Y630740D01*
X618000Y630740D01*
X619000Y630740D01*
X620000Y630740D01*
X621000Y630740D01*
X622000Y630740D01*
X623000Y630740D01*
X624000Y630740D01*
X625000Y630740D01*
X626000Y630740D01*
X627000Y630740D01*
X628000Y630740D01*
X629000Y630740D01*
X630000Y630740D01*
X631000Y630740D01*
X632000Y630740D01*
X633000Y630740D01*
X634000Y630740D01*
X635000Y630740D01*
X636000Y630740D01*
X637000Y630740D01*
X638000Y630740D01*
X639000Y630740D01*
X640000Y630740D01*
X641000Y630740D01*
X642000Y630740D01*
X643000Y630740D01*
X644000Y630740D01*
X645000Y630740D01*
X646000Y630740D01*
X647000Y630740D01*
X648000Y630740D01*
X649000Y630740D01*
X650000Y630740D01*
X651000Y630740D01*
X652000Y630740D01*
X653000Y630740D01*
X654000Y630740D01*
X655000Y630740D01*
X656000Y630740D01*
X657000Y630740D01*
X658000Y630740D01*
X659000Y630740D01*
X660000Y630740D01*
X661000Y630740D01*
X662000Y630740D01*
X663000Y630740D01*
X664000Y630740D01*
X665000Y630740D01*
X666000Y630740D01*
X667000Y630740D01*
X668000Y630740D01*
X669000Y630740D01*
X670000Y630740D01*
X671000Y630740D01*
X672000Y630740D01*
X673000Y630740D01*
X674000Y630740D01*
X675000Y630740D01*
X676000Y630740D01*
X677000Y630740D01*
X678000Y630740D01*
X679000Y630740D01*
X680000Y630740D01*
X681000Y630740D01*
X682000Y630740D01*
X683000Y630740D01*
X684000Y630740D01*
X685000Y630740D01*
X686000Y630740D01*
X687000Y630740D01*
X688000Y630740D01*
X689000Y630740D01*
X690000Y630740D01*
X691000Y630740D01*
X692000Y630740D01*
X693000Y630740D01*
X694000Y630740D01*
X695000Y630740D01*
X696000Y630740D01*
X697000Y630740D01*
X698000Y630740D01*
X699000Y630740D01*
X700000Y630740D01*
X701000Y630740D01*
X702000Y630740D01*
X703000Y630740D01*
X704000Y630740D01*
X705000Y630740D01*
X706000Y630740D01*
X707000Y630740D01*
X708000Y630740D01*
X709000Y630740D01*
X710000Y630740D01*
X711000Y630740D01*
X712000Y630740D01*
X713000Y630740D01*
X714000Y630740D01*
X715000Y630740D01*
X716000Y630740D01*
X717000Y630740D01*
X718000Y630740D01*
X719000Y630740D01*
X720000Y630740D01*
X720000Y826740D01*
X719000Y826740D01*
X718000Y826740D01*
X717000Y826740D01*
X716000Y826740D01*
X715000Y826740D01*
X714000Y826740D01*
X713000Y826740D01*
X712000Y826740D01*
X711000Y826740D01*
X710000Y826740D01*
X709000Y826740D01*
X708000Y826740D01*
X707000Y826740D01*
X706000Y826740D01*
X705000Y826740D01*
X704000Y826740D01*
X703000Y826740D01*
X702000Y826740D01*
X701000Y826740D01*
X700000Y826740D01*
X699000Y826740D01*
X698000Y826740D01*
X697000Y826740D01*
X696000Y826740D01*
X695000Y826740D01*
X694000Y826740D01*
X693000Y826740D01*
X692000Y826740D01*
X691000Y826740D01*
X690000Y826740D01*
X689000Y826740D01*
X688000Y826740D01*
X687000Y826740D01*
X686000Y826740D01*
X685000Y826740D01*
X684000Y826740D01*
X683000Y826740D01*
X682000Y826740D01*
X681000Y826740D01*
X680000Y826740D01*
X679000Y826740D01*
X678000Y826740D01*
X677000Y826740D01*
X676000Y826740D01*
X675000Y826740D01*
X674000Y826740D01*
X673000Y826740D01*
X672000Y826740D01*
X671000Y826740D01*
X670000Y826740D01*
X669000Y826740D01*
X668000Y826740D01*
X667000Y826740D01*
X666000Y826740D01*
X665000Y826740D01*
X664000Y826740D01*
X663000Y826740D01*
X662000Y826740D01*
X661000Y826740D01*
X660000Y826740D01*
X659000Y826740D01*
X658000Y826740D01*
X657000Y826740D01*
X656000Y826740D01*
X655000Y826740D01*
X654000Y826740D01*
X653000Y826740D01*
X652000Y826740D01*
X651000Y826740D01*
X650000Y826740D01*
X649000Y826740D01*
X648000Y826740D01*
X647000Y826740D01*
X646000Y826740D01*
X645000Y826740D01*
X644000Y826740D01*
X643000Y826740D01*
X642000Y826740D01*
X641000Y826740D01*
X640000Y826740D01*
X639000Y826740D01*
X638000Y826740D01*
X637000Y826740D01*
X636000Y826740D01*
X635000Y826740D01*
X634000Y826740D01*
X633000Y826740D01*
X632000Y826740D01*
X631000Y826740D01*
X630000Y826740D01*
X629000Y826740D01*
X628000Y826740D01*
X627000Y826740D01*
X626000Y826740D01*
X625000Y826740D01*
X624000Y826740D01*
X623000Y826740D01*
X622000Y826740D01*
X621000Y826740D01*
X620000Y826740D01*
X619000Y826740D01*
X618000Y826740D01*
X617000Y826740D01*
X616000Y826740D01*
X615000Y826740D01*
X614000Y826740D01*
X613000Y826740D01*
X612000Y826740D01*
X611000Y826740D01*
X610000Y826740D01*
X609000Y826740D01*
X608000Y826740D01*
X607000Y826740D01*
X606000Y826740D01*
X605000Y826740D01*
X604000Y826740D01*
X603000Y826740D01*
D02*
G04 End of contour*
M02*