G04 MADE WITH FRITZING*
G04 WWW.FRITZING.ORG*
G04 DOUBLE SIDED*
G04 HOLES PLATED*
G04 CONTOUR ON CENTER OF CONTOUR VECTOR*
%FSLAX26Y26*%
%MOIN*%
%ADD10C,0.005000*%
%ADD10C,0.008*%
G04 CONTOUR*
%FSLAX26Y26*%
%MOIN*%
D10*
D10*
X450000Y5039370D02*
X451000Y5039370D01*
X452000Y5039370D01*
X453000Y5039370D01*
X454000Y5039370D01*
X455000Y5039370D01*
X456000Y5039370D01*
X457000Y5039370D01*
X458000Y5039370D01*
X459000Y5039370D01*
X460000Y5039370D01*
X461000Y5039370D01*
X462000Y5039370D01*
X463000Y5039370D01*
X464000Y5039370D01*
X465000Y5039370D01*
X466000Y5039370D01*
X467000Y5039370D01*
X468000Y5039370D01*
X469000Y5039370D01*
X470000Y5039370D01*
X471000Y5039370D01*
X472000Y5039370D01*
X473000Y5039370D01*
X474000Y5039370D01*
X475000Y5039370D01*
X476000Y5039370D01*
X477000Y5039370D01*
X478000Y5039370D01*
X479000Y5039370D01*
X480000Y5039370D01*
X481000Y5039370D01*
X482000Y5039370D01*
X483000Y5039370D01*
X484000Y5039370D01*
X485000Y5039370D01*
X486000Y5039370D01*
X487000Y5039370D01*
X488000Y5039370D01*
X489000Y5039370D01*
X490000Y5039370D01*
X491000Y5039370D01*
X492000Y5039370D01*
X493000Y5039370D01*
X494000Y5039370D01*
X495000Y5039370D01*
X496000Y5039370D01*
X497000Y5039370D01*
X498000Y5039370D01*
X499000Y5039370D01*
X500000Y5039370D01*
X501000Y5039370D01*
X502000Y5039370D01*
X503000Y5039370D01*
X504000Y5039370D01*
X505000Y5039370D01*
X506000Y5039370D01*
X507000Y5039370D01*
X508000Y5039370D01*
X509000Y5039370D01*
X510000Y5039370D01*
X511000Y5039370D01*
X512000Y5039370D01*
X513000Y5039370D01*
X514000Y5039370D01*
X515000Y5039370D01*
X516000Y5039370D01*
X517000Y5039370D01*
X518000Y5039370D01*
X519000Y5039370D01*
X520000Y5039370D01*
X521000Y5039370D01*
X522000Y5039370D01*
X523000Y5039370D01*
X524000Y5039370D01*
X525000Y5039370D01*
X526000Y5039370D01*
X527000Y5039370D01*
X528000Y5039370D01*
X529000Y5039370D01*
X530000Y5039370D01*
X531000Y5039370D01*
X532000Y5039370D01*
X533000Y5039370D01*
X534000Y5039370D01*
X535000Y5039370D01*
X536000Y5039370D01*
X537000Y5039370D01*
X538000Y5039370D01*
X539000Y5039370D01*
X540000Y5039370D01*
X541000Y5039370D01*
X542000Y5039370D01*
X543000Y5039370D01*
X544000Y5039370D01*
X545000Y5039370D01*
X546000Y5039370D01*
X547000Y5039370D01*
X548000Y5039370D01*
X549000Y5039370D01*
X550000Y5039370D01*
X551000Y5039370D01*
X552000Y5039370D01*
X553000Y5039370D01*
X554000Y5039370D01*
X555000Y5039370D01*
X556000Y5039370D01*
X557000Y5039370D01*
X558000Y5039370D01*
X559000Y5039370D01*
X560000Y5039370D01*
X561000Y5039370D01*
X562000Y5039370D01*
X563000Y5039370D01*
X564000Y5039370D01*
X565000Y5039370D01*
X566000Y5039370D01*
X567000Y5039370D01*
X568000Y5039370D01*
X569000Y5039370D01*
X570000Y5039370D01*
X571000Y5039370D01*
X572000Y5039370D01*
X573000Y5039370D01*
X574000Y5039370D01*
X575000Y5039370D01*
X576000Y5039370D01*
X577000Y5039370D01*
X578000Y5039370D01*
X579000Y5039370D01*
X580000Y5039370D01*
X581000Y5039370D01*
X582000Y5039370D01*
X583000Y5039370D01*
X584000Y5039370D01*
X585000Y5039370D01*
X586000Y5039370D01*
X587000Y5039370D01*
X588000Y5039370D01*
X589000Y5039370D01*
X590000Y5039370D01*
X591000Y5039370D01*
X592000Y5039370D01*
X593000Y5039370D01*
X594000Y5039370D01*
X595000Y5039370D01*
X596000Y5039370D01*
X597000Y5039370D01*
X598000Y5039370D01*
X599000Y5039370D01*
X600000Y5039370D01*
X601000Y5039370D01*
X602000Y5039370D01*
X603000Y5039370D01*
X604000Y5039370D01*
X605000Y5039370D01*
X606000Y5039370D01*
X607000Y5039370D01*
X608000Y5039370D01*
X609000Y5039370D01*
X610000Y5039370D01*
X611000Y5039370D01*
X612000Y5039370D01*
X613000Y5039370D01*
X614000Y5039370D01*
X615000Y5039370D01*
X616000Y5039370D01*
X617000Y5039370D01*
X618000Y5039370D01*
X619000Y5039370D01*
X620000Y5039370D01*
X621000Y5039370D01*
X622000Y5039370D01*
X623000Y5039370D01*
X624000Y5039370D01*
X625000Y5039370D01*
X626000Y5039370D01*
X627000Y5039370D01*
X628000Y5039370D01*
X629000Y5039370D01*
X630000Y5039370D01*
X631000Y5039370D01*
X632000Y5039370D01*
X633000Y5039370D01*
X634000Y5039370D01*
X635000Y5039370D01*
X636000Y5039370D01*
X637000Y5039370D01*
X638000Y5039370D01*
X639000Y5039370D01*
X640000Y5039370D01*
X641000Y5039370D01*
X642000Y5039370D01*
X643000Y5039370D01*
X644000Y5039370D01*
X645000Y5039370D01*
X646000Y5039370D01*
X647000Y5039370D01*
X648000Y5039370D01*
X649000Y5039370D01*
X650000Y5039370D01*
X651000Y5039370D01*
X652000Y5039370D01*
X653000Y5039370D01*
X654000Y5039370D01*
X655000Y5039370D01*
X656000Y5039370D01*
X657000Y5039370D01*
X658000Y5039370D01*
X659000Y5039370D01*
X660000Y5039370D01*
X661000Y5039370D01*
X662000Y5039370D01*
X663000Y5039370D01*
X664000Y5039370D01*
X665000Y5039370D01*
X666000Y5039370D01*
X667000Y5039370D01*
X668000Y5039370D01*
X669000Y5039370D01*
X670000Y5039370D01*
X671000Y5039370D01*
X672000Y5039370D01*
X673000Y5039370D01*
X674000Y5039370D01*
X675000Y5039370D01*
X676000Y5039370D01*
X677000Y5039370D01*
X678000Y5039370D01*
X679000Y5039370D01*
X680000Y5039370D01*
X681000Y5039370D01*
X682000Y5039370D01*
X683000Y5039370D01*
X684000Y5039370D01*
X685000Y5039370D01*
X686000Y5039370D01*
X687000Y5039370D01*
X688000Y5039370D01*
X689000Y5039370D01*
X690000Y5039370D01*
X691000Y5039370D01*
X692000Y5039370D01*
X693000Y5039370D01*
X694000Y5039370D01*
X695000Y5039370D01*
X696000Y5039370D01*
X697000Y5039370D01*
X698000Y5039370D01*
X699000Y5039370D01*
X700000Y5039370D01*
X701000Y5039370D01*
X702000Y5039370D01*
X703000Y5039370D01*
X704000Y5039370D01*
X705000Y5039370D01*
X706000Y5039370D01*
X707000Y5039370D01*
X708000Y5039370D01*
X709000Y5039370D01*
X710000Y5039370D01*
X711000Y5039370D01*
X712000Y5039370D01*
X713000Y5039370D01*
X714000Y5039370D01*
X715000Y5039370D01*
X716000Y5039370D01*
X717000Y5039370D01*
X718000Y5039370D01*
X719000Y5039370D01*
X720000Y5039370D01*
X721000Y5039370D01*
X722000Y5039370D01*
X723000Y5039370D01*
X724000Y5039370D01*
X725000Y5039370D01*
X726000Y5039370D01*
X727000Y5039370D01*
X728000Y5039370D01*
X729000Y5039370D01*
X730000Y5039370D01*
X731000Y5039370D01*
X732000Y5039370D01*
X733000Y5039370D01*
X734000Y5039370D01*
X735000Y5039370D01*
X736000Y5039370D01*
X737000Y5039370D01*
X738000Y5039370D01*
X739000Y5039370D01*
X740000Y5039370D01*
X741000Y5039370D01*
X742000Y5039370D01*
X743000Y5039370D01*
X744000Y5039370D01*
X745000Y5039370D01*
X746000Y5039370D01*
X747000Y5039370D01*
X748000Y5039370D01*
X749000Y5039370D01*
X750000Y5039370D01*
X751000Y5039370D01*
X752000Y5039370D01*
X753000Y5039370D01*
X754000Y5039370D01*
X755000Y5039370D01*
X756000Y5039370D01*
X757000Y5039370D01*
X758000Y5039370D01*
X759000Y5039370D01*
X760000Y5039370D01*
X761000Y5039370D01*
X762000Y5039370D01*
X763000Y5039370D01*
X764000Y5039370D01*
X765000Y5039370D01*
X766000Y5039370D01*
X767000Y5039370D01*
X768000Y5039370D01*
X769000Y5039370D01*
X770000Y5039370D01*
X771000Y5039370D01*
X772000Y5039370D01*
X773000Y5039370D01*
X774000Y5039370D01*
X775000Y5039370D01*
X776000Y5039370D01*
X777000Y5039370D01*
X778000Y5039370D01*
X779000Y5039370D01*
X780000Y5039370D01*
X781000Y5039370D01*
X782000Y5039370D01*
X783000Y5039370D01*
X784000Y5039370D01*
X785000Y5039370D01*
X786000Y5039370D01*
X787000Y5039370D01*
X788000Y5039370D01*
X789000Y5039370D01*
X790000Y5039370D01*
X791000Y5039370D01*
X792000Y5039370D01*
X793000Y5039370D01*
X794000Y5039370D01*
X795000Y5039370D01*
X796000Y5039370D01*
X797000Y5039370D01*
X798000Y5039370D01*
X799000Y5039370D01*
X800000Y5039370D01*
X801000Y5039370D01*
X802000Y5039370D01*
X803000Y5039370D01*
X804000Y5039370D01*
X805000Y5039370D01*
X806000Y5039370D01*
X807000Y5039370D01*
X808000Y5039370D01*
X809000Y5039370D01*
X810000Y5039370D01*
X811000Y5039370D01*
X812000Y5039370D01*
X813000Y5039370D01*
X814000Y5039370D01*
X815000Y5039370D01*
X816000Y5039370D01*
X817000Y5039370D01*
X818000Y5039370D01*
X819000Y5039370D01*
X820000Y5039370D01*
X821000Y5039370D01*
X822000Y5039370D01*
X823000Y5039370D01*
X824000Y5039370D01*
X825000Y5039370D01*
X826000Y5039370D01*
X827000Y5039370D01*
X828000Y5039370D01*
X829000Y5039370D01*
X830000Y5039370D01*
X831000Y5039370D01*
X832000Y5039370D01*
X833000Y5039370D01*
X834000Y5039370D01*
X835000Y5039370D01*
X836000Y5039370D01*
X837000Y5039370D01*
X838000Y5039370D01*
X839000Y5039370D01*
X840000Y5039370D01*
X841000Y5039370D01*
X842000Y5039370D01*
X843000Y5039370D01*
X844000Y5039370D01*
X845000Y5039370D01*
X846000Y5039370D01*
X847000Y5039370D01*
X848000Y5039370D01*
X849000Y5039370D01*
X850000Y5039370D01*
X851000Y5039370D01*
X852000Y5039370D01*
X853000Y5039370D01*
X854000Y5039370D01*
X855000Y5039370D01*
X856000Y5039370D01*
X857000Y5039370D01*
X858000Y5039370D01*
X859000Y5039370D01*
X860000Y5039370D01*
X861000Y5039370D01*
X862000Y5039370D01*
X863000Y5039370D01*
X864000Y5039370D01*
X865000Y5039370D01*
X866000Y5039370D01*
X867000Y5039370D01*
X868000Y5039370D01*
X869000Y5039370D01*
X870000Y5039370D01*
X871000Y5039370D01*
X872000Y5039370D01*
X873000Y5039370D01*
X874000Y5039370D01*
X875000Y5039370D01*
X876000Y5039370D01*
X877000Y5039370D01*
X878000Y5039370D01*
X879000Y5039370D01*
X880000Y5039370D01*
X881000Y5039370D01*
X882000Y5039370D01*
X883000Y5039370D01*
X884000Y5039370D01*
X885000Y5039370D01*
X886000Y5039370D01*
X887000Y5039370D01*
X888000Y5039370D01*
X889000Y5039370D01*
X890000Y5039370D01*
X891000Y5039370D01*
X892000Y5039370D01*
X893000Y5039370D01*
X894000Y5039370D01*
X895000Y5039370D01*
X896000Y5039370D01*
X897000Y5039370D01*
X898000Y5039370D01*
X899000Y5039370D01*
X900000Y5039370D01*
X901000Y5039370D01*
X902000Y5039370D01*
X903000Y5039370D01*
X904000Y5039370D01*
X905000Y5039370D01*
X906000Y5039370D01*
X907000Y5039370D01*
X908000Y5039370D01*
X909000Y5039370D01*
X910000Y5039370D01*
X911000Y5039370D01*
X912000Y5039370D01*
X913000Y5039370D01*
X914000Y5039370D01*
X915000Y5039370D01*
X916000Y5039370D01*
X917000Y5039370D01*
X918000Y5039370D01*
X919000Y5039370D01*
X920000Y5039370D01*
X921000Y5039370D01*
X922000Y5039370D01*
X923000Y5039370D01*
X924000Y5039370D01*
X925000Y5039370D01*
X926000Y5039370D01*
X927000Y5039370D01*
X928000Y5039370D01*
X929000Y5039370D01*
X930000Y5039370D01*
X931000Y5039370D01*
X932000Y5039370D01*
X933000Y5039370D01*
X934000Y5039370D01*
X935000Y5039370D01*
X936000Y5039370D01*
X937000Y5039370D01*
X938000Y5039370D01*
X939000Y5039370D01*
X940000Y5039370D01*
X941000Y5039370D01*
X942000Y5039370D01*
X943000Y5039370D01*
X944000Y5039370D01*
X945000Y5039370D01*
X946000Y5039370D01*
X947000Y5039370D01*
X948000Y5039370D01*
X949000Y5039370D01*
X950000Y5039370D01*
X951000Y5039370D01*
X952000Y5039370D01*
X953000Y5039370D01*
X954000Y5039370D01*
X955000Y5039370D01*
X956000Y5039370D01*
X957000Y5039370D01*
X958000Y5039370D01*
X959000Y5039370D01*
X960000Y5039370D01*
X961000Y5039370D01*
X962000Y5039370D01*
X963000Y5039370D01*
X964000Y5039370D01*
X965000Y5039370D01*
X966000Y5039370D01*
X967000Y5039370D01*
X968000Y5039370D01*
X969000Y5039370D01*
X970000Y5039370D01*
X971000Y5039370D01*
X972000Y5039370D01*
X973000Y5039370D01*
X974000Y5039370D01*
X975000Y5039370D01*
X976000Y5039370D01*
X977000Y5039370D01*
X978000Y5039370D01*
X979000Y5039370D01*
X980000Y5039370D01*
X981000Y5039370D01*
X982000Y5039370D01*
X983000Y5039370D01*
X984000Y5039370D01*
X985000Y5039370D01*
X986000Y5039370D01*
X987000Y5039370D01*
X988000Y5039370D01*
X989000Y5039370D01*
X990000Y5039370D01*
X991000Y5039370D01*
X992000Y5039370D01*
X993000Y5039370D01*
X994000Y5039370D01*
X995000Y5039370D01*
X996000Y5039370D01*
X997000Y5039370D01*
X998000Y5039370D01*
X999000Y5039370D01*
X1000000Y5039370D01*
X1001000Y5039370D01*
X1002000Y5039370D01*
X1003000Y5039370D01*
X1004000Y5039370D01*
X1005000Y5039370D01*
X1006000Y5039370D01*
X1007000Y5039370D01*
X1008000Y5039370D01*
X1009000Y5039370D01*
X1010000Y5039370D01*
X1011000Y5039370D01*
X1012000Y5039370D01*
X1013000Y5039370D01*
X1014000Y5039370D01*
X1015000Y5039370D01*
X1016000Y5039370D01*
X1017000Y5039370D01*
X1018000Y5039370D01*
X1019000Y5039370D01*
X1020000Y5039370D01*
X1021000Y5039370D01*
X1022000Y5039370D01*
X1023000Y5039370D01*
X1024000Y5039370D01*
X1025000Y5039370D01*
X1026000Y5039370D01*
X1027000Y5039370D01*
X1028000Y5039370D01*
X1029000Y5039370D01*
X1030000Y5039370D01*
X1031000Y5039370D01*
X1032000Y5039370D01*
X1033000Y5039370D01*
X1034000Y5039370D01*
X1035000Y5039370D01*
X1036000Y5039370D01*
X1037000Y5039370D01*
X1038000Y5039370D01*
X1039000Y5039370D01*
X1040000Y5039370D01*
X1041000Y5039370D01*
X1042000Y5039370D01*
X1043000Y5039370D01*
X1044000Y5039370D01*
X1045000Y5039370D01*
X1046000Y5039370D01*
X1047000Y5039370D01*
X1048000Y5039370D01*
X1049000Y5039370D01*
X1050000Y5039370D01*
X1051000Y5039370D01*
X1052000Y5039370D01*
X1053000Y5039370D01*
X1054000Y5039370D01*
X1055000Y5039370D01*
X1056000Y5039370D01*
X1057000Y5039370D01*
X1058000Y5039370D01*
X1059000Y5039370D01*
X1060000Y5039370D01*
X1061000Y5039370D01*
X1062000Y5039370D01*
X1063000Y5039370D01*
X1064000Y5039370D01*
X1065000Y5039370D01*
X1066000Y5039370D01*
X1067000Y5039370D01*
X1068000Y5039370D01*
X1069000Y5039370D01*
X1070000Y5039370D01*
X1071000Y5039370D01*
X1072000Y5039370D01*
X1073000Y5039370D01*
X1074000Y5039370D01*
X1075000Y5039370D01*
X1076000Y5039370D01*
X1077000Y5039370D01*
X1078000Y5039370D01*
X1079000Y5039370D01*
X1080000Y5039370D01*
X1081000Y5039370D01*
X1082000Y5039370D01*
X1083000Y5039370D01*
X1084000Y5039370D01*
X1085000Y5039370D01*
X1086000Y5039370D01*
X1087000Y5039370D01*
X1088000Y5039370D01*
X1089000Y5039370D01*
X1090000Y5039370D01*
X1091000Y5039370D01*
X1092000Y5039370D01*
X1093000Y5039370D01*
X1094000Y5039370D01*
X1095000Y5039370D01*
X1096000Y5039370D01*
X1097000Y5039370D01*
X1098000Y5039370D01*
X1099000Y5039370D01*
X1100000Y5039370D01*
X1101000Y5039370D01*
X1102000Y5039370D01*
X1103000Y5039370D01*
X1104000Y5039370D01*
X1105000Y5039370D01*
X1106000Y5039370D01*
X1107000Y5039370D01*
X1108000Y5039370D01*
X1109000Y5039370D01*
X1110000Y5039370D01*
X1111000Y5039370D01*
X1112000Y5039370D01*
X1113000Y5039370D01*
X1114000Y5039370D01*
X1115000Y5039370D01*
X1116000Y5039370D01*
X1117000Y5039370D01*
X1118000Y5039370D01*
X1119000Y5039370D01*
X1120000Y5039370D01*
X1121000Y5039370D01*
X1122000Y5039370D01*
X1123000Y5039370D01*
X1124000Y5039370D01*
X1125000Y5039370D01*
X1126000Y5039370D01*
X1127000Y5039370D01*
X1128000Y5039370D01*
X1129000Y5039370D01*
X1130000Y5039370D01*
X1131000Y5039370D01*
X1132000Y5039370D01*
X1133000Y5039370D01*
X1134000Y5039370D01*
X1135000Y5039370D01*
X1136000Y5039370D01*
X1137000Y5039370D01*
X1138000Y5039370D01*
X1139000Y5039370D01*
X1140000Y5039370D01*
X1141000Y5039370D01*
X1142000Y5039370D01*
X1143000Y5039370D01*
X1144000Y5039370D01*
X1145000Y5039370D01*
X1146000Y5039370D01*
X1147000Y5039370D01*
X1148000Y5039370D01*
X1149000Y5039370D01*
X1150000Y5039370D01*
X1151000Y5039370D01*
X1152000Y5039370D01*
X1153000Y5039370D01*
X1154000Y5039370D01*
X1155000Y5039370D01*
X1156000Y5039370D01*
X1157000Y5039370D01*
X1158000Y5039370D01*
X1159000Y5039370D01*
X1160000Y5039370D01*
X1161000Y5039370D01*
X1162000Y5039370D01*
X1163000Y5039370D01*
X1164000Y5039370D01*
X1165000Y5039370D01*
X1166000Y5039370D01*
X1167000Y5039370D01*
X1168000Y5039370D01*
X1169000Y5039370D01*
X1170000Y5039370D01*
X1171000Y5039370D01*
X1172000Y5039370D01*
X1173000Y5039370D01*
X1174000Y5039370D01*
X1175000Y5039370D01*
X1176000Y5039370D01*
X1177000Y5039370D01*
X1178000Y5039370D01*
X1179000Y5039370D01*
X1180000Y5039370D01*
X1181000Y5039370D01*
X1182000Y5039370D01*
X1183000Y5039370D01*
X1184000Y5039370D01*
X1185000Y5039370D01*
X1186000Y5039370D01*
X1187000Y5039370D01*
X1188000Y5039370D01*
X1189000Y5039370D01*
X1190000Y5039370D01*
X1191000Y5039370D01*
X1192000Y5039370D01*
X1193000Y5039370D01*
X1194000Y5039370D01*
X1195000Y5039370D01*
X1196000Y5039370D01*
X1197000Y5039370D01*
X1198000Y5039370D01*
X1199000Y5039370D01*
X1200000Y5039370D01*
X1201000Y5039370D01*
X1202000Y5039370D01*
X1203000Y5039370D01*
X1204000Y5039370D01*
X1205000Y5039370D01*
X1206000Y5039370D01*
X1207000Y5039370D01*
X1208000Y5039370D01*
X1209000Y5039370D01*
X1210000Y5039370D01*
X1211000Y5039370D01*
X1212000Y5039370D01*
X1213000Y5039370D01*
X1214000Y5039370D01*
X1215000Y5039370D01*
X1216000Y5039370D01*
X1217000Y5039370D01*
X1218000Y5039370D01*
X1219000Y5039370D01*
X1220000Y5039370D01*
X1221000Y5039370D01*
X1222000Y5039370D01*
X1223000Y5039370D01*
X1224000Y5039370D01*
X1225000Y5039370D01*
X1226000Y5039370D01*
X1227000Y5039370D01*
X1228000Y5039370D01*
X1229000Y5039370D01*
X1230000Y5039370D01*
X1231000Y5039370D01*
X1232000Y5039370D01*
X1233000Y5039370D01*
X1234000Y5039370D01*
X1235000Y5039370D01*
X1236000Y5039370D01*
X1237000Y5039370D01*
X1238000Y5039370D01*
X1239000Y5039370D01*
X1240000Y5039370D01*
X1241000Y5039370D01*
X1242000Y5039370D01*
X1243000Y5039370D01*
X1244000Y5039370D01*
X1245000Y5039370D01*
X1246000Y5039370D01*
X1247000Y5039370D01*
X1248000Y5039370D01*
X1249000Y5039370D01*
X1250000Y5039370D01*
X1251000Y5039370D01*
X1252000Y5039370D01*
X1253000Y5039370D01*
X1254000Y5039370D01*
X1255000Y5039370D01*
X1256000Y5039370D01*
X1257000Y5039370D01*
X1258000Y5039370D01*
X1259000Y5039370D01*
X1260000Y5039370D01*
X1261000Y5039370D01*
X1262000Y5039370D01*
X1263000Y5039370D01*
X1264000Y5039370D01*
X1265000Y5039370D01*
X1266000Y5039370D01*
X1267000Y5039370D01*
X1268000Y5039370D01*
X1269000Y5039370D01*
X1270000Y5039370D01*
X1271000Y5039370D01*
X1272000Y5039370D01*
X1273000Y5039370D01*
X1274000Y5039370D01*
X1275000Y5039370D01*
X1276000Y5039370D01*
X1277000Y5039370D01*
X1278000Y5039370D01*
X1279000Y5039370D01*
X1280000Y5039370D01*
X1281000Y5039370D01*
X1282000Y5039370D01*
X1283000Y5039370D01*
X1284000Y5039370D01*
X1285000Y5039370D01*
X1286000Y5039370D01*
X1287000Y5039370D01*
X1288000Y5039370D01*
X1289000Y5039370D01*
X1290000Y5039370D01*
X1291000Y5039370D01*
X1292000Y5039370D01*
X1293000Y5039370D01*
X1294000Y5039370D01*
X1295000Y5039370D01*
X1296000Y5039370D01*
X1297000Y5039370D01*
X1298000Y5039370D01*
X1299000Y5039370D01*
X1300000Y5039370D01*
X1301000Y5039370D01*
X1302000Y5039370D01*
X1303000Y5039370D01*
X1304000Y5039370D01*
X1305000Y5039370D01*
X1306000Y5039370D01*
X1307000Y5039370D01*
X1308000Y5039370D01*
X1309000Y5039370D01*
X1310000Y5039370D01*
X1311000Y5039370D01*
X1312000Y5039370D01*
X1313000Y5039370D01*
X1314000Y5039370D01*
X1315000Y5039370D01*
X1316000Y5039370D01*
X1317000Y5039370D01*
X1318000Y5039370D01*
X1319000Y5039370D01*
X1320000Y5039370D01*
X1321000Y5039370D01*
X1322000Y5039370D01*
X1323000Y5039370D01*
X1324000Y5039370D01*
X1325000Y5039370D01*
X1326000Y5039370D01*
X1327000Y5039370D01*
X1328000Y5039370D01*
X1329000Y5039370D01*
X1330000Y5039370D01*
X1331000Y5039370D01*
X1332000Y5039370D01*
X1333000Y5039370D01*
X1334000Y5039370D01*
X1335000Y5039370D01*
X1336000Y5039370D01*
X1337000Y5039370D01*
X1338000Y5039370D01*
X1339000Y5039370D01*
X1340000Y5039370D01*
X1341000Y5039370D01*
X1342000Y5039370D01*
X1343000Y5039370D01*
X1344000Y5039370D01*
X1345000Y5039370D01*
X1346000Y5039370D01*
X1347000Y5039370D01*
X1348000Y5039370D01*
X1349000Y5039370D01*
X1350000Y5039370D01*
X1351000Y5039370D01*
X1352000Y5039370D01*
X1353000Y5039370D01*
X1354000Y5039370D01*
X1355000Y5039370D01*
X1356000Y5039370D01*
X1357000Y5039370D01*
X1358000Y5039370D01*
X1359000Y5039370D01*
X1360000Y5039370D01*
X1361000Y5039370D01*
X1362000Y5039370D01*
X1363000Y5039370D01*
X1364000Y5039370D01*
X1365000Y5039370D01*
X1366000Y5039370D01*
X1367000Y5039370D01*
X1368000Y5039370D01*
X1369000Y5039370D01*
X1370000Y5039370D01*
X1371000Y5039370D01*
X1372000Y5039370D01*
X1373000Y5039370D01*
X1374000Y5039370D01*
X1375000Y5039370D01*
X1376000Y5039370D01*
X1377000Y5039370D01*
X1378000Y5039370D01*
X1379000Y5039370D01*
X1380000Y5039370D01*
X1381000Y5039370D01*
X1382000Y5039370D01*
X1383000Y5039370D01*
X1384000Y5039370D01*
X1385000Y5039370D01*
X1386000Y5039370D01*
X1387000Y5039370D01*
X1388000Y5039370D01*
X1389000Y5039370D01*
X1390000Y5039370D01*
X1391000Y5039370D01*
X1392000Y5039370D01*
X1393000Y5039370D01*
X1394000Y5039370D01*
X1395000Y5039370D01*
X1396000Y5039370D01*
X1397000Y5039370D01*
X1398000Y5039370D01*
X1399000Y5039370D01*
X1400000Y5039370D01*
X1401000Y5039370D01*
X1402000Y5039370D01*
X1403000Y5039370D01*
X1404000Y5039370D01*
X1405000Y5039370D01*
X1406000Y5039370D01*
X1407000Y5039370D01*
X1408000Y5039370D01*
X1409000Y5039370D01*
X1410000Y5039370D01*
X1411000Y5039370D01*
X1412000Y5039370D01*
X1413000Y5039370D01*
X1414000Y5039370D01*
X1415000Y5039370D01*
X1416000Y5039370D01*
X1417000Y5039370D01*
X1418000Y5039370D01*
X1419000Y5039370D01*
X1420000Y5039370D01*
X1421000Y5039370D01*
X1422000Y5039370D01*
X1423000Y5039370D01*
X1424000Y5039370D01*
X1425000Y5039370D01*
X1426000Y5039370D01*
X1427000Y5039370D01*
X1428000Y5039370D01*
X1429000Y5039370D01*
X1430000Y5039370D01*
X1431000Y5039370D01*
X1432000Y5039370D01*
X1433000Y5039370D01*
X1434000Y5039370D01*
X1435000Y5039370D01*
X1436000Y5039370D01*
X1437000Y5039370D01*
X1438000Y5039370D01*
X1439000Y5039370D01*
X1440000Y5039370D01*
X1441000Y5039370D01*
X1442000Y5039370D01*
X1443000Y5039370D01*
X1444000Y5039370D01*
X1445000Y5039370D01*
X1446000Y5039370D01*
X1447000Y5039370D01*
X1448000Y5039370D01*
X1449000Y5039370D01*
X1450000Y5039370D01*
X1451000Y5039370D01*
X1452000Y5039370D01*
X1453000Y5039370D01*
X1454000Y5039370D01*
X1455000Y5039370D01*
X1456000Y5039370D01*
X1457000Y5039370D01*
X1458000Y5039370D01*
X1459000Y5039370D01*
X1460000Y5039370D01*
X1461000Y5039370D01*
X1462000Y5039370D01*
X1463000Y5039370D01*
X1464000Y5039370D01*
X1465000Y5039370D01*
X1466000Y5039370D01*
X1467000Y5039370D01*
X1468000Y5039370D01*
X1469000Y5039370D01*
X1470000Y5039370D01*
X1471000Y5039370D01*
X1472000Y5039370D01*
X1473000Y5039370D01*
X1474000Y5039370D01*
X1475000Y5039370D01*
X1476000Y5039370D01*
X1477000Y5039370D01*
X1478000Y5039370D01*
X1479000Y5039370D01*
X1480000Y5039370D01*
X1481000Y5039370D01*
X1482000Y5039370D01*
X1483000Y5039370D01*
X1484000Y5039370D01*
X1485000Y5039370D01*
X1486000Y5039370D01*
X1487000Y5039370D01*
X1488000Y5039370D01*
X1489000Y5039370D01*
X1490000Y5039370D01*
X1491000Y5039370D01*
X1492000Y5039370D01*
X1493000Y5039370D01*
X1494000Y5039370D01*
X1495000Y5039370D01*
X1496000Y5039370D01*
X1497000Y5039370D01*
X1498000Y5039370D01*
X1499000Y5039370D01*
X1500000Y5039370D01*
X1501000Y5039370D01*
X1502000Y5039370D01*
X1503000Y5039370D01*
X1504000Y5039370D01*
X1505000Y5039370D01*
X1506000Y5039370D01*
X1507000Y5039370D01*
X1508000Y5039370D01*
X1509000Y5039370D01*
X1510000Y5039370D01*
X1511000Y5039370D01*
X1512000Y5039370D01*
X1513000Y5039370D01*
X1514000Y5039370D01*
X1515000Y5039370D01*
X1516000Y5039370D01*
X1517000Y5039370D01*
X1518000Y5039370D01*
X1519000Y5039370D01*
X1520000Y5039370D01*
X1521000Y5039370D01*
X1522000Y5039370D01*
X1523000Y5039370D01*
X1524000Y5039370D01*
X1525000Y5039370D01*
X1526000Y5039370D01*
X1527000Y5039370D01*
X1528000Y5039370D01*
X1529000Y5039370D01*
X1530000Y5039370D01*
X1531000Y5039370D01*
X1532000Y5039370D01*
X1533000Y5039370D01*
X1534000Y5039370D01*
X1535000Y5039370D01*
X1536000Y5039370D01*
X1537000Y5039370D01*
X1538000Y5039370D01*
X1539000Y5039370D01*
X1540000Y5039370D01*
X1541000Y5039370D01*
X1542000Y5039370D01*
X1543000Y5039370D01*
X1544000Y5039370D01*
X1545000Y5039370D01*
X1546000Y5039370D01*
X1547000Y5039370D01*
X1548000Y5039370D01*
X1549000Y5039370D01*
X1550000Y5039370D01*
X1551000Y5039370D01*
X1552000Y5039370D01*
X1553000Y5039370D01*
X1554000Y5039370D01*
X1555000Y5039370D01*
X1556000Y5038370D01*
X1557000Y5038370D01*
X1558000Y5038370D01*
X1559000Y5038370D01*
X1560000Y5038370D01*
X1561000Y5037370D01*
X1562000Y5037370D01*
X1563000Y5036370D01*
X1564000Y5036370D01*
X1565000Y5035370D01*
X1566000Y5035370D01*
X1567000Y5034370D01*
X1568000Y5033370D01*
X1568000Y5032370D01*
X1569000Y5031370D01*
X1569000Y5030370D01*
X1570000Y5029370D01*
X1570000Y5028370D01*
X1571000Y5027370D01*
X1571000Y5025370D01*
X1572000Y5024370D01*
X1572000Y5020370D01*
X1573000Y5019370D01*
X1573000Y5008370D01*
X1574000Y5007370D01*
X1574000Y24370D01*
X1573000Y23370D01*
X1573000Y17370D01*
X1572000Y16370D01*
X1572000Y14370D01*
X1571000Y13370D01*
X1571000Y12370D01*
X1570000Y11370D01*
X1570000Y10370D01*
X1569000Y9370D01*
X1568000Y8370D01*
X1567000Y7370D01*
X1566000Y7370D01*
X1565000Y6370D01*
X1564000Y6370D01*
X1563000Y5370D01*
X1562000Y5370D01*
X1561000Y4370D01*
X1560000Y4370D01*
X1559000Y4370D01*
X1558000Y4370D01*
X1557000Y3370D01*
X1556000Y3370D01*
X1555000Y3370D01*
X1554000Y3370D01*
X1553000Y3370D01*
X1552000Y3370D01*
X1551000Y3370D01*
X1550000Y2370D01*
X1549000Y2370D01*
X1548000Y2370D01*
X1547000Y2370D01*
X1546000Y2370D01*
X1545000Y2370D01*
X1544000Y2370D01*
X1543000Y2370D01*
X1542000Y2370D01*
X1541000Y2370D01*
X1540000Y2370D01*
X1539000Y2370D01*
X1538000Y2370D01*
X1537000Y2370D01*
X1536000Y2370D01*
X1535000Y2370D01*
X1534000Y2370D01*
X1533000Y2370D01*
X1532000Y2370D01*
X1531000Y2370D01*
X1530000Y2370D01*
X1529000Y2370D01*
X1528000Y2370D01*
X1527000Y2370D01*
X1526000Y2370D01*
X1525000Y2370D01*
X1524000Y2370D01*
X1523000Y2370D01*
X1522000Y2370D01*
X1521000Y2370D01*
X1520000Y2370D01*
X1519000Y2370D01*
X1518000Y2370D01*
X1517000Y2370D01*
X1516000Y2370D01*
X1515000Y2370D01*
X1514000Y2370D01*
X1513000Y2370D01*
X1512000Y2370D01*
X1511000Y2370D01*
X1510000Y2370D01*
X1509000Y2370D01*
X1508000Y2370D01*
X1507000Y2370D01*
X1506000Y2370D01*
X1505000Y2370D01*
X1504000Y2370D01*
X1503000Y2370D01*
X1502000Y2370D01*
X1501000Y2370D01*
X1500000Y2370D01*
X1499000Y2370D01*
X1498000Y2370D01*
X1497000Y2370D01*
X1496000Y2370D01*
X1495000Y2370D01*
X1494000Y2370D01*
X1493000Y2370D01*
X1492000Y2370D01*
X1491000Y2370D01*
X1490000Y2370D01*
X1489000Y2370D01*
X1488000Y2370D01*
X1487000Y2370D01*
X1486000Y2370D01*
X1485000Y2370D01*
X1484000Y2370D01*
X1483000Y2370D01*
X1482000Y2370D01*
X1481000Y2370D01*
X1480000Y2370D01*
X1479000Y2370D01*
X1478000Y2370D01*
X1477000Y2370D01*
X1476000Y2370D01*
X1475000Y2370D01*
X1474000Y2370D01*
X1473000Y2370D01*
X1472000Y2370D01*
X1471000Y2370D01*
X1470000Y2370D01*
X1469000Y2370D01*
X1468000Y2370D01*
X1467000Y2370D01*
X1466000Y2370D01*
X1465000Y2370D01*
X1464000Y2370D01*
X1463000Y2370D01*
X1462000Y2370D01*
X1461000Y2370D01*
X1460000Y2370D01*
X1459000Y2370D01*
X1458000Y2370D01*
X1457000Y2370D01*
X1456000Y2370D01*
X1455000Y2370D01*
X1454000Y2370D01*
X1453000Y2370D01*
X1452000Y2370D01*
X1451000Y2370D01*
X1450000Y2370D01*
X1449000Y2370D01*
X1448000Y2370D01*
X1447000Y2370D01*
X1446000Y2370D01*
X1445000Y2370D01*
X1444000Y2370D01*
X1443000Y2370D01*
X1442000Y2370D01*
X1441000Y2370D01*
X1440000Y2370D01*
X1439000Y2370D01*
X1438000Y2370D01*
X1437000Y2370D01*
X1436000Y2370D01*
X1435000Y2370D01*
X1434000Y2370D01*
X1433000Y2370D01*
X1432000Y2370D01*
X1431000Y2370D01*
X1430000Y2370D01*
X1429000Y2370D01*
X1428000Y2370D01*
X1427000Y2370D01*
X1426000Y2370D01*
X1425000Y2370D01*
X1424000Y2370D01*
X1423000Y2370D01*
X1422000Y2370D01*
X1421000Y2370D01*
X1420000Y2370D01*
X1419000Y2370D01*
X1418000Y2370D01*
X1417000Y2370D01*
X1416000Y2370D01*
X1415000Y2370D01*
X1414000Y2370D01*
X1413000Y2370D01*
X1412000Y2370D01*
X1411000Y2370D01*
X1410000Y2370D01*
X1409000Y2370D01*
X1408000Y2370D01*
X1407000Y2370D01*
X1406000Y2370D01*
X1405000Y2370D01*
X1404000Y2370D01*
X1403000Y2370D01*
X1402000Y2370D01*
X1401000Y2370D01*
X1400000Y2370D01*
X1399000Y2370D01*
X1398000Y2370D01*
X1397000Y2370D01*
X1396000Y2370D01*
X1395000Y2370D01*
X1394000Y2370D01*
X1393000Y2370D01*
X1392000Y2370D01*
X1391000Y2370D01*
X1390000Y2370D01*
X1389000Y2370D01*
X1388000Y2370D01*
X1387000Y2370D01*
X1386000Y2370D01*
X1385000Y2370D01*
X1384000Y2370D01*
X1383000Y2370D01*
X1382000Y2370D01*
X1381000Y2370D01*
X1380000Y2370D01*
X1379000Y2370D01*
X1378000Y2370D01*
X1377000Y2370D01*
X1376000Y2370D01*
X1375000Y2370D01*
X1374000Y2370D01*
X1373000Y2370D01*
X1372000Y2370D01*
X1371000Y2370D01*
X1370000Y2370D01*
X1369000Y2370D01*
X1368000Y2370D01*
X1367000Y2370D01*
X1366000Y2370D01*
X1365000Y2370D01*
X1364000Y2370D01*
X1363000Y2370D01*
X1362000Y2370D01*
X1361000Y2370D01*
X1360000Y2370D01*
X1359000Y2370D01*
X1358000Y2370D01*
X1357000Y2370D01*
X1356000Y2370D01*
X1355000Y2370D01*
X1354000Y2370D01*
X1353000Y2370D01*
X1352000Y2370D01*
X1351000Y2370D01*
X1350000Y2370D01*
X1349000Y2370D01*
X1348000Y2370D01*
X1347000Y2370D01*
X1346000Y2370D01*
X1345000Y2370D01*
X1344000Y2370D01*
X1343000Y2370D01*
X1342000Y2370D01*
X1341000Y2370D01*
X1340000Y2370D01*
X1339000Y2370D01*
X1338000Y2370D01*
X1337000Y2370D01*
X1336000Y2370D01*
X1335000Y2370D01*
X1334000Y2370D01*
X1333000Y2370D01*
X1332000Y2370D01*
X1331000Y2370D01*
X1330000Y2370D01*
X1329000Y2370D01*
X1328000Y2370D01*
X1327000Y2370D01*
X1326000Y2370D01*
X1325000Y2370D01*
X1324000Y2370D01*
X1323000Y2370D01*
X1322000Y2370D01*
X1321000Y2370D01*
X1320000Y2370D01*
X1319000Y2370D01*
X1318000Y2370D01*
X1317000Y2370D01*
X1316000Y2370D01*
X1315000Y2370D01*
X1314000Y2370D01*
X1313000Y2370D01*
X1312000Y2370D01*
X1311000Y2370D01*
X1310000Y2370D01*
X1309000Y2370D01*
X1308000Y2370D01*
X1307000Y2370D01*
X1306000Y2370D01*
X1305000Y2370D01*
X1304000Y2370D01*
X1303000Y2370D01*
X1302000Y2370D01*
X1301000Y2370D01*
X1300000Y2370D01*
X1299000Y2370D01*
X1298000Y2370D01*
X1297000Y2370D01*
X1296000Y2370D01*
X1295000Y2370D01*
X1294000Y2370D01*
X1293000Y2370D01*
X1292000Y2370D01*
X1291000Y2370D01*
X1290000Y2370D01*
X1289000Y2370D01*
X1288000Y2370D01*
X1287000Y2370D01*
X1286000Y2370D01*
X1285000Y2370D01*
X1284000Y2370D01*
X1283000Y2370D01*
X1282000Y2370D01*
X1281000Y2370D01*
X1280000Y2370D01*
X1279000Y2370D01*
X1278000Y2370D01*
X1277000Y2370D01*
X1276000Y2370D01*
X1275000Y2370D01*
X1274000Y2370D01*
X1273000Y2370D01*
X1272000Y2370D01*
X1271000Y2370D01*
X1270000Y2370D01*
X1269000Y2370D01*
X1268000Y2370D01*
X1267000Y2370D01*
X1266000Y2370D01*
X1265000Y2370D01*
X1264000Y2370D01*
X1263000Y2370D01*
X1262000Y2370D01*
X1261000Y2370D01*
X1260000Y2370D01*
X1259000Y2370D01*
X1258000Y2370D01*
X1257000Y2370D01*
X1256000Y2370D01*
X1255000Y2370D01*
X1254000Y2370D01*
X1253000Y2370D01*
X1252000Y2370D01*
X1251000Y2370D01*
X1250000Y2370D01*
X1249000Y2370D01*
X1248000Y2370D01*
X1247000Y2370D01*
X1246000Y2370D01*
X1245000Y2370D01*
X1244000Y2370D01*
X1243000Y2370D01*
X1242000Y2370D01*
X1241000Y2370D01*
X1240000Y2370D01*
X1239000Y2370D01*
X1238000Y2370D01*
X1237000Y2370D01*
X1236000Y2370D01*
X1235000Y2370D01*
X1234000Y2370D01*
X1233000Y2370D01*
X1232000Y2370D01*
X1231000Y2370D01*
X1230000Y2370D01*
X1229000Y2370D01*
X1228000Y2370D01*
X1227000Y2370D01*
X1226000Y2370D01*
X1225000Y2370D01*
X1224000Y2370D01*
X1223000Y2370D01*
X1222000Y2370D01*
X1221000Y2370D01*
X1220000Y2370D01*
X1219000Y2370D01*
X1218000Y2370D01*
X1217000Y2370D01*
X1216000Y2370D01*
X1215000Y2370D01*
X1214000Y2370D01*
X1213000Y2370D01*
X1212000Y2370D01*
X1211000Y2370D01*
X1210000Y2370D01*
X1209000Y2370D01*
X1208000Y2370D01*
X1207000Y2370D01*
X1206000Y2370D01*
X1205000Y2370D01*
X1204000Y2370D01*
X1203000Y2370D01*
X1202000Y2370D01*
X1201000Y2370D01*
X1200000Y2370D01*
X1199000Y2370D01*
X1198000Y2370D01*
X1197000Y2370D01*
X1196000Y2370D01*
X1195000Y2370D01*
X1194000Y2370D01*
X1193000Y2370D01*
X1192000Y2370D01*
X1191000Y2370D01*
X1190000Y2370D01*
X1189000Y2370D01*
X1188000Y2370D01*
X1187000Y2370D01*
X1186000Y2370D01*
X1185000Y2370D01*
X1184000Y2370D01*
X1183000Y2370D01*
X1182000Y2370D01*
X1181000Y2370D01*
X1180000Y2370D01*
X1179000Y2370D01*
X1178000Y2370D01*
X1177000Y2370D01*
X1176000Y2370D01*
X1175000Y2370D01*
X1174000Y2370D01*
X1173000Y2370D01*
X1172000Y2370D01*
X1171000Y2370D01*
X1170000Y2370D01*
X1169000Y2370D01*
X1168000Y2370D01*
X1167000Y2370D01*
X1166000Y2370D01*
X1165000Y2370D01*
X1164000Y2370D01*
X1163000Y2370D01*
X1162000Y2370D01*
X1161000Y2370D01*
X1160000Y2370D01*
X1159000Y2370D01*
X1158000Y2370D01*
X1157000Y2370D01*
X1156000Y2370D01*
X1155000Y2370D01*
X1154000Y2370D01*
X1153000Y2370D01*
X1152000Y2370D01*
X1151000Y2370D01*
X1150000Y2370D01*
X1149000Y2370D01*
X1148000Y2370D01*
X1147000Y2370D01*
X1146000Y2370D01*
X1145000Y2370D01*
X1144000Y2370D01*
X1143000Y2370D01*
X1142000Y2370D01*
X1141000Y2370D01*
X1140000Y2370D01*
X1139000Y2370D01*
X1138000Y2370D01*
X1137000Y2370D01*
X1136000Y2370D01*
X1135000Y2370D01*
X1134000Y2370D01*
X1133000Y2370D01*
X1132000Y2370D01*
X1131000Y2370D01*
X1130000Y2370D01*
X1129000Y2370D01*
X1128000Y2370D01*
X1127000Y2370D01*
X1126000Y2370D01*
X1125000Y2370D01*
X1124000Y2370D01*
X1123000Y2370D01*
X1122000Y2370D01*
X1121000Y2370D01*
X1120000Y2370D01*
X1119000Y2370D01*
X1118000Y2370D01*
X1117000Y2370D01*
X1116000Y2370D01*
X1115000Y2370D01*
X1114000Y2370D01*
X1113000Y2370D01*
X1112000Y2370D01*
X1111000Y2370D01*
X1110000Y2370D01*
X1109000Y2370D01*
X1108000Y2370D01*
X1107000Y2370D01*
X1106000Y2370D01*
X1105000Y2370D01*
X1104000Y2370D01*
X1103000Y2370D01*
X1102000Y2370D01*
X1101000Y2370D01*
X1100000Y2370D01*
X1099000Y2370D01*
X1098000Y2370D01*
X1097000Y2370D01*
X1096000Y2370D01*
X1095000Y2370D01*
X1094000Y2370D01*
X1093000Y2370D01*
X1092000Y2370D01*
X1091000Y2370D01*
X1090000Y2370D01*
X1089000Y2370D01*
X1088000Y2370D01*
X1087000Y2370D01*
X1086000Y2370D01*
X1085000Y2370D01*
X1084000Y2370D01*
X1083000Y2370D01*
X1082000Y2370D01*
X1081000Y2370D01*
X1080000Y2370D01*
X1079000Y2370D01*
X1078000Y2370D01*
X1077000Y2370D01*
X1076000Y2370D01*
X1075000Y2370D01*
X1074000Y2370D01*
X1073000Y2370D01*
X1072000Y2370D01*
X1071000Y2370D01*
X1070000Y2370D01*
X1069000Y2370D01*
X1068000Y2370D01*
X1067000Y2370D01*
X1066000Y2370D01*
X1065000Y2370D01*
X1064000Y2370D01*
X1063000Y2370D01*
X1062000Y2370D01*
X1061000Y2370D01*
X1060000Y2370D01*
X1059000Y2370D01*
X1058000Y2370D01*
X1057000Y2370D01*
X1056000Y2370D01*
X1055000Y2370D01*
X1054000Y2370D01*
X1053000Y2370D01*
X1052000Y2370D01*
X1051000Y2370D01*
X1050000Y2370D01*
X1049000Y2370D01*
X1048000Y2370D01*
X1047000Y2370D01*
X1046000Y2370D01*
X1045000Y2370D01*
X1044000Y2370D01*
X1043000Y2370D01*
X1042000Y2370D01*
X1041000Y2370D01*
X1040000Y2370D01*
X1039000Y2370D01*
X1038000Y2370D01*
X1037000Y2370D01*
X1036000Y2370D01*
X1035000Y2370D01*
X1034000Y2370D01*
X1033000Y2370D01*
X1032000Y2370D01*
X1031000Y2370D01*
X1030000Y2370D01*
X1029000Y2370D01*
X1028000Y2370D01*
X1027000Y2370D01*
X1026000Y2370D01*
X1025000Y2370D01*
X1024000Y2370D01*
X1023000Y2370D01*
X1022000Y2370D01*
X1021000Y2370D01*
X1020000Y2370D01*
X1019000Y2370D01*
X1018000Y2370D01*
X1017000Y2370D01*
X1016000Y2370D01*
X1015000Y2370D01*
X1014000Y2370D01*
X1013000Y2370D01*
X1012000Y2370D01*
X1011000Y2370D01*
X1010000Y2370D01*
X1009000Y2370D01*
X1008000Y2370D01*
X1007000Y2370D01*
X1006000Y2370D01*
X1005000Y2370D01*
X1004000Y2370D01*
X1003000Y2370D01*
X1002000Y2370D01*
X1001000Y2370D01*
X1000000Y2370D01*
X999000Y2370D01*
X998000Y2370D01*
X997000Y2370D01*
X996000Y2370D01*
X995000Y2370D01*
X994000Y2370D01*
X993000Y2370D01*
X992000Y2370D01*
X991000Y2370D01*
X990000Y2370D01*
X989000Y2370D01*
X988000Y2370D01*
X987000Y2370D01*
X986000Y2370D01*
X985000Y2370D01*
X984000Y2370D01*
X983000Y2370D01*
X982000Y2370D01*
X981000Y2370D01*
X980000Y2370D01*
X979000Y2370D01*
X978000Y2370D01*
X977000Y2370D01*
X976000Y2370D01*
X975000Y2370D01*
X974000Y2370D01*
X973000Y2370D01*
X972000Y2370D01*
X971000Y2370D01*
X970000Y2370D01*
X969000Y2370D01*
X968000Y2370D01*
X967000Y2370D01*
X966000Y2370D01*
X965000Y2370D01*
X964000Y2370D01*
X963000Y2370D01*
X962000Y2370D01*
X961000Y2370D01*
X960000Y2370D01*
X959000Y2370D01*
X958000Y2370D01*
X957000Y2370D01*
X956000Y2370D01*
X955000Y2370D01*
X954000Y2370D01*
X953000Y2370D01*
X952000Y2370D01*
X951000Y2370D01*
X950000Y2370D01*
X949000Y2370D01*
X948000Y2370D01*
X947000Y2370D01*
X946000Y2370D01*
X945000Y2370D01*
X944000Y2370D01*
X943000Y2370D01*
X942000Y2370D01*
X941000Y2370D01*
X940000Y2370D01*
X939000Y2370D01*
X938000Y2370D01*
X937000Y2370D01*
X936000Y2370D01*
X935000Y2370D01*
X934000Y2370D01*
X933000Y2370D01*
X932000Y2370D01*
X931000Y2370D01*
X930000Y2370D01*
X929000Y2370D01*
X928000Y2370D01*
X927000Y2370D01*
X926000Y2370D01*
X925000Y2370D01*
X924000Y2370D01*
X923000Y2370D01*
X922000Y2370D01*
X921000Y2370D01*
X920000Y2370D01*
X919000Y2370D01*
X918000Y2370D01*
X917000Y2370D01*
X916000Y2370D01*
X915000Y2370D01*
X914000Y2370D01*
X913000Y2370D01*
X912000Y2370D01*
X911000Y2370D01*
X910000Y2370D01*
X909000Y2370D01*
X908000Y2370D01*
X907000Y2370D01*
X906000Y2370D01*
X905000Y2370D01*
X904000Y2370D01*
X903000Y2370D01*
X902000Y2370D01*
X901000Y2370D01*
X900000Y2370D01*
X899000Y2370D01*
X898000Y2370D01*
X897000Y2370D01*
X896000Y2370D01*
X895000Y2370D01*
X894000Y2370D01*
X893000Y2370D01*
X892000Y2370D01*
X891000Y2370D01*
X890000Y2370D01*
X889000Y2370D01*
X888000Y2370D01*
X887000Y2370D01*
X886000Y2370D01*
X885000Y2370D01*
X884000Y2370D01*
X883000Y2370D01*
X882000Y2370D01*
X881000Y2370D01*
X880000Y2370D01*
X879000Y2370D01*
X878000Y2370D01*
X877000Y2370D01*
X876000Y2370D01*
X875000Y2370D01*
X874000Y2370D01*
X873000Y2370D01*
X872000Y2370D01*
X871000Y2370D01*
X870000Y2370D01*
X869000Y2370D01*
X868000Y2370D01*
X867000Y2370D01*
X866000Y2370D01*
X865000Y2370D01*
X864000Y2370D01*
X863000Y2370D01*
X862000Y2370D01*
X861000Y2370D01*
X860000Y2370D01*
X859000Y2370D01*
X858000Y2370D01*
X857000Y2370D01*
X856000Y2370D01*
X855000Y2370D01*
X854000Y2370D01*
X853000Y2370D01*
X852000Y2370D01*
X851000Y2370D01*
X850000Y2370D01*
X849000Y2370D01*
X848000Y2370D01*
X847000Y2370D01*
X846000Y2370D01*
X845000Y2370D01*
X844000Y2370D01*
X843000Y2370D01*
X842000Y2370D01*
X841000Y2370D01*
X840000Y2370D01*
X839000Y2370D01*
X838000Y2370D01*
X837000Y2370D01*
X836000Y2370D01*
X835000Y2370D01*
X834000Y2370D01*
X833000Y2370D01*
X832000Y2370D01*
X831000Y2370D01*
X830000Y2370D01*
X829000Y2370D01*
X828000Y2370D01*
X827000Y2370D01*
X826000Y2370D01*
X825000Y2370D01*
X824000Y2370D01*
X823000Y2370D01*
X822000Y2370D01*
X821000Y2370D01*
X820000Y2370D01*
X819000Y2370D01*
X818000Y2370D01*
X817000Y2370D01*
X816000Y2370D01*
X815000Y2370D01*
X814000Y2370D01*
X813000Y2370D01*
X812000Y2370D01*
X811000Y2370D01*
X810000Y2370D01*
X809000Y2370D01*
X808000Y2370D01*
X807000Y2370D01*
X806000Y2370D01*
X805000Y2370D01*
X804000Y2370D01*
X803000Y2370D01*
X802000Y2370D01*
X801000Y2370D01*
X800000Y2370D01*
X799000Y2370D01*
X798000Y2370D01*
X797000Y2370D01*
X796000Y2370D01*
X795000Y2370D01*
X794000Y2370D01*
X793000Y2370D01*
X792000Y2370D01*
X791000Y2370D01*
X790000Y2370D01*
X789000Y2370D01*
X788000Y2370D01*
X787000Y2370D01*
X786000Y2370D01*
X785000Y2370D01*
X784000Y2370D01*
X783000Y2370D01*
X782000Y2370D01*
X781000Y2370D01*
X780000Y2370D01*
X779000Y2370D01*
X778000Y2370D01*
X777000Y2370D01*
X776000Y2370D01*
X775000Y2370D01*
X774000Y2370D01*
X773000Y2370D01*
X772000Y2370D01*
X771000Y2370D01*
X770000Y2370D01*
X769000Y2370D01*
X768000Y2370D01*
X767000Y2370D01*
X766000Y2370D01*
X765000Y2370D01*
X764000Y2370D01*
X763000Y2370D01*
X762000Y2370D01*
X761000Y2370D01*
X760000Y2370D01*
X759000Y2370D01*
X758000Y2370D01*
X757000Y2370D01*
X756000Y2370D01*
X755000Y2370D01*
X754000Y2370D01*
X753000Y2370D01*
X752000Y2370D01*
X751000Y2370D01*
X750000Y2370D01*
X749000Y2370D01*
X748000Y2370D01*
X747000Y2370D01*
X746000Y2370D01*
X745000Y2370D01*
X744000Y2370D01*
X743000Y2370D01*
X742000Y2370D01*
X741000Y2370D01*
X740000Y2370D01*
X739000Y2370D01*
X738000Y2370D01*
X737000Y2370D01*
X736000Y2370D01*
X735000Y2370D01*
X734000Y2370D01*
X733000Y2370D01*
X732000Y2370D01*
X731000Y2370D01*
X730000Y2370D01*
X729000Y2370D01*
X728000Y2370D01*
X727000Y2370D01*
X726000Y2370D01*
X725000Y2370D01*
X724000Y2370D01*
X723000Y2370D01*
X722000Y2370D01*
X721000Y2370D01*
X720000Y2370D01*
X719000Y2370D01*
X718000Y2370D01*
X717000Y2370D01*
X716000Y2370D01*
X715000Y2370D01*
X714000Y2370D01*
X713000Y2370D01*
X712000Y2370D01*
X711000Y2370D01*
X710000Y2370D01*
X709000Y2370D01*
X708000Y2370D01*
X707000Y2370D01*
X706000Y2370D01*
X705000Y2370D01*
X704000Y2370D01*
X703000Y2370D01*
X702000Y2370D01*
X701000Y2370D01*
X700000Y2370D01*
X699000Y2370D01*
X698000Y2370D01*
X697000Y2370D01*
X696000Y2370D01*
X695000Y2370D01*
X694000Y2370D01*
X693000Y2370D01*
X692000Y2370D01*
X691000Y2370D01*
X690000Y2370D01*
X689000Y2370D01*
X688000Y2370D01*
X687000Y2370D01*
X686000Y2370D01*
X685000Y2370D01*
X684000Y2370D01*
X683000Y2370D01*
X682000Y2370D01*
X681000Y2370D01*
X680000Y2370D01*
X679000Y2370D01*
X678000Y2370D01*
X677000Y2370D01*
X676000Y2370D01*
X675000Y2370D01*
X674000Y2370D01*
X673000Y2370D01*
X672000Y2370D01*
X671000Y2370D01*
X670000Y2370D01*
X669000Y2370D01*
X668000Y2370D01*
X667000Y2370D01*
X666000Y2370D01*
X665000Y2370D01*
X664000Y2370D01*
X663000Y2370D01*
X662000Y2370D01*
X661000Y2370D01*
X660000Y2370D01*
X659000Y2370D01*
X658000Y2370D01*
X657000Y2370D01*
X656000Y2370D01*
X655000Y2370D01*
X654000Y2370D01*
X653000Y2370D01*
X652000Y2370D01*
X651000Y2370D01*
X650000Y2370D01*
X649000Y2370D01*
X648000Y2370D01*
X647000Y2370D01*
X646000Y2370D01*
X645000Y2370D01*
X644000Y2370D01*
X643000Y2370D01*
X642000Y2370D01*
X641000Y2370D01*
X640000Y2370D01*
X639000Y2370D01*
X638000Y2370D01*
X637000Y2370D01*
X636000Y2370D01*
X635000Y2370D01*
X634000Y2370D01*
X633000Y2370D01*
X632000Y2370D01*
X631000Y2370D01*
X630000Y2370D01*
X629000Y2370D01*
X628000Y2370D01*
X627000Y2370D01*
X626000Y2370D01*
X625000Y2370D01*
X624000Y2370D01*
X623000Y2370D01*
X622000Y2370D01*
X621000Y2370D01*
X620000Y2370D01*
X619000Y2370D01*
X618000Y2370D01*
X617000Y2370D01*
X616000Y2370D01*
X615000Y2370D01*
X614000Y2370D01*
X613000Y2370D01*
X612000Y2370D01*
X611000Y2370D01*
X610000Y2370D01*
X609000Y2370D01*
X608000Y2370D01*
X607000Y2370D01*
X606000Y2370D01*
X605000Y2370D01*
X604000Y2370D01*
X603000Y2370D01*
X602000Y2370D01*
X601000Y2370D01*
X600000Y2370D01*
X599000Y2370D01*
X598000Y2370D01*
X597000Y2370D01*
X596000Y2370D01*
X595000Y2370D01*
X594000Y2370D01*
X593000Y2370D01*
X592000Y2370D01*
X591000Y2370D01*
X590000Y2370D01*
X589000Y2370D01*
X588000Y2370D01*
X587000Y2370D01*
X586000Y2370D01*
X585000Y2370D01*
X584000Y2370D01*
X583000Y2370D01*
X582000Y2370D01*
X581000Y2370D01*
X580000Y2370D01*
X579000Y2370D01*
X578000Y2370D01*
X577000Y2370D01*
X576000Y2370D01*
X575000Y2370D01*
X574000Y2370D01*
X573000Y2370D01*
X572000Y2370D01*
X571000Y2370D01*
X570000Y2370D01*
X569000Y2370D01*
X568000Y2370D01*
X567000Y2370D01*
X566000Y2370D01*
X565000Y2370D01*
X564000Y2370D01*
X563000Y2370D01*
X562000Y2370D01*
X561000Y2370D01*
X560000Y2370D01*
X559000Y2370D01*
X558000Y2370D01*
X557000Y2370D01*
X556000Y2370D01*
X555000Y2370D01*
X554000Y2370D01*
X553000Y2370D01*
X552000Y2370D01*
X551000Y2370D01*
X550000Y2370D01*
X549000Y2370D01*
X548000Y2370D01*
X547000Y2370D01*
X546000Y2370D01*
X545000Y2370D01*
X544000Y2370D01*
X543000Y2370D01*
X542000Y2370D01*
X541000Y2370D01*
X540000Y2370D01*
X539000Y2370D01*
X538000Y2370D01*
X537000Y2370D01*
X536000Y2370D01*
X535000Y2370D01*
X534000Y2370D01*
X533000Y2370D01*
X532000Y2370D01*
X531000Y2370D01*
X530000Y2370D01*
X529000Y2370D01*
X528000Y2370D01*
X527000Y2370D01*
X526000Y2370D01*
X525000Y2370D01*
X524000Y2370D01*
X523000Y2370D01*
X522000Y2370D01*
X521000Y2370D01*
X520000Y2370D01*
X519000Y2370D01*
X518000Y2370D01*
X517000Y2370D01*
X516000Y2370D01*
X515000Y2370D01*
X514000Y2370D01*
X513000Y2370D01*
X512000Y2370D01*
X511000Y2370D01*
X510000Y2370D01*
X509000Y2370D01*
X508000Y2370D01*
X507000Y2370D01*
X506000Y2370D01*
X505000Y2370D01*
X504000Y2370D01*
X503000Y2370D01*
X502000Y2370D01*
X501000Y2370D01*
X500000Y2370D01*
X499000Y2370D01*
X498000Y2370D01*
X497000Y2370D01*
X496000Y2370D01*
X495000Y2370D01*
X494000Y2370D01*
X493000Y2370D01*
X492000Y2370D01*
X491000Y2370D01*
X490000Y2370D01*
X489000Y2370D01*
X488000Y2370D01*
X487000Y2370D01*
X486000Y2370D01*
X485000Y2370D01*
X484000Y2370D01*
X483000Y2370D01*
X482000Y2370D01*
X481000Y2370D01*
X480000Y2370D01*
X479000Y2370D01*
X478000Y2370D01*
X477000Y2370D01*
X476000Y2370D01*
X475000Y2370D01*
X474000Y2370D01*
X473000Y2370D01*
X472000Y2370D01*
X471000Y2370D01*
X470000Y2370D01*
X469000Y2370D01*
X468000Y2370D01*
X467000Y2370D01*
X466000Y2370D01*
X465000Y2370D01*
X464000Y2370D01*
X463000Y2370D01*
X462000Y2370D01*
X461000Y2370D01*
X460000Y2370D01*
X459000Y2370D01*
X458000Y2370D01*
X457000Y2370D01*
X456000Y2370D01*
X455000Y2370D01*
X454000Y2370D01*
X453000Y2370D01*
X452000Y2370D01*
X451000Y2370D01*
X450000Y2370D01*
X449000Y2370D01*
X448000Y2370D01*
X447000Y2370D01*
X446000Y2370D01*
X445000Y2370D01*
X444000Y2370D01*
X443000Y2370D01*
X442000Y2370D01*
X441000Y2370D01*
X440000Y2370D01*
X439000Y2370D01*
X438000Y2370D01*
X437000Y2370D01*
X436000Y2370D01*
X435000Y2370D01*
X434000Y2370D01*
X433000Y2370D01*
X432000Y2370D01*
X431000Y2370D01*
X430000Y2370D01*
X429000Y2370D01*
X428000Y2370D01*
X427000Y2370D01*
X426000Y2370D01*
X425000Y2370D01*
X424000Y2370D01*
X423000Y2370D01*
X422000Y2370D01*
X421000Y2370D01*
X420000Y2370D01*
X419000Y2370D01*
X418000Y2370D01*
X417000Y2370D01*
X416000Y2370D01*
X415000Y2370D01*
X414000Y2370D01*
X413000Y2370D01*
X412000Y2370D01*
X411000Y2370D01*
X410000Y2370D01*
X409000Y2370D01*
X408000Y2370D01*
X407000Y2370D01*
X406000Y2370D01*
X405000Y2370D01*
X404000Y2370D01*
X403000Y2370D01*
X402000Y2370D01*
X401000Y2370D01*
X400000Y2370D01*
X399000Y2370D01*
X398000Y2370D01*
X397000Y2370D01*
X396000Y2370D01*
X395000Y2370D01*
X394000Y2370D01*
X393000Y2370D01*
X392000Y2370D01*
X391000Y2370D01*
X390000Y2370D01*
X389000Y2370D01*
X388000Y2370D01*
X387000Y2370D01*
X386000Y2370D01*
X385000Y2370D01*
X384000Y2370D01*
X383000Y2370D01*
X382000Y2370D01*
X381000Y2370D01*
X380000Y2370D01*
X379000Y2370D01*
X378000Y2370D01*
X377000Y2370D01*
X376000Y2370D01*
X375000Y2370D01*
X374000Y2370D01*
X373000Y2370D01*
X372000Y2370D01*
X371000Y2370D01*
X370000Y2370D01*
X369000Y2370D01*
X368000Y2370D01*
X367000Y2370D01*
X366000Y2370D01*
X365000Y2370D01*
X364000Y2370D01*
X363000Y2370D01*
X362000Y2370D01*
X361000Y2370D01*
X360000Y2370D01*
X359000Y2370D01*
X358000Y2370D01*
X357000Y2370D01*
X356000Y2370D01*
X355000Y2370D01*
X354000Y2370D01*
X353000Y2370D01*
X352000Y2370D01*
X351000Y2370D01*
X350000Y2370D01*
X349000Y2370D01*
X348000Y2370D01*
X347000Y2370D01*
X346000Y2370D01*
X345000Y2370D01*
X344000Y2370D01*
X343000Y2370D01*
X342000Y2370D01*
X341000Y2370D01*
X340000Y2370D01*
X339000Y2370D01*
X338000Y2370D01*
X337000Y2370D01*
X336000Y2370D01*
X335000Y2370D01*
X334000Y2370D01*
X333000Y2370D01*
X332000Y2370D01*
X331000Y2370D01*
X330000Y2370D01*
X329000Y2370D01*
X328000Y2370D01*
X327000Y2370D01*
X326000Y2370D01*
X325000Y2370D01*
X324000Y2370D01*
X323000Y2370D01*
X322000Y2370D01*
X321000Y2370D01*
X320000Y2370D01*
X319000Y2370D01*
X318000Y2370D01*
X317000Y2370D01*
X316000Y2370D01*
X315000Y2370D01*
X314000Y2370D01*
X313000Y2370D01*
X312000Y2370D01*
X311000Y2370D01*
X310000Y2370D01*
X309000Y2370D01*
X308000Y2370D01*
X307000Y2370D01*
X306000Y2370D01*
X305000Y2370D01*
X304000Y2370D01*
X303000Y2370D01*
X302000Y2370D01*
X301000Y2370D01*
X300000Y2370D01*
X299000Y2370D01*
X298000Y2370D01*
X297000Y2370D01*
X296000Y2370D01*
X295000Y2370D01*
X294000Y2370D01*
X293000Y2370D01*
X292000Y2370D01*
X291000Y2370D01*
X290000Y2370D01*
X289000Y2370D01*
X288000Y2370D01*
X287000Y2370D01*
X286000Y2370D01*
X285000Y2370D01*
X284000Y2370D01*
X283000Y2370D01*
X282000Y2370D01*
X281000Y2370D01*
X280000Y2370D01*
X279000Y2370D01*
X278000Y2370D01*
X277000Y2370D01*
X276000Y2370D01*
X275000Y2370D01*
X274000Y2370D01*
X273000Y2370D01*
X272000Y2370D01*
X271000Y2370D01*
X270000Y2370D01*
X269000Y2370D01*
X268000Y2370D01*
X267000Y2370D01*
X266000Y2370D01*
X265000Y2370D01*
X264000Y2370D01*
X263000Y2370D01*
X262000Y2370D01*
X261000Y2370D01*
X260000Y2370D01*
X259000Y2370D01*
X258000Y2370D01*
X257000Y2370D01*
X256000Y2370D01*
X255000Y2370D01*
X254000Y2370D01*
X253000Y2370D01*
X252000Y2370D01*
X251000Y2370D01*
X250000Y2370D01*
X249000Y2370D01*
X248000Y2370D01*
X247000Y2370D01*
X246000Y2370D01*
X245000Y2370D01*
X244000Y2370D01*
X243000Y2370D01*
X242000Y2370D01*
X241000Y2370D01*
X240000Y2370D01*
X239000Y2370D01*
X238000Y2370D01*
X237000Y2370D01*
X236000Y2370D01*
X235000Y2370D01*
X234000Y2370D01*
X233000Y2370D01*
X232000Y2370D01*
X231000Y2370D01*
X230000Y2370D01*
X229000Y2370D01*
X228000Y2370D01*
X227000Y2370D01*
X226000Y2370D01*
X225000Y2370D01*
X224000Y2370D01*
X223000Y2370D01*
X222000Y2370D01*
X221000Y2370D01*
X220000Y2370D01*
X219000Y2370D01*
X218000Y2370D01*
X217000Y2370D01*
X216000Y2370D01*
X215000Y2370D01*
X214000Y2370D01*
X213000Y2370D01*
X212000Y2370D01*
X211000Y2370D01*
X210000Y2370D01*
X209000Y2370D01*
X208000Y2370D01*
X207000Y2370D01*
X206000Y2370D01*
X205000Y2370D01*
X204000Y2370D01*
X203000Y2370D01*
X202000Y2370D01*
X201000Y2370D01*
X200000Y2370D01*
X199000Y2370D01*
X198000Y2370D01*
X197000Y2370D01*
X196000Y2370D01*
X195000Y2370D01*
X194000Y2370D01*
X193000Y2370D01*
X192000Y2370D01*
X191000Y2370D01*
X190000Y2370D01*
X189000Y2370D01*
X188000Y2370D01*
X187000Y2370D01*
X186000Y2370D01*
X185000Y2370D01*
X184000Y2370D01*
X183000Y2370D01*
X182000Y2370D01*
X181000Y2370D01*
X180000Y2370D01*
X179000Y2370D01*
X178000Y2370D01*
X177000Y2370D01*
X176000Y2370D01*
X175000Y2370D01*
X174000Y2370D01*
X173000Y2370D01*
X172000Y2370D01*
X171000Y2370D01*
X170000Y2370D01*
X169000Y2370D01*
X168000Y2370D01*
X167000Y2370D01*
X166000Y2370D01*
X165000Y2370D01*
X164000Y2370D01*
X163000Y2370D01*
X162000Y2370D01*
X161000Y2370D01*
X160000Y2370D01*
X159000Y2370D01*
X158000Y2370D01*
X157000Y2370D01*
X156000Y2370D01*
X155000Y2370D01*
X154000Y2370D01*
X153000Y2370D01*
X152000Y2370D01*
X151000Y2370D01*
X150000Y2370D01*
X149000Y2370D01*
X148000Y2370D01*
X147000Y2370D01*
X146000Y2370D01*
X145000Y2370D01*
X144000Y2370D01*
X143000Y2370D01*
X142000Y2370D01*
X141000Y2370D01*
X140000Y2370D01*
X139000Y2370D01*
X138000Y2370D01*
X137000Y2370D01*
X136000Y2370D01*
X135000Y2370D01*
X134000Y2370D01*
X133000Y2370D01*
X132000Y2370D01*
X131000Y2370D01*
X130000Y2370D01*
X129000Y2370D01*
X128000Y2370D01*
X127000Y2370D01*
X126000Y2370D01*
X125000Y2370D01*
X124000Y2370D01*
X123000Y2370D01*
X122000Y2370D01*
X121000Y2370D01*
X120000Y2370D01*
X119000Y2370D01*
X118000Y2370D01*
X117000Y2370D01*
X116000Y2370D01*
X115000Y2370D01*
X114000Y2370D01*
X113000Y2370D01*
X112000Y2370D01*
X111000Y2370D01*
X110000Y2370D01*
X109000Y2370D01*
X108000Y2370D01*
X107000Y2370D01*
X106000Y2370D01*
X105000Y2370D01*
X104000Y2370D01*
X103000Y2370D01*
X102000Y2370D01*
X101000Y2370D01*
X100000Y2370D01*
X99000Y2370D01*
X98000Y2370D01*
X97000Y2370D01*
X96000Y2370D01*
X95000Y2370D01*
X94000Y2370D01*
X93000Y2370D01*
X92000Y2370D01*
X91000Y2370D01*
X90000Y2370D01*
X89000Y2370D01*
X88000Y2370D01*
X87000Y2370D01*
X86000Y2370D01*
X85000Y2370D01*
X84000Y2370D01*
X83000Y2370D01*
X82000Y2370D01*
X81000Y2370D01*
X80000Y2370D01*
X79000Y2370D01*
X78000Y2370D01*
X77000Y2370D01*
X76000Y2370D01*
X75000Y2370D01*
X74000Y2370D01*
X73000Y2370D01*
X72000Y2370D01*
X71000Y2370D01*
X70000Y2370D01*
X69000Y2370D01*
X68000Y2370D01*
X67000Y2370D01*
X66000Y2370D01*
X65000Y2370D01*
X64000Y2370D01*
X63000Y2370D01*
X62000Y2370D01*
X61000Y2370D01*
X60000Y2370D01*
X59000Y2370D01*
X58000Y2370D01*
X57000Y2370D01*
X56000Y2370D01*
X55000Y2370D01*
X54000Y2370D01*
X53000Y2370D01*
X52000Y2370D01*
X51000Y2370D01*
X50000Y2370D01*
X49000Y1370D01*
X48000Y1370D01*
X47000Y1370D01*
X46000Y1370D01*
X45000Y1370D01*
X44000Y1370D01*
X43000Y1370D01*
X42000Y1370D01*
X41000Y1370D01*
X40000Y1370D01*
X39000Y1370D01*
X38000Y1370D01*
X37000Y1370D01*
X36000Y1370D01*
X35000Y1370D01*
X34000Y1370D01*
X33000Y1370D01*
X32000Y1370D01*
X31000Y1370D01*
X30000Y1370D01*
X29000Y1370D01*
X28000Y1370D01*
X27000Y1370D01*
X26000Y1370D01*
X25000Y1370D01*
X24000Y1370D01*
X23000Y1370D01*
X22000Y1370D01*
X21000Y1370D01*
X20000Y1370D01*
X19000Y1370D01*
X18000Y1370D01*
X17000Y1370D01*
X16000Y1370D01*
X15000Y2370D01*
X14000Y2370D01*
X13000Y2370D01*
X12000Y2370D01*
X11000Y3370D01*
X10000Y3370D01*
X9000Y4370D01*
X8000Y4370D01*
X7000Y5370D01*
X7000Y6370D01*
X6000Y7370D01*
X5000Y8370D01*
X5000Y11370D01*
X4000Y12370D01*
X4000Y25370D01*
X3000Y26370D01*
X3000Y1643370D01*
X2000Y1644370D01*
X2000Y3459370D01*
X1000Y3460370D01*
X1000Y4955370D01*
X0Y4956370D01*
X0Y5002370D01*
X1000Y5003370D01*
X1000Y5010370D01*
X2000Y5011370D01*
X2000Y5015370D01*
X3000Y5016370D01*
X3000Y5018370D01*
X4000Y5019370D01*
X4000Y5020370D01*
X5000Y5021370D01*
X5000Y5022370D01*
X6000Y5023370D01*
X6000Y5024370D01*
X7000Y5025370D01*
X8000Y5026370D01*
X9000Y5027370D01*
X10000Y5028370D01*
X11000Y5029370D01*
X12000Y5030370D01*
X13000Y5031370D01*
X14000Y5031370D01*
X15000Y5032370D01*
X16000Y5032370D01*
X17000Y5033370D01*
X18000Y5033370D01*
X19000Y5033370D01*
X20000Y5034370D01*
X21000Y5034370D01*
X22000Y5035370D01*
X23000Y5035370D01*
X24000Y5035370D01*
X25000Y5035370D01*
X26000Y5036370D01*
X27000Y5036370D01*
X28000Y5036370D01*
X29000Y5036370D01*
X30000Y5036370D01*
X31000Y5036370D01*
X32000Y5037370D01*
X33000Y5037370D01*
X34000Y5037370D01*
X35000Y5037370D01*
X36000Y5037370D01*
X37000Y5037370D01*
X38000Y5037370D01*
X39000Y5037370D01*
X40000Y5038370D01*
X41000Y5038370D01*
X42000Y5038370D01*
X43000Y5038370D01*
X44000Y5038370D01*
X45000Y5038370D01*
X46000Y5038370D01*
X47000Y5038370D01*
X48000Y5038370D01*
X49000Y5038370D01*
X50000Y5038370D01*
X51000Y5038370D01*
X52000Y5038370D01*
X53000Y5038370D01*
X54000Y5038370D01*
X55000Y5038370D01*
X56000Y5038370D01*
X57000Y5038370D01*
X58000Y5038370D01*
X59000Y5038370D01*
X60000Y5038370D01*
X61000Y5038370D01*
X62000Y5038370D01*
X63000Y5038370D01*
X64000Y5038370D01*
X65000Y5038370D01*
X66000Y5038370D01*
X67000Y5038370D01*
X68000Y5038370D01*
X69000Y5038370D01*
X70000Y5038370D01*
X71000Y5038370D01*
X72000Y5038370D01*
X73000Y5038370D01*
X74000Y5038370D01*
X75000Y5038370D01*
X76000Y5038370D01*
X77000Y5038370D01*
X78000Y5038370D01*
X79000Y5038370D01*
X80000Y5038370D01*
X81000Y5038370D01*
X82000Y5038370D01*
X83000Y5038370D01*
X84000Y5038370D01*
X85000Y5038370D01*
X86000Y5038370D01*
X87000Y5038370D01*
X88000Y5038370D01*
X89000Y5038370D01*
X90000Y5038370D01*
X91000Y5038370D01*
X92000Y5038370D01*
X93000Y5038370D01*
X94000Y5038370D01*
X95000Y5038370D01*
X96000Y5038370D01*
X97000Y5038370D01*
X98000Y5038370D01*
X99000Y5038370D01*
X100000Y5038370D01*
X101000Y5038370D01*
X102000Y5038370D01*
X103000Y5038370D01*
X104000Y5038370D01*
X105000Y5038370D01*
X106000Y5038370D01*
X107000Y5038370D01*
X108000Y5038370D01*
X109000Y5038370D01*
X110000Y5038370D01*
X111000Y5038370D01*
X112000Y5038370D01*
X113000Y5038370D01*
X114000Y5038370D01*
X115000Y5038370D01*
X116000Y5038370D01*
X117000Y5038370D01*
X118000Y5038370D01*
X119000Y5038370D01*
X120000Y5038370D01*
X121000Y5038370D01*
X122000Y5038370D01*
X123000Y5038370D01*
X124000Y5038370D01*
X125000Y5038370D01*
X126000Y5038370D01*
X127000Y5038370D01*
X128000Y5038370D01*
X129000Y5038370D01*
X130000Y5038370D01*
X131000Y5038370D01*
X132000Y5038370D01*
X133000Y5038370D01*
X134000Y5038370D01*
X135000Y5038370D01*
X136000Y5038370D01*
X137000Y5038370D01*
X138000Y5038370D01*
X139000Y5038370D01*
X140000Y5038370D01*
X141000Y5038370D01*
X142000Y5038370D01*
X143000Y5038370D01*
X144000Y5038370D01*
X145000Y5038370D01*
X146000Y5038370D01*
X147000Y5038370D01*
X148000Y5038370D01*
X149000Y5038370D01*
X150000Y5038370D01*
X151000Y5038370D01*
X152000Y5038370D01*
X153000Y5038370D01*
X154000Y5038370D01*
X155000Y5038370D01*
X156000Y5038370D01*
X157000Y5038370D01*
X158000Y5038370D01*
X159000Y5038370D01*
X160000Y5038370D01*
X161000Y5038370D01*
X162000Y5038370D01*
X163000Y5038370D01*
X164000Y5038370D01*
X165000Y5038370D01*
X166000Y5038370D01*
X167000Y5038370D01*
X168000Y5038370D01*
X169000Y5038370D01*
X170000Y5038370D01*
X171000Y5038370D01*
X172000Y5038370D01*
X173000Y5038370D01*
X174000Y5038370D01*
X175000Y5038370D01*
X176000Y5038370D01*
X177000Y5038370D01*
X178000Y5038370D01*
X179000Y5038370D01*
X180000Y5038370D01*
X181000Y5038370D01*
X182000Y5038370D01*
X183000Y5038370D01*
X184000Y5038370D01*
X185000Y5038370D01*
X186000Y5038370D01*
X187000Y5038370D01*
X188000Y5038370D01*
X189000Y5038370D01*
X190000Y5038370D01*
X191000Y5038370D01*
X192000Y5038370D01*
X193000Y5038370D01*
X194000Y5038370D01*
X195000Y5038370D01*
X196000Y5038370D01*
X197000Y5038370D01*
X198000Y5038370D01*
X199000Y5038370D01*
X200000Y5038370D01*
X201000Y5038370D01*
X202000Y5038370D01*
X203000Y5038370D01*
X204000Y5038370D01*
X205000Y5038370D01*
X206000Y5038370D01*
X207000Y5038370D01*
X208000Y5038370D01*
X209000Y5038370D01*
X210000Y5038370D01*
X211000Y5038370D01*
X212000Y5038370D01*
X213000Y5038370D01*
X214000Y5038370D01*
X215000Y5038370D01*
X216000Y5038370D01*
X217000Y5038370D01*
X218000Y5038370D01*
X219000Y5038370D01*
X220000Y5038370D01*
X221000Y5038370D01*
X222000Y5038370D01*
X223000Y5038370D01*
X224000Y5038370D01*
X225000Y5038370D01*
X226000Y5038370D01*
X227000Y5038370D01*
X228000Y5038370D01*
X229000Y5038370D01*
X230000Y5038370D01*
X231000Y5038370D01*
X232000Y5038370D01*
X233000Y5038370D01*
X234000Y5038370D01*
X235000Y5038370D01*
X236000Y5038370D01*
X237000Y5038370D01*
X238000Y5038370D01*
X239000Y5038370D01*
X240000Y5038370D01*
X241000Y5038370D01*
X242000Y5038370D01*
X243000Y5038370D01*
X244000Y5038370D01*
X245000Y5038370D01*
X246000Y5038370D01*
X247000Y5038370D01*
X248000Y5038370D01*
X249000Y5038370D01*
X250000Y5038370D01*
X251000Y5038370D01*
X252000Y5038370D01*
X253000Y5038370D01*
X254000Y5038370D01*
X255000Y5038370D01*
X256000Y5038370D01*
X257000Y5038370D01*
X258000Y5038370D01*
X259000Y5038370D01*
X260000Y5038370D01*
X261000Y5038370D01*
X262000Y5038370D01*
X263000Y5038370D01*
X264000Y5038370D01*
X265000Y5038370D01*
X266000Y5038370D01*
X267000Y5038370D01*
X268000Y5038370D01*
X269000Y5038370D01*
X270000Y5038370D01*
X271000Y5038370D01*
X272000Y5038370D01*
X273000Y5038370D01*
X274000Y5038370D01*
X275000Y5038370D01*
X276000Y5038370D01*
X277000Y5038370D01*
X278000Y5038370D01*
X279000Y5038370D01*
X280000Y5038370D01*
X281000Y5038370D01*
X282000Y5038370D01*
X283000Y5038370D01*
X284000Y5038370D01*
X285000Y5038370D01*
X286000Y5038370D01*
X287000Y5038370D01*
X288000Y5038370D01*
X289000Y5038370D01*
X290000Y5038370D01*
X291000Y5038370D01*
X292000Y5038370D01*
X293000Y5038370D01*
X294000Y5038370D01*
X295000Y5038370D01*
X296000Y5038370D01*
X297000Y5038370D01*
X298000Y5038370D01*
X299000Y5038370D01*
X300000Y5038370D01*
X301000Y5038370D01*
X302000Y5038370D01*
X303000Y5038370D01*
X304000Y5038370D01*
X305000Y5038370D01*
X306000Y5038370D01*
X307000Y5038370D01*
X308000Y5038370D01*
X309000Y5038370D01*
X310000Y5038370D01*
X311000Y5038370D01*
X312000Y5038370D01*
X313000Y5038370D01*
X314000Y5038370D01*
X315000Y5038370D01*
X316000Y5038370D01*
X317000Y5038370D01*
X318000Y5038370D01*
X319000Y5038370D01*
X320000Y5038370D01*
X321000Y5038370D01*
X322000Y5038370D01*
X323000Y5038370D01*
X324000Y5038370D01*
X325000Y5038370D01*
X326000Y5038370D01*
X327000Y5038370D01*
X328000Y5038370D01*
X329000Y5038370D01*
X330000Y5038370D01*
X331000Y5038370D01*
X332000Y5038370D01*
X333000Y5038370D01*
X334000Y5038370D01*
X335000Y5038370D01*
X336000Y5038370D01*
X337000Y5038370D01*
X338000Y5038370D01*
X339000Y5038370D01*
X340000Y5038370D01*
X341000Y5038370D01*
X342000Y5038370D01*
X343000Y5038370D01*
X344000Y5038370D01*
X345000Y5038370D01*
X346000Y5038370D01*
X347000Y5038370D01*
X348000Y5038370D01*
X349000Y5038370D01*
X350000Y5038370D01*
X351000Y5038370D01*
X352000Y5038370D01*
X353000Y5038370D01*
X354000Y5038370D01*
X355000Y5038370D01*
X356000Y5038370D01*
X357000Y5038370D01*
X358000Y5038370D01*
X359000Y5038370D01*
X360000Y5038370D01*
X361000Y5038370D01*
X362000Y5038370D01*
X363000Y5038370D01*
X364000Y5038370D01*
X365000Y5038370D01*
X366000Y5038370D01*
X367000Y5038370D01*
X368000Y5038370D01*
X369000Y5038370D01*
X370000Y5038370D01*
X371000Y5038370D01*
X372000Y5038370D01*
X373000Y5038370D01*
X374000Y5038370D01*
X375000Y5038370D01*
X376000Y5038370D01*
X377000Y5038370D01*
X378000Y5038370D01*
X379000Y5038370D01*
X380000Y5038370D01*
X381000Y5038370D01*
X382000Y5038370D01*
X383000Y5038370D01*
X384000Y5038370D01*
X385000Y5038370D01*
X386000Y5038370D01*
X387000Y5038370D01*
X388000Y5038370D01*
X389000Y5038370D01*
X390000Y5038370D01*
X391000Y5038370D01*
X392000Y5038370D01*
X393000Y5038370D01*
X394000Y5038370D01*
X395000Y5038370D01*
X396000Y5038370D01*
X397000Y5038370D01*
X398000Y5038370D01*
X399000Y5038370D01*
X400000Y5038370D01*
X401000Y5038370D01*
X402000Y5038370D01*
X403000Y5038370D01*
X404000Y5038370D01*
X405000Y5038370D01*
X406000Y5038370D01*
X407000Y5038370D01*
X408000Y5038370D01*
X409000Y5038370D01*
X410000Y5038370D01*
X411000Y5038370D01*
X412000Y5038370D01*
X413000Y5038370D01*
X414000Y5038370D01*
X415000Y5038370D01*
X416000Y5038370D01*
X417000Y5038370D01*
X418000Y5038370D01*
X419000Y5038370D01*
X420000Y5038370D01*
X421000Y5038370D01*
X422000Y5038370D01*
X423000Y5038370D01*
X424000Y5038370D01*
X425000Y5038370D01*
X426000Y5038370D01*
X427000Y5038370D01*
X428000Y5038370D01*
X429000Y5038370D01*
X430000Y5038370D01*
X431000Y5038370D01*
X432000Y5038370D01*
X433000Y5038370D01*
X434000Y5038370D01*
X435000Y5038370D01*
X436000Y5038370D01*
X437000Y5038370D01*
X438000Y5038370D01*
X439000Y5038370D01*
X440000Y5038370D01*
X441000Y5038370D01*
X442000Y5038370D01*
X443000Y5038370D01*
X444000Y5038370D01*
X445000Y5038370D01*
X446000Y5038370D01*
X447000Y5038370D01*
X448000Y5038370D01*
X449000Y5038370D01*
X450000Y5039370D01*
D02*
X605000Y2803370D02*
X605000Y2802370D01*
X605000Y2608370D01*
X606000Y2608370D01*
X607000Y2608370D01*
X608000Y2608370D01*
X609000Y2608370D01*
X610000Y2608370D01*
X611000Y2608370D01*
X612000Y2608370D01*
X613000Y2608370D01*
X614000Y2608370D01*
X615000Y2608370D01*
X616000Y2608370D01*
X617000Y2608370D01*
X618000Y2608370D01*
X619000Y2608370D01*
X620000Y2608370D01*
X621000Y2608370D01*
X622000Y2608370D01*
X623000Y2608370D01*
X624000Y2608370D01*
X625000Y2608370D01*
X626000Y2608370D01*
X627000Y2608370D01*
X628000Y2608370D01*
X629000Y2608370D01*
X630000Y2608370D01*
X631000Y2608370D01*
X632000Y2608370D01*
X633000Y2608370D01*
X634000Y2608370D01*
X635000Y2608370D01*
X636000Y2608370D01*
X637000Y2608370D01*
X638000Y2608370D01*
X639000Y2608370D01*
X640000Y2608370D01*
X641000Y2608370D01*
X642000Y2608370D01*
X643000Y2608370D01*
X644000Y2608370D01*
X645000Y2608370D01*
X646000Y2608370D01*
X647000Y2608370D01*
X648000Y2608370D01*
X649000Y2608370D01*
X650000Y2608370D01*
X651000Y2608370D01*
X652000Y2608370D01*
X653000Y2608370D01*
X654000Y2608370D01*
X655000Y2608370D01*
X656000Y2608370D01*
X657000Y2608370D01*
X658000Y2608370D01*
X659000Y2608370D01*
X660000Y2608370D01*
X661000Y2608370D01*
X662000Y2608370D01*
X663000Y2608370D01*
X664000Y2608370D01*
X665000Y2608370D01*
X666000Y2608370D01*
X667000Y2608370D01*
X668000Y2608370D01*
X669000Y2608370D01*
X670000Y2608370D01*
X671000Y2608370D01*
X672000Y2608370D01*
X673000Y2608370D01*
X674000Y2608370D01*
X675000Y2608370D01*
X676000Y2608370D01*
X677000Y2608370D01*
X678000Y2608370D01*
X679000Y2608370D01*
X680000Y2608370D01*
X681000Y2608370D01*
X682000Y2608370D01*
X683000Y2608370D01*
X684000Y2608370D01*
X685000Y2608370D01*
X686000Y2608370D01*
X687000Y2608370D01*
X688000Y2608370D01*
X689000Y2608370D01*
X690000Y2608370D01*
X691000Y2608370D01*
X692000Y2608370D01*
X693000Y2608370D01*
X694000Y2608370D01*
X695000Y2608370D01*
X696000Y2608370D01*
X697000Y2608370D01*
X698000Y2608370D01*
X699000Y2608370D01*
X700000Y2608370D01*
X701000Y2608370D01*
X702000Y2608370D01*
X703000Y2608370D01*
X704000Y2608370D01*
X705000Y2608370D01*
X706000Y2608370D01*
X707000Y2608370D01*
X708000Y2608370D01*
X709000Y2608370D01*
X710000Y2608370D01*
X711000Y2608370D01*
X712000Y2608370D01*
X713000Y2608370D01*
X714000Y2608370D01*
X715000Y2608370D01*
X716000Y2608370D01*
X717000Y2608370D01*
X718000Y2608370D01*
X719000Y2608370D01*
X720000Y2608370D01*
X721000Y2608370D01*
X722000Y2608370D01*
X722000Y2803370D01*
X721000Y2803370D01*
X720000Y2803370D01*
X719000Y2803370D01*
X718000Y2803370D01*
X717000Y2803370D01*
X716000Y2803370D01*
X715000Y2803370D01*
X714000Y2803370D01*
X713000Y2803370D01*
X712000Y2803370D01*
X711000Y2803370D01*
X710000Y2803370D01*
X709000Y2803370D01*
X708000Y2803370D01*
X707000Y2803370D01*
X706000Y2803370D01*
X705000Y2803370D01*
X704000Y2803370D01*
X703000Y2803370D01*
X702000Y2803370D01*
X701000Y2803370D01*
X700000Y2803370D01*
X699000Y2803370D01*
X698000Y2803370D01*
X697000Y2803370D01*
X696000Y2803370D01*
X695000Y2803370D01*
X694000Y2803370D01*
X693000Y2803370D01*
X692000Y2803370D01*
X691000Y2803370D01*
X690000Y2803370D01*
X689000Y2803370D01*
X688000Y2803370D01*
X687000Y2803370D01*
X686000Y2803370D01*
X685000Y2803370D01*
X684000Y2803370D01*
X683000Y2803370D01*
X682000Y2803370D01*
X681000Y2803370D01*
X680000Y2803370D01*
X679000Y2803370D01*
X678000Y2803370D01*
X677000Y2803370D01*
X676000Y2803370D01*
X675000Y2803370D01*
X674000Y2803370D01*
X673000Y2803370D01*
X672000Y2803370D01*
X671000Y2803370D01*
X670000Y2803370D01*
X669000Y2803370D01*
X668000Y2803370D01*
X667000Y2803370D01*
X666000Y2803370D01*
X665000Y2803370D01*
X664000Y2803370D01*
X663000Y2803370D01*
X662000Y2803370D01*
X661000Y2803370D01*
X660000Y2803370D01*
X659000Y2803370D01*
X658000Y2803370D01*
X657000Y2803370D01*
X656000Y2803370D01*
X655000Y2803370D01*
X654000Y2803370D01*
X653000Y2803370D01*
X652000Y2803370D01*
X651000Y2803370D01*
X650000Y2803370D01*
X649000Y2803370D01*
X648000Y2803370D01*
X647000Y2803370D01*
X646000Y2803370D01*
X645000Y2803370D01*
X644000Y2803370D01*
X643000Y2803370D01*
X642000Y2803370D01*
X641000Y2803370D01*
X640000Y2803370D01*
X639000Y2803370D01*
X638000Y2803370D01*
X637000Y2803370D01*
X636000Y2803370D01*
X635000Y2803370D01*
X634000Y2803370D01*
X633000Y2803370D01*
X632000Y2803370D01*
X631000Y2803370D01*
X630000Y2803370D01*
X629000Y2803370D01*
X628000Y2803370D01*
X627000Y2803370D01*
X626000Y2803370D01*
X625000Y2803370D01*
X624000Y2803370D01*
X623000Y2803370D01*
X622000Y2803370D01*
X621000Y2803370D01*
X620000Y2803370D01*
X619000Y2803370D01*
X618000Y2803370D01*
X617000Y2803370D01*
X616000Y2803370D01*
X615000Y2803370D01*
X614000Y2803370D01*
X613000Y2803370D01*
X612000Y2803370D01*
X611000Y2803370D01*
X610000Y2803370D01*
X609000Y2803370D01*
X608000Y2803370D01*
X607000Y2803370D01*
X606000Y2803370D01*
X605000Y2803370D01*
D02*
X604000Y2313370D02*
X604000Y2312370D01*
X604000Y2117370D01*
X605000Y2117370D01*
X606000Y2117370D01*
X607000Y2117370D01*
X608000Y2117370D01*
X609000Y2117370D01*
X610000Y2117370D01*
X611000Y2117370D01*
X612000Y2117370D01*
X613000Y2117370D01*
X614000Y2117370D01*
X615000Y2117370D01*
X616000Y2117370D01*
X617000Y2117370D01*
X618000Y2117370D01*
X619000Y2117370D01*
X620000Y2117370D01*
X621000Y2117370D01*
X622000Y2117370D01*
X623000Y2117370D01*
X624000Y2117370D01*
X625000Y2117370D01*
X626000Y2117370D01*
X627000Y2117370D01*
X628000Y2117370D01*
X629000Y2117370D01*
X630000Y2117370D01*
X631000Y2117370D01*
X632000Y2117370D01*
X633000Y2117370D01*
X634000Y2117370D01*
X635000Y2117370D01*
X636000Y2117370D01*
X637000Y2117370D01*
X638000Y2117370D01*
X639000Y2117370D01*
X640000Y2117370D01*
X641000Y2117370D01*
X642000Y2117370D01*
X643000Y2117370D01*
X644000Y2117370D01*
X645000Y2117370D01*
X646000Y2117370D01*
X647000Y2117370D01*
X648000Y2117370D01*
X649000Y2117370D01*
X650000Y2117370D01*
X651000Y2117370D01*
X652000Y2117370D01*
X653000Y2117370D01*
X654000Y2117370D01*
X655000Y2117370D01*
X656000Y2117370D01*
X657000Y2117370D01*
X658000Y2117370D01*
X659000Y2117370D01*
X660000Y2117370D01*
X661000Y2117370D01*
X662000Y2117370D01*
X663000Y2117370D01*
X664000Y2117370D01*
X665000Y2117370D01*
X666000Y2117370D01*
X667000Y2117370D01*
X668000Y2117370D01*
X669000Y2117370D01*
X670000Y2117370D01*
X671000Y2117370D01*
X672000Y2117370D01*
X673000Y2117370D01*
X674000Y2117370D01*
X675000Y2117370D01*
X676000Y2117370D01*
X677000Y2117370D01*
X678000Y2117370D01*
X679000Y2117370D01*
X680000Y2117370D01*
X681000Y2117370D01*
X682000Y2117370D01*
X683000Y2117370D01*
X684000Y2117370D01*
X685000Y2117370D01*
X686000Y2117370D01*
X687000Y2117370D01*
X688000Y2117370D01*
X689000Y2117370D01*
X690000Y2117370D01*
X691000Y2117370D01*
X692000Y2117370D01*
X693000Y2117370D01*
X694000Y2117370D01*
X695000Y2117370D01*
X696000Y2117370D01*
X697000Y2117370D01*
X698000Y2117370D01*
X699000Y2117370D01*
X700000Y2117370D01*
X701000Y2117370D01*
X702000Y2117370D01*
X703000Y2117370D01*
X704000Y2117370D01*
X705000Y2117370D01*
X706000Y2117370D01*
X707000Y2117370D01*
X708000Y2117370D01*
X709000Y2117370D01*
X710000Y2117370D01*
X711000Y2117370D01*
X712000Y2117370D01*
X713000Y2117370D01*
X714000Y2117370D01*
X715000Y2117370D01*
X716000Y2117370D01*
X717000Y2117370D01*
X718000Y2117370D01*
X719000Y2117370D01*
X720000Y2117370D01*
X721000Y2118370D01*
X721000Y2313370D01*
X720000Y2313370D01*
X719000Y2313370D01*
X718000Y2313370D01*
X717000Y2313370D01*
X716000Y2313370D01*
X715000Y2313370D01*
X714000Y2313370D01*
X713000Y2313370D01*
X712000Y2313370D01*
X711000Y2313370D01*
X710000Y2313370D01*
X709000Y2313370D01*
X708000Y2313370D01*
X707000Y2313370D01*
X706000Y2313370D01*
X705000Y2313370D01*
X704000Y2313370D01*
X703000Y2313370D01*
X702000Y2313370D01*
X701000Y2313370D01*
X700000Y2313370D01*
X699000Y2313370D01*
X698000Y2313370D01*
X697000Y2313370D01*
X696000Y2313370D01*
X695000Y2313370D01*
X694000Y2313370D01*
X693000Y2313370D01*
X692000Y2313370D01*
X691000Y2313370D01*
X690000Y2313370D01*
X689000Y2313370D01*
X688000Y2313370D01*
X687000Y2313370D01*
X686000Y2313370D01*
X685000Y2313370D01*
X684000Y2313370D01*
X683000Y2313370D01*
X682000Y2313370D01*
X681000Y2313370D01*
X680000Y2313370D01*
X679000Y2313370D01*
X678000Y2313370D01*
X677000Y2313370D01*
X676000Y2313370D01*
X675000Y2313370D01*
X674000Y2313370D01*
X673000Y2313370D01*
X672000Y2313370D01*
X671000Y2313370D01*
X670000Y2313370D01*
X669000Y2313370D01*
X668000Y2313370D01*
X667000Y2313370D01*
X666000Y2313370D01*
X665000Y2313370D01*
X664000Y2313370D01*
X663000Y2313370D01*
X662000Y2313370D01*
X661000Y2313370D01*
X660000Y2313370D01*
X659000Y2313370D01*
X658000Y2313370D01*
X657000Y2313370D01*
X656000Y2313370D01*
X655000Y2313370D01*
X654000Y2313370D01*
X653000Y2313370D01*
X652000Y2313370D01*
X651000Y2313370D01*
X650000Y2313370D01*
X649000Y2313370D01*
X648000Y2313370D01*
X647000Y2313370D01*
X646000Y2313370D01*
X645000Y2313370D01*
X644000Y2313370D01*
X643000Y2313370D01*
X642000Y2313370D01*
X641000Y2313370D01*
X640000Y2313370D01*
X639000Y2313370D01*
X638000Y2313370D01*
X637000Y2313370D01*
X636000Y2313370D01*
X635000Y2313370D01*
X634000Y2313370D01*
X633000Y2313370D01*
X632000Y2313370D01*
X631000Y2313370D01*
X630000Y2313370D01*
X629000Y2313370D01*
X628000Y2313370D01*
X627000Y2313370D01*
X626000Y2313370D01*
X625000Y2313370D01*
X624000Y2313370D01*
X623000Y2313370D01*
X622000Y2313370D01*
X621000Y2313370D01*
X620000Y2313370D01*
X619000Y2313370D01*
X618000Y2313370D01*
X617000Y2313370D01*
X616000Y2313370D01*
X615000Y2313370D01*
X614000Y2313370D01*
X613000Y2313370D01*
X612000Y2313370D01*
X611000Y2313370D01*
X610000Y2313370D01*
X609000Y2313370D01*
X608000Y2313370D01*
X607000Y2313370D01*
X606000Y2313370D01*
X605000Y2313370D01*
X604000Y2313370D01*
D02*
X604000Y1709370D02*
X604000Y1708370D01*
X604000Y1514370D01*
X605000Y1514370D01*
X606000Y1514370D01*
X607000Y1514370D01*
X608000Y1514370D01*
X609000Y1514370D01*
X610000Y1514370D01*
X611000Y1514370D01*
X612000Y1514370D01*
X613000Y1514370D01*
X614000Y1514370D01*
X615000Y1514370D01*
X616000Y1514370D01*
X617000Y1514370D01*
X618000Y1514370D01*
X619000Y1514370D01*
X620000Y1514370D01*
X621000Y1514370D01*
X622000Y1514370D01*
X623000Y1514370D01*
X624000Y1514370D01*
X625000Y1514370D01*
X626000Y1514370D01*
X627000Y1514370D01*
X628000Y1514370D01*
X629000Y1514370D01*
X630000Y1514370D01*
X631000Y1514370D01*
X632000Y1514370D01*
X633000Y1514370D01*
X634000Y1514370D01*
X635000Y1514370D01*
X636000Y1514370D01*
X637000Y1514370D01*
X638000Y1514370D01*
X639000Y1514370D01*
X640000Y1514370D01*
X641000Y1514370D01*
X642000Y1514370D01*
X643000Y1514370D01*
X644000Y1514370D01*
X645000Y1514370D01*
X646000Y1514370D01*
X647000Y1514370D01*
X648000Y1514370D01*
X649000Y1514370D01*
X650000Y1514370D01*
X651000Y1514370D01*
X652000Y1514370D01*
X653000Y1514370D01*
X654000Y1514370D01*
X655000Y1514370D01*
X656000Y1514370D01*
X657000Y1514370D01*
X658000Y1514370D01*
X659000Y1514370D01*
X660000Y1514370D01*
X661000Y1514370D01*
X662000Y1514370D01*
X663000Y1514370D01*
X664000Y1514370D01*
X665000Y1514370D01*
X666000Y1514370D01*
X667000Y1514370D01*
X668000Y1514370D01*
X669000Y1514370D01*
X670000Y1514370D01*
X671000Y1514370D01*
X672000Y1514370D01*
X673000Y1514370D01*
X674000Y1514370D01*
X675000Y1514370D01*
X676000Y1514370D01*
X677000Y1514370D01*
X678000Y1514370D01*
X679000Y1514370D01*
X680000Y1514370D01*
X681000Y1514370D01*
X682000Y1514370D01*
X683000Y1514370D01*
X684000Y1514370D01*
X685000Y1514370D01*
X686000Y1514370D01*
X687000Y1514370D01*
X688000Y1514370D01*
X689000Y1514370D01*
X690000Y1514370D01*
X691000Y1514370D01*
X692000Y1514370D01*
X693000Y1514370D01*
X694000Y1514370D01*
X695000Y1514370D01*
X696000Y1514370D01*
X697000Y1514370D01*
X698000Y1514370D01*
X699000Y1514370D01*
X700000Y1514370D01*
X701000Y1514370D01*
X702000Y1514370D01*
X703000Y1514370D01*
X704000Y1514370D01*
X705000Y1514370D01*
X706000Y1514370D01*
X707000Y1514370D01*
X708000Y1514370D01*
X709000Y1514370D01*
X710000Y1514370D01*
X711000Y1514370D01*
X712000Y1514370D01*
X713000Y1514370D01*
X714000Y1514370D01*
X715000Y1514370D01*
X716000Y1514370D01*
X717000Y1514370D01*
X718000Y1514370D01*
X719000Y1514370D01*
X720000Y1514370D01*
X721000Y1514370D01*
X721000Y1709370D01*
X720000Y1709370D01*
X719000Y1709370D01*
X718000Y1709370D01*
X717000Y1709370D01*
X716000Y1709370D01*
X715000Y1709370D01*
X714000Y1709370D01*
X713000Y1709370D01*
X712000Y1709370D01*
X711000Y1709370D01*
X710000Y1709370D01*
X709000Y1709370D01*
X708000Y1709370D01*
X707000Y1709370D01*
X706000Y1709370D01*
X705000Y1709370D01*
X704000Y1709370D01*
X703000Y1709370D01*
X702000Y1709370D01*
X701000Y1709370D01*
X700000Y1709370D01*
X699000Y1709370D01*
X698000Y1709370D01*
X697000Y1709370D01*
X696000Y1709370D01*
X695000Y1709370D01*
X694000Y1709370D01*
X693000Y1709370D01*
X692000Y1709370D01*
X691000Y1709370D01*
X690000Y1709370D01*
X689000Y1709370D01*
X688000Y1709370D01*
X687000Y1709370D01*
X686000Y1709370D01*
X685000Y1709370D01*
X684000Y1709370D01*
X683000Y1709370D01*
X682000Y1709370D01*
X681000Y1709370D01*
X680000Y1709370D01*
X679000Y1709370D01*
X678000Y1709370D01*
X677000Y1709370D01*
X676000Y1709370D01*
X675000Y1709370D01*
X674000Y1709370D01*
X673000Y1709370D01*
X672000Y1709370D01*
X671000Y1709370D01*
X670000Y1709370D01*
X669000Y1709370D01*
X668000Y1709370D01*
X667000Y1709370D01*
X666000Y1709370D01*
X665000Y1709370D01*
X664000Y1709370D01*
X663000Y1709370D01*
X662000Y1709370D01*
X661000Y1709370D01*
X660000Y1709370D01*
X659000Y1709370D01*
X658000Y1709370D01*
X657000Y1709370D01*
X656000Y1709370D01*
X655000Y1709370D01*
X654000Y1709370D01*
X653000Y1709370D01*
X652000Y1709370D01*
X651000Y1709370D01*
X650000Y1709370D01*
X649000Y1709370D01*
X648000Y1709370D01*
X647000Y1709370D01*
X646000Y1709370D01*
X645000Y1709370D01*
X644000Y1709370D01*
X643000Y1709370D01*
X642000Y1709370D01*
X641000Y1709370D01*
X640000Y1709370D01*
X639000Y1709370D01*
X638000Y1709370D01*
X637000Y1709370D01*
X636000Y1709370D01*
X635000Y1709370D01*
X634000Y1709370D01*
X633000Y1709370D01*
X632000Y1709370D01*
X631000Y1709370D01*
X630000Y1709370D01*
X629000Y1709370D01*
X628000Y1709370D01*
X627000Y1709370D01*
X626000Y1709370D01*
X625000Y1709370D01*
X624000Y1709370D01*
X623000Y1709370D01*
X622000Y1709370D01*
X621000Y1709370D01*
X620000Y1709370D01*
X619000Y1709370D01*
X618000Y1709370D01*
X617000Y1709370D01*
X616000Y1709370D01*
X615000Y1709370D01*
X614000Y1709370D01*
X613000Y1709370D01*
X612000Y1709370D01*
X611000Y1709370D01*
X610000Y1709370D01*
X609000Y1709370D01*
X608000Y1709370D01*
X607000Y1709370D01*
X606000Y1709370D01*
X605000Y1709370D01*
X604000Y1709370D01*
D02*
X604000Y1227370D02*
X604000Y1226370D01*
X604000Y1031370D01*
X605000Y1031370D01*
X606000Y1031370D01*
X607000Y1031370D01*
X608000Y1031370D01*
X609000Y1031370D01*
X610000Y1031370D01*
X611000Y1031370D01*
X612000Y1031370D01*
X613000Y1031370D01*
X614000Y1031370D01*
X615000Y1031370D01*
X616000Y1031370D01*
X617000Y1031370D01*
X618000Y1031370D01*
X619000Y1031370D01*
X620000Y1031370D01*
X621000Y1031370D01*
X622000Y1031370D01*
X623000Y1031370D01*
X624000Y1031370D01*
X625000Y1031370D01*
X626000Y1031370D01*
X627000Y1031370D01*
X628000Y1031370D01*
X629000Y1031370D01*
X630000Y1031370D01*
X631000Y1031370D01*
X632000Y1031370D01*
X633000Y1031370D01*
X634000Y1031370D01*
X635000Y1031370D01*
X636000Y1031370D01*
X637000Y1031370D01*
X638000Y1031370D01*
X639000Y1031370D01*
X640000Y1031370D01*
X641000Y1031370D01*
X642000Y1031370D01*
X643000Y1031370D01*
X644000Y1031370D01*
X645000Y1031370D01*
X646000Y1031370D01*
X647000Y1031370D01*
X648000Y1031370D01*
X649000Y1031370D01*
X650000Y1031370D01*
X651000Y1031370D01*
X652000Y1031370D01*
X653000Y1031370D01*
X654000Y1031370D01*
X655000Y1031370D01*
X656000Y1031370D01*
X657000Y1031370D01*
X658000Y1031370D01*
X659000Y1031370D01*
X660000Y1031370D01*
X661000Y1031370D01*
X662000Y1031370D01*
X663000Y1031370D01*
X664000Y1031370D01*
X665000Y1031370D01*
X666000Y1031370D01*
X667000Y1031370D01*
X668000Y1031370D01*
X669000Y1031370D01*
X670000Y1031370D01*
X671000Y1031370D01*
X672000Y1031370D01*
X673000Y1031370D01*
X674000Y1031370D01*
X675000Y1031370D01*
X676000Y1031370D01*
X677000Y1031370D01*
X678000Y1031370D01*
X679000Y1031370D01*
X680000Y1031370D01*
X681000Y1031370D01*
X682000Y1031370D01*
X683000Y1031370D01*
X684000Y1031370D01*
X685000Y1031370D01*
X686000Y1031370D01*
X687000Y1031370D01*
X688000Y1031370D01*
X689000Y1031370D01*
X690000Y1031370D01*
X691000Y1031370D01*
X692000Y1031370D01*
X693000Y1031370D01*
X694000Y1031370D01*
X695000Y1031370D01*
X696000Y1031370D01*
X697000Y1031370D01*
X698000Y1031370D01*
X699000Y1031370D01*
X700000Y1031370D01*
X701000Y1031370D01*
X702000Y1031370D01*
X703000Y1031370D01*
X704000Y1031370D01*
X705000Y1031370D01*
X706000Y1031370D01*
X707000Y1031370D01*
X708000Y1031370D01*
X709000Y1031370D01*
X710000Y1031370D01*
X711000Y1031370D01*
X712000Y1031370D01*
X713000Y1031370D01*
X714000Y1031370D01*
X715000Y1031370D01*
X716000Y1031370D01*
X717000Y1031370D01*
X718000Y1031370D01*
X719000Y1031370D01*
X720000Y1031370D01*
X721000Y1031370D01*
X721000Y1227370D01*
X720000Y1227370D01*
X719000Y1227370D01*
X718000Y1227370D01*
X717000Y1227370D01*
X716000Y1227370D01*
X715000Y1227370D01*
X714000Y1227370D01*
X713000Y1227370D01*
X712000Y1227370D01*
X711000Y1227370D01*
X710000Y1227370D01*
X709000Y1227370D01*
X708000Y1227370D01*
X707000Y1227370D01*
X706000Y1227370D01*
X705000Y1227370D01*
X704000Y1227370D01*
X703000Y1227370D01*
X702000Y1227370D01*
X701000Y1227370D01*
X700000Y1227370D01*
X699000Y1227370D01*
X698000Y1227370D01*
X697000Y1227370D01*
X696000Y1227370D01*
X695000Y1227370D01*
X694000Y1227370D01*
X693000Y1227370D01*
X692000Y1227370D01*
X691000Y1227370D01*
X690000Y1227370D01*
X689000Y1227370D01*
X688000Y1227370D01*
X687000Y1227370D01*
X686000Y1227370D01*
X685000Y1227370D01*
X684000Y1227370D01*
X683000Y1227370D01*
X682000Y1227370D01*
X681000Y1227370D01*
X680000Y1227370D01*
X679000Y1227370D01*
X678000Y1227370D01*
X677000Y1227370D01*
X676000Y1227370D01*
X675000Y1227370D01*
X674000Y1227370D01*
X673000Y1227370D01*
X672000Y1227370D01*
X671000Y1227370D01*
X670000Y1227370D01*
X669000Y1227370D01*
X668000Y1227370D01*
X667000Y1227370D01*
X666000Y1227370D01*
X665000Y1227370D01*
X664000Y1227370D01*
X663000Y1227370D01*
X662000Y1227370D01*
X661000Y1227370D01*
X660000Y1227370D01*
X659000Y1227370D01*
X658000Y1227370D01*
X657000Y1227370D01*
X656000Y1227370D01*
X655000Y1227370D01*
X654000Y1227370D01*
X653000Y1227370D01*
X652000Y1227370D01*
X651000Y1227370D01*
X650000Y1227370D01*
X649000Y1227370D01*
X648000Y1227370D01*
X647000Y1227370D01*
X646000Y1227370D01*
X645000Y1227370D01*
X644000Y1227370D01*
X643000Y1227370D01*
X642000Y1227370D01*
X641000Y1227370D01*
X640000Y1227370D01*
X639000Y1227370D01*
X638000Y1227370D01*
X637000Y1227370D01*
X636000Y1227370D01*
X635000Y1227370D01*
X634000Y1227370D01*
X633000Y1227370D01*
X632000Y1227370D01*
X631000Y1227370D01*
X630000Y1227370D01*
X629000Y1227370D01*
X628000Y1227370D01*
X627000Y1227370D01*
X626000Y1227370D01*
X625000Y1227370D01*
X624000Y1227370D01*
X623000Y1227370D01*
X622000Y1227370D01*
X621000Y1227370D01*
X620000Y1227370D01*
X619000Y1227370D01*
X618000Y1227370D01*
X617000Y1227370D01*
X616000Y1227370D01*
X615000Y1227370D01*
X614000Y1227370D01*
X613000Y1227370D01*
X612000Y1227370D01*
X611000Y1227370D01*
X610000Y1227370D01*
X609000Y1227370D01*
X608000Y1227370D01*
X607000Y1227370D01*
X606000Y1227370D01*
X605000Y1227370D01*
X604000Y1227370D01*
D02*
X604000Y642370D02*
X604000Y641370D01*
X604000Y446370D01*
X605000Y446370D01*
X606000Y446370D01*
X607000Y446370D01*
X608000Y446370D01*
X609000Y446370D01*
X610000Y446370D01*
X611000Y446370D01*
X612000Y446370D01*
X613000Y446370D01*
X614000Y446370D01*
X615000Y446370D01*
X616000Y446370D01*
X617000Y446370D01*
X618000Y446370D01*
X619000Y446370D01*
X620000Y446370D01*
X621000Y446370D01*
X622000Y446370D01*
X623000Y446370D01*
X624000Y446370D01*
X625000Y446370D01*
X626000Y446370D01*
X627000Y446370D01*
X628000Y446370D01*
X629000Y446370D01*
X630000Y446370D01*
X631000Y446370D01*
X632000Y446370D01*
X633000Y446370D01*
X634000Y446370D01*
X635000Y446370D01*
X636000Y446370D01*
X637000Y446370D01*
X638000Y446370D01*
X639000Y446370D01*
X640000Y446370D01*
X641000Y446370D01*
X642000Y446370D01*
X643000Y446370D01*
X644000Y446370D01*
X645000Y446370D01*
X646000Y446370D01*
X647000Y446370D01*
X648000Y446370D01*
X649000Y446370D01*
X650000Y446370D01*
X651000Y446370D01*
X652000Y446370D01*
X653000Y446370D01*
X654000Y446370D01*
X655000Y446370D01*
X656000Y446370D01*
X657000Y446370D01*
X658000Y446370D01*
X659000Y446370D01*
X660000Y446370D01*
X661000Y446370D01*
X662000Y446370D01*
X663000Y446370D01*
X664000Y446370D01*
X665000Y446370D01*
X666000Y446370D01*
X667000Y446370D01*
X668000Y446370D01*
X669000Y446370D01*
X670000Y446370D01*
X671000Y446370D01*
X672000Y446370D01*
X673000Y446370D01*
X674000Y446370D01*
X675000Y446370D01*
X676000Y446370D01*
X677000Y446370D01*
X678000Y446370D01*
X679000Y446370D01*
X680000Y446370D01*
X681000Y446370D01*
X682000Y446370D01*
X683000Y446370D01*
X684000Y446370D01*
X685000Y446370D01*
X686000Y446370D01*
X687000Y446370D01*
X688000Y446370D01*
X689000Y446370D01*
X690000Y446370D01*
X691000Y446370D01*
X692000Y446370D01*
X693000Y446370D01*
X694000Y446370D01*
X695000Y446370D01*
X696000Y446370D01*
X697000Y446370D01*
X698000Y446370D01*
X699000Y446370D01*
X700000Y446370D01*
X701000Y446370D01*
X702000Y446370D01*
X703000Y446370D01*
X704000Y446370D01*
X705000Y446370D01*
X706000Y446370D01*
X707000Y446370D01*
X708000Y446370D01*
X709000Y446370D01*
X710000Y446370D01*
X711000Y446370D01*
X712000Y446370D01*
X713000Y446370D01*
X714000Y446370D01*
X715000Y446370D01*
X716000Y446370D01*
X717000Y446370D01*
X718000Y446370D01*
X719000Y446370D01*
X720000Y446370D01*
X721000Y446370D01*
X721000Y641370D01*
X720000Y642370D01*
X719000Y642370D01*
X718000Y642370D01*
X717000Y642370D01*
X716000Y642370D01*
X715000Y642370D01*
X714000Y642370D01*
X713000Y642370D01*
X712000Y642370D01*
X711000Y642370D01*
X710000Y642370D01*
X709000Y642370D01*
X708000Y642370D01*
X707000Y642370D01*
X706000Y642370D01*
X705000Y642370D01*
X704000Y642370D01*
X703000Y642370D01*
X702000Y642370D01*
X701000Y642370D01*
X700000Y642370D01*
X699000Y642370D01*
X698000Y642370D01*
X697000Y642370D01*
X696000Y642370D01*
X695000Y642370D01*
X694000Y642370D01*
X693000Y642370D01*
X692000Y642370D01*
X691000Y642370D01*
X690000Y642370D01*
X689000Y642370D01*
X688000Y642370D01*
X687000Y642370D01*
X686000Y642370D01*
X685000Y642370D01*
X684000Y642370D01*
X683000Y642370D01*
X682000Y642370D01*
X681000Y642370D01*
X680000Y642370D01*
X679000Y642370D01*
X678000Y642370D01*
X677000Y642370D01*
X676000Y642370D01*
X675000Y642370D01*
X674000Y642370D01*
X673000Y642370D01*
X672000Y642370D01*
X671000Y642370D01*
X670000Y642370D01*
X669000Y642370D01*
X668000Y642370D01*
X667000Y642370D01*
X666000Y642370D01*
X665000Y642370D01*
X664000Y642370D01*
X663000Y642370D01*
X662000Y642370D01*
X661000Y642370D01*
X660000Y642370D01*
X659000Y642370D01*
X658000Y642370D01*
X657000Y642370D01*
X656000Y642370D01*
X655000Y642370D01*
X654000Y642370D01*
X653000Y642370D01*
X652000Y642370D01*
X651000Y642370D01*
X650000Y642370D01*
X649000Y642370D01*
X648000Y642370D01*
X647000Y642370D01*
X646000Y642370D01*
X645000Y642370D01*
X644000Y642370D01*
X643000Y642370D01*
X642000Y642370D01*
X641000Y642370D01*
X640000Y642370D01*
X639000Y642370D01*
X638000Y642370D01*
X637000Y642370D01*
X636000Y642370D01*
X635000Y642370D01*
X634000Y642370D01*
X633000Y642370D01*
X632000Y642370D01*
X631000Y642370D01*
X630000Y642370D01*
X629000Y642370D01*
X628000Y642370D01*
X627000Y642370D01*
X626000Y642370D01*
X625000Y642370D01*
X624000Y642370D01*
X623000Y642370D01*
X622000Y642370D01*
X621000Y642370D01*
X620000Y642370D01*
X619000Y642370D01*
X618000Y642370D01*
X617000Y642370D01*
X616000Y642370D01*
X615000Y642370D01*
X614000Y642370D01*
X613000Y642370D01*
X612000Y642370D01*
X611000Y642370D01*
X610000Y642370D01*
X609000Y642370D01*
X608000Y642370D01*
X607000Y642370D01*
X606000Y642370D01*
X605000Y642370D01*
X604000Y642370D01*
D02*
G04 End of contour*
M02*