<?xml version="1.0" encoding="UTF-8" standalone="no"?>
<!-- Created with Fritzing (https://fritzing.org/) -->

<svg
   height="128mm"
   version="1.2"
   viewBox="0 0 113.4439 362.83433"
   width="40.020344mm"
   x="0in"
   y="0in"
   id="svg1335"
   sodipodi:docname="noodle-top_pcb-cut.svg"
   inkscape:version="1.2.2 (b0a8486541, 2022-12-01)"
   xmlns:inkscape="http://www.inkscape.org/namespaces/inkscape"
   xmlns:sodipodi="http://sodipodi.sourceforge.net/DTD/sodipodi-0.dtd"
   xmlns="http://www.w3.org/2000/svg"
   xmlns:svg="http://www.w3.org/2000/svg">
  <defs
     id="defs1339" />
  <sodipodi:namedview
     id="namedview1337"
     pagecolor="#ffffff"
     bordercolor="#000000"
     borderopacity="0.25"
     inkscape:showpageshadow="2"
     inkscape:pageopacity="0.0"
     inkscape:pagecheckerboard="0"
     inkscape:deskcolor="#d1d1d1"
     inkscape:document-units="in"
     showgrid="false"
     inkscape:zoom="1.5693415"
     inkscape:cx="91.758231"
     inkscape:cy="286.10726"
     inkscape:window-width="1268"
     inkscape:window-height="900"
     inkscape:window-x="15"
     inkscape:window-y="33"
     inkscape:window-maximized="0"
     inkscape:current-layer="board" />
  <g
     partID="872856090"
     id="board"
     transform="matrix(1,0,0,1.1727315,-0.28888249,-0.06493542)"
     inkscape:label="board"
     style="fill:#0088d4;fill-opacity:1">
    <path
       id="boardoutline"
       style="display:inline;fill:#0088d4;stroke-width:2.44533"
       d="M 84.753437 1.5209426 L 4.6999739 1.5634234 C 0.73282883 1.5655207 1.3599348 2.6413067 1.3623072 7.5607136 L 1.5084262 309.04574 C 1.5095891 311.45702 1.6024363 310.95738 4.6999739 310.95738 L 83.06373 310.95738 C 86.664695 310.95738 86.401396 310.9638 86.401396 307.64137 L 86.401396 7.5607136 C 86.401396 1.9731523 86.602396 1.5199652 84.753437 1.5209426 z M 33.990801 138.8264 L 40.368403 138.8264 L 40.368403 150.91219 L 33.990801 150.91219 L 33.990801 138.8264 z M 33.930375 168.9278 L 40.307978 168.9278 L 40.307978 181.01359 L 33.930375 181.01359 L 33.930375 168.9278 z M 33.930375 206.02104 L 40.307978 206.02104 L 40.307978 218.10683 L 33.930375 218.10683 L 33.930375 206.02104 z M 33.930375 235.6464 L 40.307978 235.6464 L 40.307978 247.73219 L 33.930375 247.73219 L 33.930375 235.6464 z M 33.930375 271.59891 L 40.307978 271.59891 L 40.307978 283.6847 L 33.930375 283.6847 L 33.930375 271.59891 z "
       transform="matrix(1.33333,0,0,0.99972472,-1.4777177,-1.4658417)" />
  </g>
  <g
     inkscape:groupmode="layer"
     id="layer1"
     inkscape:label="silkscreen"
     transform="translate(-0.28888254,-0.0642084)" />
  <g
     inkscape:groupmode="layer"
     id="layer2"
     inkscape:label="silkscreen0"
     transform="translate(-0.28888254,-0.0642084)" />
  <g
     partID="872856090"
     id="g815"
     transform="matrix(1,0,0,1.1724087,0.0500598,0.04880553)"
     sodipodi:insensitive="true">
    <g
       id="board-6">
      <defs
         id="defs1531" />
    </g>
  </g>
</svg>
