G04 MADE WITH FRITZING*
G04 WWW.FRITZING.ORG*
G04 DOUBLE SIDED*
G04 HOLES PLATED*
G04 CONTOUR ON CENTER OF CONTOUR VECTOR*
%FSLAX26Y26*%
%MOIN*%
%ADD10C,0.049370*%
%ADD11C,0.092000*%
%ADD12C,0.085000*%
%ADD13C,0.077559*%
%ADD14C,0.095000*%
%ADD15C,0.093307*%
%ADD16C,0.084667*%
%ADD17C,0.084695*%
%ADD18C,0.134033*%
%ADD19C,0.080000*%
%ADD20C,0.072992*%
%ADD21C,0.084000*%
%ADD22C,0.063528*%
%ADD23R,0.092000X0.092000*%
%ADD24R,0.085000X0.085000*%
%ADD25R,0.077559X0.077559*%
%ADD26R,0.093307X0.093307*%
%ADD27R,0.072992X0.072992*%
%ADD28R,0.001000X0.001000*%
G04 MASK1*
%FSLAX26Y26*%
%MOIN*%
D10*
X622311Y900360D03*
D11*
X926934Y3375970D03*
X628934Y3375970D03*
X1040490Y740300D03*
X1040490Y1038300D03*
D10*
X866019Y2553690D03*
X636386Y2487020D03*
X932686Y1707390D03*
X769719Y1614800D03*
D12*
X1189960Y3271980D03*
X1189960Y3571978D03*
X1089960Y3271980D03*
X1089960Y3571978D03*
X989960Y3271980D03*
X989960Y3571978D03*
X889960Y3271980D03*
X889960Y3571978D03*
X789960Y3271980D03*
X789960Y3571978D03*
X689960Y3271980D03*
X689960Y3571978D03*
X589960Y3271980D03*
X589960Y3571978D03*
X1189960Y3271980D03*
X1189960Y3571978D03*
X1089960Y3271980D03*
X1089960Y3571978D03*
X989960Y3271980D03*
X989960Y3571978D03*
X889960Y3271980D03*
X889960Y3571978D03*
X789960Y3271980D03*
X789960Y3571978D03*
X689960Y3271980D03*
X689960Y3571978D03*
X589960Y3271980D03*
X589960Y3571978D03*
D13*
X416736Y3578976D03*
X116736Y3578976D03*
X416736Y3478976D03*
X116736Y3478976D03*
X416736Y3378976D03*
X116736Y3378976D03*
X416736Y3278980D03*
X116736Y3278980D03*
X416736Y3178980D03*
X116736Y3178980D03*
X416736Y3078980D03*
X116736Y3078980D03*
X416736Y2978980D03*
X116736Y2978980D03*
X416736Y2878980D03*
X116736Y2878980D03*
X416736Y3578976D03*
X116736Y3578976D03*
X416736Y3478976D03*
X116736Y3478976D03*
X416736Y3378976D03*
X116736Y3378976D03*
X416736Y3278980D03*
X116736Y3278980D03*
X416736Y3178980D03*
X116736Y3178980D03*
X416736Y3078980D03*
X116736Y3078980D03*
X416736Y2978980D03*
X116736Y2978980D03*
X416736Y2878980D03*
X116736Y2878980D03*
X864400Y793640D03*
X1164400Y793640D03*
X864400Y893640D03*
X1164400Y893640D03*
X864400Y993640D03*
X1164400Y993640D03*
X864400Y1093640D03*
X1164400Y1093640D03*
X864400Y1193640D03*
X1164400Y1193640D03*
X864400Y1293640D03*
X1164400Y1293640D03*
X864400Y1393640D03*
X1164400Y1393640D03*
X864400Y1493640D03*
X1164400Y1493640D03*
X864400Y793640D03*
X1164400Y793640D03*
X864400Y893640D03*
X1164400Y893640D03*
X864400Y993640D03*
X1164400Y993640D03*
X864400Y1093640D03*
X1164400Y1093640D03*
X864400Y1193640D03*
X1164400Y1193640D03*
X864400Y1293640D03*
X1164400Y1293640D03*
X864400Y1393640D03*
X1164400Y1393640D03*
X864400Y1493640D03*
X1164400Y1493640D03*
X828620Y1734420D03*
X1128620Y1734420D03*
X828620Y1834420D03*
X1128620Y1834420D03*
X828620Y1934420D03*
X1128620Y1934420D03*
X828620Y2034420D03*
X1128620Y2034420D03*
X828620Y2134420D03*
X1128620Y2134420D03*
X828620Y2234420D03*
X1128620Y2234420D03*
X828620Y2334420D03*
X1128620Y2334420D03*
X828620Y2434420D03*
X1128620Y2434420D03*
X828620Y1734420D03*
X1128620Y1734420D03*
X828620Y1834420D03*
X1128620Y1834420D03*
X828620Y1934420D03*
X1128620Y1934420D03*
X828620Y2034420D03*
X1128620Y2034420D03*
X828620Y2134420D03*
X1128620Y2134420D03*
X828620Y2234420D03*
X1128620Y2234420D03*
X828620Y2334420D03*
X1128620Y2334420D03*
X828620Y2434420D03*
X1128620Y2434420D03*
D14*
X899500Y178240D03*
X1023530Y178250D03*
X1348320Y178230D03*
X1397330Y610400D03*
X1397320Y734430D03*
X1397340Y1059220D03*
X1066850Y3814933D03*
X942813Y3814923D03*
X618025Y3814941D03*
X511365Y3811673D03*
X387331Y3811663D03*
X62543Y3811681D03*
D15*
X895090Y4199174D03*
X795090Y4199174D03*
X695090Y4199174D03*
X595090Y4199174D03*
X495090Y4199174D03*
X395090Y4199174D03*
X295090Y4199174D03*
X195090Y4199174D03*
X895090Y4099174D03*
X795090Y4099174D03*
X695090Y4099174D03*
X595090Y4099174D03*
X495090Y4099174D03*
X395090Y4099174D03*
X295090Y4099174D03*
X195090Y4099174D03*
X895090Y4199174D03*
X795090Y4199174D03*
X695090Y4199174D03*
X595090Y4199174D03*
X495090Y4199174D03*
X395090Y4199174D03*
X295090Y4199174D03*
X195090Y4199174D03*
X895090Y4099174D03*
X795090Y4099174D03*
X695090Y4099174D03*
X595090Y4099174D03*
X495090Y4099174D03*
X395090Y4099174D03*
X295090Y4099174D03*
X195090Y4099174D03*
D12*
X1111750Y3033510D03*
X1211750Y3033510D03*
X1111750Y3033510D03*
X1211750Y3033510D03*
D16*
X501304Y1831760D03*
X501318Y1931760D03*
D17*
X501304Y2031770D03*
D18*
X206026Y1737610D03*
X206026Y2125910D03*
D16*
X499860Y752500D03*
X499874Y852500D03*
D17*
X499860Y952510D03*
D18*
X204582Y658350D03*
X204582Y1046650D03*
D16*
X501304Y1275390D03*
X501318Y1375390D03*
D17*
X501304Y1475400D03*
D18*
X206026Y1181240D03*
X206026Y1569540D03*
D16*
X505415Y216940D03*
X505429Y316940D03*
D17*
X505415Y416950D03*
D18*
X210137Y122790D03*
X210137Y511090D03*
D16*
X928421Y3133070D03*
X828421Y3133080D03*
D17*
X728407Y3133070D03*
D18*
X1022570Y2837790D03*
X634268Y2837790D03*
D16*
X501304Y2378720D03*
X501318Y2478720D03*
D17*
X501304Y2578730D03*
D18*
X206026Y2284570D03*
X206026Y2672870D03*
D12*
X759223Y361440D03*
X759223Y661440D03*
X870223Y337480D03*
X870223Y637480D03*
X996112Y1188440D03*
X996112Y1488440D03*
X1309080Y1368250D03*
X1309080Y1668250D03*
X1093630Y2607970D03*
X793630Y2607970D03*
X1021080Y433000D03*
X1321080Y433000D03*
X323301Y2978220D03*
X323301Y3278220D03*
D19*
X1013670Y642800D03*
X1213670Y642800D03*
X1159270Y1604940D03*
X959270Y1604940D03*
X58857Y2784690D03*
X258857Y2784690D03*
X1210970Y3847244D03*
X1410970Y3847244D03*
X1513780Y4035720D03*
X1513780Y3835720D03*
D20*
X673012Y222220D03*
X673012Y123790D03*
X673000Y711500D03*
X673000Y809930D03*
X673012Y1296590D03*
X673012Y1198160D03*
X673000Y1798420D03*
X673000Y1896850D03*
X673012Y2398410D03*
X673012Y2299980D03*
D12*
X1485350Y2702150D03*
X1229440Y2702150D03*
X1485350Y2879320D03*
X1229440Y2879320D03*
D21*
X1422710Y3355707D03*
X1422710Y3248710D03*
X1422710Y3141710D03*
X1422710Y3355707D03*
X1422710Y3248710D03*
X1422710Y3141710D03*
X1418250Y2386540D03*
X1418250Y2279540D03*
X1418250Y2172540D03*
X1418250Y2386540D03*
X1418250Y2279540D03*
X1418250Y2172540D03*
D12*
X991523Y3459444D03*
X1291520Y3459444D03*
X1238710Y4061899D03*
X1238710Y3961899D03*
D22*
X1227170Y4251015D03*
X1327170Y4251015D03*
X1427160Y4251015D03*
X1227170Y4251015D03*
X1327170Y4251015D03*
X1427160Y4251015D03*
D23*
X927934Y3375970D03*
X1040490Y739300D03*
D24*
X1189960Y3271980D03*
X1189960Y3271980D03*
D25*
X416736Y3578975D03*
X416736Y3578975D03*
X864401Y793640D03*
X864401Y793640D03*
X828621Y1734420D03*
X828621Y1734420D03*
D26*
X895091Y4099174D03*
X895091Y4099174D03*
D24*
X1111750Y3033510D03*
X1111750Y3033510D03*
D27*
X673011Y222218D03*
X673000Y711498D03*
X673011Y1296588D03*
X673000Y1798418D03*
X673011Y2398408D03*
D24*
X1238710Y4061899D03*
D28*
X1220500Y4315210D02*
X1233500Y4315210D01*
X1319500Y4315210D02*
X1333500Y4315210D01*
X1419500Y4315210D02*
X1432500Y4315210D01*
X1216500Y4314210D02*
X1236500Y4314210D01*
X1316500Y4314210D02*
X1336500Y4314210D01*
X1416500Y4314210D02*
X1436500Y4314210D01*
X1213500Y4313210D02*
X1239500Y4313210D01*
X1313500Y4313210D02*
X1339500Y4313210D01*
X1413500Y4313210D02*
X1439500Y4313210D01*
X1211500Y4312210D02*
X1241500Y4312210D01*
X1311500Y4312210D02*
X1341500Y4312210D01*
X1411500Y4312210D02*
X1441500Y4312210D01*
X1209500Y4311210D02*
X1243500Y4311210D01*
X1309500Y4311210D02*
X1343500Y4311210D01*
X1409500Y4311210D02*
X1443500Y4311210D01*
X1207500Y4310210D02*
X1245500Y4310210D01*
X1307500Y4310210D02*
X1345500Y4310210D01*
X1407500Y4310210D02*
X1445500Y4310210D01*
X1206500Y4309210D02*
X1246500Y4309210D01*
X1306500Y4309210D02*
X1346500Y4309210D01*
X1406500Y4309210D02*
X1446500Y4309210D01*
X1205500Y4308210D02*
X1247500Y4308210D01*
X1305500Y4308210D02*
X1347500Y4308210D01*
X1405500Y4308210D02*
X1447500Y4308210D01*
X1203500Y4307210D02*
X1249500Y4307210D01*
X1303500Y4307210D02*
X1349500Y4307210D01*
X1403500Y4307210D02*
X1449500Y4307210D01*
X1202500Y4306210D02*
X1250500Y4306210D01*
X1302500Y4306210D02*
X1350500Y4306210D01*
X1402500Y4306210D02*
X1450500Y4306210D01*
X1201500Y4305210D02*
X1251500Y4305210D01*
X1301500Y4305210D02*
X1351500Y4305210D01*
X1401500Y4305210D02*
X1451500Y4305210D01*
X1200500Y4304210D02*
X1252500Y4304210D01*
X1300500Y4304210D02*
X1352500Y4304210D01*
X1400500Y4304210D02*
X1452500Y4304210D01*
X1200500Y4303210D02*
X1253500Y4303210D01*
X1300500Y4303210D02*
X1352500Y4303210D01*
X1399500Y4303210D02*
X1452500Y4303210D01*
X1199500Y4302210D02*
X1253500Y4302210D01*
X1299500Y4302210D02*
X1353500Y4302210D01*
X1399500Y4302210D02*
X1453500Y4302210D01*
X1198500Y4301210D02*
X1254500Y4301210D01*
X1298500Y4301210D02*
X1354500Y4301210D01*
X1398500Y4301210D02*
X1454500Y4301210D01*
X1197500Y4300210D02*
X1255500Y4300210D01*
X1297500Y4300210D02*
X1355500Y4300210D01*
X1397500Y4300210D02*
X1455500Y4300210D01*
X1197500Y4299210D02*
X1255500Y4299210D01*
X1297500Y4299210D02*
X1355500Y4299210D01*
X1397500Y4299210D02*
X1455500Y4299210D01*
X1196500Y4298210D02*
X1256500Y4298210D01*
X1296500Y4298210D02*
X1356500Y4298210D01*
X1396500Y4298210D02*
X1456500Y4298210D01*
X1196500Y4297210D02*
X1256500Y4297210D01*
X1296500Y4297210D02*
X1356500Y4297210D01*
X1396500Y4297210D02*
X1456500Y4297210D01*
X1195500Y4296210D02*
X1257500Y4296210D01*
X1295500Y4296210D02*
X1357500Y4296210D01*
X1395500Y4296210D02*
X1457500Y4296210D01*
X1195500Y4295210D02*
X1257500Y4295210D01*
X1295500Y4295210D02*
X1357500Y4295210D01*
X1395500Y4295210D02*
X1457500Y4295210D01*
X1194500Y4294210D02*
X1258500Y4294210D01*
X1294500Y4294210D02*
X1358500Y4294210D01*
X1394500Y4294210D02*
X1458500Y4294210D01*
X1194500Y4293210D02*
X1258500Y4293210D01*
X1294500Y4293210D02*
X1358500Y4293210D01*
X1394500Y4293210D02*
X1458500Y4293210D01*
X1194500Y4292210D02*
X1259500Y4292210D01*
X1293500Y4292210D02*
X1358500Y4292210D01*
X1393500Y4292210D02*
X1458500Y4292210D01*
X1193500Y4291210D02*
X1259500Y4291210D01*
X1293500Y4291210D02*
X1359500Y4291210D01*
X1393500Y4291210D02*
X1459500Y4291210D01*
X1193500Y4290210D02*
X1259500Y4290210D01*
X1293500Y4290210D02*
X1359500Y4290210D01*
X1393500Y4290210D02*
X1459500Y4290210D01*
X1193500Y4289210D02*
X1259500Y4289210D01*
X1293500Y4289210D02*
X1359500Y4289210D01*
X1393500Y4289210D02*
X1459500Y4289210D01*
X1192500Y4288210D02*
X1260500Y4288210D01*
X1292500Y4288210D02*
X1360500Y4288210D01*
X1392500Y4288210D02*
X1460500Y4288210D01*
X1192500Y4287210D02*
X1260500Y4287210D01*
X1292500Y4287210D02*
X1360500Y4287210D01*
X1392500Y4287210D02*
X1460500Y4287210D01*
X1192500Y4286210D02*
X1260500Y4286210D01*
X1292500Y4286210D02*
X1360500Y4286210D01*
X1392500Y4286210D02*
X1460500Y4286210D01*
X1192500Y4285210D02*
X1260500Y4285210D01*
X1292500Y4285210D02*
X1360500Y4285210D01*
X1392500Y4285210D02*
X1460500Y4285210D01*
X1192500Y4284210D02*
X1260500Y4284210D01*
X1292500Y4284210D02*
X1360500Y4284210D01*
X1392500Y4284210D02*
X1460500Y4284210D01*
X1192500Y4283210D02*
X1260500Y4283210D01*
X1292500Y4283210D02*
X1360500Y4283210D01*
X1392500Y4283210D02*
X1460500Y4283210D01*
X1192500Y4282210D02*
X1260500Y4282210D01*
X1292500Y4282210D02*
X1360500Y4282210D01*
X1392500Y4282210D02*
X1460500Y4282210D01*
X1192500Y4281210D02*
X1261500Y4281210D01*
X1292500Y4281210D02*
X1360500Y4281210D01*
X1391500Y4281210D02*
X1460500Y4281210D01*
X1192500Y4280210D02*
X1261500Y4280210D01*
X1292500Y4280210D02*
X1360500Y4280210D01*
X1391500Y4280210D02*
X1460500Y4280210D01*
X1192500Y4279210D02*
X1261500Y4279210D01*
X1292500Y4279210D02*
X1360500Y4279210D01*
X1391500Y4279210D02*
X1460500Y4279210D01*
X1192500Y4278210D02*
X1261500Y4278210D01*
X1292500Y4278210D02*
X1360500Y4278210D01*
X1391500Y4278210D02*
X1460500Y4278210D01*
X1192500Y4277210D02*
X1261500Y4277210D01*
X1292500Y4277210D02*
X1360500Y4277210D01*
X1391500Y4277210D02*
X1460500Y4277210D01*
X1192500Y4276210D02*
X1261500Y4276210D01*
X1292500Y4276210D02*
X1360500Y4276210D01*
X1391500Y4276210D02*
X1460500Y4276210D01*
X1192500Y4275210D02*
X1261500Y4275210D01*
X1292500Y4275210D02*
X1360500Y4275210D01*
X1391500Y4275210D02*
X1460500Y4275210D01*
X1192500Y4274210D02*
X1261500Y4274210D01*
X1292500Y4274210D02*
X1360500Y4274210D01*
X1391500Y4274210D02*
X1460500Y4274210D01*
X1192500Y4273210D02*
X1261500Y4273210D01*
X1292500Y4273210D02*
X1360500Y4273210D01*
X1391500Y4273210D02*
X1460500Y4273210D01*
X1192500Y4272210D02*
X1261500Y4272210D01*
X1292500Y4272210D02*
X1360500Y4272210D01*
X1391500Y4272210D02*
X1460500Y4272210D01*
X1192500Y4271210D02*
X1261500Y4271210D01*
X1292500Y4271210D02*
X1360500Y4271210D01*
X1391500Y4271210D02*
X1460500Y4271210D01*
X1192500Y4270210D02*
X1261500Y4270210D01*
X1292500Y4270210D02*
X1360500Y4270210D01*
X1391500Y4270210D02*
X1460500Y4270210D01*
X1192500Y4269210D02*
X1261500Y4269210D01*
X1292500Y4269210D02*
X1360500Y4269210D01*
X1391500Y4269210D02*
X1460500Y4269210D01*
X1192500Y4268210D02*
X1261500Y4268210D01*
X1292500Y4268210D02*
X1360500Y4268210D01*
X1391500Y4268210D02*
X1460500Y4268210D01*
X1192500Y4267210D02*
X1261500Y4267210D01*
X1292500Y4267210D02*
X1360500Y4267210D01*
X1391500Y4267210D02*
X1460500Y4267210D01*
X1192500Y4266210D02*
X1261500Y4266210D01*
X1292500Y4266210D02*
X1360500Y4266210D01*
X1391500Y4266210D02*
X1460500Y4266210D01*
X1192500Y4265210D02*
X1221500Y4265210D01*
X1232500Y4265210D02*
X1261500Y4265210D01*
X1292500Y4265210D02*
X1321500Y4265210D01*
X1331500Y4265210D02*
X1360500Y4265210D01*
X1391500Y4265210D02*
X1420500Y4265210D01*
X1431500Y4265210D02*
X1460500Y4265210D01*
X1192500Y4264210D02*
X1218500Y4264210D01*
X1234500Y4264210D02*
X1261500Y4264210D01*
X1292500Y4264210D02*
X1318500Y4264210D01*
X1334500Y4264210D02*
X1360500Y4264210D01*
X1391500Y4264210D02*
X1418500Y4264210D01*
X1434500Y4264210D02*
X1460500Y4264210D01*
X1192500Y4263210D02*
X1217500Y4263210D01*
X1235500Y4263210D02*
X1261500Y4263210D01*
X1292500Y4263210D02*
X1317500Y4263210D01*
X1335500Y4263210D02*
X1360500Y4263210D01*
X1391500Y4263210D02*
X1417500Y4263210D01*
X1435500Y4263210D02*
X1460500Y4263210D01*
X1192500Y4262210D02*
X1216500Y4262210D01*
X1236500Y4262210D02*
X1261500Y4262210D01*
X1292500Y4262210D02*
X1316500Y4262210D01*
X1336500Y4262210D02*
X1360500Y4262210D01*
X1391500Y4262210D02*
X1416500Y4262210D01*
X1436500Y4262210D02*
X1460500Y4262210D01*
X1192500Y4261210D02*
X1215500Y4261210D01*
X1237500Y4261210D02*
X1261500Y4261210D01*
X1292500Y4261210D02*
X1315500Y4261210D01*
X1337500Y4261210D02*
X1360500Y4261210D01*
X1391500Y4261210D02*
X1414500Y4261210D01*
X1437500Y4261210D02*
X1460500Y4261210D01*
X1192500Y4260210D02*
X1214500Y4260210D01*
X1238500Y4260210D02*
X1261500Y4260210D01*
X1292500Y4260210D02*
X1314500Y4260210D01*
X1338500Y4260210D02*
X1360500Y4260210D01*
X1391500Y4260210D02*
X1414500Y4260210D01*
X1438500Y4260210D02*
X1460500Y4260210D01*
X1192500Y4259210D02*
X1213500Y4259210D01*
X1239500Y4259210D02*
X1261500Y4259210D01*
X1292500Y4259210D02*
X1313500Y4259210D01*
X1339500Y4259210D02*
X1360500Y4259210D01*
X1391500Y4259210D02*
X1413500Y4259210D01*
X1439500Y4259210D02*
X1460500Y4259210D01*
X1192500Y4258210D02*
X1212500Y4258210D01*
X1240500Y4258210D02*
X1261500Y4258210D01*
X1292500Y4258210D02*
X1312500Y4258210D01*
X1340500Y4258210D02*
X1360500Y4258210D01*
X1391500Y4258210D02*
X1412500Y4258210D01*
X1440500Y4258210D02*
X1460500Y4258210D01*
X1192500Y4257210D02*
X1212500Y4257210D01*
X1240500Y4257210D02*
X1261500Y4257210D01*
X1292500Y4257210D02*
X1312500Y4257210D01*
X1340500Y4257210D02*
X1360500Y4257210D01*
X1391500Y4257210D02*
X1412500Y4257210D01*
X1440500Y4257210D02*
X1460500Y4257210D01*
X1192500Y4256210D02*
X1211500Y4256210D01*
X1241500Y4256210D02*
X1261500Y4256210D01*
X1292500Y4256210D02*
X1311500Y4256210D01*
X1341500Y4256210D02*
X1360500Y4256210D01*
X1391500Y4256210D02*
X1411500Y4256210D01*
X1441500Y4256210D02*
X1460500Y4256210D01*
X1192500Y4255210D02*
X1211500Y4255210D01*
X1241500Y4255210D02*
X1261500Y4255210D01*
X1292500Y4255210D02*
X1306500Y4255210D01*
X1309500Y4255210D02*
X1311500Y4255210D01*
X1341500Y4255210D02*
X1360500Y4255210D01*
X1391500Y4255210D02*
X1411500Y4255210D01*
X1441500Y4255210D02*
X1460500Y4255210D01*
X1192500Y4254210D02*
X1211500Y4254210D01*
X1241500Y4254210D02*
X1261500Y4254210D01*
X1292500Y4254210D02*
X1306500Y4254210D01*
X1310500Y4254210D02*
X1311500Y4254210D01*
X1341500Y4254210D02*
X1360500Y4254210D01*
X1391500Y4254210D02*
X1411500Y4254210D01*
X1441500Y4254210D02*
X1460500Y4254210D01*
X1192500Y4253210D02*
X1211500Y4253210D01*
X1241500Y4253210D02*
X1261500Y4253210D01*
X1292500Y4253210D02*
X1306500Y4253210D01*
X1311500Y4253210D02*
X1311500Y4253210D01*
X1341500Y4253210D02*
X1360500Y4253210D01*
X1391500Y4253210D02*
X1411500Y4253210D01*
X1441500Y4253210D02*
X1460500Y4253210D01*
X1192500Y4252210D02*
X1211500Y4252210D01*
X1241500Y4252210D02*
X1261500Y4252210D01*
X1292500Y4252210D02*
X1306500Y4252210D01*
X1341500Y4252210D02*
X1360500Y4252210D01*
X1391500Y4252210D02*
X1411500Y4252210D01*
X1441500Y4252210D02*
X1460500Y4252210D01*
X1192500Y4251210D02*
X1211500Y4251210D01*
X1242500Y4251210D02*
X1261500Y4251210D01*
X1292500Y4251210D02*
X1310500Y4251210D01*
X1341500Y4251210D02*
X1360500Y4251210D01*
X1391500Y4251210D02*
X1411500Y4251210D01*
X1441500Y4251210D02*
X1460500Y4251210D01*
X1192500Y4250210D02*
X1211500Y4250210D01*
X1241500Y4250210D02*
X1261500Y4250210D01*
X1292500Y4250210D02*
X1311500Y4250210D01*
X1341500Y4250210D02*
X1360500Y4250210D01*
X1391500Y4250210D02*
X1411500Y4250210D01*
X1441500Y4250210D02*
X1460500Y4250210D01*
X1192500Y4249210D02*
X1211500Y4249210D01*
X1241500Y4249210D02*
X1261500Y4249210D01*
X1292500Y4249210D02*
X1311500Y4249210D01*
X1341500Y4249210D02*
X1360500Y4249210D01*
X1391500Y4249210D02*
X1411500Y4249210D01*
X1441500Y4249210D02*
X1460500Y4249210D01*
X1192500Y4248210D02*
X1211500Y4248210D01*
X1241500Y4248210D02*
X1261500Y4248210D01*
X1292500Y4248210D02*
X1311500Y4248210D01*
X1341500Y4248210D02*
X1360500Y4248210D01*
X1391500Y4248210D02*
X1411500Y4248210D01*
X1441500Y4248210D02*
X1460500Y4248210D01*
X1192500Y4247210D02*
X1211500Y4247210D01*
X1241500Y4247210D02*
X1261500Y4247210D01*
X1292500Y4247210D02*
X1311500Y4247210D01*
X1341500Y4247210D02*
X1360500Y4247210D01*
X1391500Y4247210D02*
X1411500Y4247210D01*
X1441500Y4247210D02*
X1460500Y4247210D01*
X1192500Y4246210D02*
X1211500Y4246210D01*
X1241500Y4246210D02*
X1261500Y4246210D01*
X1292500Y4246210D02*
X1311500Y4246210D01*
X1341500Y4246210D02*
X1360500Y4246210D01*
X1391500Y4246210D02*
X1411500Y4246210D01*
X1441500Y4246210D02*
X1460500Y4246210D01*
X1192500Y4245210D02*
X1212500Y4245210D01*
X1240500Y4245210D02*
X1261500Y4245210D01*
X1292500Y4245210D02*
X1312500Y4245210D01*
X1340500Y4245210D02*
X1360500Y4245210D01*
X1391500Y4245210D02*
X1412500Y4245210D01*
X1440500Y4245210D02*
X1460500Y4245210D01*
X1192500Y4244210D02*
X1212500Y4244210D01*
X1240500Y4244210D02*
X1261500Y4244210D01*
X1292500Y4244210D02*
X1312500Y4244210D01*
X1340500Y4244210D02*
X1360500Y4244210D01*
X1391500Y4244210D02*
X1412500Y4244210D01*
X1440500Y4244210D02*
X1460500Y4244210D01*
X1192500Y4243210D02*
X1213500Y4243210D01*
X1239500Y4243210D02*
X1261500Y4243210D01*
X1292500Y4243210D02*
X1313500Y4243210D01*
X1339500Y4243210D02*
X1360500Y4243210D01*
X1391500Y4243210D02*
X1413500Y4243210D01*
X1439500Y4243210D02*
X1460500Y4243210D01*
X1192500Y4242210D02*
X1213500Y4242210D01*
X1239500Y4242210D02*
X1261500Y4242210D01*
X1292500Y4242210D02*
X1313500Y4242210D01*
X1339500Y4242210D02*
X1360500Y4242210D01*
X1391500Y4242210D02*
X1413500Y4242210D01*
X1439500Y4242210D02*
X1460500Y4242210D01*
X1192500Y4241210D02*
X1214500Y4241210D01*
X1238500Y4241210D02*
X1261500Y4241210D01*
X1292500Y4241210D02*
X1314500Y4241210D01*
X1338500Y4241210D02*
X1360500Y4241210D01*
X1391500Y4241210D02*
X1414500Y4241210D01*
X1438500Y4241210D02*
X1460500Y4241210D01*
X1192500Y4240210D02*
X1215500Y4240210D01*
X1237500Y4240210D02*
X1261500Y4240210D01*
X1292500Y4240210D02*
X1315500Y4240210D01*
X1337500Y4240210D02*
X1360500Y4240210D01*
X1391500Y4240210D02*
X1415500Y4240210D01*
X1437500Y4240210D02*
X1460500Y4240210D01*
X1192500Y4239210D02*
X1216500Y4239210D01*
X1236500Y4239210D02*
X1261500Y4239210D01*
X1292500Y4239210D02*
X1316500Y4239210D01*
X1336500Y4239210D02*
X1360500Y4239210D01*
X1391500Y4239210D02*
X1416500Y4239210D01*
X1436500Y4239210D02*
X1460500Y4239210D01*
X1192500Y4238210D02*
X1218500Y4238210D01*
X1234500Y4238210D02*
X1261500Y4238210D01*
X1292500Y4238210D02*
X1318500Y4238210D01*
X1334500Y4238210D02*
X1360500Y4238210D01*
X1391500Y4238210D02*
X1418500Y4238210D01*
X1434500Y4238210D02*
X1460500Y4238210D01*
X1192500Y4237210D02*
X1220500Y4237210D01*
X1232500Y4237210D02*
X1261500Y4237210D01*
X1292500Y4237210D02*
X1320500Y4237210D01*
X1332500Y4237210D02*
X1360500Y4237210D01*
X1391500Y4237210D02*
X1419500Y4237210D01*
X1432500Y4237210D02*
X1460500Y4237210D01*
X1192500Y4236210D02*
X1224500Y4236210D01*
X1228500Y4236210D02*
X1261500Y4236210D01*
X1292500Y4236210D02*
X1324500Y4236210D01*
X1328500Y4236210D02*
X1360500Y4236210D01*
X1391500Y4236210D02*
X1423500Y4236210D01*
X1428500Y4236210D02*
X1460500Y4236210D01*
X1192500Y4235210D02*
X1261500Y4235210D01*
X1292500Y4235210D02*
X1360500Y4235210D01*
X1391500Y4235210D02*
X1460500Y4235210D01*
X1192500Y4234210D02*
X1261500Y4234210D01*
X1292500Y4234210D02*
X1360500Y4234210D01*
X1391500Y4234210D02*
X1460500Y4234210D01*
X1192500Y4233210D02*
X1261500Y4233210D01*
X1292500Y4233210D02*
X1360500Y4233210D01*
X1391500Y4233210D02*
X1460500Y4233210D01*
X1192500Y4232210D02*
X1261500Y4232210D01*
X1292500Y4232210D02*
X1360500Y4232210D01*
X1391500Y4232210D02*
X1460500Y4232210D01*
X1192500Y4231210D02*
X1261500Y4231210D01*
X1292500Y4231210D02*
X1360500Y4231210D01*
X1391500Y4231210D02*
X1460500Y4231210D01*
X1192500Y4230210D02*
X1261500Y4230210D01*
X1292500Y4230210D02*
X1360500Y4230210D01*
X1391500Y4230210D02*
X1460500Y4230210D01*
X1192500Y4229210D02*
X1261500Y4229210D01*
X1292500Y4229210D02*
X1360500Y4229210D01*
X1391500Y4229210D02*
X1460500Y4229210D01*
X1192500Y4228210D02*
X1261500Y4228210D01*
X1292500Y4228210D02*
X1360500Y4228210D01*
X1391500Y4228210D02*
X1460500Y4228210D01*
X1192500Y4227210D02*
X1261500Y4227210D01*
X1292500Y4227210D02*
X1360500Y4227210D01*
X1391500Y4227210D02*
X1460500Y4227210D01*
X1192500Y4226210D02*
X1261500Y4226210D01*
X1292500Y4226210D02*
X1360500Y4226210D01*
X1391500Y4226210D02*
X1460500Y4226210D01*
X1192500Y4225210D02*
X1261500Y4225210D01*
X1292500Y4225210D02*
X1360500Y4225210D01*
X1391500Y4225210D02*
X1460500Y4225210D01*
X1192500Y4224210D02*
X1261500Y4224210D01*
X1292500Y4224210D02*
X1360500Y4224210D01*
X1391500Y4224210D02*
X1460500Y4224210D01*
X1192500Y4223210D02*
X1261500Y4223210D01*
X1292500Y4223210D02*
X1360500Y4223210D01*
X1391500Y4223210D02*
X1460500Y4223210D01*
X1192500Y4222210D02*
X1261500Y4222210D01*
X1292500Y4222210D02*
X1360500Y4222210D01*
X1391500Y4222210D02*
X1460500Y4222210D01*
X1192500Y4221210D02*
X1261500Y4221210D01*
X1292500Y4221210D02*
X1360500Y4221210D01*
X1391500Y4221210D02*
X1460500Y4221210D01*
X1192500Y4220210D02*
X1260500Y4220210D01*
X1292500Y4220210D02*
X1360500Y4220210D01*
X1392500Y4220210D02*
X1460500Y4220210D01*
X1192500Y4219210D02*
X1260500Y4219210D01*
X1292500Y4219210D02*
X1360500Y4219210D01*
X1392500Y4219210D02*
X1460500Y4219210D01*
X1192500Y4218210D02*
X1260500Y4218210D01*
X1292500Y4218210D02*
X1360500Y4218210D01*
X1392500Y4218210D02*
X1460500Y4218210D01*
X1192500Y4217210D02*
X1260500Y4217210D01*
X1292500Y4217210D02*
X1360500Y4217210D01*
X1392500Y4217210D02*
X1460500Y4217210D01*
X1192500Y4216210D02*
X1260500Y4216210D01*
X1292500Y4216210D02*
X1360500Y4216210D01*
X1392500Y4216210D02*
X1460500Y4216210D01*
X1192500Y4215210D02*
X1260500Y4215210D01*
X1292500Y4215210D02*
X1360500Y4215210D01*
X1392500Y4215210D02*
X1460500Y4215210D01*
X1192500Y4214210D02*
X1260500Y4214210D01*
X1292500Y4214210D02*
X1360500Y4214210D01*
X1392500Y4214210D02*
X1460500Y4214210D01*
X1193500Y4213210D02*
X1260500Y4213210D01*
X1292500Y4213210D02*
X1359500Y4213210D01*
X1392500Y4213210D02*
X1459500Y4213210D01*
X1193500Y4212210D02*
X1259500Y4212210D01*
X1293500Y4212210D02*
X1359500Y4212210D01*
X1393500Y4212210D02*
X1459500Y4212210D01*
X1193500Y4211210D02*
X1259500Y4211210D01*
X1293500Y4211210D02*
X1359500Y4211210D01*
X1393500Y4211210D02*
X1459500Y4211210D01*
X1193500Y4210210D02*
X1259500Y4210210D01*
X1293500Y4210210D02*
X1359500Y4210210D01*
X1393500Y4210210D02*
X1459500Y4210210D01*
X1194500Y4209210D02*
X1258500Y4209210D01*
X1294500Y4209210D02*
X1358500Y4209210D01*
X1394500Y4209210D02*
X1458500Y4209210D01*
X1194500Y4208210D02*
X1258500Y4208210D01*
X1294500Y4208210D02*
X1358500Y4208210D01*
X1394500Y4208210D02*
X1458500Y4208210D01*
X1195500Y4207210D02*
X1258500Y4207210D01*
X1294500Y4207210D02*
X1358500Y4207210D01*
X1394500Y4207210D02*
X1457500Y4207210D01*
X1195500Y4206210D02*
X1257500Y4206210D01*
X1295500Y4206210D02*
X1357500Y4206210D01*
X1395500Y4206210D02*
X1457500Y4206210D01*
X1195500Y4205210D02*
X1257500Y4205210D01*
X1295500Y4205210D02*
X1357500Y4205210D01*
X1395500Y4205210D02*
X1457500Y4205210D01*
X1196500Y4204210D02*
X1256500Y4204210D01*
X1296500Y4204210D02*
X1356500Y4204210D01*
X1396500Y4204210D02*
X1456500Y4204210D01*
X1197500Y4203210D02*
X1256500Y4203210D01*
X1297500Y4203210D02*
X1355500Y4203210D01*
X1396500Y4203210D02*
X1455500Y4203210D01*
X1197500Y4202210D02*
X1255500Y4202210D01*
X1297500Y4202210D02*
X1355500Y4202210D01*
X1397500Y4202210D02*
X1455500Y4202210D01*
X1198500Y4201210D02*
X1254500Y4201210D01*
X1298500Y4201210D02*
X1354500Y4201210D01*
X1398500Y4201210D02*
X1454500Y4201210D01*
X1199500Y4200210D02*
X1254500Y4200210D01*
X1298500Y4200210D02*
X1353500Y4200210D01*
X1398500Y4200210D02*
X1453500Y4200210D01*
X1199500Y4199210D02*
X1253500Y4199210D01*
X1299500Y4199210D02*
X1353500Y4199210D01*
X1399500Y4199210D02*
X1453500Y4199210D01*
X1200500Y4198210D02*
X1252500Y4198210D01*
X1300500Y4198210D02*
X1352500Y4198210D01*
X1400500Y4198210D02*
X1452500Y4198210D01*
X1201500Y4197210D02*
X1251500Y4197210D01*
X1301500Y4197210D02*
X1351500Y4197210D01*
X1401500Y4197210D02*
X1451500Y4197210D01*
X1202500Y4196210D02*
X1250500Y4196210D01*
X1302500Y4196210D02*
X1350500Y4196210D01*
X1402500Y4196210D02*
X1450500Y4196210D01*
X1203500Y4195210D02*
X1249500Y4195210D01*
X1303500Y4195210D02*
X1349500Y4195210D01*
X1403500Y4195210D02*
X1449500Y4195210D01*
X1204500Y4194210D02*
X1248500Y4194210D01*
X1304500Y4194210D02*
X1348500Y4194210D01*
X1404500Y4194210D02*
X1448500Y4194210D01*
X1205500Y4193210D02*
X1247500Y4193210D01*
X1305500Y4193210D02*
X1347500Y4193210D01*
X1405500Y4193210D02*
X1447500Y4193210D01*
X1207500Y4192210D02*
X1245500Y4192210D01*
X1307500Y4192210D02*
X1345500Y4192210D01*
X1407500Y4192210D02*
X1445500Y4192210D01*
X1208500Y4191210D02*
X1244500Y4191210D01*
X1308500Y4191210D02*
X1344500Y4191210D01*
X1408500Y4191210D02*
X1444500Y4191210D01*
X1210500Y4190210D02*
X1242500Y4190210D01*
X1310500Y4190210D02*
X1342500Y4190210D01*
X1410500Y4190210D02*
X1442500Y4190210D01*
X1212500Y4189210D02*
X1240500Y4189210D01*
X1312500Y4189210D02*
X1340500Y4189210D01*
X1412500Y4189210D02*
X1440500Y4189210D01*
X1215500Y4188210D02*
X1237500Y4188210D01*
X1315500Y4188210D02*
X1337500Y4188210D01*
X1415500Y4188210D02*
X1437500Y4188210D01*
X1218500Y4187210D02*
X1234500Y4187210D01*
X1318500Y4187210D02*
X1334500Y4187210D01*
X1418500Y4187210D02*
X1434500Y4187210D01*
X1223500Y4186210D02*
X1229500Y4186210D01*
X1323500Y4186210D02*
X1329500Y4186210D01*
X1423500Y4186210D02*
X1429500Y4186210D01*
D02*
G04 End of Mask1*
M02*