; NON-PLATED HOLES START AT T1
; THROUGH (PLATED) HOLES START AT T100
M48
INCH
T1C0.130000
T100C0.040000
T101C0.041361
T102C0.015748
T103C0.042000
T104C0.035000
T105C0.088356
T106C0.045000
T107C0.030000
T108C0.043307
T109C0.031497
T110C0.027559
T111C0.041333
T112C0.046472
%
T1
X013271Y036610
T100
X014182Y022795
X014182Y023865
X014182Y021725
X014227Y033557
X014227Y032487
X014227Y031417
T101
X007284Y031330
X005054Y004169
X005013Y025787
X005013Y014754
X005013Y020317
X004998Y009525
T102
X007697Y016148
X006223Y009003
X006363Y024870
X008660Y025536
X009326Y017073
T103
X006289Y033759
X009269Y033759
X010404Y010383
X010404Y007403
T104
X009961Y011884
X010210Y004330
X008702Y003374
X007936Y026079
X008702Y006374
X012294Y027021
X012915Y034594
X009899Y032719
X010936Y026079
X013090Y013682
X010899Y035719
X012117Y030335
X012294Y028793
X007592Y006614
X014853Y028793
X011117Y030335
X014853Y027021
X009899Y035719
X003233Y029782
X003233Y032782
X010899Y032719
X008899Y032719
X005899Y035719
X013090Y016682
X009915Y034594
X013210Y004330
X006899Y032719
X007899Y032719
X009961Y014884
X012387Y039618
X011899Y032719
X007592Y003614
X012387Y040618
X005899Y032719
X008899Y035719
X006899Y035719
X007899Y035719
X011899Y035719
T105
X002045Y006583
X010225Y028377
X002060Y017376
X002060Y026728
X002060Y015695
X006342Y028377
X002045Y010466
X002060Y021259
X002101Y001227
X002060Y022845
X002101Y005110
X002060Y011812
T106
X008995Y001782
X003873Y038116
X000625Y038116
X013973Y010592
X013973Y007344
X005113Y038116
X010235Y001782
X006180Y038149
X013973Y006104
X010668Y038149
X013483Y001782
X009428Y038149
T107
X014109Y038472
X015137Y038357
X011592Y016049
X012136Y006428
X002588Y027846
X012109Y038472
X000588Y027846
X009592Y016049
X010136Y006428
X015137Y040357
T108
X006950Y041991
X001950Y041991
X001950Y040991
X006950Y040991
X007950Y041991
X002950Y040991
X005950Y040991
X007950Y040991
X002950Y041991
X005950Y041991
X004950Y040991
X004950Y041991
X003950Y040991
X003950Y041991
X008950Y041991
X008950Y040991
T109
X006730Y008099
X006730Y012965
X006730Y022999
X006730Y018968
X006730Y017984
X006730Y011981
X006730Y007115
X006730Y002222
X006730Y023984
X006730Y001237
T110
X008644Y010936
X001167Y028789
X004167Y031789
X011286Y018344
X011286Y019344
X011286Y022344
X011644Y013936
X004167Y033789
X011644Y008936
X008644Y007936
X008286Y020344
X004167Y034789
X001167Y035789
X008286Y024344
X008286Y021344
X008644Y011936
X008286Y023344
X004167Y028789
X001167Y031789
X008644Y014936
X001167Y034789
X004167Y035789
X011286Y017344
X008644Y009936
X011644Y012936
X001167Y033789
X011286Y024344
X008644Y013936
X011286Y020344
X011644Y010936
X001167Y029789
X001167Y032789
X001167Y030789
X008286Y019344
X008286Y022344
X008286Y018344
X011644Y007936
X008644Y008936
X004167Y032789
X004167Y029789
X008286Y017344
X004167Y030789
X011644Y011936
X008644Y012936
X011644Y009936
X011644Y014936
X011286Y023344
X011286Y021344
T111
X005054Y003169
X005013Y013753
X004998Y008525
X004998Y007525
X005013Y012753
X009284Y031330
X005013Y018317
X005013Y023787
X005013Y019317
X005013Y024787
X008284Y031330
X005054Y002169
T112
X014271Y042510
X012271Y042510
X013271Y042510
T00
M30
