; NON-PLATED HOLES START AT T1
; THROUGH (PLATED) HOLES START AT T100
M48
INCH
T100C0.035000
T101C0.015748
T102C0.027559
T103C0.088356
T104C0.041333
T105C0.040000
T106C0.045000
T107C0.041361
T108C0.031497
T109C0.030000
T110C0.043307
T111C0.042000
%
T100
X014027Y004424
X012871Y005203
X005899Y035719
X009961Y014884
X003233Y032782
X008702Y003374
X013090Y013682
X010899Y035719
X007899Y032719
X009899Y035719
X006899Y035719
X011693Y034705
X012276Y042396
X008693Y034705
X013561Y031335
X005899Y032719
X011027Y004424
X010714Y026190
X009871Y005203
X007592Y006614
X007899Y035719
X009899Y032719
X013169Y036038
X010899Y032719
X006899Y032719
X012561Y031335
X009961Y011884
X015044Y019941
X007714Y026190
X014941Y033479
X011899Y032719
X008899Y035719
X007592Y003614
X008702Y006374
X012276Y041396
X003233Y029782
X011899Y035719
X013169Y033479
X013090Y016682
X015044Y022941
X008899Y032719
X014941Y036038
T101
X006223Y009003
X006363Y024870
X008660Y025536
X009326Y017073
X007697Y016148
T102
X011644Y010936
X011644Y009936
X004167Y028789
X001167Y032789
X004167Y035789
X008286Y022344
X004167Y033789
X011644Y013936
X011644Y012936
X008286Y017344
X004167Y034789
X008644Y008936
X011286Y024344
X001167Y031789
X011644Y014936
X008286Y019344
X011286Y022344
X008644Y009936
X008644Y010936
X008644Y014936
X008286Y024344
X001167Y030789
X011286Y019344
X011644Y008936
X001167Y029789
X008644Y012936
X008644Y013936
X011286Y017344
X008286Y018344
X001167Y034789
X011286Y021344
X011286Y020344
X004167Y031789
X011286Y023344
X001167Y035789
X004167Y032789
X001167Y028789
X011644Y007936
X001167Y033789
X011644Y011936
X004167Y030789
X008286Y020344
X011286Y018344
X008286Y021344
X004167Y029789
X008644Y011936
X008644Y007936
X008286Y023344
T103
X006453Y028377
X002060Y021259
X002101Y001227
X002045Y010466
X002101Y005110
X002045Y006583
X002060Y011812
X002060Y017376
X002060Y026728
X010336Y028377
X002060Y015695
X002060Y022845
T104
X005013Y023787
X005013Y012753
X004998Y007525
X005054Y003169
X005013Y019317
X004998Y008525
X008395Y031330
X005013Y013753
X005013Y018317
X009395Y031330
X005054Y002169
X005013Y024787
T105
X014511Y029277
X013449Y038635
X014519Y038635
X012371Y029277
X012379Y038635
X013441Y029277
T106
X014483Y002226
X003873Y038116
X006180Y038149
X013973Y024122
X010668Y038149
X011235Y002226
X005113Y038116
X013973Y027370
X009995Y002226
X000625Y038116
X009428Y038149
X013973Y022881
T107
X005013Y025787
X005013Y020317
X005054Y004169
X004998Y009525
X007395Y031330
X005013Y014754
T108
X006730Y008099
X006730Y011981
X006730Y012965
X006730Y022999
X006730Y018968
X006730Y002222
X006730Y023984
X006730Y007115
X006730Y001237
X006730Y017984
T109
X011220Y040250
X012136Y006428
X009592Y016049
X011592Y016049
X013220Y040250
X010136Y006428
X014804Y040023
X002588Y027846
X014804Y042023
X000588Y027846
T110
X002950Y041991
X003950Y041991
X006950Y040991
X005950Y040991
X004950Y040991
X001950Y041991
X007950Y040991
X008950Y041991
X008950Y040991
X007950Y041991
X001950Y040991
X004950Y041991
X005950Y041991
X006950Y041991
X003950Y040991
X002950Y040991
T111
X010404Y007403
X006289Y033759
X009269Y033759
X010404Y010383
T00
M30
